<svg xmlns="http://www.w3.org/2000/svg" width="148.617" height="97.488" viewBox="0 0 148.617 97.488">
  <g id="Grupo_59556" data-name="Grupo 59556" transform="translate(19.354 761.708)">
    <g id="Grupo_59555" data-name="Grupo 59555" transform="translate(31.782 -761.708)">
      <path id="Trazado_124899" data-name="Trazado 124899" d="M90.752-711.447,21.361-743.16c0,5.652,55.1,36.58,55.1,36.58s11.618-2.512,19.624,2.2Z" transform="translate(-21.361 766.455)"/>
      <path id="Trazado_124900" data-name="Trazado 124900" d="M71.62-692.317,39.907-761.708c5.652,0,36.58,55.1,36.58,55.1s-2.512,11.618,2.2,19.624Z" transform="translate(-16.614 761.708)"/>
      <path id="Trazado_124901" data-name="Trazado 124901" d="M58.132-692.356l4.283,8.3a10.812,10.812,0,0,0,9.433,5.953,9.366,9.366,0,0,0,4.332-1.044c4.9-2.523,6.694-8.842,4.006-14.078l-4.282-8.3a11.234,11.234,0,0,0-3.479-4.007,10.309,10.309,0,0,0-5.727-1.934,1.247,1.247,0,0,0-.227-.014,9.441,9.441,0,0,0-4.346,1.044C57.229-703.91,55.432-697.592,58.132-692.356Zm6-10.159c2.749-1.419,6.28-.063,7.861,3.014l4.283,8.3c1.57,3.065.628,6.732-2.11,8.139s-6.266.063-7.85-3.016l-4.282-8.3C60.456-697.442,61.4-701.109,64.137-702.516Z" transform="translate(-12.271 775.588)"/>
      <path id="Trazado_124902" data-name="Trazado 124902" d="M75.6-716.6a1.526,1.526,0,0,0,.013.239,10.263,10.263,0,0,0,1.934,5.715,11.255,11.255,0,0,0,4.006,3.492l8.3,4.27c5.237,2.7,11.542.9,14.065-3.994a9.369,9.369,0,0,0,1.042-4.333,10.843,10.843,0,0,0-5.952-9.445l-8.3-4.271c-5.237-2.7-11.542-.9-14.065,4A9.367,9.367,0,0,0,75.6-716.6Zm7.963,5.539c-3.065-1.583-4.421-5.126-3.014-7.862s5.074-3.68,8.152-2.1l8.3,4.27c3.063,1.581,4.421,5.124,3.013,7.861s-5.074,3.681-8.15,2.1Z" transform="translate(-7.479 770.799)"/>
      <circle id="Elipse_4595" data-name="Elipse 4595" cx="1.78" cy="1.78" r="1.78" transform="translate(50.818 50.552)"/>
    </g>
    <line id="Línea_649" data-name="Línea 649" x2="117.342" transform="translate(-19.354 -743.155)" fill="none" stroke="#d32f2f" stroke-miterlimit="10" stroke-width="3" stroke-dasharray="12"/>
  </g>
</svg>
