<svg xmlns="http://www.w3.org/2000/svg" width="130.424" height="79.018" viewBox="0 0 130.424 79.018">
  <g id="Grupo_59584" data-name="Grupo 59584" transform="translate(-143.777 909.955)">
    <g id="Grupo_59582" data-name="Grupo 59582" transform="translate(144.277 -909.455)">
      <path id="Trazado_124905" data-name="Trazado 124905" d="M273.7-833.289H183.285a37.2,37.2,0,0,1-37.157-37.157A37.2,37.2,0,0,1,183.285-907.6H273.7v-1.851H183.285a39.053,39.053,0,0,0-39.008,39.008,39.052,39.052,0,0,0,39.008,39.008H273.7Z" transform="translate(-144.277 909.455)" fill="#d32f2f" stroke="#d32f2f" stroke-width="1"/>
    </g>
    <g id="Grupo_59583" data-name="Grupo 59583" transform="translate(165.844 -893.692)">
      <path id="Trazado_124906" data-name="Trazado 124906" d="M287.089-839.267H202.478a21.418,21.418,0,0,1-21.395-21.395,21.418,21.418,0,0,1,21.395-21.394h84.611v-1.851H202.478a23.271,23.271,0,0,0-23.246,23.245,23.272,23.272,0,0,0,23.246,23.246h84.611Z" transform="translate(-179.232 883.907)"/>
    </g>
  </g>
</svg>
