<svg xmlns="http://www.w3.org/2000/svg" width="109.118" height="118" viewBox="0 0 109.118 118">
  <g id="Grupo_59547" data-name="Grupo 59547" transform="translate(-181.875 608.637)">
    <g id="Grupo_59545" data-name="Grupo 59545" transform="translate(220.916 -608.637)">
      <g id="Grupo_59544" data-name="Grupo 59544">
        <path id="Trazado_124895" data-name="Trazado 124895" d="M225.54-582.007l19.545-19.4-26.573-7.231Z" transform="translate(-218.512 608.637)"/>
      </g>
    </g>
    <g id="Grupo_59546" data-name="Grupo 59546" transform="translate(181.875 -599.754)">
      <path id="Trazado_124896" data-name="Trazado 124896" d="M257.053-596.239c-1.7,1.279-3.439,2.52-5.17,3.766a49.3,49.3,0,0,1,33.782,46.73,49.286,49.286,0,0,1-49.23,49.23,49.287,49.287,0,0,1-49.231-49.23,49.287,49.287,0,0,1,49.231-49.23c.939,0,1.871.033,2.8.085a35.537,35.537,0,0,1,4.64-4.892,54.722,54.722,0,0,0-7.437-.521,54.621,54.621,0,0,0-54.559,54.558,54.621,54.621,0,0,0,54.559,54.558,54.621,54.621,0,0,0,54.558-54.558A54.628,54.628,0,0,0,257.053-596.239Z" transform="translate(-181.875 600.301)"/>
    </g>
  </g>
</svg>
