<svg xmlns="http://www.w3.org/2000/svg" width="258" height="186" viewBox="0 0 258 186">
  <g id="Grupo_60113" data-name="Grupo 60113" transform="translate(-1125 -4674)">
    <rect id="Rect치ngulo_30705" data-name="Rect치ngulo 30705" width="258" height="186" transform="translate(1125 4674)" fill="none"/>
    <g id="Grupo_60057" data-name="Grupo 60057" transform="translate(424.999 5398.748)">
      <g id="Grupo_60051" data-name="Grupo 60051" transform="translate(715.001 -673.748)">
        <path id="Trazado_125533" data-name="Trazado 125533" d="M763.535-666.675a27.429,27.429,0,0,0-17.279-7.057,8.468,8.468,0,0,1-3.173-.016,28.117,28.117,0,0,0-21.6,10.97,27.142,27.142,0,0,0-6.288,17.073,4.186,4.186,0,0,0,0,2.523v0l.028.737a3.758,3.758,0,0,0,.227,1.938v0a22.4,22.4,0,0,0,2.647,8.734,9.682,9.682,0,0,0,1.6,2.868h0a22.215,22.215,0,0,0,4.54,5.559l1.256,1.364h0c.171.253.323.522.514.759a32.441,32.441,0,0,1,5.963,11.233c.437,1.473.868,2.948,1.3,4.421h0a.96.96,0,0,0,.23.837c.535.227.856.812,1.477.885,6.146.19,12.3.054,18.446.064a1.894,1.894,0,0,0,1.342-.454,1,1,0,0,0,.229-.809h0l2.3-7.455c-.027-.394-.057-.789.383-1,2.183-4.551,5.411-8.3,8.83-11.964a25.113,25.113,0,0,0,6.256-12.212,10.421,10.421,0,0,0,.587-3.376h0a4.4,4.4,0,0,0,.189-.754C774.251-651.721,770.975-660.075,763.535-666.675ZM724.8-623.883c.01-.01.02-.018.03-.026l.028.007C724.842-623.9,724.823-623.89,724.8-623.883ZM771.8-639.25v.014c0,.008-.007.017-.012.025Z" transform="translate(-715.001 673.748)" fill="#fdd34a"/>
        <path id="Trazado_125534" data-name="Trazado 125534" d="M753.676-532.106q9.036-.012,18.071-.023c.791,0,1.581.03,2.371.047-.29,3.2-.548,6.412-.88,9.613a4.849,4.849,0,0,1-4.78,4.441q-4.959.105-9.922,0a4.829,4.829,0,0,1-4.823-4.387c-.289-3.2-.516-6.412-.769-9.619A.464.464,0,0,1,753.676-532.106Z" transform="translate(-734.348 601.598)" fill="#59595b"/>
        <path id="Trazado_125535" data-name="Trazado 125535" d="M764.729-523.458c2.586-.161,5.547.226,8.492-.2.4-.058.739.087.745.531.007.528-.444.459-.78.461-1.811.009-3.624.057-5.432-.009-3.784-.138-7.565.581-11.348.021-.373-.055-.971.1-.966-.41s.6-.39.976-.392C759.065-523.462,761.715-523.458,764.729-523.458Z" transform="translate(-735.62 597.221)" fill="#818284"/>
        <path id="Trazado_125536" data-name="Trazado 125536" d="M764.714-517.317c-2.65,0-5.3.01-7.948-.011-.38,0-1.044.225-1.015-.443.023-.522.633-.342.994-.344,3.709-.018,7.419-.061,11.127,0,1.683.028,3.337-.272,5.01-.252.452.005,1.146-.172,1.17.5.026.7-.68.534-1.126.537-2.738.016-5.475.008-8.213.008Z" transform="translate(-735.779 594.528)" fill="#818284"/>
      </g>
      <g id="Grupo_60052" data-name="Grupo 60052" transform="translate(883.718 -673.748)">
        <path id="Trazado_125537" data-name="Trazado 125537" d="M1107.784-666.675a27.429,27.429,0,0,0-17.279-7.057,8.468,8.468,0,0,1-3.173-.016,28.117,28.117,0,0,0-21.6,10.97,27.144,27.144,0,0,0-6.288,17.073,4.186,4.186,0,0,0,0,2.523v0l.028.737a3.764,3.764,0,0,0,.228,1.938v0a22.4,22.4,0,0,0,2.646,8.734,9.687,9.687,0,0,0,1.6,2.868h0a22.212,22.212,0,0,0,4.541,5.559l1.256,1.364h0c.17.253.323.522.514.759a32.44,32.44,0,0,1,5.963,11.233q.656,2.209,1.3,4.421h0a.961.961,0,0,0,.23.837c.535.227.856.812,1.477.885,6.146.19,12.3.054,18.446.064a1.894,1.894,0,0,0,1.342-.454,1,1,0,0,0,.229-.809h0q1.151-3.728,2.3-7.455c-.028-.394-.057-.789.383-1,2.183-4.551,5.411-8.3,8.83-11.964a25.113,25.113,0,0,0,6.256-12.212,10.425,10.425,0,0,0,.587-3.376h0a4.405,4.405,0,0,0,.189-.754C1118.5-651.721,1115.225-660.075,1107.784-666.675Zm-38.732,42.792c.01-.01.02-.018.03-.026l.028.007Zm46.995-15.367v.014c0,.008-.007.017-.012.025Z" transform="translate(-1059.25 673.748)" fill="#90bcd0"/>
        <path id="Trazado_125538" data-name="Trazado 125538" d="M1097.925-532.106q9.036-.012,18.071-.023c.791,0,1.581.03,2.371.047-.29,3.2-.548,6.412-.88,9.613a4.849,4.849,0,0,1-4.78,4.441q-4.959.105-9.922,0a4.829,4.829,0,0,1-4.823-4.387c-.289-3.2-.516-6.412-.769-9.619A.464.464,0,0,1,1097.925-532.106Z" transform="translate(-1078.597 601.598)" fill="#59595b"/>
        <path id="Trazado_125539" data-name="Trazado 125539" d="M1108.978-523.458c2.586-.161,5.547.226,8.492-.2.4-.058.739.087.745.531.007.528-.444.459-.78.461-1.811.009-3.624.057-5.432-.009-3.784-.138-7.565.581-11.348.021-.373-.055-.971.1-.966-.41s.6-.39.976-.392C1103.314-523.462,1105.964-523.458,1108.978-523.458Z" transform="translate(-1079.869 597.221)" fill="#818284"/>
        <path id="Trazado_125540" data-name="Trazado 125540" d="M1108.963-517.317c-2.649,0-5.3.01-7.948-.011-.38,0-1.044.225-1.015-.443.023-.522.633-.342.994-.344,3.709-.018,7.419-.061,11.127,0,1.683.028,3.337-.272,5.01-.252.453.005,1.146-.172,1.17.5.026.7-.68.534-1.125.537-2.738.016-5.476.008-8.214.008Z" transform="translate(-1080.028 594.528)" fill="#818284"/>
      </g>
      <g id="Grupo_60056" data-name="Grupo 60056" transform="translate(781.413 -647.39)">
        <g id="Grupo_60053" data-name="Grupo 60053" transform="translate(10.331 5.934)">
          <rect id="Rect치ngulo_30774" data-name="Rect치ngulo 30774" width="73.869" height="4.411"/>
        </g>
        <g id="Grupo_60054" data-name="Grupo 60054" transform="translate(0 0)">
          <path id="Trazado_125541" data-name="Trazado 125541" d="M850.508-611.828c4.861,1.8,10.893,4.881,14.631,8.141l-2.945-8.141,2.945-8.14C861.4-616.708,855.369-613.63,850.508-611.828Z" transform="translate(-850.508 619.968)"/>
        </g>
        <g id="Grupo_60055" data-name="Grupo 60055" transform="translate(79.9 0)">
          <path id="Trazado_125542" data-name="Trazado 125542" d="M1028.167-611.828c-4.861,1.8-10.893,4.881-14.631,8.141l2.945-8.141-2.945-8.14C1017.275-616.708,1023.306-613.63,1028.167-611.828Z" transform="translate(-1013.536 619.968)"/>
        </g>
      </g>
    </g>
  </g>
</svg>
