<svg xmlns="http://www.w3.org/2000/svg" width="258" height="186" viewBox="0 0 258 186">
  <g id="Grupo_60112" data-name="Grupo 60112" transform="translate(-1125 -5019)">
    <rect id="Rectángulo_30712" data-name="Rectángulo 30712" width="258" height="186" transform="translate(1125 5019)" fill="none"/>
    <g id="Grupo_60099" data-name="Grupo 60099" transform="translate(457.266 5560.243)">
      <circle id="Elipse_4621" data-name="Elipse 4621" cx="26.756" cy="26.756" r="26.756" transform="translate(692.599 -475.159)" fill="#fdd34a"/>
      <g id="Grupo_60058" data-name="Grupo 60058" transform="translate(685.941 -482.036)">
        <path id="Trazado_125543" data-name="Trazado 125543" d="M826.586-335.208c-1.827-1.827-5.954-8.722-4.247-10.43s8.6,2.42,10.43,4.247a4.533,4.533,0,0,1,.217,6.4A4.533,4.533,0,0,1,826.586-335.208Z" transform="translate(-766.938 401.039)" fill="#fdd34a"/>
        <path id="Trazado_125544" data-name="Trazado 125544" d="M708.273-465.887c1.827,1.827,5.954,8.722,4.247,10.43s-8.6-2.42-10.43-4.247a4.533,4.533,0,0,1-.217-6.4A4.533,4.533,0,0,1,708.273-465.887Z" transform="translate(-700.654 467.324)" fill="#fdd34a"/>
      </g>
      <g id="Grupo_60059" data-name="Grupo 60059" transform="translate(685.941 -482.036)">
        <path id="Trazado_125545" data-name="Trazado 125545" d="M832.769-459.7c-1.827,1.827-8.722,5.954-10.43,4.247s2.42-8.6,4.247-10.43a4.533,4.533,0,0,1,6.4-.217A4.533,4.533,0,0,1,832.769-459.7Z" transform="translate(-766.938 467.324)" fill="#fdd34a"/>
        <path id="Trazado_125546" data-name="Trazado 125546" d="M702.09-341.391c1.827-1.827,8.722-5.954,10.43-4.247s-2.42,8.6-4.247,10.43a4.533,4.533,0,0,1-6.4.217A4.533,4.533,0,0,1,702.09-341.391Z" transform="translate(-700.654 401.039)" fill="#fdd34a"/>
      </g>
      <g id="Grupo_60060" data-name="Grupo 60060" transform="translate(673.734 -452.774)">
        <path id="Trazado_125547" data-name="Trazado 125547" d="M853.089-394.05c-2.584,0-10.377-1.958-10.377-4.372s7.794-4.372,10.377-4.372a4.533,4.533,0,0,1,4.679,4.372A4.533,4.533,0,0,1,853.089-394.05Z" transform="translate(-766.087 402.794)" fill="#fdd34a"/>
        <path id="Trazado_125548" data-name="Trazado 125548" d="M678.413-402.794c2.584,0,10.378,1.958,10.378,4.372S681-394.05,678.413-394.05a4.534,4.534,0,0,1-4.679-4.372A4.533,4.533,0,0,1,678.413-402.794Z" transform="translate(-673.734 402.794)" fill="#fdd34a"/>
      </g>
      <g id="Grupo_60061" data-name="Grupo 60061" transform="translate(715.203 -494.243)">
        <path id="Trazado_125549" data-name="Trazado 125549" d="M773.927-489.564c0,2.584-1.958,10.377-4.372,10.377s-4.372-7.794-4.372-10.377a4.533,4.533,0,0,1,4.372-4.679A4.533,4.533,0,0,1,773.927-489.564Z" transform="translate(-765.183 494.243)" fill="#fdd34a"/>
        <path id="Trazado_125550" data-name="Trazado 125550" d="M765.183-314.888c0-2.584,1.958-10.378,4.372-10.378s4.372,7.794,4.372,10.378a4.533,4.533,0,0,1-4.372,4.679A4.534,4.534,0,0,1,765.183-314.888Z" transform="translate(-765.183 401.89)" fill="#fdd34a"/>
      </g>
      <g id="Grupo_60094" data-name="Grupo 60094" transform="translate(854.696 -485.606)">
        <g id="Grupo_60062" data-name="Grupo 60062" transform="translate(21.046 27.497)">
          <path id="Trazado_125551" data-name="Trazado 125551" d="M1130.234-392.522a11.032,11.032,0,0,1-11.019-11.019,11.031,11.031,0,0,1,11.019-11.019,11.031,11.031,0,0,1,11.019,11.019A11.031,11.031,0,0,1,1130.234-392.522Zm0-18.921a7.91,7.91,0,0,0-7.9,7.9,7.911,7.911,0,0,0,7.9,7.9,7.911,7.911,0,0,0,7.9-7.9A7.91,7.91,0,0,0,1130.234-411.443Z" transform="translate(-1119.215 414.56)" fill="#1ca8e4"/>
        </g>
        <g id="Grupo_60063" data-name="Grupo 60063" transform="translate(26.93 33.381)">
          <circle id="Elipse_4622" data-name="Elipse 4622" cx="5.135" cy="5.135" r="5.135" fill="#1ca8e4"/>
        </g>
        <g id="Grupo_60073" data-name="Grupo 60073" transform="translate(0 14.72)">
          <g id="Grupo_60064" data-name="Grupo 60064" transform="translate(0 0.596)">
            <rect id="Rectángulo_30775" data-name="Rectángulo 30775" width="3.117" height="77.33" transform="matrix(0.577, -0.817, 0.817, 0.577, 0, 2.546)" fill="#1ca8e4"/>
          </g>
          <g id="Grupo_60068" data-name="Grupo 60068" transform="translate(42.111 29.135)">
            <g id="Grupo_60065" data-name="Grupo 60065">
              <rect id="Rectángulo_30776" data-name="Rectángulo 30776" width="8.914" height="3.117" transform="translate(0 7.283) rotate(-54.781)" fill="#1ca8e4"/>
            </g>
            <g id="Grupo_60066" data-name="Grupo 60066" transform="translate(5.298 2.526)">
              <rect id="Rectángulo_30777" data-name="Rectángulo 30777" width="14.843" height="3.117" transform="translate(0 12.126) rotate(-54.781)" fill="#1ca8e4"/>
            </g>
            <g id="Grupo_60067" data-name="Grupo 60067" transform="translate(13.016 9.188)">
              <rect id="Rectángulo_30778" data-name="Rectángulo 30778" width="8.914" height="3.117" transform="translate(0 7.282) rotate(-54.781)" fill="#1ca8e4"/>
            </g>
          </g>
          <g id="Grupo_60072" data-name="Grupo 60072" transform="translate(0.838)">
            <g id="Grupo_60069" data-name="Grupo 60069">
              <rect id="Rectángulo_30779" data-name="Rectángulo 30779" width="8.914" height="3.117" transform="translate(0 7.282) rotate(-54.781)" fill="#1ca8e4"/>
            </g>
            <g id="Grupo_60070" data-name="Grupo 60070" transform="translate(5.299 2.525)">
              <rect id="Rectángulo_30780" data-name="Rectángulo 30780" width="14.843" height="3.117" transform="translate(0 12.126) rotate(-54.781)" fill="#1ca8e4"/>
            </g>
            <g id="Grupo_60071" data-name="Grupo 60071" transform="translate(13.016 9.188)">
              <rect id="Rectángulo_30781" data-name="Rectángulo 30781" width="8.914" height="3.117" transform="translate(0 7.283) rotate(-54.781)" fill="#1ca8e4"/>
            </g>
          </g>
        </g>
        <g id="Grupo_60083" data-name="Grupo 60083" transform="translate(0.907 13.444)">
          <g id="Grupo_60074" data-name="Grupo 60074">
            <rect id="Rectángulo_30782" data-name="Rectángulo 30782" width="77.33" height="3.116" transform="matrix(0.784, -0.621, 0.621, 0.784, 0, 47.999)" fill="#1ca8e4"/>
          </g>
          <g id="Grupo_60078" data-name="Grupo 60078" transform="translate(40.217 0.633)">
            <g id="Grupo_60075" data-name="Grupo 60075" transform="translate(0 9.891)">
              <rect id="Rectángulo_30783" data-name="Rectángulo 30783" width="3.118" height="8.914" transform="translate(0 1.935) rotate(-38.374)" fill="#1ca8e4"/>
            </g>
            <g id="Grupo_60076" data-name="Grupo 60076" transform="translate(4.885 2.241)">
              <rect id="Rectángulo_30784" data-name="Rectángulo 30784" width="3.118" height="14.843" transform="matrix(0.784, -0.621, 0.621, 0.784, 0, 1.935)" fill="#1ca8e4"/>
            </g>
            <g id="Grupo_60077" data-name="Grupo 60077" transform="translate(12.49)">
              <rect id="Rectángulo_30785" data-name="Rectángulo 30785" width="3.116" height="8.914" transform="matrix(0.784, -0.621, 0.621, 0.784, 0, 1.935)" fill="#1ca8e4"/>
            </g>
          </g>
          <g id="Grupo_60082" data-name="Grupo 60082" transform="translate(0.612 31.998)">
            <g id="Grupo_60079" data-name="Grupo 60079" transform="translate(0 9.892)">
              <rect id="Rectángulo_30786" data-name="Rectángulo 30786" width="3.116" height="8.914" transform="matrix(0.784, -0.621, 0.621, 0.784, 0, 1.935)" fill="#1ca8e4"/>
            </g>
            <g id="Grupo_60080" data-name="Grupo 60080" transform="translate(4.885 2.241)">
              <rect id="Rectángulo_30787" data-name="Rectángulo 30787" width="3.118" height="14.843" transform="translate(0 1.935) rotate(-38.376)" fill="#1ca8e4"/>
            </g>
            <g id="Grupo_60081" data-name="Grupo 60081" transform="translate(12.49)">
              <rect id="Rectángulo_30788" data-name="Rectángulo 30788" width="3.118" height="8.914" transform="translate(0 1.935) rotate(-38.374)" fill="#1ca8e4"/>
            </g>
          </g>
        </g>
        <g id="Grupo_60093" data-name="Grupo 60093" transform="translate(24.768 0)">
          <g id="Grupo_60084" data-name="Grupo 60084" transform="translate(5.863)">
            <rect id="Rectángulo_30789" data-name="Rectángulo 30789" width="3.117" height="77.331" fill="#1ca8e4"/>
          </g>
          <g id="Grupo_60088" data-name="Grupo 60088" transform="translate(0 4.689)">
            <g id="Grupo_60085" data-name="Grupo 60085" transform="translate(2.964 15.932)">
              <rect id="Rectángulo_30790" data-name="Rectángulo 30790" width="8.915" height="3.117" fill="#1ca8e4"/>
            </g>
            <g id="Grupo_60086" data-name="Grupo 60086" transform="translate(0 7.353)">
              <rect id="Rectángulo_30791" data-name="Rectángulo 30791" width="14.843" height="3.117" fill="#1ca8e4"/>
            </g>
            <g id="Grupo_60087" data-name="Grupo 60087" transform="translate(2.964)">
              <rect id="Rectángulo_30792" data-name="Rectángulo 30792" width="8.915" height="3.117" fill="#1ca8e4"/>
            </g>
          </g>
          <g id="Grupo_60092" data-name="Grupo 60092" transform="translate(0 55.21)">
            <g id="Grupo_60089" data-name="Grupo 60089" transform="translate(2.964 15.933)">
              <rect id="Rectángulo_30793" data-name="Rectángulo 30793" width="8.915" height="3.117" fill="#1ca8e4"/>
            </g>
            <g id="Grupo_60090" data-name="Grupo 60090" transform="translate(0 7.354)">
              <rect id="Rectángulo_30794" data-name="Rectángulo 30794" width="14.843" height="3.117" fill="#1ca8e4"/>
            </g>
            <g id="Grupo_60091" data-name="Grupo 60091" transform="translate(2.964)">
              <rect id="Rectángulo_30795" data-name="Rectángulo 30795" width="8.915" height="3.117" fill="#1ca8e4"/>
            </g>
          </g>
        </g>
      </g>
      <g id="Grupo_60098" data-name="Grupo 60098" transform="translate(768.958 -455.934)">
        <g id="Grupo_60095" data-name="Grupo 60095" transform="translate(9.559 5.49)">
          <rect id="Rectángulo_30796" data-name="Rectángulo 30796" width="68.347" height="4.081"/>
        </g>
        <g id="Grupo_60096" data-name="Grupo 60096" transform="translate(0 0)">
          <path id="Trazado_125552" data-name="Trazado 125552" d="M883.728-402.231c4.5,1.669,10.079,4.516,13.538,7.532l-2.724-7.532,2.724-7.531C893.807-406.746,888.226-403.9,883.728-402.231Z" transform="translate(-883.728 409.762)"/>
        </g>
        <g id="Grupo_60097" data-name="Grupo 60097" transform="translate(73.927 0)">
          <path id="Trazado_125553" data-name="Trazado 125553" d="M1060.294-402.231c-4.5,1.669-10.079,4.516-13.538,7.532l2.724-7.532-2.724-7.531C1050.215-406.746,1055.8-403.9,1060.294-402.231Z" transform="translate(-1046.756 409.762)"/>
        </g>
      </g>
    </g>
  </g>
</svg>
