<svg xmlns="http://www.w3.org/2000/svg" width="258" height="186" viewBox="0 0 258 186">
  <g id="Grupo_60111" data-name="Grupo 60111" transform="translate(-1125 -5363)">
    <rect id="Rectángulo_30718" data-name="Rectángulo 30718" width="258" height="186" transform="translate(1125 5363)" fill="none"/>
    <g id="Grupo_60110" data-name="Grupo 60110" transform="translate(445.271 5658.731)">
      <g id="Grupo_60103" data-name="Grupo 60103" transform="translate(766.981 -199.206)">
        <g id="Grupo_60100" data-name="Grupo 60100" transform="translate(9.804 5.631)">
          <rect id="Rectángulo_30797" data-name="Rectángulo 30797" width="70.099" height="4.186"/>
        </g>
        <g id="Grupo_60101" data-name="Grupo 60101">
          <path id="Trazado_125554" data-name="Trazado 125554" d="M851.232-123.516c4.613,1.712,10.337,4.632,13.885,7.726l-2.794-7.726,2.794-7.724C861.569-128.146,855.845-125.226,851.232-123.516Z" transform="translate(-851.232 131.24)"/>
        </g>
        <g id="Grupo_60102" data-name="Grupo 60102" transform="translate(75.822)">
          <path id="Trazado_125555" data-name="Trazado 125555" d="M1028.145-123.516c-4.613,1.712-10.337,4.632-13.885,7.726l2.794-7.726-2.794-7.724C1017.808-128.146,1023.531-125.226,1028.145-123.516Z" transform="translate(-1014.26 131.24)"/>
        </g>
      </g>
      <g id="Grupo_60106" data-name="Grupo 60106" transform="translate(863.476 -258.301)">
        <g id="Grupo_60104" data-name="Grupo 60104" transform="translate(5.473)">
          <path id="Trazado_125556" data-name="Trazado 125556" d="M1097.947-258.3h0c-15.172,0-27.471,10.3-27.471,22.995v34.062h10.217v-31.038c0-8.849,7.854-16.022,17.543-16.022h0c9.689,0,17.544,7.173,17.544,16.022v31.038h9.639v-34.062C1125.418-248.006,1113.119-258.3,1097.947-258.3Z" transform="translate(-1070.475 258.301)" fill="#b0b1b5"/>
        </g>
        <g id="Grupo_60105" data-name="Grupo 60105" transform="translate(0 52.885)">
          <rect id="Rectángulo_30798" data-name="Rectángulo 30798" width="66.466" height="54.185" rx="4.444" fill="#fecb30"/>
          <path id="Rectángulo_30799" data-name="Rectángulo 30799" d="M0,0H27.308a5.925,5.925,0,0,1,5.925,5.925V48.26a5.925,5.925,0,0,1-5.925,5.925H0a0,0,0,0,1,0,0V0A0,0,0,0,1,0,0Z" transform="translate(33.233)" fill="#f3b831"/>
          <path id="Trazado_125557" data-name="Trazado 125557" d="M1126.549-99.688a6.593,6.593,0,0,0,3.781-5.891,6.794,6.794,0,0,0-6.951-6.625,6.794,6.794,0,0,0-6.951,6.625,6.632,6.632,0,0,0,4.3,6.124l-2.437,12.609H1128.9l-2.344-12.842Z" transform="translate(-1089.583 127.267)" fill="#fecb30"/>
          <path id="Trazado_125558" data-name="Trazado 125558" d="M1125.423-98.944a6.172,6.172,0,0,0,3.36-5.493,6.177,6.177,0,0,0-6.177-6.177,6.177,6.177,0,0,0-6.177,6.177,6.176,6.176,0,0,0,3.822,5.709l-2.166,11.757h9.428l-2.084-11.973Z" transform="translate(-1089.583 126.417)" fill="#4c1317"/>
        </g>
      </g>
      <g id="Grupo_60109" data-name="Grupo 60109" transform="translate(693.728 -258.301)">
        <g id="Grupo_60107" data-name="Grupo 60107" transform="translate(5.473)">
          <path id="Trazado_125559" data-name="Trazado 125559" d="M732.967-258.3h0c-15.172,0-27.472,10.3-27.472,22.995v34.062h10.217v-31.038c0-8.849,7.855-16.022,17.544-16.022h0c9.689,0,17.544,7.173,17.544,16.022v9.962h0a5.062,5.062,0,0,1,2.531,4.384v.816h-2.7l-.1,3.659h9.908v-21.843C760.439-248.006,748.139-258.3,732.967-258.3Z" transform="translate(-705.495 258.301)" fill="#b0b1b5"/>
          <path id="Trazado_125560" data-name="Trazado 125560" d="M808.348-183.388" transform="translate(-760.512 218.229)" fill="#b0b1b5"/>
        </g>
        <g id="Grupo_60108" data-name="Grupo 60108" transform="translate(0 52.885)">
          <rect id="Rectángulo_30800" data-name="Rectángulo 30800" width="66.466" height="54.185" rx="4.444" fill="#fecb30"/>
          <path id="Rectángulo_30801" data-name="Rectángulo 30801" d="M0,0H27.308a5.925,5.925,0,0,1,5.925,5.925V48.26a5.925,5.925,0,0,1-5.925,5.925H0a0,0,0,0,1,0,0V0A0,0,0,0,1,0,0Z" transform="translate(33.233)" fill="#f3b831"/>
          <path id="Trazado_125561" data-name="Trazado 125561" d="M761.57-99.688a6.592,6.592,0,0,0,3.781-5.891A6.794,6.794,0,0,0,758.4-112.2a6.794,6.794,0,0,0-6.951,6.625,6.633,6.633,0,0,0,4.3,6.124l-2.437,12.609h10.609l-2.344-12.842Z" transform="translate(-724.604 127.267)" fill="#fecb30"/>
          <path id="Trazado_125562" data-name="Trazado 125562" d="M760.444-98.944a6.172,6.172,0,0,0,3.36-5.493,6.178,6.178,0,0,0-6.177-6.177,6.177,6.177,0,0,0-6.177,6.177,6.177,6.177,0,0,0,3.821,5.709L753.106-86.97h9.428L760.45-98.944Z" transform="translate(-724.604 126.417)" fill="#4c1317"/>
        </g>
      </g>
    </g>
  </g>
</svg>
