<svg xmlns="http://www.w3.org/2000/svg" width="820" height="625.001" viewBox="0 0 820 625.001">
  <g id="Grupo_62061" data-name="Grupo 62061" transform="translate(-600 -1099.999)">
    <g id="Grupo_62060" data-name="Grupo 62060">
      <g id="Grupo_60043" data-name="Grupo 60043">
        <g id="Grupo_60039" data-name="Grupo 60039" transform="translate(525 -0.146)">
          <g id="Grupo_59588" data-name="Grupo 59588" transform="translate(180 1681.065)">
            <rect id="Rectángulo_29951" data-name="Rectángulo 29951" width="609" height="40.878" transform="translate(0 0.081)" fill="#e8e8e8"/>
            <path id="Trazado_130997" data-name="Trazado 130997" d="M9.434,16H8.02L2.651,7.782V16H1.238V5.336H2.651L8.035,13.59V5.336h1.4Zm1.926-4.036a4.681,4.681,0,0,1,.458-2.095,3.415,3.415,0,0,1,1.274-1.436,3.469,3.469,0,0,1,1.864-.505,3.342,3.342,0,0,1,2.618,1.121,4.311,4.311,0,0,1,1,2.981v.1a4.722,4.722,0,0,1-.443,2.076,3.365,3.365,0,0,1-1.267,1.432,3.509,3.509,0,0,1-1.893.513,3.334,3.334,0,0,1-2.611-1.121,4.29,4.29,0,0,1-1-2.966Zm1.362.161a3.39,3.39,0,0,0,.612,2.117,2.072,2.072,0,0,0,3.278-.011,3.707,3.707,0,0,0,.608-2.267A3.384,3.384,0,0,0,16.6,9.851a1.968,1.968,0,0,0-1.644-.809,1.946,1.946,0,0,0-1.619.8A3.68,3.68,0,0,0,12.722,12.125Zm9.39-5.969V8.075h1.479V9.123H22.112v4.921a1.1,1.1,0,0,0,.2.715.832.832,0,0,0,.674.238,3.281,3.281,0,0,0,.645-.088V16a3.951,3.951,0,0,1-1.04.146,1.687,1.687,0,0,1-1.37-.549,2.36,2.36,0,0,1-.461-1.56V9.123H19.314V8.075h1.443V6.156ZM30.066,16a2.846,2.846,0,0,1-.19-.835,3.023,3.023,0,0,1-2.256.981,2.8,2.8,0,0,1-1.923-.663,2.145,2.145,0,0,1-.751-1.681,2.24,2.24,0,0,1,.941-1.923,4.437,4.437,0,0,1,2.648-.685h1.318v-.623a1.522,1.522,0,0,0-.425-1.132,1.707,1.707,0,0,0-1.252-.421,1.976,1.976,0,0,0-1.216.366,1.079,1.079,0,0,0-.491.886H25.107a1.87,1.87,0,0,1,.421-1.146,2.874,2.874,0,0,1,1.143-.875,3.844,3.844,0,0,1,1.586-.322,3.133,3.133,0,0,1,2.146.685,2.47,2.47,0,0,1,.806,1.886v3.647a4.459,4.459,0,0,0,.278,1.736V16Zm-2.249-1.033a2.381,2.381,0,0,0,1.208-.33,1.994,1.994,0,0,0,.828-.857V12.155H28.792q-2.49,0-2.49,1.458a1.234,1.234,0,0,0,.425,1A1.633,1.633,0,0,0,27.817,14.967Zm5.544.322a.849.849,0,0,1,.209-.586.8.8,0,0,1,.626-.234.819.819,0,0,1,.634.234.831.831,0,0,1,.216.586.786.786,0,0,1-.216.564.834.834,0,0,1-.634.227.753.753,0,0,1-.835-.791Zm14.919-8.8H44.854V16h-1.4V6.486h-3.42V5.336h8.247Zm.286,5.479a4.681,4.681,0,0,1,.458-2.095A3.415,3.415,0,0,1,50.3,8.434a3.469,3.469,0,0,1,1.864-.505,3.342,3.342,0,0,1,2.618,1.121,4.311,4.311,0,0,1,1,2.981v.1a4.722,4.722,0,0,1-.443,2.076,3.365,3.365,0,0,1-1.267,1.432,3.509,3.509,0,0,1-1.893.513,3.334,3.334,0,0,1-2.611-1.121,4.29,4.29,0,0,1-1-2.966Zm1.362.161a3.39,3.39,0,0,0,.612,2.117,2.072,2.072,0,0,0,3.278-.011,3.707,3.707,0,0,0,.608-2.267,3.384,3.384,0,0,0-.619-2.113,1.968,1.968,0,0,0-1.644-.809,1.946,1.946,0,0,0-1.619.8A3.68,3.68,0,0,0,49.929,12.125Zm8.826-4.05.037.879a2.927,2.927,0,0,1,2.351-1.025A2.266,2.266,0,0,1,63.406,9.2a3,3,0,0,1,1.029-.923,3.039,3.039,0,0,1,1.5-.352q2.607,0,2.651,2.761V16H67.229V10.771A1.82,1.82,0,0,0,66.841,9.5a1.71,1.71,0,0,0-1.3-.421,1.8,1.8,0,0,0-1.252.45,1.827,1.827,0,0,0-.579,1.212V16H62.344V10.807a1.512,1.512,0,0,0-1.692-1.729,1.813,1.813,0,0,0-1.824,1.135V16H57.473V8.075ZM75.52,16a2.846,2.846,0,0,1-.19-.835,3.023,3.023,0,0,1-2.256.981,2.8,2.8,0,0,1-1.923-.663A2.145,2.145,0,0,1,70.4,13.8a2.24,2.24,0,0,1,.941-1.923,4.437,4.437,0,0,1,2.648-.685h1.318v-.623a1.522,1.522,0,0,0-.425-1.132A1.707,1.707,0,0,0,73.63,9.02a1.976,1.976,0,0,0-1.216.366,1.079,1.079,0,0,0-.491.886H70.562a1.87,1.87,0,0,1,.421-1.146,2.874,2.874,0,0,1,1.143-.875,3.844,3.844,0,0,1,1.586-.322,3.133,3.133,0,0,1,2.146.685,2.47,2.47,0,0,1,.806,1.886v3.647a4.459,4.459,0,0,0,.278,1.736V16Zm-2.249-1.033a2.381,2.381,0,0,0,1.208-.33,1.994,1.994,0,0,0,.828-.857V12.155H74.246q-2.49,0-2.49,1.458a1.234,1.234,0,0,0,.425,1A1.633,1.633,0,0,0,73.271,14.967Zm5.186-3a4.642,4.642,0,0,1,.864-2.933,2.941,2.941,0,0,1,4.468-.157V4.75h1.355V16H83.9l-.066-.85a2.759,2.759,0,0,1-2.263,1,2.707,2.707,0,0,1-2.245-1.128,4.7,4.7,0,0,1-.868-2.944Zm1.355.154a3.515,3.515,0,0,0,.557,2.109A1.8,1.8,0,0,0,81.907,15a1.977,1.977,0,0,0,1.882-1.157V10.2a1.992,1.992,0,0,0-1.868-1.121,1.808,1.808,0,0,0-1.553.769A3.87,3.87,0,0,0,79.812,12.125ZM92.139,16a2.846,2.846,0,0,1-.19-.835,3.023,3.023,0,0,1-2.256.981,2.8,2.8,0,0,1-1.923-.663,2.145,2.145,0,0,1-.751-1.681,2.24,2.24,0,0,1,.941-1.923,4.437,4.437,0,0,1,2.648-.685h1.318v-.623A1.522,1.522,0,0,0,91.5,9.441a1.707,1.707,0,0,0-1.252-.421,1.976,1.976,0,0,0-1.216.366,1.079,1.079,0,0,0-.491.886H87.18A1.87,1.87,0,0,1,87.6,9.126a2.874,2.874,0,0,1,1.143-.875,3.844,3.844,0,0,1,1.586-.322,3.133,3.133,0,0,1,2.146.685,2.47,2.47,0,0,1,.806,1.886v3.647a4.459,4.459,0,0,0,.278,1.736V16ZM89.89,14.967a2.381,2.381,0,0,0,1.208-.33,1.994,1.994,0,0,0,.828-.857V12.155H90.864q-2.49,0-2.49,1.458a1.234,1.234,0,0,0,.425,1A1.633,1.633,0,0,0,89.89,14.967Zm8.9-3a4.642,4.642,0,0,1,.864-2.933,2.941,2.941,0,0,1,4.468-.157V4.75h1.355V16h-1.245l-.066-.85a2.759,2.759,0,0,1-2.263,1,2.707,2.707,0,0,1-2.245-1.128,4.7,4.7,0,0,1-.868-2.944Zm1.355.154a3.515,3.515,0,0,0,.557,2.109,1.8,1.8,0,0,0,1.538.762,1.977,1.977,0,0,0,1.882-1.157V10.2a1.992,1.992,0,0,0-1.868-1.121,1.808,1.808,0,0,0-1.553.769A3.87,3.87,0,0,0,100.144,12.125Zm10.723,4.021a3.463,3.463,0,0,1-2.622-1.058,3.928,3.928,0,0,1-1.011-2.831v-.249a4.756,4.756,0,0,1,.45-2.106,3.514,3.514,0,0,1,1.26-1.45,3.167,3.167,0,0,1,1.754-.524,2.968,2.968,0,0,1,2.4,1.018,4.408,4.408,0,0,1,.857,2.915v.564h-5.369a2.817,2.817,0,0,0,.685,1.893,2.153,2.153,0,0,0,1.666.721,2.36,2.36,0,0,0,1.216-.293,3.055,3.055,0,0,0,.872-.776l.828.645A3.328,3.328,0,0,1,110.867,16.146Zm-.168-7.1a1.807,1.807,0,0,0-1.377.6,2.9,2.9,0,0,0-.688,1.674h3.97v-.1a2.581,2.581,0,0,0-.557-1.6A1.7,1.7,0,0,0,110.7,9.042Zm14.641,4.167h-4.468l-1,2.791h-1.45L122.49,5.336h1.23L127.8,16h-1.443ZM121.3,12.06h3.625l-1.816-4.988Zm12.539,3.157a2.878,2.878,0,0,1-2.322.93,2.464,2.464,0,0,1-1.93-.736,3.186,3.186,0,0,1-.67-2.179V8.075h1.355v5.12q0,1.8,1.465,1.8a2.028,2.028,0,0,0,2.065-1.157V8.075h1.355V16h-1.289Zm5.215-9.06V8.075h1.479V9.123H139.05v4.921a1.1,1.1,0,0,0,.2.715.832.832,0,0,0,.674.238,3.281,3.281,0,0,0,.645-.088V16a3.951,3.951,0,0,1-1.04.146,1.687,1.687,0,0,1-1.37-.549,2.36,2.36,0,0,1-.461-1.56V9.123h-1.443V8.075H137.7V6.156Zm2.556,5.808a4.681,4.681,0,0,1,.458-2.095,3.415,3.415,0,0,1,1.274-1.436,3.469,3.469,0,0,1,1.864-.505,3.342,3.342,0,0,1,2.618,1.121,4.311,4.311,0,0,1,1,2.981v.1a4.722,4.722,0,0,1-.443,2.076,3.365,3.365,0,0,1-1.267,1.432,3.509,3.509,0,0,1-1.893.513,3.334,3.334,0,0,1-2.611-1.121,4.29,4.29,0,0,1-1-2.966Zm1.362.161a3.39,3.39,0,0,0,.612,2.117,2.072,2.072,0,0,0,3.278-.011,3.707,3.707,0,0,0,.608-2.267,3.384,3.384,0,0,0-.619-2.113,1.968,1.968,0,0,0-1.644-.809,1.946,1.946,0,0,0-1.619.8A3.68,3.68,0,0,0,142.969,12.125Zm7.222-.154a4.642,4.642,0,0,1,.864-2.933,2.941,2.941,0,0,1,4.468-.157V4.75h1.355V16h-1.245l-.066-.85a2.759,2.759,0,0,1-2.263,1,2.707,2.707,0,0,1-2.245-1.128,4.7,4.7,0,0,1-.868-2.944Zm1.355.154a3.515,3.515,0,0,0,.557,2.109A1.8,1.8,0,0,0,153.64,15a1.977,1.977,0,0,0,1.882-1.157V10.2a1.992,1.992,0,0,0-1.868-1.121,1.808,1.808,0,0,0-1.553.769A3.87,3.87,0,0,0,151.545,12.125Zm10.723,4.021a3.463,3.463,0,0,1-2.622-1.058,3.928,3.928,0,0,1-1.011-2.831v-.249a4.756,4.756,0,0,1,.45-2.106,3.514,3.514,0,0,1,1.26-1.45,3.167,3.167,0,0,1,1.754-.524,2.968,2.968,0,0,1,2.4,1.018,4.408,4.408,0,0,1,.857,2.915v.564H159.99a2.817,2.817,0,0,0,.685,1.893,2.153,2.153,0,0,0,1.666.721,2.36,2.36,0,0,0,1.216-.293,3.055,3.055,0,0,0,.872-.776l.828.645A3.328,3.328,0,0,1,162.268,16.146Zm-.168-7.1a1.807,1.807,0,0,0-1.377.6,2.9,2.9,0,0,0-.688,1.674H164v-.1a2.581,2.581,0,0,0-.557-1.6A1.7,1.7,0,0,0,162.1,9.042Zm9.441,4.856a1,1,0,0,0-.414-.853,3.983,3.983,0,0,0-1.443-.524,6.822,6.822,0,0,1-1.633-.527,2.324,2.324,0,0,1-.894-.732,1.752,1.752,0,0,1-.289-1.011,2.056,2.056,0,0,1,.824-1.648,3.218,3.218,0,0,1,2.106-.674,3.311,3.311,0,0,1,2.186.7,2.21,2.21,0,0,1,.839,1.78H171.46a1.223,1.223,0,0,0-.472-.959,1.77,1.77,0,0,0-1.19-.4,1.852,1.852,0,0,0-1.157.322,1.014,1.014,0,0,0-.417.842.822.822,0,0,0,.388.74,4.776,4.776,0,0,0,1.4.476,7.308,7.308,0,0,1,1.644.542,2.4,2.4,0,0,1,.934.758,1.864,1.864,0,0,1,.3,1.08,2.028,2.028,0,0,1-.85,1.7,3.564,3.564,0,0,1-2.2.641,3.991,3.991,0,0,1-1.685-.337,2.74,2.74,0,0,1-1.146-.941,2.268,2.268,0,0,1-.414-1.307h1.355a1.4,1.4,0,0,0,.546,1.08,2.117,2.117,0,0,0,1.344.4,2.185,2.185,0,0,0,1.234-.311A.956.956,0,0,0,171.541,13.9Zm5.332-1.567-.85.886V16h-1.355V4.75h1.355v6.8l.725-.872,2.468-2.607h1.648l-3.083,3.311L181.223,16h-1.589Zm9.053-.659a11.324,11.324,0,0,1,.443-3.179,9.234,9.234,0,0,1,1.322-2.769,5.624,5.624,0,0,1,1.824-1.758l.278.894a5.833,5.833,0,0,0-1.754,2.5,10.859,10.859,0,0,0-.751,3.772l-.007.623a10.916,10.916,0,0,0,1.033,4.907,5.861,5.861,0,0,0,1.479,1.948l-.278.828a5.8,5.8,0,0,1-1.86-1.816A10.181,10.181,0,0,1,185.925,11.671ZM197.952,16h-6.987v-.974l3.691-4.1a8.77,8.77,0,0,0,1.132-1.512,2.524,2.524,0,0,0,.311-1.2,1.913,1.913,0,0,0-.505-1.37,1.767,1.767,0,0,0-1.348-.535,2.093,2.093,0,0,0-1.571.575,2.2,2.2,0,0,0-.56,1.6h-1.355a3.145,3.145,0,0,1,.948-2.38,3.516,3.516,0,0,1,2.538-.908,3.379,3.379,0,0,1,2.351.78,2.661,2.661,0,0,1,.864,2.076q0,1.575-2.007,3.75l-2.856,3.1h5.354Zm8.123-4.548a6.2,6.2,0,0,1-.813,3.538,3.378,3.378,0,0,1-5.068.026,5.882,5.882,0,0,1-.85-3.38V9.826a6.059,6.059,0,0,1,.813-3.494,3.439,3.439,0,0,1,5.083-.04,5.847,5.847,0,0,1,.835,3.4ZM204.719,9.6a4.965,4.965,0,0,0-.483-2.509,1.664,1.664,0,0,0-1.531-.787,1.642,1.642,0,0,0-1.516.784A4.848,4.848,0,0,0,200.7,9.5v2.168a5.045,5.045,0,0,0,.5,2.552,1.661,1.661,0,0,0,1.52.824,1.638,1.638,0,0,0,1.49-.776,4.862,4.862,0,0,0,.509-2.446Zm7.544,6.4H210.9V6.969l-2.732,1V6.742l3.882-1.458h.212Zm9.163-4.687a3.315,3.315,0,0,1-1.014.813,2.752,2.752,0,0,1-1.293.308,2.841,2.841,0,0,1-1.608-.454,2.952,2.952,0,0,1-1.058-1.278,4.357,4.357,0,0,1-.374-1.82,4.439,4.439,0,0,1,.406-1.926,2.986,2.986,0,0,1,1.154-1.311,3.289,3.289,0,0,1,1.743-.454,2.978,2.978,0,0,1,2.494,1.183,5.159,5.159,0,0,1,.912,3.226v.4a6.894,6.894,0,0,1-1.23,4.545,4.727,4.727,0,0,1-3.713,1.469h-.264v-1.15h.286a3.73,3.73,0,0,0,2.578-.873A3.748,3.748,0,0,0,221.426,11.313Zm-2.087,0a2.092,2.092,0,0,0,1.256-.417,2.461,2.461,0,0,0,.839-1.033V9.32a3.729,3.729,0,0,0-.579-2.168,1.769,1.769,0,0,0-2.9-.15,2.825,2.825,0,0,0-.542,1.805,2.94,2.94,0,0,0,.524,1.8A1.658,1.658,0,0,0,219.338,11.313Zm8.745,4.834a3.463,3.463,0,0,1-2.622-1.058,3.928,3.928,0,0,1-1.011-2.831v-.249A4.756,4.756,0,0,1,224.9,9.9a3.514,3.514,0,0,1,1.26-1.45,3.167,3.167,0,0,1,1.754-.524,2.968,2.968,0,0,1,2.4,1.018,4.408,4.408,0,0,1,.857,2.915v.564h-5.369a2.817,2.817,0,0,0,.685,1.893,2.153,2.153,0,0,0,1.666.721,2.36,2.36,0,0,0,1.216-.293,3.055,3.055,0,0,0,.872-.776l.828.645A3.328,3.328,0,0,1,228.083,16.146Zm-.168-7.1a1.807,1.807,0,0,0-1.377.6,2.9,2.9,0,0,0-.688,1.674h3.97v-.1a2.581,2.581,0,0,0-.557-1.6A1.7,1.7,0,0,0,227.915,9.042Zm7.954,2.7a11.329,11.329,0,0,1-.428,3.131,9.259,9.259,0,0,1-1.311,2.765,5.744,5.744,0,0,1-1.849,1.8l-.286-.828a5.888,5.888,0,0,0,1.813-2.684,11.613,11.613,0,0,0,.7-4.039v-.234a12.057,12.057,0,0,0-.322-2.86,9.653,9.653,0,0,0-.9-2.369,5.473,5.473,0,0,0-1.293-1.633l.286-.828a5.722,5.722,0,0,1,1.842,1.787,9.278,9.278,0,0,1,1.311,2.761A11.591,11.591,0,0,1,235.869,11.745Zm2.117,3.545a.849.849,0,0,1,.209-.586.8.8,0,0,1,.626-.234.819.819,0,0,1,.634.234.831.831,0,0,1,.216.586.786.786,0,0,1-.216.564.834.834,0,0,1-.634.227.753.753,0,0,1-.835-.791Z" transform="translate(23 13.081)" fill="#12263f"/>
          </g>
          <g id="Grupo_60034" data-name="Grupo 60034" transform="translate(180.001 1147.258)">
            <g id="Grupo_60033" data-name="Grupo 60033" transform="translate(0 0)">
              <line id="Línea_880" data-name="Línea 880" x2="154.525" transform="translate(71.313 496.674)" fill="none" stroke="#0024aa" stroke-miterlimit="10" stroke-width="1"/>
              <line id="Línea_881" data-name="Línea 881" x2="151.916" transform="translate(71.313 501.691)" fill="none" stroke="#0024aa" stroke-miterlimit="10" stroke-width="1"/>
              <line id="Línea_882" data-name="Línea 882" x1="154.525" transform="translate(71.313 507.31)" fill="none" stroke="#0024aa" stroke-miterlimit="10" stroke-width="1"/>
              <rect id="Rectángulo_30766" data-name="Rectángulo 30766" width="8.081" height="9.833" transform="translate(117.416 496.674)" fill="#fdf0c4" stroke="#0024aa" stroke-miterlimit="10" stroke-width="1"/>
              <rect id="Rectángulo_30767" data-name="Rectángulo 30767" width="8.081" height="9.833" transform="translate(170.998 496.674)" fill="#fdf0c4" stroke="#0024aa" stroke-miterlimit="10" stroke-width="1"/>
              <path id="Trazado_125515" data-name="Trazado 125515" d="M45.464,33.225H29.209L25.9,36.536V54.6L27.4,56.1H45.464" transform="translate(14.109 17.032)" fill="none" stroke="#0024aa" stroke-miterlimit="10" stroke-width="1"/>
              <line id="Línea_883" data-name="Línea 883" y2="28.898" transform="translate(55.058 86.681)" fill="none" stroke="#000" stroke-miterlimit="10" stroke-width="1"/>
              <line id="Línea_884" data-name="Línea 884" y2="26.468" transform="translate(55.058 50.58)" fill="none" stroke="#000" stroke-miterlimit="10" stroke-width="1"/>
              <line id="Línea_885" data-name="Línea 885" y2="35.521" transform="translate(55.058 11.425)" fill="none" stroke="#000" stroke-miterlimit="10" stroke-width="1"/>
              <line id="Línea_886" data-name="Línea 886" y2="104.154" transform="translate(34.89 11.425)" fill="none" stroke="#000" stroke-miterlimit="10" stroke-width="1"/>
              <path id="Trazado_125516" data-name="Trazado 125516" d="M243.762,6.137v6.924h-11.74V126.246H215.767v-8.128h6.02V13.061h-59.3V118.118h7.526v8.128H144.726v-8.128h11.138V14.566H87.23V118.118h9.031v8.128H86.628v5.984H77.3v-5.984H2.672v-8.128H75.791V13.964H25.821V7.342" transform="translate(-2.672 -2.539)" fill="#fdf0c4" stroke="#0024aa" stroke-miterlimit="10" stroke-width="1"/>
              <line id="Línea_887" data-name="Línea 887" y2="15.051" transform="translate(62.885 54.773)" fill="none" stroke="#0024aa" stroke-miterlimit="10" stroke-width="1"/>
              <rect id="Rectángulo_30768" data-name="Rectángulo 30768" width="47.562" height="51.575" transform="translate(166.637 18.248)" fill="none" stroke="#000" stroke-miterlimit="10" stroke-width="1"/>
              <line id="Línea_888" data-name="Línea 888" x1="47.628" y1="51.514" transform="translate(166.604 18.279)" fill="none" stroke="#000" stroke-miterlimit="10" stroke-width="1"/>
              <line id="Línea_889" data-name="Línea 889" x1="47.562" y2="51.575" transform="translate(166.637 18.248)" fill="none" stroke="#000" stroke-miterlimit="10" stroke-width="1"/>
              <path id="Trazado_125517" data-name="Trazado 125517" d="M2.672,212.432H25.219v186.91h28.7v31.632H73.985V420.339H62.747v-30.9H35.454V132.862H189.979V121.525H87.632V115.3H75.791v6.222H25.821V203.3H2.672" transform="translate(-2.672 76.335)" fill="#fdf0c4" stroke="#0024aa" stroke-miterlimit="10" stroke-width="1"/>
              <path id="Trazado_125518" data-name="Trazado 125518" d="M155.325,432.532V400.9H505.114V284.83h-8.228v105.9H254.663V241.845h-8.629V246.7H167.567V134.419H189.04l57.194,56.291v5.619H254.8V188.1l-57.465-57.465,11.268-11.268-6.221-6.221-10.335,10.335H151.312v10.033h8.228V301.085h8.228V255.731h78.266V390.79H168.37V346.337H160.1v45.055H147.657v30.5H132.849v10.636Z" transform="translate(91.384 74.778)" fill="#fdf0c4" stroke="#0024aa" stroke-miterlimit="10" stroke-width="1"/>
              <line id="Línea_890" data-name="Línea 890" y2="116.051" transform="translate(589.073 242.755)" fill="none" stroke="#0024aa" stroke-miterlimit="10" stroke-width="1"/>
              <line id="Línea_891" data-name="Línea 891" y2="116.853" transform="translate(596.498 242.755)" fill="none" stroke="#0024aa" stroke-miterlimit="10" stroke-width="1"/>
              <line id="Línea_892" data-name="Línea 892" y2="116.051" transform="translate(592.685 242.755)" fill="none" stroke="#0024aa" stroke-miterlimit="10" stroke-width="1"/>
              <path id="Trazado_125519" data-name="Trazado 125519" d="M450.5,100.153H219.453l-16.506,15.771L196.926,109l11.579-8.847V84.246h8.552v4.886H449.786v-28.3h9.733V204.876h-9.031Z" transform="translate(137.682 36.982)" fill="#fdf0c4" stroke="#0024aa" stroke-miterlimit="10" stroke-width="1"/>
              <path id="Trazado_125520" data-name="Trazado 125520" d="M176.96,5.906v8.045h46.415V58.717H188.306v9.147h35.069V79.3h6.982V13.539H465.148v30.8h8.8V5.906" transform="translate(123.256 -2.706)" fill="#fdf0c4" stroke="#0024aa" stroke-miterlimit="10" stroke-width="1"/>
              <line id="Línea_893" data-name="Línea 893" y2="54.558" transform="translate(588.61 43.015)" fill="none" stroke="#0024aa" stroke-miterlimit="10" stroke-width="1"/>
              <line id="Línea_894" data-name="Línea 894" y2="54.558" transform="translate(593.355 43.015)" fill="none" stroke="#0024aa" stroke-miterlimit="10" stroke-width="1"/>
              <line id="Línea_895" data-name="Línea 895" y2="54.558" transform="translate(597.2 43.015)" fill="none" stroke="#0024aa" stroke-miterlimit="10" stroke-width="1"/>
              <line id="Línea_896" data-name="Línea 896" y2="115.282" transform="translate(530.849 10.833)" fill="none" stroke="#848fff" stroke-miterlimit="10" stroke-width="1"/>
              <path id="Trazado_125521" data-name="Trazado 125521" d="M357.737,24.522s-9.9-17.534-29.912-5.776c0,0-12.171,35.894-12.585,41.258s0,46.415,0,46.415,3.92,9.865,10.108,10.3,22.692,0,22.692,0,10.315-6.17,9.7-11.534S357.737,24.522,357.737,24.522Z" transform="translate(223.034 3.639)" fill="none" stroke="#848fff" stroke-miterlimit="10" stroke-width="1"/>
              <path id="Trazado_125522" data-name="Trazado 125522" d="M286.707,13.212h31.877l2.475,2.542V24.97l-2.475,2.064h-8.046l-1.032,8.418s12.063,27.51-5.624,31.412-14.385-22.3-11.5-32.4l1.547-2.269V27.445l-9.591.207-1.032-1.443V14.244Z" transform="translate(200.094 2.573)" fill="none" stroke="#848fff" stroke-miterlimit="10" stroke-width="1"/>
              <path id="Trazado_125523" data-name="Trazado 125523" d="M239.157,16.565s-10.034,8.669-2.324,17.33c4.692,5.271,12.45,6.451,18.848,3.471,6.7-3.119,12.945-9.162,2.868-19.976" transform="translate(164.41 4.995)" fill="none" stroke="#848fff" stroke-miterlimit="10" stroke-width="1"/>
              <line id="Línea_897" data-name="Línea 897" x2="117.099" transform="translate(354.738 53.329)" fill="none" stroke="#000" stroke-miterlimit="10" stroke-width="1"/>
              <line id="Línea_898" data-name="Línea 898" y2="42.496" transform="translate(471.838 10.833)" fill="none" stroke="#000" stroke-miterlimit="10" stroke-width="1"/>
              <line id="Línea_899" data-name="Línea 899" x2="16.616" transform="translate(353.613 32.081)" fill="none" stroke="#000" stroke-miterlimit="10" stroke-width="1"/>
              <line id="Línea_900" data-name="Línea 900" x2="23.723" transform="translate(382.32 32.081)" fill="none" stroke="#000" stroke-miterlimit="10" stroke-width="1"/>
              <line id="Línea_901" data-name="Línea 901" x2="26.199" transform="translate(417.595 32.305)" fill="none" stroke="#000" stroke-miterlimit="10" stroke-width="1"/>
              <line id="Línea_902" data-name="Línea 902" x2="18.795" transform="translate(453.042 32.081)" fill="none" stroke="#000" stroke-miterlimit="10" stroke-width="1"/>
              <rect id="Rectángulo_30769" data-name="Rectángulo 30769" width="3.444" height="44.765" transform="translate(308.118 11.246)" fill="none" stroke="#000" stroke-miterlimit="10" stroke-width="1"/>
              <path id="Trazado_125524" data-name="Trazado 125524" d="M9.82,172.937v194.32H37.213v30.1H58.887v-8.027" transform="translate(2.493 117.978)" fill="none" stroke="#7be0ff" stroke-miterlimit="10" stroke-width="1"/>
              <line id="Línea_903" data-name="Línea 903" x1="9.532" y2="8.027" transform="translate(51.847 507.31)" fill="none" stroke="#7be0ff" stroke-miterlimit="10" stroke-width="1"/>
              <line id="Línea_904" data-name="Línea 904" x1="9.432" y2="8.83" transform="translate(43.418 506.507)" fill="none" stroke="#7be0ff" stroke-miterlimit="10" stroke-width="1"/>
              <line id="Línea_905" data-name="Línea 905" x1="9.432" y2="8.83" transform="translate(40.996 498.48)" fill="none" stroke="#7be0ff" stroke-miterlimit="10" stroke-width="1"/>
              <line id="Línea_906" data-name="Línea 906" x1="9.432" y2="8.83" transform="translate(40.996 490.845)" fill="none" stroke="#7be0ff" stroke-miterlimit="10" stroke-width="1"/>
              <line id="Línea_907" data-name="Línea 907" x1="9.432" y2="8.83" transform="translate(40.996 483.332)" fill="none" stroke="#7be0ff" stroke-miterlimit="10" stroke-width="1"/>
              <line id="Línea_908" data-name="Línea 908" x1="9.432" y2="8.83" transform="translate(40.325 476.306)" fill="none" stroke="#7be0ff" stroke-miterlimit="10" stroke-width="1"/>
              <line id="Línea_909" data-name="Línea 909" x1="9.432" y2="8.83" transform="translate(33.341 475.861)" fill="none" stroke="#7be0ff" stroke-miterlimit="10" stroke-width="1"/>
              <line id="Línea_910" data-name="Línea 910" x1="9.432" y2="8.83" transform="translate(25.809 476.764)" fill="none" stroke="#7be0ff" stroke-miterlimit="10" stroke-width="1"/>
              <line id="Línea_911" data-name="Línea 911" x1="9.432" y2="8.83" transform="translate(20.238 476.306)" fill="none" stroke="#7be0ff" stroke-miterlimit="10" stroke-width="1"/>
              <line id="Línea_912" data-name="Línea 912" x1="9.432" y2="8.83" transform="translate(13.568 475.861)" fill="none" stroke="#7be0ff" stroke-miterlimit="10" stroke-width="1"/>
              <line id="Línea_913" data-name="Línea 913" x1="9.432" y2="8.83" transform="translate(13.205 468.794)" fill="none" stroke="#7be0ff" stroke-miterlimit="10" stroke-width="1"/>
              <line id="Línea_914" data-name="Línea 914" x1="9.432" y2="8.83" transform="translate(12.313 463.034)" fill="none" stroke="#7be0ff" stroke-miterlimit="10" stroke-width="1"/>
              <line id="Línea_915" data-name="Línea 915" x1="9.432" y2="8.83" transform="translate(13.205 455.612)" fill="none" stroke="#7be0ff" stroke-miterlimit="10" stroke-width="1"/>
              <line id="Línea_916" data-name="Línea 916" x1="9.432" y2="8.83" transform="translate(12.313 449.852)" fill="none" stroke="#7be0ff" stroke-miterlimit="10" stroke-width="1"/>
              <line id="Línea_917" data-name="Línea 917" x1="9.432" y2="8.83" transform="translate(13.205 443.531)" fill="none" stroke="#7be0ff" stroke-miterlimit="10" stroke-width="1"/>
              <line id="Línea_918" data-name="Línea 918" x1="9.432" y2="8.83" transform="translate(12.313 437.771)" fill="none" stroke="#7be0ff" stroke-miterlimit="10" stroke-width="1"/>
              <line id="Línea_919" data-name="Línea 919" x1="9.432" y2="8.83" transform="translate(13.205 430.349)" fill="none" stroke="#7be0ff" stroke-miterlimit="10" stroke-width="1"/>
              <line id="Línea_920" data-name="Línea 920" x1="9.432" y2="8.83" transform="translate(12.313 424.589)" fill="none" stroke="#7be0ff" stroke-miterlimit="10" stroke-width="1"/>
              <line id="Línea_921" data-name="Línea 921" x1="9.432" y2="8.83" transform="translate(12.759 416.052)" fill="none" stroke="#7be0ff" stroke-miterlimit="10" stroke-width="1"/>
              <line id="Línea_922" data-name="Línea 922" x1="9.432" y2="8.83" transform="translate(11.867 410.292)" fill="none" stroke="#7be0ff" stroke-miterlimit="10" stroke-width="1"/>
              <line id="Línea_923" data-name="Línea 923" x1="9.432" y2="8.83" transform="translate(12.759 402.87)" fill="none" stroke="#7be0ff" stroke-miterlimit="10" stroke-width="1"/>
              <line id="Línea_924" data-name="Línea 924" x1="9.432" y2="8.83" transform="translate(11.867 397.109)" fill="none" stroke="#7be0ff" stroke-miterlimit="10" stroke-width="1"/>
              <line id="Línea_925" data-name="Línea 925" x1="9.432" y2="8.83" transform="translate(12.759 390.789)" fill="none" stroke="#7be0ff" stroke-miterlimit="10" stroke-width="1"/>
              <line id="Línea_926" data-name="Línea 926" x1="9.432" y2="8.83" transform="translate(11.867 385.029)" fill="none" stroke="#7be0ff" stroke-miterlimit="10" stroke-width="1"/>
              <line id="Línea_927" data-name="Línea 927" x1="9.432" y2="8.83" transform="translate(12.759 377.607)" fill="none" stroke="#7be0ff" stroke-miterlimit="10" stroke-width="1"/>
              <line id="Línea_928" data-name="Línea 928" x1="9.432" y2="8.83" transform="translate(11.867 371.847)" fill="none" stroke="#7be0ff" stroke-miterlimit="10" stroke-width="1"/>
              <line id="Línea_929" data-name="Línea 929" x1="9.432" y2="8.83" transform="translate(12.536 364.17)" fill="none" stroke="#7be0ff" stroke-miterlimit="10" stroke-width="1"/>
              <line id="Línea_930" data-name="Línea 930" x1="9.432" y2="8.83" transform="translate(13.428 356.747)" fill="none" stroke="#7be0ff" stroke-miterlimit="10" stroke-width="1"/>
              <line id="Línea_931" data-name="Línea 931" x1="9.432" y2="8.83" transform="translate(12.536 350.987)" fill="none" stroke="#7be0ff" stroke-miterlimit="10" stroke-width="1"/>
              <line id="Línea_932" data-name="Línea 932" x1="9.432" y2="8.83" transform="translate(13.428 344.667)" fill="none" stroke="#7be0ff" stroke-miterlimit="10" stroke-width="1"/>
              <line id="Línea_933" data-name="Línea 933" x1="9.432" y2="8.83" transform="translate(12.536 338.907)" fill="none" stroke="#7be0ff" stroke-miterlimit="10" stroke-width="1"/>
              <line id="Línea_934" data-name="Línea 934" x1="9.432" y2="8.83" transform="translate(13.428 331.485)" fill="none" stroke="#7be0ff" stroke-miterlimit="10" stroke-width="1"/>
              <line id="Línea_935" data-name="Línea 935" x1="9.432" y2="8.83" transform="translate(12.536 325.725)" fill="none" stroke="#7be0ff" stroke-miterlimit="10" stroke-width="1"/>
              <line id="Línea_936" data-name="Línea 936" x1="9.432" y2="8.83" transform="translate(12.982 317.188)" fill="none" stroke="#7be0ff" stroke-miterlimit="10" stroke-width="1"/>
              <line id="Línea_937" data-name="Línea 937" x1="9.432" y2="8.83" transform="translate(12.09 311.428)" fill="none" stroke="#7be0ff" stroke-miterlimit="10" stroke-width="1"/>
              <line id="Línea_938" data-name="Línea 938" x1="9.432" y2="8.83" transform="translate(12.982 304.005)" fill="none" stroke="#7be0ff" stroke-miterlimit="10" stroke-width="1"/>
              <line id="Línea_939" data-name="Línea 939" x1="9.432" y2="8.83" transform="translate(12.09 298.245)" fill="none" stroke="#7be0ff" stroke-miterlimit="10" stroke-width="1"/>
              <line id="Línea_940" data-name="Línea 940" x1="9.432" y2="8.83" transform="translate(12.982 291.925)" fill="none" stroke="#7be0ff" stroke-miterlimit="10" stroke-width="1"/>
              <line id="Línea_941" data-name="Línea 941" x1="5.831" y2="5.459" transform="translate(12.09 289.536)" fill="none" stroke="#7be0ff" stroke-miterlimit="10" stroke-width="1"/>
              <line id="Línea_942" data-name="Línea 942" x1="10.931" y2="10.132" transform="translate(247.548 475.352)" fill="none" stroke="#7be0ff" stroke-miterlimit="10" stroke-width="1"/>
              <line id="Línea_943" data-name="Línea 943" x1="18.131" y2="17.127" transform="translate(247.415 475.352)" fill="none" stroke="#7be0ff" stroke-miterlimit="10" stroke-width="1"/>
              <line id="Línea_944" data-name="Línea 944" x1="8.83" y2="9.432" transform="translate(262.476 475.352)" fill="none" stroke="#7be0ff" stroke-miterlimit="10" stroke-width="1"/>
              <line id="Línea_945" data-name="Línea 945" x1="8.83" y2="9.432" transform="translate(247.069 490.033)" fill="none" stroke="#7be0ff" stroke-miterlimit="10" stroke-width="1"/>
              <line id="Línea_946" data-name="Línea 946" x1="8.83" y2="9.432" transform="translate(235.589 507.31)" fill="none" stroke="#7be0ff" stroke-miterlimit="10" stroke-width="1"/>
              <line id="Línea_947" data-name="Línea 947" x1="8.83" y2="9.432" transform="translate(247.069 496.975)" fill="none" stroke="#7be0ff" stroke-miterlimit="10" stroke-width="1"/>
              <line id="Línea_948" data-name="Línea 948" x1="8.83" y2="9.432" transform="translate(247.651 507.31)" fill="none" stroke="#7be0ff" stroke-miterlimit="10" stroke-width="1"/>
              <line id="Línea_949" data-name="Línea 949" x1="12.998" y2="13.884" transform="translate(242.901 501.791)" fill="none" stroke="#7be0ff" stroke-miterlimit="10" stroke-width="1"/>
              <line id="Línea_950" data-name="Línea 950" x1="8.83" y2="9.432" transform="translate(269.898 475.352)" fill="none" stroke="#7be0ff" stroke-miterlimit="10" stroke-width="1"/>
              <line id="Línea_951" data-name="Línea 951" x1="8.83" y2="9.432" transform="translate(275.658 475.352)" fill="none" stroke="#7be0ff" stroke-miterlimit="10" stroke-width="1"/>
              <line id="Línea_952" data-name="Línea 952" x1="8.83" y2="9.432" transform="translate(281.978 475.352)" fill="none" stroke="#7be0ff" stroke-miterlimit="10" stroke-width="1"/>
              <line id="Línea_953" data-name="Línea 953" x1="8.83" y2="9.432" transform="translate(287.738 475.352)" fill="none" stroke="#7be0ff" stroke-miterlimit="10" stroke-width="1"/>
              <line id="Línea_954" data-name="Línea 954" x1="8.83" y2="9.432" transform="translate(295.161 475.352)" fill="none" stroke="#7be0ff" stroke-miterlimit="10" stroke-width="1"/>
              <line id="Línea_955" data-name="Línea 955" x1="8.83" y2="9.432" transform="translate(300.921 475.352)" fill="none" stroke="#7be0ff" stroke-miterlimit="10" stroke-width="1"/>
              <line id="Línea_956" data-name="Línea 956" x1="8.83" y2="9.432" transform="translate(309.458 475.352)" fill="none" stroke="#7be0ff" stroke-miterlimit="10" stroke-width="1"/>
              <line id="Línea_957" data-name="Línea 957" x1="8.83" y2="9.432" transform="translate(315.218 475.352)" fill="none" stroke="#7be0ff" stroke-miterlimit="10" stroke-width="1"/>
              <line id="Línea_958" data-name="Línea 958" x1="8.83" y2="9.432" transform="translate(322.64 475.352)" fill="none" stroke="#7be0ff" stroke-miterlimit="10" stroke-width="1"/>
              <line id="Línea_959" data-name="Línea 959" x1="8.83" y2="9.432" transform="translate(328.4 475.352)" fill="none" stroke="#7be0ff" stroke-miterlimit="10" stroke-width="1"/>
              <line id="Línea_960" data-name="Línea 960" x1="8.83" y2="9.432" transform="translate(334.72 475.352)" fill="none" stroke="#7be0ff" stroke-miterlimit="10" stroke-width="1"/>
              <line id="Línea_961" data-name="Línea 961" x1="8.83" y2="9.432" transform="translate(340.48 475.352)" fill="none" stroke="#7be0ff" stroke-miterlimit="10" stroke-width="1"/>
              <line id="Línea_962" data-name="Línea 962" x1="8.83" y2="9.432" transform="translate(347.903 475.352)" fill="none" stroke="#7be0ff" stroke-miterlimit="10" stroke-width="1"/>
              <line id="Línea_963" data-name="Línea 963" x1="8.83" y2="9.432" transform="translate(353.663 475.352)" fill="none" stroke="#7be0ff" stroke-miterlimit="10" stroke-width="1"/>
              <line id="Línea_964" data-name="Línea 964" x1="8.83" y2="9.432" transform="translate(361.34 475.352)" fill="none" stroke="#7be0ff" stroke-miterlimit="10" stroke-width="1"/>
              <line id="Línea_965" data-name="Línea 965" x1="8.83" y2="9.432" transform="translate(368.762 475.352)" fill="none" stroke="#7be0ff" stroke-miterlimit="10" stroke-width="1"/>
              <line id="Línea_966" data-name="Línea 966" x1="8.83" y2="9.432" transform="translate(374.522 475.352)" fill="none" stroke="#7be0ff" stroke-miterlimit="10" stroke-width="1"/>
              <line id="Línea_967" data-name="Línea 967" x1="8.83" y2="9.432" transform="translate(380.842 475.352)" fill="none" stroke="#7be0ff" stroke-miterlimit="10" stroke-width="1"/>
              <line id="Línea_968" data-name="Línea 968" x1="8.83" y2="9.432" transform="translate(386.603 475.352)" fill="none" stroke="#7be0ff" stroke-miterlimit="10" stroke-width="1"/>
              <line id="Línea_969" data-name="Línea 969" x1="8.83" y2="9.432" transform="translate(394.025 475.352)" fill="none" stroke="#7be0ff" stroke-miterlimit="10" stroke-width="1"/>
              <line id="Línea_970" data-name="Línea 970" x1="8.83" y2="9.432" transform="translate(399.785 475.352)" fill="none" stroke="#7be0ff" stroke-miterlimit="10" stroke-width="1"/>
              <line id="Línea_971" data-name="Línea 971" x1="8.83" y2="9.432" transform="translate(408.322 475.352)" fill="none" stroke="#7be0ff" stroke-miterlimit="10" stroke-width="1"/>
              <line id="Línea_972" data-name="Línea 972" x1="8.83" y2="9.432" transform="translate(414.082 475.352)" fill="none" stroke="#7be0ff" stroke-miterlimit="10" stroke-width="1"/>
              <line id="Línea_973" data-name="Línea 973" x1="8.83" y2="9.432" transform="translate(421.504 475.352)" fill="none" stroke="#7be0ff" stroke-miterlimit="10" stroke-width="1"/>
              <line id="Línea_974" data-name="Línea 974" x1="8.83" y2="9.432" transform="translate(427.264 475.352)" fill="none" stroke="#7be0ff" stroke-miterlimit="10" stroke-width="1"/>
              <line id="Línea_975" data-name="Línea 975" x1="8.83" y2="9.432" transform="translate(433.584 475.352)" fill="none" stroke="#7be0ff" stroke-miterlimit="10" stroke-width="1"/>
              <line id="Línea_976" data-name="Línea 976" x1="8.398" y2="7.977" transform="translate(439.345 476.806)" fill="none" stroke="#7be0ff" stroke-miterlimit="10" stroke-width="1"/>
              <line id="Línea_977" data-name="Línea 977" x1="8.83" y2="9.432" transform="translate(444.908 475.352)" fill="none" stroke="#7be0ff" stroke-miterlimit="10" stroke-width="1"/>
              <line id="Línea_978" data-name="Línea 978" x1="8.83" y2="9.432" transform="translate(452.33 475.352)" fill="none" stroke="#7be0ff" stroke-miterlimit="10" stroke-width="1"/>
              <line id="Línea_979" data-name="Línea 979" x1="8.83" y2="9.432" transform="translate(458.09 475.352)" fill="none" stroke="#7be0ff" stroke-miterlimit="10" stroke-width="1"/>
              <line id="Línea_980" data-name="Línea 980" x1="8.83" y2="9.432" transform="translate(465.768 475.352)" fill="none" stroke="#7be0ff" stroke-miterlimit="10" stroke-width="1"/>
              <line id="Línea_981" data-name="Línea 981" x1="8.83" y2="9.432" transform="translate(473.19 475.352)" fill="none" stroke="#7be0ff" stroke-miterlimit="10" stroke-width="1"/>
              <line id="Línea_982" data-name="Línea 982" x1="8.83" y2="9.432" transform="translate(478.95 475.352)" fill="none" stroke="#7be0ff" stroke-miterlimit="10" stroke-width="1"/>
              <line id="Línea_983" data-name="Línea 983" x1="8.83" y2="9.432" transform="translate(485.27 475.352)" fill="none" stroke="#7be0ff" stroke-miterlimit="10" stroke-width="1"/>
              <line id="Línea_984" data-name="Línea 984" x1="8.83" y2="9.432" transform="translate(491.03 475.352)" fill="none" stroke="#7be0ff" stroke-miterlimit="10" stroke-width="1"/>
              <line id="Línea_985" data-name="Línea 985" x1="8.83" y2="9.432" transform="translate(498.453 475.352)" fill="none" stroke="#7be0ff" stroke-miterlimit="10" stroke-width="1"/>
              <line id="Línea_986" data-name="Línea 986" x1="8.83" y2="9.432" transform="translate(504.213 475.352)" fill="none" stroke="#7be0ff" stroke-miterlimit="10" stroke-width="1"/>
              <line id="Línea_987" data-name="Línea 987" x1="8.83" y2="9.432" transform="translate(512.75 475.352)" fill="none" stroke="#7be0ff" stroke-miterlimit="10" stroke-width="1"/>
              <line id="Línea_988" data-name="Línea 988" x1="8.83" y2="9.432" transform="translate(518.51 475.352)" fill="none" stroke="#7be0ff" stroke-miterlimit="10" stroke-width="1"/>
              <line id="Línea_989" data-name="Línea 989" x1="8.83" y2="9.432" transform="translate(525.932 475.352)" fill="none" stroke="#7be0ff" stroke-miterlimit="10" stroke-width="1"/>
              <line id="Línea_990" data-name="Línea 990" x1="8.83" y2="9.432" transform="translate(531.692 475.352)" fill="none" stroke="#7be0ff" stroke-miterlimit="10" stroke-width="1"/>
              <line id="Línea_991" data-name="Línea 991" x1="8.83" y2="9.432" transform="translate(538.012 475.352)" fill="none" stroke="#7be0ff" stroke-miterlimit="10" stroke-width="1"/>
              <line id="Línea_992" data-name="Línea 992" x1="8.525" y2="9.106" transform="translate(543.772 475.678)" fill="none" stroke="#7be0ff" stroke-miterlimit="10" stroke-width="1"/>
              <line id="Línea_993" data-name="Línea 993" x1="8.83" y2="9.432" transform="translate(550.042 476.079)" fill="none" stroke="#7be0ff" stroke-miterlimit="10" stroke-width="1"/>
              <line id="Línea_994" data-name="Línea 994" x1="8.83" y2="9.432" transform="translate(558.579 476.079)" fill="none" stroke="#7be0ff" stroke-miterlimit="10" stroke-width="1"/>
              <line id="Línea_995" data-name="Línea 995" x1="8.83" y2="9.432" transform="translate(564.339 476.079)" fill="none" stroke="#7be0ff" stroke-miterlimit="10" stroke-width="1"/>
              <line id="Línea_996" data-name="Línea 996" x1="8.83" y2="9.432" transform="translate(571.762 476.079)" fill="none" stroke="#7be0ff" stroke-miterlimit="10" stroke-width="1"/>
              <line id="Línea_997" data-name="Línea 997" x1="8.83" y2="9.432" transform="translate(577.522 476.079)" fill="none" stroke="#7be0ff" stroke-miterlimit="10" stroke-width="1"/>
              <line id="Línea_998" data-name="Línea 998" x1="8.83" y2="9.432" transform="translate(583.842 476.079)" fill="none" stroke="#7be0ff" stroke-miterlimit="10" stroke-width="1"/>
              <line id="Línea_999" data-name="Línea 999" x1="10.784" y2="11.519" transform="translate(597.141 473.992)" fill="none" stroke="#7be0ff" stroke-miterlimit="10" stroke-width="1"/>
              <line id="Línea_1000" data-name="Línea 1000" x1="17.548" y2="18.745" transform="translate(589.602 466.766)" fill="none" stroke="#7be0ff" stroke-miterlimit="10" stroke-width="1"/>
              <line id="Línea_1001" data-name="Línea 1001" x1="5.659" y2="6.045" transform="translate(602.144 479.752)" fill="none" stroke="#7be0ff" stroke-miterlimit="10" stroke-width="1"/>
              <g id="Grupo_60032" data-name="Grupo 60032" transform="translate(597.225 0)">
                <line id="Línea_1002" data-name="Línea 1002" x1="9.432" y2="8.83" transform="translate(0 460.403)" fill="none" stroke="#7be0ff" stroke-miterlimit="10" stroke-width="1"/>
                <line id="Línea_1003" data-name="Línea 1003" x1="9.432" y2="8.83" transform="translate(0 452.98)" fill="none" stroke="#7be0ff" stroke-miterlimit="10" stroke-width="1"/>
                <line id="Línea_1004" data-name="Línea 1004" x1="9.432" y2="8.83" transform="translate(0 447.22)" fill="none" stroke="#7be0ff" stroke-miterlimit="10" stroke-width="1"/>
                <line id="Línea_1005" data-name="Línea 1005" x1="9.432" y2="8.83" transform="translate(0 440.9)" fill="none" stroke="#7be0ff" stroke-miterlimit="10" stroke-width="1"/>
                <line id="Línea_1006" data-name="Línea 1006" x1="9.432" y2="8.83" transform="translate(0 435.14)" fill="none" stroke="#7be0ff" stroke-miterlimit="10" stroke-width="1"/>
                <line id="Línea_1007" data-name="Línea 1007" x1="9.432" y2="8.83" transform="translate(0 427.718)" fill="none" stroke="#7be0ff" stroke-miterlimit="10" stroke-width="1"/>
                <line id="Línea_1008" data-name="Línea 1008" x1="9.432" y2="8.83" transform="translate(0 421.958)" fill="none" stroke="#7be0ff" stroke-miterlimit="10" stroke-width="1"/>
                <line id="Línea_1009" data-name="Línea 1009" x1="9.432" y2="8.83" transform="translate(0 413.421)" fill="none" stroke="#7be0ff" stroke-miterlimit="10" stroke-width="1"/>
                <line id="Línea_1010" data-name="Línea 1010" x1="9.432" y2="8.83" transform="translate(0 407.661)" fill="none" stroke="#7be0ff" stroke-miterlimit="10" stroke-width="1"/>
                <line id="Línea_1011" data-name="Línea 1011" x1="9.432" y2="8.83" transform="translate(0 400.238)" fill="none" stroke="#7be0ff" stroke-miterlimit="10" stroke-width="1"/>
                <line id="Línea_1012" data-name="Línea 1012" x1="9.432" y2="8.83" transform="translate(0 394.478)" fill="none" stroke="#7be0ff" stroke-miterlimit="10" stroke-width="1"/>
                <line id="Línea_1013" data-name="Línea 1013" x1="9.432" y2="8.83" transform="translate(0 388.158)" fill="none" stroke="#7be0ff" stroke-miterlimit="10" stroke-width="1"/>
                <line id="Línea_1014" data-name="Línea 1014" x1="9.432" y2="8.83" transform="translate(0 382.398)" fill="none" stroke="#7be0ff" stroke-miterlimit="10" stroke-width="1"/>
                <line id="Línea_1015" data-name="Línea 1015" x1="9.432" y2="8.83" transform="translate(0 374.976)" fill="none" stroke="#7be0ff" stroke-miterlimit="10" stroke-width="1"/>
                <line id="Línea_1016" data-name="Línea 1016" x1="9.432" y2="8.83" transform="translate(0 369.216)" fill="none" stroke="#7be0ff" stroke-miterlimit="10" stroke-width="1"/>
                <line id="Línea_1017" data-name="Línea 1017" x1="9.432" y2="8.83" transform="translate(0 361.538)" fill="none" stroke="#7be0ff" stroke-miterlimit="10" stroke-width="1"/>
                <line id="Línea_1018" data-name="Línea 1018" x1="9.432" y2="8.83" transform="translate(0.727 232.797)" fill="none" stroke="#7be0ff" stroke-miterlimit="10" stroke-width="1"/>
                <line id="Línea_1019" data-name="Línea 1019" x1="9.432" y2="8.83" transform="translate(0.727 227.037)" fill="none" stroke="#7be0ff" stroke-miterlimit="10" stroke-width="1"/>
                <line id="Línea_1020" data-name="Línea 1020" x1="9.432" y2="8.83" transform="translate(0.727 219.614)" fill="none" stroke="#7be0ff" stroke-miterlimit="10" stroke-width="1"/>
                <line id="Línea_1021" data-name="Línea 1021" x1="9.432" y2="8.83" transform="translate(0.727 213.854)" fill="none" stroke="#7be0ff" stroke-miterlimit="10" stroke-width="1"/>
                <line id="Línea_1022" data-name="Línea 1022" x1="9.432" y2="8.83" transform="translate(0.727 205.317)" fill="none" stroke="#7be0ff" stroke-miterlimit="10" stroke-width="1"/>
                <line id="Línea_1023" data-name="Línea 1023" x1="9.432" y2="8.83" transform="translate(0.727 199.557)" fill="none" stroke="#7be0ff" stroke-miterlimit="10" stroke-width="1"/>
                <line id="Línea_1024" data-name="Línea 1024" x1="9.432" y2="8.83" transform="translate(0.727 192.135)" fill="none" stroke="#7be0ff" stroke-miterlimit="10" stroke-width="1"/>
                <line id="Línea_1025" data-name="Línea 1025" x1="9.432" y2="8.83" transform="translate(0.727 186.375)" fill="none" stroke="#7be0ff" stroke-miterlimit="10" stroke-width="1"/>
                <line id="Línea_1026" data-name="Línea 1026" x1="9.432" y2="8.83" transform="translate(0.727 180.055)" fill="none" stroke="#7be0ff" stroke-miterlimit="10" stroke-width="1"/>
                <line id="Línea_1027" data-name="Línea 1027" x1="9.106" y2="8.525" transform="translate(0.727 174.6)" fill="none" stroke="#7be0ff" stroke-miterlimit="10" stroke-width="1"/>
                <line id="Línea_1028" data-name="Línea 1028" x1="9.432" y2="8.83" transform="translate(0 168.025)" fill="none" stroke="#7be0ff" stroke-miterlimit="10" stroke-width="1"/>
                <line id="Línea_1029" data-name="Línea 1029" x1="9.432" y2="8.83" transform="translate(0 159.487)" fill="none" stroke="#7be0ff" stroke-miterlimit="10" stroke-width="1"/>
                <line id="Línea_1030" data-name="Línea 1030" x1="9.432" y2="8.83" transform="translate(0 153.727)" fill="none" stroke="#7be0ff" stroke-miterlimit="10" stroke-width="1"/>
                <line id="Línea_1031" data-name="Línea 1031" x1="9.432" y2="8.83" transform="translate(0 146.305)" fill="none" stroke="#7be0ff" stroke-miterlimit="10" stroke-width="1"/>
                <line id="Línea_1032" data-name="Línea 1032" x1="9.432" y2="8.83" transform="translate(0 140.545)" fill="none" stroke="#7be0ff" stroke-miterlimit="10" stroke-width="1"/>
                <line id="Línea_1033" data-name="Línea 1033" x1="9.432" y2="8.83" transform="translate(0 134.225)" fill="none" stroke="#7be0ff" stroke-miterlimit="10" stroke-width="1"/>
                <line id="Línea_1034" data-name="Línea 1034" x1="9.432" y2="8.83" transform="translate(0.727 128.305)" fill="none" stroke="#7be0ff" stroke-miterlimit="10" stroke-width="1"/>
                <line id="Línea_1035" data-name="Línea 1035" x1="9.432" y2="8.83" transform="translate(0.727 122.545)" fill="none" stroke="#7be0ff" stroke-miterlimit="10" stroke-width="1"/>
                <line id="Línea_1036" data-name="Línea 1036" x1="9.432" y2="8.83" transform="translate(0.727 115.123)" fill="none" stroke="#7be0ff" stroke-miterlimit="10" stroke-width="1"/>
                <line id="Línea_1037" data-name="Línea 1037" x1="9.432" y2="8.83" transform="translate(0.727 109.363)" fill="none" stroke="#7be0ff" stroke-miterlimit="10" stroke-width="1"/>
                <line id="Línea_1038" data-name="Línea 1038" x1="9.432" y2="8.83" transform="translate(0.727 103.043)" fill="none" stroke="#7be0ff" stroke-miterlimit="10" stroke-width="1"/>
                <line id="Línea_1039" data-name="Línea 1039" x1="7.438" y2="6.963" transform="translate(0 99.686)" fill="none" stroke="#7be0ff" stroke-miterlimit="10" stroke-width="1"/>
                <line id="Línea_1040" data-name="Línea 1040" x1="9.432" y2="8.83" transform="translate(1.539 31.182)" fill="none" stroke="#7be0ff" stroke-miterlimit="10" stroke-width="1"/>
                <line id="Línea_1041" data-name="Línea 1041" x1="9.432" y2="8.83" transform="translate(2.267 25.262)" fill="none" stroke="#7be0ff" stroke-miterlimit="10" stroke-width="1"/>
                <line id="Línea_1042" data-name="Línea 1042" x1="9.432" y2="8.83" transform="translate(2.267 19.502)" fill="none" stroke="#7be0ff" stroke-miterlimit="10" stroke-width="1"/>
                <line id="Línea_1043" data-name="Línea 1043" x1="9.432" y2="8.83" transform="translate(2.267 12.08)" fill="none" stroke="#7be0ff" stroke-miterlimit="10" stroke-width="1"/>
                <line id="Línea_1044" data-name="Línea 1044" x1="9.432" y2="8.83" transform="translate(2.267 6.32)" fill="none" stroke="#7be0ff" stroke-miterlimit="10" stroke-width="1"/>
                <line id="Línea_1045" data-name="Línea 1045" x1="9.432" y2="8.83" transform="translate(2.267)" fill="none" stroke="#7be0ff" stroke-miterlimit="10" stroke-width="1"/>
              </g>
              <path id="Trazado_125525" data-name="Trazado 125525" d="M360.812,6.611V42.095H349.373" transform="translate(247.828 -2.196)" fill="none" stroke="#7be0ff" stroke-miterlimit="10" stroke-width="1"/>
              <path id="Trazado_125526" data-name="Trazado 125526" d="M349.373,61.71h10.536V204.244h-9.783" transform="translate(247.828 37.614)" fill="none" stroke="#7be0ff" stroke-miterlimit="10" stroke-width="1"/>
              <path id="Trazado_125527" data-name="Trazado 125527" d="M501.494,213.632h12.844V337.654H160.527v31.106H137.859v-8.83" transform="translate(95.004 147.381)" fill="none" stroke="#7be0ff" stroke-miterlimit="10" stroke-width="1"/>
              <text id="HALL" transform="translate(263.566 167.583)" fill="#5cb366" font-size="26" font-family="Roboto-Regular, Roboto"><tspan x="0" y="0">HALL</tspan></text>
              <text id="HALL_BATH" data-name="HALL BATH" transform="translate(413.288 102.974)" fill="#5cb366" font-size="18" font-family="Roboto-Regular, Roboto"><tspan x="0" y="0">HALL BATH</tspan></text>
              <text id="B.R._3" data-name="B.R. #3" transform="translate(410.365 379.733)" fill="#5cb366" font-size="26" font-family="Roboto-Regular, Roboto"><tspan x="0" y="0">B.R. #3</tspan></text>
              <text id="B.R._2" data-name="B.R. #2" transform="translate(68.461 386.317)" fill="#5cb366" font-size="26" font-family="Roboto-Regular, Roboto"><tspan x="0" y="0">B.R. #2</tspan></text>
            </g>
          </g>
          <g id="Grupo_60036" data-name="Grupo 60036" transform="translate(180.208 1100.057)">
            <rect id="Rectángulo_30672" data-name="Rectángulo 30672" width="5" height="27" transform="translate(-0.208 0.089)" fill="#fba321"/>
            <path id="Trazado_130998" data-name="Trazado 130998" d="M8.552-3.349H3.19L1.986,0H.246L5.133-12.8H6.609L11.5,0H9.773ZM3.7-4.729H8.051l-2.18-5.985Zm8.877-.105a5.571,5.571,0,0,1,1.037-3.52A3.28,3.28,0,0,1,16.33-9.686a3.3,3.3,0,0,1,2.646,1.143V-13.5H20.6V0H19.107l-.079-1.02a3.311,3.311,0,0,1-2.716,1.2,3.248,3.248,0,0,1-2.694-1.354,5.634,5.634,0,0,1-1.042-3.533Zm1.626.185a4.218,4.218,0,0,0,.668,2.531,2.159,2.159,0,0,0,1.846.914,2.372,2.372,0,0,0,2.259-1.389V-6.961a2.39,2.39,0,0,0-2.241-1.345,2.17,2.17,0,0,0-1.863.923A4.644,4.644,0,0,0,14.2-4.649Zm10.45-4.86L24.7-8.455a3.512,3.512,0,0,1,2.821-1.23,2.719,2.719,0,0,1,2.716,1.529,3.6,3.6,0,0,1,1.235-1.107,3.647,3.647,0,0,1,1.8-.422q3.129,0,3.182,3.313V0H34.822V-6.275A2.184,2.184,0,0,0,34.356-7.8a2.051,2.051,0,0,0-1.564-.505,2.156,2.156,0,0,0-1.5.541,2.193,2.193,0,0,0-.694,1.455V0H28.96V-6.231a1.814,1.814,0,0,0-2.03-2.074,2.175,2.175,0,0,0-2.188,1.362V0H23.115V-9.51ZM40.667,0H39.041V-9.51h1.626ZM38.909-12.032a.971.971,0,0,1,.242-.668.907.907,0,0,1,.716-.272.922.922,0,0,1,.721.272.96.96,0,0,1,.246.668.929.929,0,0,1-.246.659.938.938,0,0,1-.721.264.924.924,0,0,1-.716-.264A.938.938,0,0,1,38.909-12.032Zm5.9,2.522.053,1.2a3.465,3.465,0,0,1,2.848-1.371q3.015,0,3.041,3.4V0H49.122V-6.293a2.189,2.189,0,0,0-.47-1.521,1.884,1.884,0,0,0-1.437-.492,2.347,2.347,0,0,0-1.389.422,2.865,2.865,0,0,0-.932,1.107V0H43.269V-9.51ZM54.967,0H53.341V-9.51h1.626ZM53.209-12.032a.971.971,0,0,1,.242-.668.907.907,0,0,1,.716-.272.922.922,0,0,1,.721.272.96.96,0,0,1,.246.668.929.929,0,0,1-.246.659.938.938,0,0,1-.721.264.924.924,0,0,1-.716-.264A.938.938,0,0,1,53.209-12.032Zm9.9,9.51a1.2,1.2,0,0,0-.5-1.024,4.78,4.78,0,0,0-1.731-.628,8.186,8.186,0,0,1-1.96-.633,2.788,2.788,0,0,1-1.072-.879A2.1,2.1,0,0,1,57.5-6.9a2.467,2.467,0,0,1,.989-1.978,3.861,3.861,0,0,1,2.527-.809,3.974,3.974,0,0,1,2.624.835,2.652,2.652,0,0,1,1.006,2.136H63.009a1.468,1.468,0,0,0-.567-1.151,2.124,2.124,0,0,0-1.428-.483,2.223,2.223,0,0,0-1.389.387,1.217,1.217,0,0,0-.5,1.011.986.986,0,0,0,.466.888,5.731,5.731,0,0,0,1.683.571,8.77,8.77,0,0,1,1.973.65,2.878,2.878,0,0,1,1.121.91,2.237,2.237,0,0,1,.365,1.3,2.434,2.434,0,0,1-1.02,2.043,4.277,4.277,0,0,1-2.646.769,4.789,4.789,0,0,1-2.021-.4,3.288,3.288,0,0,1-1.375-1.129,2.722,2.722,0,0,1-.5-1.569H58.8a1.683,1.683,0,0,0,.655,1.3,2.54,2.54,0,0,0,1.613.479,2.622,2.622,0,0,0,1.481-.374A1.148,1.148,0,0,0,63.105-2.522Zm5.95-9.29v2.3h1.775v1.257H69.056v5.9a1.32,1.32,0,0,0,.237.858A1,1,0,0,0,70.1-1.2a3.937,3.937,0,0,0,.773-.105V0a4.742,4.742,0,0,1-1.248.175,2.025,2.025,0,0,1-1.644-.659,2.832,2.832,0,0,1-.554-1.872v-5.9H65.7V-9.51H67.43v-2.3Zm8.271,3.762a4.873,4.873,0,0,0-.8-.062A2.143,2.143,0,0,0,74.355-6.75V0H72.729V-9.51h1.582l.026,1.1a2.532,2.532,0,0,1,2.268-1.274,1.661,1.661,0,0,1,.721.123ZM84.34,0a3.416,3.416,0,0,1-.229-1A3.628,3.628,0,0,1,81.4.176,3.357,3.357,0,0,1,79.1-.62a2.573,2.573,0,0,1-.9-2.017,2.688,2.688,0,0,1,1.129-2.307A5.325,5.325,0,0,1,82.5-5.766h1.582v-.747a1.826,1.826,0,0,0-.51-1.358,2.049,2.049,0,0,0-1.5-.505,2.371,2.371,0,0,0-1.459.439,1.3,1.3,0,0,0-.589,1.063H78.39A2.244,2.244,0,0,1,78.9-8.249,3.449,3.449,0,0,1,80.266-9.3a4.613,4.613,0,0,1,1.9-.387,3.759,3.759,0,0,1,2.575.822A2.964,2.964,0,0,1,85.711-6.6v4.377a5.351,5.351,0,0,0,.334,2.083V0Zm-2.7-1.239a2.858,2.858,0,0,0,1.45-.4,2.392,2.392,0,0,0,.993-1.028V-4.614H82.811q-2.988,0-2.988,1.749a1.48,1.48,0,0,0,.51,1.2A1.959,1.959,0,0,0,81.642-1.239Zm6.223-3.595A5.571,5.571,0,0,1,88.9-8.354a3.28,3.28,0,0,1,2.716-1.332,3.3,3.3,0,0,1,2.646,1.143V-13.5h1.626V0H94.395l-.079-1.02A3.311,3.311,0,0,1,91.6.176a3.248,3.248,0,0,1-2.694-1.354,5.634,5.634,0,0,1-1.042-3.533Zm1.626.185a4.218,4.218,0,0,0,.668,2.531A2.159,2.159,0,0,0,92-1.2a2.372,2.372,0,0,0,2.259-1.389V-6.961a2.39,2.39,0,0,0-2.241-1.345,2.17,2.17,0,0,0-1.863.923A4.644,4.644,0,0,0,89.49-4.649Zm8.49-.193a5.617,5.617,0,0,1,.549-2.514,4.1,4.1,0,0,1,1.529-1.723,4.163,4.163,0,0,1,2.237-.606,4.01,4.01,0,0,1,3.142,1.345,5.174,5.174,0,0,1,1.2,3.577v.114a5.666,5.666,0,0,1-.532,2.492,4.038,4.038,0,0,1-1.521,1.718,4.211,4.211,0,0,1-2.272.615A4,4,0,0,1,99.18-1.169a5.147,5.147,0,0,1-1.2-3.56Zm1.635.193a4.068,4.068,0,0,0,.734,2.54,2.349,2.349,0,0,0,1.964.958,2.335,2.335,0,0,0,1.969-.971,4.449,4.449,0,0,0,.729-2.72,4.061,4.061,0,0,0-.743-2.536A2.361,2.361,0,0,0,102.3-8.35a2.335,2.335,0,0,0-1.942.958A4.416,4.416,0,0,0,99.615-4.649Zm13.658-3.4a4.873,4.873,0,0,0-.8-.062A2.143,2.143,0,0,0,110.3-6.75V0h-1.626V-9.51h1.582l.026,1.1a2.532,2.532,0,0,1,2.268-1.274,1.661,1.661,0,0,1,.721.123Zm5.555,3.217a5.571,5.571,0,0,1,1.037-3.52,3.28,3.28,0,0,1,2.716-1.332,3.3,3.3,0,0,1,2.646,1.143V-13.5h1.626V0h-1.494l-.079-1.02a3.311,3.311,0,0,1-2.716,1.2,3.248,3.248,0,0,1-2.694-1.354,5.634,5.634,0,0,1-1.042-3.533Zm1.626.185a4.218,4.218,0,0,0,.668,2.531,2.159,2.159,0,0,0,1.846.914,2.372,2.372,0,0,0,2.259-1.389V-6.961a2.39,2.39,0,0,0-2.241-1.345,2.17,2.17,0,0,0-1.863.923A4.644,4.644,0,0,0,120.454-4.649ZM133.321.176a4.155,4.155,0,0,1-3.146-1.27,4.714,4.714,0,0,1-1.213-3.4v-.3a5.707,5.707,0,0,1,.541-2.527,4.217,4.217,0,0,1,1.512-1.74,3.8,3.8,0,0,1,2.1-.628A3.562,3.562,0,0,1,136-8.464a5.289,5.289,0,0,1,1.028,3.5v.677h-6.442a3.38,3.38,0,0,0,.822,2.272,2.583,2.583,0,0,0,2,.866,2.832,2.832,0,0,0,1.459-.352,3.666,3.666,0,0,0,1.046-.932l.993.773A3.993,3.993,0,0,1,133.321.176Zm-.2-8.525a2.169,2.169,0,0,0-1.652.716,3.482,3.482,0,0,0-.826,2.008H135.4v-.123a3.1,3.1,0,0,0-.668-1.92A2.042,2.042,0,0,0,133.119-8.35Zm14.063,7.2a2.342,2.342,0,0,0,1.521-.527A1.855,1.855,0,0,0,149.423-3h1.538a2.949,2.949,0,0,1-.562,1.556,3.7,3.7,0,0,1-1.384,1.178,3.994,3.994,0,0,1-1.833.439,3.918,3.918,0,0,1-3.089-1.3,5.163,5.163,0,0,1-1.147-3.546v-.272a5.725,5.725,0,0,1,.51-2.47,3.883,3.883,0,0,1,1.463-1.679,4.157,4.157,0,0,1,2.254-.6,3.814,3.814,0,0,1,2.659.958,3.424,3.424,0,0,1,1.129,2.487h-1.538a2.241,2.241,0,0,0-.7-1.516,2.174,2.174,0,0,0-1.551-.593,2.276,2.276,0,0,0-1.92.892,4.19,4.19,0,0,0-.681,2.58v.308a4.106,4.106,0,0,0,.677,2.531A2.287,2.287,0,0,0,147.182-1.151ZM158.66,0a3.416,3.416,0,0,1-.229-1A3.628,3.628,0,0,1,155.725.176a3.357,3.357,0,0,1-2.307-.8,2.573,2.573,0,0,1-.9-2.017,2.688,2.688,0,0,1,1.129-2.307,5.325,5.325,0,0,1,3.177-.822h1.582v-.747a1.826,1.826,0,0,0-.51-1.358,2.049,2.049,0,0,0-1.5-.505,2.371,2.371,0,0,0-1.459.439,1.3,1.3,0,0,0-.589,1.063H152.71a2.244,2.244,0,0,1,.505-1.375,3.449,3.449,0,0,1,1.371-1.05,4.613,4.613,0,0,1,1.9-.387,3.759,3.759,0,0,1,2.575.822,2.964,2.964,0,0,1,.967,2.263v4.377a5.351,5.351,0,0,0,.334,2.083V0Zm-2.7-1.239a2.858,2.858,0,0,0,1.45-.4,2.392,2.392,0,0,0,.993-1.028V-4.614h-1.274q-2.988,0-2.988,1.749a1.48,1.48,0,0,0,.51,1.2A1.959,1.959,0,0,0,155.962-1.239Zm14.651-3.41a5.694,5.694,0,0,1-.993,3.5A3.183,3.183,0,0,1,166.931.176a3.488,3.488,0,0,1-2.725-1.1V3.656H162.58V-9.51h1.485l.079,1.055a3.35,3.35,0,0,1,2.76-1.23,3.243,3.243,0,0,1,2.711,1.292,5.756,5.756,0,0,1,1,3.595Zm-1.626-.185a4.2,4.2,0,0,0-.686-2.54,2.208,2.208,0,0,0-1.881-.932A2.39,2.39,0,0,0,164.206-7v4.544a2.4,2.4,0,0,0,2.232,1.3,2.2,2.2,0,0,0,1.859-.927A4.587,4.587,0,0,0,168.987-4.834ZM178.55,0a3.416,3.416,0,0,1-.229-1A3.628,3.628,0,0,1,175.614.176a3.357,3.357,0,0,1-2.307-.8,2.573,2.573,0,0,1-.9-2.017,2.688,2.688,0,0,1,1.129-2.307,5.325,5.325,0,0,1,3.177-.822h1.582v-.747a1.826,1.826,0,0,0-.51-1.358,2.049,2.049,0,0,0-1.5-.505,2.371,2.371,0,0,0-1.459.439,1.3,1.3,0,0,0-.589,1.063H172.6a2.244,2.244,0,0,1,.505-1.375,3.449,3.449,0,0,1,1.371-1.05,4.613,4.613,0,0,1,1.9-.387,3.759,3.759,0,0,1,2.575.822,2.964,2.964,0,0,1,.967,2.263v4.377a5.351,5.351,0,0,0,.334,2.083V0Zm-2.7-1.239a2.858,2.858,0,0,0,1.45-.4,2.392,2.392,0,0,0,.993-1.028V-4.614h-1.274q-2.988,0-2.988,1.749a1.48,1.48,0,0,0,.51,1.2A1.959,1.959,0,0,0,175.852-1.239Zm12.155-1.283a1.2,1.2,0,0,0-.5-1.024,4.78,4.78,0,0,0-1.731-.628,8.186,8.186,0,0,1-1.96-.633,2.788,2.788,0,0,1-1.072-.879A2.1,2.1,0,0,1,182.4-6.9a2.467,2.467,0,0,1,.989-1.978,3.861,3.861,0,0,1,2.527-.809,3.974,3.974,0,0,1,2.624.835,2.652,2.652,0,0,1,1.006,2.136H187.91a1.468,1.468,0,0,0-.567-1.151,2.124,2.124,0,0,0-1.428-.483,2.223,2.223,0,0,0-1.389.387,1.217,1.217,0,0,0-.5,1.011.986.986,0,0,0,.466.888,5.731,5.731,0,0,0,1.683.571,8.77,8.77,0,0,1,1.973.65,2.878,2.878,0,0,1,1.121.91,2.237,2.237,0,0,1,.365,1.3,2.434,2.434,0,0,1-1.02,2.043,4.277,4.277,0,0,1-2.646.769,4.789,4.789,0,0,1-2.021-.4,3.288,3.288,0,0,1-1.375-1.129,2.722,2.722,0,0,1-.5-1.569H183.7a1.683,1.683,0,0,0,.655,1.3,2.54,2.54,0,0,0,1.613.479,2.622,2.622,0,0,0,1.481-.374A1.148,1.148,0,0,0,188.007-2.522Zm12.015,1.371a2.342,2.342,0,0,0,1.521-.527A1.855,1.855,0,0,0,202.263-3H203.8a2.949,2.949,0,0,1-.562,1.556,3.7,3.7,0,0,1-1.384,1.178,3.994,3.994,0,0,1-1.833.439,3.918,3.918,0,0,1-3.089-1.3,5.163,5.163,0,0,1-1.147-3.546v-.272a5.725,5.725,0,0,1,.51-2.47,3.883,3.883,0,0,1,1.463-1.679,4.157,4.157,0,0,1,2.254-.6,3.814,3.814,0,0,1,2.659.958A3.424,3.424,0,0,1,203.8-6.24h-1.538a2.241,2.241,0,0,0-.7-1.516,2.174,2.174,0,0,0-1.551-.593,2.276,2.276,0,0,0-1.92.892,4.19,4.19,0,0,0-.681,2.58v.308a4.106,4.106,0,0,0,.677,2.531A2.287,2.287,0,0,0,200.021-1.151ZM205.2-4.843a5.617,5.617,0,0,1,.549-2.514,4.1,4.1,0,0,1,1.529-1.723,4.163,4.163,0,0,1,2.237-.606,4.01,4.01,0,0,1,3.142,1.345,5.174,5.174,0,0,1,1.2,3.577v.114a5.666,5.666,0,0,1-.532,2.492A4.038,4.038,0,0,1,211.8-.439a4.211,4.211,0,0,1-2.272.615A4,4,0,0,1,206.4-1.169a5.147,5.147,0,0,1-1.2-3.56Zm1.635.193a4.068,4.068,0,0,0,.734,2.54,2.349,2.349,0,0,0,1.964.958,2.335,2.335,0,0,0,1.969-.971,4.449,4.449,0,0,0,.729-2.72,4.061,4.061,0,0,0-.743-2.536,2.361,2.361,0,0,0-1.973-.971,2.335,2.335,0,0,0-1.942.958A4.416,4.416,0,0,0,206.833-4.649Zm10.6-4.86.053,1.2a3.465,3.465,0,0,1,2.848-1.371q3.015,0,3.041,3.4V0h-1.626V-6.293a2.189,2.189,0,0,0-.47-1.521,1.884,1.884,0,0,0-1.437-.492,2.347,2.347,0,0,0-1.389.422,2.865,2.865,0,0,0-.932,1.107V0h-1.626V-9.51ZM236.153,0a3.416,3.416,0,0,1-.229-1A3.628,3.628,0,0,1,233.218.176a3.357,3.357,0,0,1-2.307-.8,2.573,2.573,0,0,1-.9-2.017,2.688,2.688,0,0,1,1.129-2.307,5.325,5.325,0,0,1,3.177-.822H235.9v-.747a1.826,1.826,0,0,0-.51-1.358,2.049,2.049,0,0,0-1.5-.505,2.371,2.371,0,0,0-1.459.439,1.3,1.3,0,0,0-.589,1.063H230.2a2.244,2.244,0,0,1,.505-1.375A3.449,3.449,0,0,1,232.08-9.3a4.613,4.613,0,0,1,1.9-.387,3.759,3.759,0,0,1,2.575.822,2.964,2.964,0,0,1,.967,2.263v4.377a5.351,5.351,0,0,0,.334,2.083V0Zm-2.7-1.239a2.858,2.858,0,0,0,1.45-.4,2.392,2.392,0,0,0,.993-1.028V-4.614h-1.274q-2.988,0-2.988,1.749a1.48,1.48,0,0,0,.51,1.2A1.959,1.959,0,0,0,233.455-1.239Zm1.5-12.261h1.969l-2.355,2.584-1.31,0Zm9.712,5.449a4.873,4.873,0,0,0-.8-.062A2.143,2.143,0,0,0,241.7-6.75V0h-1.626V-9.51h1.582l.026,1.1a2.532,2.532,0,0,1,2.268-1.274,1.661,1.661,0,0,1,.721.123ZM250.11.176a4.155,4.155,0,0,1-3.146-1.27,4.714,4.714,0,0,1-1.213-3.4v-.3a5.707,5.707,0,0,1,.541-2.527,4.217,4.217,0,0,1,1.512-1.74,3.8,3.8,0,0,1,2.1-.628,3.562,3.562,0,0,1,2.883,1.222,5.289,5.289,0,0,1,1.028,3.5v.677h-6.442a3.38,3.38,0,0,0,.822,2.272,2.583,2.583,0,0,0,2,.866,2.832,2.832,0,0,0,1.459-.352,3.666,3.666,0,0,0,1.046-.932l.993.773A3.993,3.993,0,0,1,250.11.176Zm-.2-8.525a2.169,2.169,0,0,0-1.652.716,3.482,3.482,0,0,0-.826,2.008h4.764v-.123a3.1,3.1,0,0,0-.668-1.92A2.042,2.042,0,0,0,249.908-8.35ZM261.571,0a3.416,3.416,0,0,1-.229-1A3.628,3.628,0,0,1,258.636.176a3.357,3.357,0,0,1-2.307-.8,2.573,2.573,0,0,1-.9-2.017,2.688,2.688,0,0,1,1.129-2.307,5.325,5.325,0,0,1,3.177-.822h1.582v-.747a1.826,1.826,0,0,0-.51-1.358,2.049,2.049,0,0,0-1.5-.505,2.371,2.371,0,0,0-1.459.439,1.3,1.3,0,0,0-.589,1.063h-1.635a2.244,2.244,0,0,1,.505-1.375A3.449,3.449,0,0,1,257.5-9.3a4.613,4.613,0,0,1,1.9-.387,3.759,3.759,0,0,1,2.575.822,2.964,2.964,0,0,1,.967,2.263v4.377a5.351,5.351,0,0,0,.334,2.083V0Zm-2.7-1.239a2.858,2.858,0,0,0,1.45-.4,2.392,2.392,0,0,0,.993-1.028V-4.614h-1.274q-2.988,0-2.988,1.749a1.48,1.48,0,0,0,.51,1.2A1.959,1.959,0,0,0,258.873-1.239Zm12.155-1.283a1.2,1.2,0,0,0-.5-1.024,4.78,4.78,0,0,0-1.731-.628,8.186,8.186,0,0,1-1.96-.633,2.788,2.788,0,0,1-1.072-.879,2.1,2.1,0,0,1-.347-1.213,2.467,2.467,0,0,1,.989-1.978,3.861,3.861,0,0,1,2.527-.809,3.974,3.974,0,0,1,2.624.835,2.652,2.652,0,0,1,1.006,2.136h-1.635a1.468,1.468,0,0,0-.567-1.151,2.124,2.124,0,0,0-1.428-.483,2.223,2.223,0,0,0-1.389.387,1.217,1.217,0,0,0-.5,1.011.986.986,0,0,0,.466.888,5.731,5.731,0,0,0,1.683.571,8.77,8.77,0,0,1,1.973.65,2.878,2.878,0,0,1,1.121.91,2.237,2.237,0,0,1,.365,1.3,2.434,2.434,0,0,1-1.02,2.043,4.277,4.277,0,0,1-2.646.769,4.789,4.789,0,0,1-2.021-.4,3.288,3.288,0,0,1-1.375-1.129,2.722,2.722,0,0,1-.5-1.569h1.626a1.683,1.683,0,0,0,.655,1.3,2.54,2.54,0,0,0,1.613.479,2.622,2.622,0,0,0,1.481-.374A1.148,1.148,0,0,0,271.028-2.522Zm7.77-2.32a5.617,5.617,0,0,1,.549-2.514,4.1,4.1,0,0,1,1.529-1.723,4.163,4.163,0,0,1,2.237-.606,4.01,4.01,0,0,1,3.142,1.345,5.174,5.174,0,0,1,1.2,3.577v.114a5.666,5.666,0,0,1-.532,2.492A4.038,4.038,0,0,1,285.4-.439a4.211,4.211,0,0,1-2.272.615A4,4,0,0,1,280-1.169a5.147,5.147,0,0,1-1.2-3.56Zm1.635.193a4.068,4.068,0,0,0,.734,2.54,2.349,2.349,0,0,0,1.964.958,2.335,2.335,0,0,0,1.969-.971,4.449,4.449,0,0,0,.729-2.72,4.061,4.061,0,0,0-.743-2.536,2.361,2.361,0,0,0-1.973-.971,2.335,2.335,0,0,0-1.942.958A4.416,4.416,0,0,0,280.433-4.649Zm12.876,3.5a2.342,2.342,0,0,0,1.521-.527A1.855,1.855,0,0,0,295.55-3h1.538a2.949,2.949,0,0,1-.562,1.556,3.7,3.7,0,0,1-1.384,1.178,3.994,3.994,0,0,1-1.833.439,3.918,3.918,0,0,1-3.089-1.3,5.163,5.163,0,0,1-1.147-3.546v-.272a5.725,5.725,0,0,1,.51-2.47,3.883,3.883,0,0,1,1.463-1.679,4.157,4.157,0,0,1,2.254-.6,3.814,3.814,0,0,1,2.659.958,3.424,3.424,0,0,1,1.129,2.487H295.55a2.241,2.241,0,0,0-.7-1.516A2.174,2.174,0,0,0,293.3-8.35a2.276,2.276,0,0,0-1.92.892,4.19,4.19,0,0,0-.681,2.58v.308a4.106,4.106,0,0,0,.677,2.531A2.287,2.287,0,0,0,293.309-1.151Zm11.479.211A3.454,3.454,0,0,1,302,.176a2.956,2.956,0,0,1-2.316-.883,3.823,3.823,0,0,1-.8-2.615V-9.51h1.626v6.144q0,2.162,1.758,2.162a2.434,2.434,0,0,0,2.479-1.389V-9.51h1.626V0h-1.547Zm5.818.94h-1.626V-13.5h1.626Zm4.808-11.812v2.3h1.775v1.257h-1.775v5.9a1.32,1.32,0,0,0,.237.858,1,1,0,0,0,.809.286,3.937,3.937,0,0,0,.773-.105V0a4.742,4.742,0,0,1-1.248.175,2.025,2.025,0,0,1-1.644-.659,2.832,2.832,0,0,1-.554-1.872v-5.9h-1.731V-9.51h1.731v-2.3ZM324.958,0a3.416,3.416,0,0,1-.229-1A3.628,3.628,0,0,1,322.022.176a3.357,3.357,0,0,1-2.307-.8,2.573,2.573,0,0,1-.9-2.017,2.688,2.688,0,0,1,1.129-2.307,5.325,5.325,0,0,1,3.177-.822H324.7v-.747a1.826,1.826,0,0,0-.51-1.358,2.049,2.049,0,0,0-1.5-.505,2.371,2.371,0,0,0-1.459.439,1.3,1.3,0,0,0-.589,1.063h-1.635a2.244,2.244,0,0,1,.505-1.375,3.449,3.449,0,0,1,1.371-1.05,4.613,4.613,0,0,1,1.9-.387,3.759,3.759,0,0,1,2.575.822,2.964,2.964,0,0,1,.967,2.263v4.377a5.351,5.351,0,0,0,.334,2.083V0Zm-2.7-1.239a2.858,2.858,0,0,0,1.45-.4,2.392,2.392,0,0,0,.993-1.028V-4.614h-1.274q-2.988,0-2.988,1.749a1.48,1.48,0,0,0,.51,1.2A1.959,1.959,0,0,0,322.26-1.239Zm12.155-1.283a1.2,1.2,0,0,0-.5-1.024,4.78,4.78,0,0,0-1.731-.628,8.186,8.186,0,0,1-1.96-.633,2.788,2.788,0,0,1-1.072-.879,2.1,2.1,0,0,1-.347-1.213,2.467,2.467,0,0,1,.989-1.978,3.861,3.861,0,0,1,2.527-.809,3.974,3.974,0,0,1,2.624.835,2.652,2.652,0,0,1,1.006,2.136h-1.635a1.468,1.468,0,0,0-.567-1.151,2.124,2.124,0,0,0-1.428-.483,2.223,2.223,0,0,0-1.389.387,1.217,1.217,0,0,0-.5,1.011.986.986,0,0,0,.466.888,5.731,5.731,0,0,0,1.683.571,8.77,8.77,0,0,1,1.973.65,2.878,2.878,0,0,1,1.121.91,2.237,2.237,0,0,1,.365,1.3,2.434,2.434,0,0,1-1.02,2.043,4.277,4.277,0,0,1-2.646.769,4.789,4.789,0,0,1-2.021-.4,3.288,3.288,0,0,1-1.375-1.129,2.722,2.722,0,0,1-.5-1.569h1.626a1.683,1.683,0,0,0,.655,1.3,2.54,2.54,0,0,0,1.613.479,2.622,2.622,0,0,0,1.481-.374A1.148,1.148,0,0,0,334.415-2.522Z" transform="translate(19.792 17.089)" fill="#12263f"/>
          </g>
        </g>
        <rect id="Rectángulo_30773" data-name="Rectángulo 30773" width="820" height="625" transform="translate(600 1100)" fill="none"/>
      </g>
    </g>
  </g>
</svg>
