<svg xmlns="http://www.w3.org/2000/svg" width="609.988" height="643.633" viewBox="0 0 609.988 643.633">
  <g id="Grupo_62059" data-name="Grupo 62059" transform="translate(-704.966 -397)">
    <g id="Grupo_60035" data-name="Grupo 60035" transform="translate(105.386 -152)">
      <g id="Grupo_59586" data-name="Grupo 59586" transform="translate(599.614 549)">
        <rect id="Rectángulo_30672" data-name="Rectángulo 30672" width="5.63" height="32.656" transform="translate(0)" fill="#fba321"/>
        <path id="Trazado_130997" data-name="Trazado 130997" d="M8.552-3.349H3.19L1.986,0H.246L5.133-12.8H6.609L11.5,0H9.773ZM3.7-4.729H8.051l-2.18-5.985Zm8.877-.105a5.571,5.571,0,0,1,1.037-3.52A3.28,3.28,0,0,1,16.33-9.686a3.3,3.3,0,0,1,2.646,1.143V-13.5H20.6V0H19.107l-.079-1.02a3.311,3.311,0,0,1-2.716,1.2,3.248,3.248,0,0,1-2.694-1.354,5.634,5.634,0,0,1-1.042-3.533Zm1.626.185a4.218,4.218,0,0,0,.668,2.531,2.159,2.159,0,0,0,1.846.914,2.372,2.372,0,0,0,2.259-1.389V-6.961a2.39,2.39,0,0,0-2.241-1.345,2.17,2.17,0,0,0-1.863.923A4.644,4.644,0,0,0,14.2-4.649Zm10.45-4.86L24.7-8.455a3.512,3.512,0,0,1,2.821-1.23,2.719,2.719,0,0,1,2.716,1.529,3.6,3.6,0,0,1,1.235-1.107,3.647,3.647,0,0,1,1.8-.422q3.129,0,3.182,3.313V0H34.822V-6.275A2.184,2.184,0,0,0,34.356-7.8a2.051,2.051,0,0,0-1.564-.505,2.156,2.156,0,0,0-1.5.541,2.193,2.193,0,0,0-.694,1.455V0H28.96V-6.231a1.814,1.814,0,0,0-2.03-2.074,2.175,2.175,0,0,0-2.188,1.362V0H23.115V-9.51ZM40.667,0H39.041V-9.51h1.626ZM38.909-12.032a.971.971,0,0,1,.242-.668.907.907,0,0,1,.716-.272.922.922,0,0,1,.721.272.96.96,0,0,1,.246.668.929.929,0,0,1-.246.659.938.938,0,0,1-.721.264.924.924,0,0,1-.716-.264A.938.938,0,0,1,38.909-12.032Zm5.9,2.522.053,1.2a3.465,3.465,0,0,1,2.848-1.371q3.015,0,3.041,3.4V0H49.122V-6.293a2.189,2.189,0,0,0-.47-1.521,1.884,1.884,0,0,0-1.437-.492,2.347,2.347,0,0,0-1.389.422,2.865,2.865,0,0,0-.932,1.107V0H43.269V-9.51ZM54.967,0H53.341V-9.51h1.626ZM53.209-12.032a.971.971,0,0,1,.242-.668.907.907,0,0,1,.716-.272.922.922,0,0,1,.721.272.96.96,0,0,1,.246.668.929.929,0,0,1-.246.659.938.938,0,0,1-.721.264.924.924,0,0,1-.716-.264A.938.938,0,0,1,53.209-12.032Zm9.9,9.51a1.2,1.2,0,0,0-.5-1.024,4.78,4.78,0,0,0-1.731-.628,8.186,8.186,0,0,1-1.96-.633,2.788,2.788,0,0,1-1.072-.879A2.1,2.1,0,0,1,57.5-6.9a2.467,2.467,0,0,1,.989-1.978,3.861,3.861,0,0,1,2.527-.809,3.974,3.974,0,0,1,2.624.835,2.652,2.652,0,0,1,1.006,2.136H63.009a1.468,1.468,0,0,0-.567-1.151,2.124,2.124,0,0,0-1.428-.483,2.223,2.223,0,0,0-1.389.387,1.217,1.217,0,0,0-.5,1.011.986.986,0,0,0,.466.888,5.731,5.731,0,0,0,1.683.571,8.77,8.77,0,0,1,1.973.65,2.878,2.878,0,0,1,1.121.91,2.237,2.237,0,0,1,.365,1.3,2.434,2.434,0,0,1-1.02,2.043,4.277,4.277,0,0,1-2.646.769,4.789,4.789,0,0,1-2.021-.4,3.288,3.288,0,0,1-1.375-1.129,2.722,2.722,0,0,1-.5-1.569H58.8a1.683,1.683,0,0,0,.655,1.3,2.54,2.54,0,0,0,1.613.479,2.622,2.622,0,0,0,1.481-.374A1.148,1.148,0,0,0,63.105-2.522Zm5.95-9.29v2.3h1.775v1.257H69.056v5.9a1.32,1.32,0,0,0,.237.858A1,1,0,0,0,70.1-1.2a3.937,3.937,0,0,0,.773-.105V0a4.742,4.742,0,0,1-1.248.175,2.025,2.025,0,0,1-1.644-.659,2.832,2.832,0,0,1-.554-1.872v-5.9H65.7V-9.51H67.43v-2.3Zm8.271,3.762a4.873,4.873,0,0,0-.8-.062A2.143,2.143,0,0,0,74.355-6.75V0H72.729V-9.51h1.582l.026,1.1a2.532,2.532,0,0,1,2.268-1.274,1.661,1.661,0,0,1,.721.123ZM84.34,0a3.416,3.416,0,0,1-.229-1A3.628,3.628,0,0,1,81.4.176,3.357,3.357,0,0,1,79.1-.62a2.573,2.573,0,0,1-.9-2.017,2.688,2.688,0,0,1,1.129-2.307A5.325,5.325,0,0,1,82.5-5.766h1.582v-.747a1.826,1.826,0,0,0-.51-1.358,2.049,2.049,0,0,0-1.5-.505,2.371,2.371,0,0,0-1.459.439,1.3,1.3,0,0,0-.589,1.063H78.39A2.244,2.244,0,0,1,78.9-8.249,3.449,3.449,0,0,1,80.266-9.3a4.613,4.613,0,0,1,1.9-.387,3.759,3.759,0,0,1,2.575.822A2.964,2.964,0,0,1,85.711-6.6v4.377a5.351,5.351,0,0,0,.334,2.083V0Zm-2.7-1.239a2.858,2.858,0,0,0,1.45-.4,2.392,2.392,0,0,0,.993-1.028V-4.614H82.811q-2.988,0-2.988,1.749a1.48,1.48,0,0,0,.51,1.2A1.959,1.959,0,0,0,81.642-1.239Zm6.223-3.595A5.571,5.571,0,0,1,88.9-8.354a3.28,3.28,0,0,1,2.716-1.332,3.3,3.3,0,0,1,2.646,1.143V-13.5h1.626V0H94.395l-.079-1.02A3.311,3.311,0,0,1,91.6.176a3.248,3.248,0,0,1-2.694-1.354,5.634,5.634,0,0,1-1.042-3.533Zm1.626.185a4.218,4.218,0,0,0,.668,2.531A2.159,2.159,0,0,0,92-1.2a2.372,2.372,0,0,0,2.259-1.389V-6.961a2.39,2.39,0,0,0-2.241-1.345,2.17,2.17,0,0,0-1.863.923A4.644,4.644,0,0,0,89.49-4.649Zm8.49-.193a5.617,5.617,0,0,1,.549-2.514,4.1,4.1,0,0,1,1.529-1.723,4.163,4.163,0,0,1,2.237-.606,4.01,4.01,0,0,1,3.142,1.345,5.174,5.174,0,0,1,1.2,3.577v.114a5.666,5.666,0,0,1-.532,2.492,4.038,4.038,0,0,1-1.521,1.718,4.211,4.211,0,0,1-2.272.615A4,4,0,0,1,99.18-1.169a5.147,5.147,0,0,1-1.2-3.56Zm1.635.193a4.068,4.068,0,0,0,.734,2.54,2.349,2.349,0,0,0,1.964.958,2.335,2.335,0,0,0,1.969-.971,4.449,4.449,0,0,0,.729-2.72,4.061,4.061,0,0,0-.743-2.536A2.361,2.361,0,0,0,102.3-8.35a2.335,2.335,0,0,0-1.942.958A4.416,4.416,0,0,0,99.615-4.649Zm13.658-3.4a4.873,4.873,0,0,0-.8-.062A2.143,2.143,0,0,0,110.3-6.75V0h-1.626V-9.51h1.582l.026,1.1a2.532,2.532,0,0,1,2.268-1.274,1.661,1.661,0,0,1,.721.123Zm5.555,3.217a5.571,5.571,0,0,1,1.037-3.52,3.28,3.28,0,0,1,2.716-1.332,3.3,3.3,0,0,1,2.646,1.143V-13.5h1.626V0h-1.494l-.079-1.02a3.311,3.311,0,0,1-2.716,1.2,3.248,3.248,0,0,1-2.694-1.354,5.634,5.634,0,0,1-1.042-3.533Zm1.626.185a4.218,4.218,0,0,0,.668,2.531,2.159,2.159,0,0,0,1.846.914,2.372,2.372,0,0,0,2.259-1.389V-6.961a2.39,2.39,0,0,0-2.241-1.345,2.17,2.17,0,0,0-1.863.923A4.644,4.644,0,0,0,120.454-4.649ZM133.321.176a4.155,4.155,0,0,1-3.146-1.27,4.714,4.714,0,0,1-1.213-3.4v-.3a5.707,5.707,0,0,1,.541-2.527,4.217,4.217,0,0,1,1.512-1.74,3.8,3.8,0,0,1,2.1-.628A3.562,3.562,0,0,1,136-8.464a5.289,5.289,0,0,1,1.028,3.5v.677h-6.442a3.38,3.38,0,0,0,.822,2.272,2.583,2.583,0,0,0,2,.866,2.832,2.832,0,0,0,1.459-.352,3.666,3.666,0,0,0,1.046-.932l.993.773A3.993,3.993,0,0,1,133.321.176Zm-.2-8.525a2.169,2.169,0,0,0-1.652.716,3.482,3.482,0,0,0-.826,2.008H135.4v-.123a3.1,3.1,0,0,0-.668-1.92A2.042,2.042,0,0,0,133.119-8.35Zm19.916,4.289a4.708,4.708,0,0,1-1.5,3.133,4.911,4.911,0,0,1-3.353,1.1,4.509,4.509,0,0,1-3.634-1.626A6.542,6.542,0,0,1,143.183-5.8v-1.23a7.291,7.291,0,0,1,.637-3.138,4.76,4.76,0,0,1,1.806-2.079,5.029,5.029,0,0,1,2.707-.725,4.624,4.624,0,0,1,3.27,1.138,4.765,4.765,0,0,1,1.433,3.151h-1.7a3.677,3.677,0,0,0-.954-2.222,2.885,2.885,0,0,0-2.052-.688,3.019,3.019,0,0,0-2.536,1.2,5.492,5.492,0,0,0-.918,3.4v1.24a5.645,5.645,0,0,0,.87,3.316A2.812,2.812,0,0,0,148.184-1.2a3.247,3.247,0,0,0,2.158-.637,3.536,3.536,0,0,0,1-2.219ZM160.954,0a3.416,3.416,0,0,1-.229-1A3.628,3.628,0,0,1,158.019.176a3.357,3.357,0,0,1-2.307-.8,2.573,2.573,0,0,1-.9-2.017,2.688,2.688,0,0,1,1.129-2.307,5.325,5.325,0,0,1,3.177-.822H160.7v-.747a1.826,1.826,0,0,0-.51-1.358,2.049,2.049,0,0,0-1.5-.505,2.371,2.371,0,0,0-1.459.439,1.3,1.3,0,0,0-.589,1.063H155a2.244,2.244,0,0,1,.505-1.375A3.449,3.449,0,0,1,156.88-9.3a4.613,4.613,0,0,1,1.9-.387,3.759,3.759,0,0,1,2.575.822,2.964,2.964,0,0,1,.967,2.263v4.377a5.351,5.351,0,0,0,.334,2.083V0Zm-2.7-1.239a2.858,2.858,0,0,0,1.45-.4,2.392,2.392,0,0,0,.993-1.028V-4.614h-1.274q-2.988,0-2.988,1.749a1.48,1.48,0,0,0,.51,1.2A1.959,1.959,0,0,0,158.256-1.239Zm14.651-3.41a5.694,5.694,0,0,1-.993,3.5A3.183,3.183,0,0,1,169.225.176a3.488,3.488,0,0,1-2.725-1.1V3.656h-1.626V-9.51h1.485l.079,1.055a3.35,3.35,0,0,1,2.76-1.23,3.243,3.243,0,0,1,2.711,1.292,5.756,5.756,0,0,1,1,3.595Zm-1.626-.185a4.2,4.2,0,0,0-.686-2.54,2.208,2.208,0,0,0-1.881-.932A2.39,2.39,0,0,0,166.5-7v4.544a2.4,2.4,0,0,0,2.232,1.3,2.2,2.2,0,0,0,1.859-.927A4.587,4.587,0,0,0,171.281-4.834ZM180.844,0a3.416,3.416,0,0,1-.229-1A3.628,3.628,0,0,1,177.908.176a3.357,3.357,0,0,1-2.307-.8,2.573,2.573,0,0,1-.9-2.017,2.688,2.688,0,0,1,1.129-2.307,5.325,5.325,0,0,1,3.177-.822h1.582v-.747a1.826,1.826,0,0,0-.51-1.358,2.049,2.049,0,0,0-1.5-.505,2.371,2.371,0,0,0-1.459.439,1.3,1.3,0,0,0-.589,1.063h-1.635a2.244,2.244,0,0,1,.505-1.375A3.449,3.449,0,0,1,176.77-9.3a4.613,4.613,0,0,1,1.9-.387,3.759,3.759,0,0,1,2.575.822,2.964,2.964,0,0,1,.967,2.263v4.377a5.351,5.351,0,0,0,.334,2.083V0Zm-2.7-1.239a2.858,2.858,0,0,0,1.45-.4,2.392,2.392,0,0,0,.993-1.028V-4.614h-1.274q-2.988,0-2.988,1.749a1.48,1.48,0,0,0,.51,1.2A1.959,1.959,0,0,0,178.146-1.239ZM190.3-2.522a1.2,1.2,0,0,0-.5-1.024,4.78,4.78,0,0,0-1.731-.628,8.186,8.186,0,0,1-1.96-.633,2.788,2.788,0,0,1-1.072-.879,2.1,2.1,0,0,1-.347-1.213,2.467,2.467,0,0,1,.989-1.978,3.861,3.861,0,0,1,2.527-.809,3.974,3.974,0,0,1,2.624.835,2.652,2.652,0,0,1,1.006,2.136H190.2a1.468,1.468,0,0,0-.567-1.151,2.124,2.124,0,0,0-1.428-.483,2.223,2.223,0,0,0-1.389.387,1.217,1.217,0,0,0-.5,1.011.986.986,0,0,0,.466.888,5.731,5.731,0,0,0,1.683.571,8.77,8.77,0,0,1,1.973.65,2.878,2.878,0,0,1,1.121.91,2.237,2.237,0,0,1,.365,1.3,2.434,2.434,0,0,1-1.02,2.043,4.277,4.277,0,0,1-2.646.769,4.789,4.789,0,0,1-2.021-.4,3.288,3.288,0,0,1-1.375-1.129,2.722,2.722,0,0,1-.5-1.569h1.626a1.683,1.683,0,0,0,.655,1.3,2.54,2.54,0,0,0,1.613.479,2.622,2.622,0,0,0,1.481-.374A1.148,1.148,0,0,0,190.3-2.522Z" transform="translate(22.521 20.92)" fill="#12263f"/>
      </g>
      <g id="Grupo_57751" data-name="Grupo 57751" transform="translate(599.614 1146.95)">
        <rect id="Rectángulo_29951" data-name="Rectángulo 29951" width="609.211" height="45.682" transform="translate(0 0)" fill="#e8e8e8"/>
        <path id="Trazado_130998" data-name="Trazado 130998" d="M9.434,16H8.02L2.651,7.782V16H1.238V5.336H2.651L8.035,13.59V5.336h1.4Zm1.926-4.036a4.681,4.681,0,0,1,.458-2.095,3.415,3.415,0,0,1,1.274-1.436,3.469,3.469,0,0,1,1.864-.505,3.342,3.342,0,0,1,2.618,1.121,4.311,4.311,0,0,1,1,2.981v.1a4.722,4.722,0,0,1-.443,2.076,3.365,3.365,0,0,1-1.267,1.432,3.509,3.509,0,0,1-1.893.513,3.334,3.334,0,0,1-2.611-1.121,4.29,4.29,0,0,1-1-2.966Zm1.362.161a3.39,3.39,0,0,0,.612,2.117,2.072,2.072,0,0,0,3.278-.011,3.707,3.707,0,0,0,.608-2.267A3.384,3.384,0,0,0,16.6,9.851a1.968,1.968,0,0,0-1.644-.809,1.946,1.946,0,0,0-1.619.8A3.68,3.68,0,0,0,12.722,12.125Zm9.39-5.969V8.075h1.479V9.123H22.112v4.921a1.1,1.1,0,0,0,.2.715.832.832,0,0,0,.674.238,3.281,3.281,0,0,0,.645-.088V16a3.951,3.951,0,0,1-1.04.146,1.687,1.687,0,0,1-1.37-.549,2.36,2.36,0,0,1-.461-1.56V9.123H19.314V8.075h1.443V6.156ZM30.066,16a2.846,2.846,0,0,1-.19-.835,3.023,3.023,0,0,1-2.256.981,2.8,2.8,0,0,1-1.923-.663,2.145,2.145,0,0,1-.751-1.681,2.24,2.24,0,0,1,.941-1.923,4.437,4.437,0,0,1,2.648-.685h1.318v-.623a1.522,1.522,0,0,0-.425-1.132,1.707,1.707,0,0,0-1.252-.421,1.976,1.976,0,0,0-1.216.366,1.079,1.079,0,0,0-.491.886H25.107a1.87,1.87,0,0,1,.421-1.146,2.874,2.874,0,0,1,1.143-.875,3.844,3.844,0,0,1,1.586-.322,3.133,3.133,0,0,1,2.146.685,2.47,2.47,0,0,1,.806,1.886v3.647a4.459,4.459,0,0,0,.278,1.736V16Zm-2.249-1.033a2.381,2.381,0,0,0,1.208-.33,1.994,1.994,0,0,0,.828-.857V12.155H28.792q-2.49,0-2.49,1.458a1.234,1.234,0,0,0,.425,1A1.633,1.633,0,0,0,27.817,14.967Zm5.544.322a.849.849,0,0,1,.209-.586.8.8,0,0,1,.626-.234.819.819,0,0,1,.634.234.831.831,0,0,1,.216.586.786.786,0,0,1-.216.564.834.834,0,0,1-.634.227.753.753,0,0,1-.835-.791Zm14.919-8.8H44.854V16h-1.4V6.486h-3.42V5.336h8.247Zm.286,5.479a4.681,4.681,0,0,1,.458-2.095A3.415,3.415,0,0,1,50.3,8.434a3.469,3.469,0,0,1,1.864-.505,3.342,3.342,0,0,1,2.618,1.121,4.311,4.311,0,0,1,1,2.981v.1a4.722,4.722,0,0,1-.443,2.076,3.365,3.365,0,0,1-1.267,1.432,3.509,3.509,0,0,1-1.893.513,3.334,3.334,0,0,1-2.611-1.121,4.29,4.29,0,0,1-1-2.966Zm1.362.161a3.39,3.39,0,0,0,.612,2.117,2.072,2.072,0,0,0,3.278-.011,3.707,3.707,0,0,0,.608-2.267,3.384,3.384,0,0,0-.619-2.113,1.968,1.968,0,0,0-1.644-.809,1.946,1.946,0,0,0-1.619.8A3.68,3.68,0,0,0,49.929,12.125Zm8.826-4.05.037.879a2.927,2.927,0,0,1,2.351-1.025A2.266,2.266,0,0,1,63.406,9.2a3,3,0,0,1,1.029-.923,3.039,3.039,0,0,1,1.5-.352q2.607,0,2.651,2.761V16H67.229V10.771A1.82,1.82,0,0,0,66.841,9.5a1.71,1.71,0,0,0-1.3-.421,1.8,1.8,0,0,0-1.252.45,1.827,1.827,0,0,0-.579,1.212V16H62.344V10.807a1.512,1.512,0,0,0-1.692-1.729,1.813,1.813,0,0,0-1.824,1.135V16H57.473V8.075ZM75.52,16a2.846,2.846,0,0,1-.19-.835,3.023,3.023,0,0,1-2.256.981,2.8,2.8,0,0,1-1.923-.663A2.145,2.145,0,0,1,70.4,13.8a2.24,2.24,0,0,1,.941-1.923,4.437,4.437,0,0,1,2.648-.685h1.318v-.623a1.522,1.522,0,0,0-.425-1.132A1.707,1.707,0,0,0,73.63,9.02a1.976,1.976,0,0,0-1.216.366,1.079,1.079,0,0,0-.491.886H70.562a1.87,1.87,0,0,1,.421-1.146,2.874,2.874,0,0,1,1.143-.875,3.844,3.844,0,0,1,1.586-.322,3.133,3.133,0,0,1,2.146.685,2.47,2.47,0,0,1,.806,1.886v3.647a4.459,4.459,0,0,0,.278,1.736V16Zm-2.249-1.033a2.381,2.381,0,0,0,1.208-.33,1.994,1.994,0,0,0,.828-.857V12.155H74.246q-2.49,0-2.49,1.458a1.234,1.234,0,0,0,.425,1A1.633,1.633,0,0,0,73.271,14.967Zm5.186-3a4.642,4.642,0,0,1,.864-2.933,2.941,2.941,0,0,1,4.468-.157V4.75h1.355V16H83.9l-.066-.85a2.759,2.759,0,0,1-2.263,1,2.707,2.707,0,0,1-2.245-1.128,4.7,4.7,0,0,1-.868-2.944Zm1.355.154a3.515,3.515,0,0,0,.557,2.109A1.8,1.8,0,0,0,81.907,15a1.977,1.977,0,0,0,1.882-1.157V10.2a1.992,1.992,0,0,0-1.868-1.121,1.808,1.808,0,0,0-1.553.769A3.87,3.87,0,0,0,79.812,12.125ZM92.139,16a2.846,2.846,0,0,1-.19-.835,3.023,3.023,0,0,1-2.256.981,2.8,2.8,0,0,1-1.923-.663,2.145,2.145,0,0,1-.751-1.681,2.24,2.24,0,0,1,.941-1.923,4.437,4.437,0,0,1,2.648-.685h1.318v-.623A1.522,1.522,0,0,0,91.5,9.441a1.707,1.707,0,0,0-1.252-.421,1.976,1.976,0,0,0-1.216.366,1.079,1.079,0,0,0-.491.886H87.18A1.87,1.87,0,0,1,87.6,9.126a2.874,2.874,0,0,1,1.143-.875,3.844,3.844,0,0,1,1.586-.322,3.133,3.133,0,0,1,2.146.685,2.47,2.47,0,0,1,.806,1.886v3.647a4.459,4.459,0,0,0,.278,1.736V16ZM89.89,14.967a2.381,2.381,0,0,0,1.208-.33,1.994,1.994,0,0,0,.828-.857V12.155H90.864q-2.49,0-2.49,1.458a2.21,2.21,0,0,0,.425,1A2.959,2.959,0,0,0,89.89,14.967Zm8.9-3a4.642,4.642,0,0,1,.864-2.933,2.941,2.941,0,0,1,4.468-.157V4.75h1.355V16h-1.245l-.066-.85a2.759,2.759,0,0,1-2.263,1,2.707,2.707,0,0,1-2.245-1.128,4.7,4.7,0,0,1-.868-2.944Zm1.355.154a3.515,3.515,0,0,0,.557,2.109,1.8,1.8,0,0,0,1.538.762,1.977,1.977,0,0,0,1.882-1.157V10.2a1.992,1.992,0,0,0-1.868-1.121,1.808,1.808,0,0,0-1.553.769A3.87,3.87,0,0,0,100.144,12.125Zm10.723,4.021a3.463,3.463,0,0,1-2.622-1.058,3.928,3.928,0,0,1-1.011-2.831v-.249a4.756,4.756,0,0,1,.45-2.106,3.514,3.514,0,0,1,1.26-1.45,3.167,3.167,0,0,1,1.754-.524,2.968,2.968,0,0,1,2.4,1.018,4.408,4.408,0,0,1,.857,2.915v.564h-5.369a2.817,2.817,0,0,0,.685,1.893,2.153,2.153,0,0,0,1.666.721,2.36,2.36,0,0,0,1.216-.293,3.055,3.055,0,0,0,.872-.776l.828.645A3.328,3.328,0,0,1,110.867,16.146Zm-.168-7.1a1.807,1.807,0,0,0-1.377.6,2.9,2.9,0,0,0-.688,1.674h3.97v-.1a2.581,2.581,0,0,0-.557-1.6A1.7,1.7,0,0,0,110.7,9.042Zm14.641,4.167h-4.468l-1,2.791h-1.45L122.49,5.336h1.23L127.8,16h-1.443ZM121.3,12.06h3.625l-1.816-4.988Zm12.539,3.157a2.878,2.878,0,0,1-2.322.93,2.464,2.464,0,0,1-1.93-.736,3.186,3.186,0,0,1-.67-2.179V8.075h1.355v5.12q0,1.8,1.465,1.8a2.028,2.028,0,0,0,2.065-1.157V8.075h1.355V16h-1.289Zm5.215-9.06V8.075h1.479V9.123H139.05v4.921a1.1,1.1,0,0,0,.2.715.832.832,0,0,0,.674.238,3.281,3.281,0,0,0,.645-.088V16a3.951,3.951,0,0,1-1.04.146,1.687,1.687,0,0,1-1.37-.549,2.36,2.36,0,0,1-.461-1.56V9.123h-1.443V8.075H137.7V6.156Zm2.556,5.808a4.681,4.681,0,0,1,.458-2.095,3.415,3.415,0,0,1,1.274-1.436,3.469,3.469,0,0,1,1.864-.505,3.342,3.342,0,0,1,2.618,1.121,4.311,4.311,0,0,1,1,2.981v.1a4.722,4.722,0,0,1-.443,2.076,3.365,3.365,0,0,1-1.267,1.432,3.509,3.509,0,0,1-1.893.513,3.334,3.334,0,0,1-2.611-1.121,4.29,4.29,0,0,1-1-2.966Zm1.362.161a3.39,3.39,0,0,0,.612,2.117,2.072,2.072,0,0,0,3.278-.011,3.707,3.707,0,0,0,.608-2.267,3.384,3.384,0,0,0-.619-2.113,1.968,1.968,0,0,0-1.644-.809,1.946,1.946,0,0,0-1.619.8A3.68,3.68,0,0,0,142.969,12.125Zm7.222-.154a4.642,4.642,0,0,1,.864-2.933,2.941,2.941,0,0,1,4.468-.157V4.75h1.355V16h-1.245l-.066-.85a2.759,2.759,0,0,1-2.263,1,2.707,2.707,0,0,1-2.245-1.128,4.7,4.7,0,0,1-.868-2.944Zm1.355.154a3.515,3.515,0,0,0,.557,2.109A1.8,1.8,0,0,0,153.64,15a1.977,1.977,0,0,0,1.882-1.157V10.2a1.992,1.992,0,0,0-1.868-1.121,1.808,1.808,0,0,0-1.553.769A3.87,3.87,0,0,0,151.545,12.125Zm10.723,4.021a3.463,3.463,0,0,1-2.622-1.058,3.928,3.928,0,0,1-1.011-2.831v-.249a4.756,4.756,0,0,1,.45-2.106,3.514,3.514,0,0,1,1.26-1.45,3.167,3.167,0,0,1,1.754-.524,2.968,2.968,0,0,1,2.4,1.018,4.408,4.408,0,0,1,.857,2.915v.564H159.99a2.817,2.817,0,0,0,.685,1.893,2.153,2.153,0,0,0,1.666.721,2.36,2.36,0,0,0,1.216-.293,3.055,3.055,0,0,0,.872-.776l.828.645A3.328,3.328,0,0,1,162.268,16.146Zm-.168-7.1a1.807,1.807,0,0,0-1.377.6,2.9,2.9,0,0,0-.688,1.674H164v-.1a2.581,2.581,0,0,0-.557-1.6A1.7,1.7,0,0,0,162.1,9.042Zm9.441,4.856a1,1,0,0,0-.414-.853,3.983,3.983,0,0,0-1.443-.524,6.822,6.822,0,0,1-1.633-.527,2.324,2.324,0,0,1-.894-.732,1.752,1.752,0,0,1-.289-1.011,2.056,2.056,0,0,1,.824-1.648,3.218,3.218,0,0,1,2.106-.674,3.311,3.311,0,0,1,2.186.7,2.21,2.21,0,0,1,.839,1.78H171.46a1.223,1.223,0,0,0-.472-.959,1.77,1.77,0,0,0-1.19-.4,1.852,1.852,0,0,0-1.157.322,1.014,1.014,0,0,0-.417.842.822.822,0,0,0,.388.74,4.776,4.776,0,0,0,1.4.476,7.308,7.308,0,0,1,1.644.542,2.4,2.4,0,0,1,.934.758,1.864,1.864,0,0,1,.3,1.08,2.028,2.028,0,0,1-.85,1.7,3.564,3.564,0,0,1-2.2.641,3.991,3.991,0,0,1-1.685-.337,2.74,2.74,0,0,1-1.146-.941,2.268,2.268,0,0,1-.414-1.307h1.355a1.4,1.4,0,0,0,.546,1.08,2.117,2.117,0,0,0,1.344.4,2.185,2.185,0,0,0,1.234-.311A.956.956,0,0,0,171.541,13.9Zm5.332-1.567-.85.886V16h-1.355V4.75h1.355v6.8l.725-.872,2.468-2.607h1.648l-3.083,3.311L181.223,16h-1.589Zm9.053-.659a11.324,11.324,0,0,1,.443-3.179,9.234,9.234,0,0,1,1.322-2.769,5.624,5.624,0,0,1,1.824-1.758l.278.894a5.833,5.833,0,0,0-1.754,2.5,10.859,10.859,0,0,0-.751,3.772l-.007.623a10.916,10.916,0,0,0,1.033,4.907,5.861,5.861,0,0,0,1.479,1.948l-.278.828a5.8,5.8,0,0,1-1.86-1.816A10.181,10.181,0,0,1,185.925,11.671ZM197.952,16h-6.987v-.974l3.691-4.1a8.77,8.77,0,0,0,1.132-1.512,2.524,2.524,0,0,0,.311-1.2,1.913,1.913,0,0,0-.505-1.37,1.767,1.767,0,0,0-1.348-.535,2.093,2.093,0,0,0-1.571.575,2.2,2.2,0,0,0-.56,1.6h-1.355a3.145,3.145,0,0,1,.948-2.38,3.516,3.516,0,0,1,2.538-.908,3.379,3.379,0,0,1,2.351.78,2.661,2.661,0,0,1,.864,2.076q0,1.575-2.007,3.75l-2.856,3.1h5.354Zm8.123-4.548a6.2,6.2,0,0,1-.813,3.538,3.378,3.378,0,0,1-5.068.026,5.882,5.882,0,0,1-.85-3.38V9.826a6.059,6.059,0,0,1,.813-3.494,3.439,3.439,0,0,1,5.083-.04,5.847,5.847,0,0,1,.835,3.4ZM204.719,9.6a4.965,4.965,0,0,0-.483-2.509,1.664,1.664,0,0,0-1.531-.787,1.642,1.642,0,0,0-1.516.784A4.848,4.848,0,0,0,200.7,9.5v2.168a5.045,5.045,0,0,0,.5,2.552,1.661,1.661,0,0,0,1.52.824,1.638,1.638,0,0,0,1.49-.776,4.862,4.862,0,0,0,.509-2.446Zm7.544,6.4H210.9V6.969l-2.732,1V6.742l3.882-1.458h.212Zm9.163-4.687a3.315,3.315,0,0,1-1.014.813,2.752,2.752,0,0,1-1.293.308,2.841,2.841,0,0,1-1.608-.454,2.952,2.952,0,0,1-1.058-1.278,4.357,4.357,0,0,1-.374-1.82,4.439,4.439,0,0,1,.406-1.926,2.986,2.986,0,0,1,1.154-1.311,3.289,3.289,0,0,1,1.743-.454,2.978,2.978,0,0,1,2.494,1.183,5.159,5.159,0,0,1,.912,3.226v.4a6.894,6.894,0,0,1-1.23,4.545,4.727,4.727,0,0,1-3.713,1.469h-.264v-1.15h.286a3.73,3.73,0,0,0,2.578-.873A3.748,3.748,0,0,0,221.426,11.313Zm-2.087,0a2.092,2.092,0,0,0,1.256-.417,2.461,2.461,0,0,0,.839-1.033V9.32a3.729,3.729,0,0,0-.579-2.168,1.769,1.769,0,0,0-2.9-.15,2.825,2.825,0,0,0-.542,1.805,2.94,2.94,0,0,0,.524,1.8A1.658,1.658,0,0,0,219.338,11.313Zm8.745,4.834a3.463,3.463,0,0,1-2.622-1.058,3.928,3.928,0,0,1-1.011-2.831v-.249A4.756,4.756,0,0,1,224.9,9.9a3.514,3.514,0,0,1,1.26-1.45,3.167,3.167,0,0,1,1.754-.524,2.968,2.968,0,0,1,2.4,1.018,4.408,4.408,0,0,1,.857,2.915v.564h-5.369a2.817,2.817,0,0,0,.685,1.893,2.153,2.153,0,0,0,1.666.721,2.36,2.36,0,0,0,1.216-.293,3.055,3.055,0,0,0,.872-.776l.828.645A3.328,3.328,0,0,1,228.083,16.146Zm-.168-7.1a1.807,1.807,0,0,0-1.377.6,2.9,2.9,0,0,0-.688,1.674h3.97v-.1a2.581,2.581,0,0,0-.557-1.6A1.7,1.7,0,0,0,227.915,9.042Zm7.954,2.7a11.329,11.329,0,0,1-.428,3.131,9.259,9.259,0,0,1-1.311,2.765,5.744,5.744,0,0,1-1.849,1.8l-.286-.828a5.888,5.888,0,0,0,1.813-2.684,11.613,11.613,0,0,0,.7-4.039v-.234a12.057,12.057,0,0,0-.322-2.86,9.653,9.653,0,0,0-.9-2.369,5.473,5.473,0,0,0-1.293-1.633l.286-.828a5.722,5.722,0,0,1,1.842,1.787,9.278,9.278,0,0,1,1.311,2.761A11.591,11.591,0,0,1,235.869,11.745Zm2.117,3.545a.849.849,0,0,1,.209-.586.8.8,0,0,1,.626-.234.819.819,0,0,1,.634.234.831.831,0,0,1,.216.586.786.786,0,0,1-.216.564.834.834,0,0,1-.634.227.753.753,0,0,1-.835-.791Z" transform="translate(22.521 14.639)" fill="#12263f" stroke="#645c5c" stroke-width="1"/>
      </g>
      <g id="Grupo_60031" data-name="Grupo 60031" transform="translate(600.08 605.168)">
        <g id="Grupo_60030" data-name="Grupo 60030" transform="translate(0 0)">
          <line id="Línea_666" data-name="Línea 666" x2="154.436" transform="translate(71.272 496.386)" fill="none" stroke="#0024aa" stroke-miterlimit="10" stroke-width="1"/>
          <line id="Línea_667" data-name="Línea 667" x2="151.828" transform="translate(71.272 501.4)" fill="none" stroke="#0024aa" stroke-miterlimit="10" stroke-width="1"/>
          <line id="Línea_668" data-name="Línea 668" x1="154.436" transform="translate(71.272 507.016)" fill="none" stroke="#0024aa" stroke-miterlimit="10" stroke-width="1"/>
          <rect id="Rectángulo_30741" data-name="Rectángulo 30741" width="8.077" height="9.828" transform="translate(117.348 496.386)" fill="#fdf0c4" stroke="#0024aa" stroke-miterlimit="10" stroke-width="1"/>
          <rect id="Rectángulo_30742" data-name="Rectángulo 30742" width="8.077" height="9.828" transform="translate(170.899 496.386)" fill="#fdf0c4" stroke="#0024aa" stroke-miterlimit="10" stroke-width="1"/>
          <rect id="Rectángulo_30743" data-name="Rectángulo 30743" width="3.044" height="47.434" transform="translate(211.031 123.635)" fill="#7cc0ff"/>
          <rect id="Rectángulo_30744" data-name="Rectángulo 30744" width="5.415" height="68.593" transform="translate(61.344 28.567)" fill="none" stroke="#c200aa" stroke-miterlimit="10" stroke-width="1"/>
          <path id="Trazado_125486" data-name="Trazado 125486" d="M45.453,42.324H29.207L25.9,45.634V63.685l1.5,1.5H45.453" transform="translate(14.086 7.904)" fill="none" stroke="#0024aa" stroke-miterlimit="10" stroke-width="1"/>
          <line id="Línea_669" data-name="Línea 669" y2="28.881" transform="translate(55.026 86.631)" fill="none" stroke="#000" stroke-miterlimit="10" stroke-width="1"/>
          <line id="Línea_670" data-name="Línea 670" y2="26.453" transform="translate(55.026 50.551)" fill="none" stroke="#000" stroke-miterlimit="10" stroke-width="1"/>
          <line id="Línea_671" data-name="Línea 671" y2="35.5" transform="translate(46.302 11.419)" fill="none" stroke="#c200aa" stroke-miterlimit="10" stroke-width="1"/>
          <line id="Línea_672" data-name="Línea 672" y2="35.5" transform="translate(51.416 11.419)" fill="none" stroke="#c200aa" stroke-miterlimit="10" stroke-width="1"/>
          <line id="Línea_673" data-name="Línea 673" y2="35.5" transform="translate(55.026 11.419)" fill="none" stroke="#000" stroke-miterlimit="10" stroke-width="1"/>
          <line id="Línea_674" data-name="Línea 674" y2="104.094" transform="translate(34.869 11.419)" fill="none" stroke="#000" stroke-miterlimit="10" stroke-width="1"/>
          <path id="Trazado_125487" data-name="Trazado 125487" d="M14.189,90.01V77.072S17.252,60.115,31.5,65.795a18.355,18.355,0,0,1,7.106,5.5c1.5,1.79,7.47,5.817,15.292,1.863" transform="translate(5.638 23.999)" fill="none" stroke="#c200aa" stroke-miterlimit="10" stroke-width="1"/>
          <circle id="Elipse_4601" data-name="Elipse 4601" cx="7.07" cy="7.07" r="7.07" transform="translate(110.182 83.021)" fill="none" stroke="#c200aa" stroke-miterlimit="10" stroke-width="1"/>
          <rect id="Rectángulo_30745" data-name="Rectángulo 30745" width="7.22" height="10.831" transform="translate(15.916 97.16)" fill="#c200aa"/>
          <circle id="Elipse_4602" data-name="Elipse 4602" cx="6.393" cy="6.393" r="6.393" transform="translate(42.992 28.567)" fill="none" stroke="#c200aa" stroke-miterlimit="10" stroke-width="1"/>
          <path id="Trazado_125488" data-name="Trazado 125488" d="M243.622,15.237v6.92H231.889V135.276H215.643v-8.123h6.017v-105H162.393v105h7.521v8.123H144.643v-8.123h11.131V23.661H87.181V127.153h9.025v8.123H86.579v5.98H77.253v-5.98H2.672v-8.123H75.749V23.059H25.808V16.44" transform="translate(-2.672 -11.64)" fill="#fdf0c4" stroke="#0024aa" stroke-miterlimit="10" stroke-width="1"/>
          <line id="Línea_675" data-name="Línea 675" y2="15.042" transform="translate(62.848 54.741)" fill="none" stroke="#0024aa" stroke-miterlimit="10" stroke-width="1"/>
          <line id="Línea_676" data-name="Línea 676" x2="10.229" transform="translate(99.953 90.091)" fill="none" stroke="#c200aa" stroke-miterlimit="10" stroke-width="1"/>
          <line id="Línea_677" data-name="Línea 677" x2="10.229" transform="translate(123.419 90.091)" fill="none" stroke="#c200aa" stroke-miterlimit="10" stroke-width="1"/>
          <line id="Línea_678" data-name="Línea 678" y1="10.229" transform="translate(117.252 72.04)" fill="none" stroke="#c200aa" stroke-miterlimit="10" stroke-width="1"/>
          <rect id="Rectángulo_30746" data-name="Rectángulo 30746" width="47.534" height="51.545" transform="translate(166.541 18.238)" fill="none" stroke="#000" stroke-miterlimit="10" stroke-width="1"/>
          <line id="Línea_679" data-name="Línea 679" x1="47.601" y1="51.484" transform="translate(166.507 18.269)" fill="none" stroke="#000" stroke-miterlimit="10" stroke-width="1"/>
          <line id="Línea_680" data-name="Línea 680" x1="47.534" y2="51.545" transform="translate(166.541 18.238)" fill="none" stroke="#000" stroke-miterlimit="10" stroke-width="1"/>
          <ellipse id="Elipse_4603" data-name="Elipse 4603" cx="5.014" cy="6.569" rx="5.014" ry="6.569" transform="translate(193.015 49.125)" fill="none" stroke="#c200aa" stroke-miterlimit="10" stroke-width="1"/>
          <rect id="Rectángulo_30747" data-name="Rectángulo 30747" width="7.02" height="8.624" transform="translate(142.874 134.967)" fill="#c200aa"/>
          <rect id="Rectángulo_30748" data-name="Rectángulo 30748" width="3.008" height="7.02" transform="translate(144.478 152.015)" fill="#c200aa"/>
          <g id="Grupo_60024" data-name="Grupo 60024" transform="translate(93.535 123.635)">
            <rect id="Rectángulo_30749" data-name="Rectángulo 30749" width="4.011" height="47.434" fill="none" stroke="#7cc0ff" stroke-miterlimit="10" stroke-width="1"/>
            <path id="Trazado_125489" data-name="Trazado 125489" d="M103.76,84.965l-2.14,10.081A46.574,46.574,0,0,1,66.4,130.789l-7.069,1.61" transform="translate(-55.323 -84.965)" fill="none" stroke="#7cc0ff" stroke-miterlimit="10" stroke-width="1"/>
          </g>
          <path id="Trazado_125490" data-name="Trazado 125490" d="M99.5,84.965l2.142,10.081a46.572,46.572,0,0,0,35.217,35.742l7.067,1.61" transform="translate(67.191 38.67)" fill="none" stroke="#7cc0ff" stroke-miterlimit="10" stroke-width="1"/>
          <rect id="Rectángulo_30750" data-name="Rectángulo 30750" width="3.044" height="47.434" transform="translate(400.901 120.2) rotate(91.359)" fill="#7cc0ff"/>
          <path id="Trazado_125491" data-name="Trazado 125491" d="M208.613,56.567l10.028,2.379A46.578,46.578,0,0,1,253.538,95l1.441,7.1" transform="translate(145.92 18.18)" fill="none" stroke="#7cc0ff" stroke-miterlimit="10" stroke-width="1"/>
          <path id="Trazado_125492" data-name="Trazado 125492" d="M70.834,69.586l-.045.766a46.361,46.361,0,0,0,25.666,44.262h0" transform="translate(46.418 27.574)" fill="none" stroke="#c200aa" stroke-miterlimit="10" stroke-width="1"/>
          <line id="Línea_681" data-name="Línea 681" y2="12.936" transform="translate(146.384 123.635)" fill="none" stroke="#c200aa" stroke-miterlimit="10" stroke-width="1"/>
          <path id="Trazado_125493" data-name="Trazado 125493" d="M26.83,146.286V128.034l50.341-18.6c28.853-8.883,73.655-9.224,102.29.346l46.731,17.851V117" transform="translate(14.759 51.459)" fill="none" stroke="#c200aa" stroke-miterlimit="10" stroke-width="1"/>
          <line id="Línea_682" data-name="Línea 682" y2="36.045" transform="translate(139.865 165.109)" fill="none" stroke="#c200aa" stroke-miterlimit="10" stroke-width="1"/>
          <line id="Línea_683" data-name="Línea 683" y2="36.045" transform="translate(142.874 165.109)" fill="none" stroke="#c200aa" stroke-miterlimit="10" stroke-width="1"/>
          <circle id="Elipse_4604" data-name="Elipse 4604" cx="6.031" cy="6.031" r="6.031" transform="translate(133.92 171.069)" fill="none" stroke="#c200aa" stroke-miterlimit="10" stroke-width="1"/>
          <line id="Línea_684" data-name="Línea 684" x1="36.045" transform="translate(32.376 439.139)" fill="none" stroke="#c200aa" stroke-miterlimit="10" stroke-width="1"/>
          <line id="Línea_685" data-name="Línea 685" x1="36.045" transform="translate(32.376 442.147)" fill="none" stroke="#c200aa" stroke-miterlimit="10" stroke-width="1"/>
          <circle id="Elipse_4605" data-name="Elipse 4605" cx="6.031" cy="6.031" r="6.031" transform="translate(50.399 433.194)" fill="none" stroke="#c200aa" stroke-miterlimit="10" stroke-width="1"/>
          <line id="Línea_686" data-name="Línea 686" x2="36.045" transform="translate(202.857 481.519)" fill="none" stroke="#c200aa" stroke-miterlimit="10" stroke-width="1"/>
          <line id="Línea_687" data-name="Línea 687" x2="36.045" transform="translate(202.857 478.511)" fill="none" stroke="#c200aa" stroke-miterlimit="10" stroke-width="1"/>
          <circle id="Elipse_4606" data-name="Elipse 4606" cx="6.031" cy="6.031" r="6.031" transform="translate(208.817 475.402)" fill="none" stroke="#c200aa" stroke-miterlimit="10" stroke-width="1"/>
          <line id="Línea_688" data-name="Línea 688" y2="36.045" transform="translate(522.745 429.193)" fill="none" stroke="#c200aa" stroke-miterlimit="10" stroke-width="1"/>
          <line id="Línea_689" data-name="Línea 689" y2="36.045" transform="translate(525.754 429.193)" fill="none" stroke="#c200aa" stroke-miterlimit="10" stroke-width="1"/>
          <circle id="Elipse_4607" data-name="Elipse 4607" cx="6.031" cy="6.031" r="6.031" transform="translate(516.8 435.153)" fill="none" stroke="#c200aa" stroke-miterlimit="10" stroke-width="1"/>
          <line id="Línea_690" data-name="Línea 690" x1="36.045" y1="0.064" transform="translate(345.66 344.562)" fill="none" stroke="#c200aa" stroke-miterlimit="10" stroke-width="1"/>
          <line id="Línea_691" data-name="Línea 691" x1="36.045" y1="0.064" transform="translate(345.655 347.571)" fill="none" stroke="#c200aa" stroke-miterlimit="10" stroke-width="1"/>
          <circle id="Elipse_4608" data-name="Elipse 4608" cx="6.031" cy="6.031" r="6.031" transform="translate(363.682 338.66)" fill="none" stroke="#c200aa" stroke-miterlimit="10" stroke-width="1"/>
          <circle id="Elipse_4609" data-name="Elipse 4609" cx="8.073" cy="8.073" r="8.073" transform="translate(233.329 152.015)" fill="none" stroke="#c200aa" stroke-miterlimit="10" stroke-width="1"/>
          <line id="Línea_692" data-name="Línea 692" y2="9.226" transform="translate(241.402 143.591)" fill="none" stroke="#c200aa" stroke-miterlimit="10" stroke-width="1"/>
          <line id="Línea_693" data-name="Línea 693" x2="11.031" transform="translate(222.298 161.642)" fill="none" stroke="#c200aa" stroke-miterlimit="10" stroke-width="1"/>
          <line id="Línea_694" data-name="Línea 694" x2="11.131" transform="translate(249.475 161.642)" fill="none" stroke="#c200aa" stroke-miterlimit="10" stroke-width="1"/>
          <line id="Línea_695" data-name="Línea 695" y1="0.602" x2="35.801" transform="translate(31.259 229.835)" fill="none" stroke="#c200aa" stroke-miterlimit="10" stroke-width="1"/>
          <line id="Línea_696" data-name="Línea 696" y1="0.602" x2="34.898" transform="translate(31.861 234.648)" fill="none" stroke="#c200aa" stroke-miterlimit="10" stroke-width="1"/>
          <line id="Línea_697" data-name="Línea 697" y2="35.554" transform="translate(161.226 207.061)" fill="none" stroke="#c200aa" stroke-miterlimit="10" stroke-width="1"/>
          <line id="Línea_698" data-name="Línea 698" y2="33.538" transform="translate(164.836 209.076)" fill="none" stroke="#c200aa" stroke-miterlimit="10" stroke-width="1"/>
          <circle id="Elipse_4610" data-name="Elipse 4610" cx="8.8" cy="8.8" r="8.8" transform="translate(297.811 279.475)" fill="none" stroke="#c200aa" stroke-miterlimit="10" stroke-width="1"/>
          <line id="Línea_699" data-name="Línea 699" y2="9.627" transform="translate(306.611 269.847)" fill="none" stroke="#c200aa" stroke-miterlimit="10" stroke-width="1"/>
          <line id="Línea_700" data-name="Línea 700" x2="7.822" transform="translate(289.989 288.274)" fill="none" stroke="#c200aa" stroke-miterlimit="10" stroke-width="1"/>
          <line id="Línea_701" data-name="Línea 701" y2="10.229" transform="translate(306.611 298.428)" fill="none" stroke="#c200aa" stroke-miterlimit="10" stroke-width="1"/>
          <circle id="Elipse_4611" data-name="Elipse 4611" cx="8.8" cy="8.8" r="8.8" transform="translate(458.088 292.712)" fill="none" stroke="#c200aa" stroke-miterlimit="10" stroke-width="1"/>
          <line id="Línea_702" data-name="Línea 702" x2="9.627" transform="translate(448.461 301.512)" fill="none" stroke="#c200aa" stroke-miterlimit="10" stroke-width="1"/>
          <line id="Línea_703" data-name="Línea 703" y1="7.822" transform="translate(466.888 310.312)" fill="none" stroke="#c200aa" stroke-miterlimit="10" stroke-width="1"/>
          <line id="Línea_704" data-name="Línea 704" x2="10.229" transform="translate(477.041 301.512)" fill="none" stroke="#c200aa" stroke-miterlimit="10" stroke-width="1"/>
          <circle id="Elipse_4612" data-name="Elipse 4612" cx="8.8" cy="8.8" r="8.8" transform="translate(290.051 388.344)" fill="none" stroke="#c200aa" stroke-miterlimit="10" stroke-width="1"/>
          <line id="Línea_705" data-name="Línea 705" y1="7.822" transform="translate(298.851 405.944)" fill="none" stroke="#c200aa" stroke-miterlimit="10" stroke-width="1"/>
          <line id="Línea_706" data-name="Línea 706" y1="13.989" transform="translate(298.851 374.355)" fill="none" stroke="#c200aa" stroke-miterlimit="10" stroke-width="1"/>
          <line id="Línea_707" data-name="Línea 707" x2="10.229" transform="translate(309.005 397.144)" fill="none" stroke="#c200aa" stroke-miterlimit="10" stroke-width="1"/>
          <circle id="Elipse_4613" data-name="Elipse 4613" cx="8.8" cy="8.8" r="8.8" transform="translate(139.264 328.763)" fill="none" stroke="#c200aa" stroke-miterlimit="10" stroke-width="1"/>
          <line id="Línea_708" data-name="Línea 708" x2="7.822" transform="translate(131.442 337.563)" fill="none" stroke="#c200aa" stroke-miterlimit="10" stroke-width="1"/>
          <line id="Línea_709" data-name="Línea 709" x2="13.989" transform="translate(156.863 337.563)" fill="none" stroke="#c200aa" stroke-miterlimit="10" stroke-width="1"/>
          <line id="Línea_710" data-name="Línea 710" y2="10.229" transform="translate(148.064 345.608)" fill="none" stroke="#c200aa" stroke-miterlimit="10" stroke-width="1"/>
          <ellipse id="Elipse_4614" data-name="Elipse 4614" cx="6.468" cy="5.454" rx="6.468" ry="5.454" transform="translate(155.51 225.845)" fill="none" stroke="#c200aa" stroke-miterlimit="10" stroke-width="1"/>
          <line id="Línea_711" data-name="Línea 711" y2="35.554" transform="translate(486.518 135.041)" fill="none" stroke="#c200aa" stroke-miterlimit="10" stroke-width="1"/>
          <line id="Línea_712" data-name="Línea 712" y2="33.538" transform="translate(490.128 137.056)" fill="none" stroke="#c200aa" stroke-miterlimit="10" stroke-width="1"/>
          <ellipse id="Elipse_4615" data-name="Elipse 4615" cx="6.468" cy="5.454" rx="6.468" ry="5.454" transform="translate(480.802 153.825)" fill="none" stroke="#c200aa" stroke-miterlimit="10" stroke-width="1"/>
          <line id="Línea_713" data-name="Línea 713" x1="35.554" transform="translate(436.011 38.003)" fill="none" stroke="#c200aa" stroke-miterlimit="10" stroke-width="1"/>
          <line id="Línea_714" data-name="Línea 714" x1="35.554" transform="translate(436.011 41.613)" fill="none" stroke="#c200aa" stroke-miterlimit="10" stroke-width="1"/>
          <ellipse id="Elipse_4616" data-name="Elipse 4616" cx="5.454" cy="6.468" rx="5.454" ry="6.468" transform="translate(441.871 32.287)" fill="none" stroke="#c200aa" stroke-miterlimit="10" stroke-width="1"/>
          <line id="Línea_715" data-name="Línea 715" x2="35.554" transform="translate(353.408 38.003)" fill="none" stroke="#c200aa" stroke-miterlimit="10" stroke-width="1"/>
          <line id="Línea_716" data-name="Línea 716" x2="35.554" transform="translate(353.408 41.613)" fill="none" stroke="#c200aa" stroke-miterlimit="10" stroke-width="1"/>
          <ellipse id="Elipse_4617" data-name="Elipse 4617" cx="5.454" cy="6.468" rx="5.454" ry="6.468" transform="translate(372.193 32.287)" fill="none" stroke="#c200aa" stroke-miterlimit="10" stroke-width="1"/>
          <circle id="Elipse_4618" data-name="Elipse 4618" cx="7.027" cy="7.027" r="7.027" transform="translate(48.407 225.845)" fill="none" stroke="#c200aa" stroke-miterlimit="10" stroke-width="1"/>
          <rect id="Rectángulo_30751" data-name="Rectángulo 30751" width="9.326" height="5.867" transform="translate(360.688 59.254)" fill="#c200aa"/>
          <rect id="Rectángulo_30752" data-name="Rectángulo 30752" width="9.326" height="5.867" transform="translate(360.688 68.881)" fill="#c200aa"/>
          <rect id="Rectángulo_30753" data-name="Rectángulo 30753" width="3.46" height="5.566" transform="translate(435.148 76.552)" fill="#c200aa"/>
          <rect id="Rectángulo_30754" data-name="Rectángulo 30754" width="4.513" height="9.627" transform="translate(378.438 145.898)" fill="#c200aa"/>
          <rect id="Rectángulo_30755" data-name="Rectángulo 30755" width="5.114" height="9.928" transform="translate(170.853 217.5)" fill="#c200aa"/>
          <rect id="Rectángulo_30756" data-name="Rectángulo 30756" width="3.309" height="6.92" transform="translate(262.01 384.471)" fill="#c200aa"/>
          <rect id="Rectángulo_30757" data-name="Rectángulo 30757" width="7.822" height="7.822" transform="translate(233.73 357.094)" fill="#c200aa"/>
          <rect id="Rectángulo_30758" data-name="Rectángulo 30758" width="6.318" height="6.318" transform="translate(353.769 263.53)" fill="#c200aa"/>
          <line id="Línea_717" data-name="Línea 717" x1="8.95" y2="6.619" transform="translate(444.324 214.191)" fill="none" stroke="#c200aa" stroke-miterlimit="10" stroke-width="1"/>
          <line id="Línea_718" data-name="Línea 718" x1="8.95" y2="6.619" transform="translate(447.08 216.946)" fill="none" stroke="#c200aa" stroke-miterlimit="10" stroke-width="1"/>
          <g id="Grupo_60025" data-name="Grupo 60025" transform="translate(184.066 207.366)">
            <rect id="Rectángulo_30759" data-name="Rectángulo 30759" width="4.971" height="58.777" transform="translate(60.019 58.777) rotate(-180)" fill="none" stroke="#7cc0ff" stroke-miterlimit="10" stroke-width="1"/>
            <path id="Trazado_125494" data-name="Trazado 125494" d="M109.592,133.6l2.651,12.491a57.717,57.717,0,0,0,43.639,44.29l8.757,2" transform="translate(-109.592 -133.602)" fill="none" stroke="#7cc0ff" stroke-miterlimit="10" stroke-width="1"/>
          </g>
          <g id="Grupo_60026" data-name="Grupo 60026" transform="translate(298.906 153.139)">
            <rect id="Rectángulo_30760" data-name="Rectángulo 30760" width="4.971" height="58.777" transform="matrix(0.72, -0.694, 0.694, 0.72, 0, 41.671)" fill="none" stroke="#7cc0ff" stroke-miterlimit="10" stroke-width="1"/>
            <path id="Trazado_125495" data-name="Trazado 125495" d="M201.392,102.1l6.766,10.832a57.716,57.716,0,0,1-.658,62.173l-4.918,7.516" transform="translate(-158.196 -102.103)" fill="none" stroke="#7cc0ff" stroke-miterlimit="10" stroke-width="1"/>
          </g>
          <g id="Grupo_60027" data-name="Grupo 60027" transform="translate(345.985 268.983)">
            <rect id="Rectángulo_30761" data-name="Rectángulo 30761" width="3.93" height="46.473" transform="translate(0.001 47.456) rotate(-90)" fill="none" stroke="#7cc0ff" stroke-miterlimit="10" stroke-width="1"/>
            <path id="Trazado_125496" data-name="Trazado 125496" d="M203.648,169.395l9.878,2.1A45.634,45.634,0,0,1,248.544,206l1.577,6.924" transform="translate(-203.648 -169.395)" fill="none" stroke="#7cc0ff" stroke-miterlimit="10" stroke-width="1"/>
          </g>
          <g id="Grupo_60028" data-name="Grupo 60028" transform="translate(204.865 373.416)">
            <rect id="Rectángulo_30762" data-name="Rectángulo 30762" width="3.93" height="46.473" transform="translate(0 47.455) rotate(-90)" fill="none" stroke="#7cc0ff" stroke-miterlimit="10" stroke-width="1"/>
            <path id="Trazado_125497" data-name="Trazado 125497" d="M168.147,230.058l-9.878,2.1a45.632,45.632,0,0,0-35.018,34.5l-1.577,6.924" transform="translate(-121.674 -230.058)" fill="none" stroke="#7cc0ff" stroke-miterlimit="10" stroke-width="1"/>
          </g>
          <path id="Trazado_125498" data-name="Trazado 125498" d="M2.672,221.476H25.206v186.8H53.887v31.614H73.944v-10.63H62.712V398.374H35.435V141.951H189.871V130.621H87.582V124.4H75.749v6.219H25.808V212.35H2.672" transform="translate(-2.672 67.125)" fill="#fdf0c4" stroke="#0024aa" stroke-miterlimit="10" stroke-width="1"/>
          <path id="Trazado_125499" data-name="Trazado 125499" d="M155.312,441.446V409.832H504.9v-116h-8.223V399.668H254.592V250.87h-8.624v4.853H167.547V143.506h21.461l57.161,56.259v5.616h8.563v-8.223L197.3,139.726l11.261-11.261-6.218-6.218-10.329,10.329H151.3V142.6h8.223V310.076h8.223V264.748h78.221V399.729H168.349V355.3h-8.265V400.33H147.648v30.486h-14.8v10.63Z" transform="translate(91.254 65.57)" fill="#fdf0c4" stroke="#0024aa" stroke-miterlimit="10" stroke-width="1"/>
          <line id="Línea_719" data-name="Línea 719" y2="115.983" transform="translate(588.731 242.614)" fill="none" stroke="#0024aa" stroke-miterlimit="10" stroke-width="1"/>
          <line id="Línea_720" data-name="Línea 720" y2="116.786" transform="translate(596.152 242.614)" fill="none" stroke="#0024aa" stroke-miterlimit="10" stroke-width="1"/>
          <line id="Línea_721" data-name="Línea 721" y2="115.983" transform="translate(592.341 242.614)" fill="none" stroke="#0024aa" stroke-miterlimit="10" stroke-width="1"/>
          <path id="Trazado_125500" data-name="Trazado 125500" d="M450.354,109.23H219.44l-16.5,15.761-6.017-6.92L208.5,109.23v-15.9h8.547v4.883H449.639V69.936h9.727V213.892h-9.025Z" transform="translate(137.488 27.826)" fill="#fdf0c4" stroke="#0024aa" stroke-miterlimit="10" stroke-width="1"/>
          <path id="Trazado_125501" data-name="Trazado 125501" d="M176.96,15.006v8.041h46.389V67.786H188.3v9.142h35.049V88.359h6.978V22.634H464.981V53.42h8.791V15.006" transform="translate(123.082 -11.807)" fill="#fdf0c4" stroke="#0024aa" stroke-miterlimit="10" stroke-width="1"/>
          <line id="Línea_722" data-name="Línea 722" y2="54.527" transform="translate(588.269 42.99)" fill="none" stroke="#0024aa" stroke-miterlimit="10" stroke-width="1"/>
          <line id="Línea_723" data-name="Línea 723" y2="54.527" transform="translate(593.011 42.99)" fill="none" stroke="#0024aa" stroke-miterlimit="10" stroke-width="1"/>
          <line id="Línea_724" data-name="Línea 724" y2="54.527" transform="translate(596.854 42.99)" fill="none" stroke="#0024aa" stroke-miterlimit="10" stroke-width="1"/>
          <line id="Línea_725" data-name="Línea 725" y2="115.215" transform="translate(530.541 10.827)" fill="none" stroke="#848fff" stroke-miterlimit="10" stroke-width="1"/>
          <path id="Trazado_125502" data-name="Trazado 125502" d="M357.712,33.616s-9.9-17.525-29.894-5.772c0,0-12.164,35.873-12.577,41.234s0,46.388,0,46.388,3.918,9.859,10.1,10.29,22.679,0,22.679,0,10.309-6.167,9.691-11.527S357.712,33.616,357.712,33.616Z" transform="translate(222.722 -5.471)" fill="none" stroke="#848fff" stroke-miterlimit="10" stroke-width="1"/>
          <path id="Trazado_125503" data-name="Trazado 125503" d="M286.7,22.311h31.858l2.474,2.543v9.21l-2.474,2.061h-8.041l-1.031,8.415s12.056,27.494-5.621,31.394S289.493,53.65,292.379,43.548l1.546-2.269V36.538l-9.585.207L283.308,35.3V23.342Z" transform="translate(199.814 -6.536)" fill="none" stroke="#848fff" stroke-miterlimit="10" stroke-width="1"/>
          <path id="Trazado_125504" data-name="Trazado 125504" d="M239.154,25.665s-10.028,8.664-2.322,17.32c4.689,5.268,12.443,6.445,18.837,3.469,6.693-3.118,12.937-9.159,2.866-19.965" transform="translate(164.179 -4.116)" fill="none" stroke="#848fff" stroke-miterlimit="10" stroke-width="1"/>
          <line id="Línea_726" data-name="Línea 726" x2="117.032" transform="translate(354.532 53.298)" fill="none" stroke="#000" stroke-miterlimit="10" stroke-width="1"/>
          <line id="Línea_727" data-name="Línea 727" y2="42.471" transform="translate(471.564 10.827)" fill="none" stroke="#000" stroke-miterlimit="10" stroke-width="1"/>
          <line id="Línea_728" data-name="Línea 728" x2="16.606" transform="translate(353.408 32.063)" fill="none" stroke="#000" stroke-miterlimit="10" stroke-width="1"/>
          <line id="Línea_729" data-name="Línea 729" x2="23.71" transform="translate(382.098 32.063)" fill="none" stroke="#000" stroke-miterlimit="10" stroke-width="1"/>
          <line id="Línea_730" data-name="Línea 730" x2="26.184" transform="translate(417.353 32.287)" fill="none" stroke="#000" stroke-miterlimit="10" stroke-width="1"/>
          <line id="Línea_731" data-name="Línea 731" x2="18.784" transform="translate(452.78 32.063)" fill="none" stroke="#000" stroke-miterlimit="10" stroke-width="1"/>
          <rect id="Rectángulo_30763" data-name="Rectángulo 30763" width="93.855" height="4.33" transform="translate(365.351 19.486)" fill="none" stroke="#c200aa" stroke-miterlimit="10" stroke-width="1"/>
          <rect id="Rectángulo_30764" data-name="Rectángulo 30764" width="16.7" height="31.338" transform="translate(499.616 46.495)" fill="none" stroke="#c200aa" stroke-miterlimit="10" stroke-width="1"/>
          <circle id="Elipse_4619" data-name="Elipse 4619" cx="5.467" cy="5.467" r="5.467" transform="translate(502.498 64.323)" fill="none" stroke="#c200aa" stroke-miterlimit="10" stroke-width="1"/>
          <circle id="Elipse_4620" data-name="Elipse 4620" cx="5.467" cy="5.467" r="5.467" transform="translate(502.498 47.831)" fill="none" stroke="#c200aa" stroke-miterlimit="10" stroke-width="1"/>
          <line id="Línea_732" data-name="Línea 732" x2="16.7" transform="translate(499.616 62.164)" fill="none" stroke="#c200aa" stroke-miterlimit="10" stroke-width="1"/>
          <path id="Trazado_125505" data-name="Trazado 125505" d="M207.96,55.517h24.308a175.694,175.694,0,0,0,59.162,7.521c32.017-1.709,56.552-5.116,62.738-9.083" transform="translate(145.449 16.296)" fill="none" stroke="#c200aa" stroke-miterlimit="10" stroke-width="1"/>
          <path id="Trazado_125506" data-name="Trazado 125506" d="M208.613,64.5h19.73s18.627-7.389,16.7-21.462c-2-14.617-10.269-16.06-10.269-16.06" transform="translate(145.92 -3.166)" fill="none" stroke="#c200aa" stroke-miterlimit="10" stroke-width="1"/>
          <rect id="Rectángulo_30765" data-name="Rectángulo 30765" width="3.442" height="44.739" transform="translate(307.939 11.239)" fill="none" stroke="#000" stroke-miterlimit="10" stroke-width="1"/>
          <path id="Trazado_125507" data-name="Trazado 125507" d="M223.81,92.761v18.468l7,3.123A133.622,133.622,0,0,1,310,234.427h0v13.989" transform="translate(156.885 44.295)" fill="none" stroke="#c200aa" stroke-miterlimit="10" stroke-width="1"/>
          <path id="Trazado_125508" data-name="Trazado 125508" d="M216.462,167.745h19.517s-7.823,18-36.1,22.132H185.888" transform="translate(129.523 98.398)" fill="none" stroke="#c200aa" stroke-miterlimit="10" stroke-width="1"/>
          <path id="Trazado_125509" data-name="Trazado 125509" d="M163.441,222.848H140.765s-21.75,4.516-9.716,32.191c0,0,17.165,15.945,32.952-1.8,0,0,8.868-8.763,21.5-1.5l7.585,7.258h9.627" transform="translate(87.337 138.156)" fill="none" stroke="#c200aa" stroke-miterlimit="10" stroke-width="1"/>
          <path id="Trazado_125510" data-name="Trazado 125510" d="M114.025,134.6v13.388l4.726,15.54a71.43,71.43,0,0,1-28.157,79.829l-1.914,1.3v9.628" transform="translate(59.384 74.48)" fill="none" stroke="#c200aa" stroke-miterlimit="10" stroke-width="1"/>
          <line id="Línea_733" data-name="Línea 733" x2="13.212" y2="2.547" transform="translate(171.446 275.935)" fill="none" stroke="#c200aa" stroke-miterlimit="10" stroke-width="1"/>
          <line id="Línea_734" data-name="Línea 734" x2="11.578" y2="1.516" transform="translate(171.67 280.979)" fill="none" stroke="#c200aa" stroke-miterlimit="10" stroke-width="1"/>
          <path id="Trazado_125511" data-name="Trazado 125511" d="M9.82,182.037V376.244H37.2v30.085H58.858v-8.023" transform="translate(2.486 108.71)" fill="none" stroke="#7be0ff" stroke-miterlimit="10" stroke-width="1"/>
          <line id="Línea_735" data-name="Línea 735" x1="9.527" y2="8.023" transform="translate(51.817 507.016)" fill="none" stroke="#7be0ff" stroke-miterlimit="10" stroke-width="1"/>
          <line id="Línea_736" data-name="Línea 736" x1="9.427" y2="8.825" transform="translate(43.393 506.214)" fill="none" stroke="#7be0ff" stroke-miterlimit="10" stroke-width="1"/>
          <line id="Línea_737" data-name="Línea 737" x1="9.427" y2="8.825" transform="translate(40.972 498.191)" fill="none" stroke="#7be0ff" stroke-miterlimit="10" stroke-width="1"/>
          <line id="Línea_738" data-name="Línea 738" x1="9.427" y2="8.825" transform="translate(40.972 490.561)" fill="none" stroke="#7be0ff" stroke-miterlimit="10" stroke-width="1"/>
          <line id="Línea_739" data-name="Línea 739" x1="9.427" y2="8.825" transform="translate(40.972 483.052)" fill="none" stroke="#7be0ff" stroke-miterlimit="10" stroke-width="1"/>
          <line id="Línea_740" data-name="Línea 740" x1="9.427" y2="8.825" transform="translate(40.301 476.03)" fill="none" stroke="#7be0ff" stroke-miterlimit="10" stroke-width="1"/>
          <line id="Línea_741" data-name="Línea 741" x1="9.427" y2="8.825" transform="translate(33.322 475.585)" fill="none" stroke="#7be0ff" stroke-miterlimit="10" stroke-width="1"/>
          <line id="Línea_742" data-name="Línea 742" x1="9.427" y2="8.825" transform="translate(25.794 476.488)" fill="none" stroke="#7be0ff" stroke-miterlimit="10" stroke-width="1"/>
          <line id="Línea_743" data-name="Línea 743" x1="9.427" y2="8.825" transform="translate(20.226 476.03)" fill="none" stroke="#7be0ff" stroke-miterlimit="10" stroke-width="1"/>
          <line id="Línea_744" data-name="Línea 744" x1="9.427" y2="8.825" transform="translate(13.56 475.585)" fill="none" stroke="#7be0ff" stroke-miterlimit="10" stroke-width="1"/>
          <line id="Línea_745" data-name="Línea 745" x1="9.427" y2="8.825" transform="translate(13.197 468.522)" fill="none" stroke="#7be0ff" stroke-miterlimit="10" stroke-width="1"/>
          <line id="Línea_746" data-name="Línea 746" x1="9.427" y2="8.825" transform="translate(12.306 462.766)" fill="none" stroke="#7be0ff" stroke-miterlimit="10" stroke-width="1"/>
          <line id="Línea_747" data-name="Línea 747" x1="9.427" y2="8.825" transform="translate(13.197 455.348)" fill="none" stroke="#7be0ff" stroke-miterlimit="10" stroke-width="1"/>
          <line id="Línea_748" data-name="Línea 748" x1="9.427" y2="8.825" transform="translate(12.306 449.591)" fill="none" stroke="#7be0ff" stroke-miterlimit="10" stroke-width="1"/>
          <line id="Línea_749" data-name="Línea 749" x1="9.427" y2="8.825" transform="translate(13.197 443.275)" fill="none" stroke="#7be0ff" stroke-miterlimit="10" stroke-width="1"/>
          <line id="Línea_750" data-name="Línea 750" x1="9.427" y2="8.825" transform="translate(12.306 437.518)" fill="none" stroke="#7be0ff" stroke-miterlimit="10" stroke-width="1"/>
          <line id="Línea_751" data-name="Línea 751" x1="9.427" y2="8.825" transform="translate(13.197 430.1)" fill="none" stroke="#7be0ff" stroke-miterlimit="10" stroke-width="1"/>
          <line id="Línea_752" data-name="Línea 752" x1="9.427" y2="8.825" transform="translate(12.306 424.343)" fill="none" stroke="#7be0ff" stroke-miterlimit="10" stroke-width="1"/>
          <line id="Línea_753" data-name="Línea 753" x1="9.427" y2="8.825" transform="translate(12.751 415.811)" fill="none" stroke="#7be0ff" stroke-miterlimit="10" stroke-width="1"/>
          <line id="Línea_754" data-name="Línea 754" x1="9.427" y2="8.825" transform="translate(11.86 410.054)" fill="none" stroke="#7be0ff" stroke-miterlimit="10" stroke-width="1"/>
          <line id="Línea_755" data-name="Línea 755" x1="9.427" y2="8.825" transform="translate(12.751 402.636)" fill="none" stroke="#7be0ff" stroke-miterlimit="10" stroke-width="1"/>
          <line id="Línea_756" data-name="Línea 756" x1="9.427" y2="8.825" transform="translate(11.86 396.88)" fill="none" stroke="#7be0ff" stroke-miterlimit="10" stroke-width="1"/>
          <line id="Línea_757" data-name="Línea 757" x1="9.427" y2="8.825" transform="translate(12.751 390.563)" fill="none" stroke="#7be0ff" stroke-miterlimit="10" stroke-width="1"/>
          <line id="Línea_758" data-name="Línea 758" x1="9.427" y2="8.825" transform="translate(11.86 384.806)" fill="none" stroke="#7be0ff" stroke-miterlimit="10" stroke-width="1"/>
          <line id="Línea_759" data-name="Línea 759" x1="9.427" y2="8.825" transform="translate(12.751 377.388)" fill="none" stroke="#7be0ff" stroke-miterlimit="10" stroke-width="1"/>
          <line id="Línea_760" data-name="Línea 760" x1="9.427" y2="8.825" transform="translate(11.86 371.632)" fill="none" stroke="#7be0ff" stroke-miterlimit="10" stroke-width="1"/>
          <line id="Línea_761" data-name="Línea 761" x1="9.427" y2="8.825" transform="translate(12.529 363.959)" fill="none" stroke="#7be0ff" stroke-miterlimit="10" stroke-width="1"/>
          <line id="Línea_762" data-name="Línea 762" x1="9.427" y2="8.825" transform="translate(13.42 356.541)" fill="none" stroke="#7be0ff" stroke-miterlimit="10" stroke-width="1"/>
          <line id="Línea_763" data-name="Línea 763" x1="9.427" y2="8.825" transform="translate(12.529 350.784)" fill="none" stroke="#7be0ff" stroke-miterlimit="10" stroke-width="1"/>
          <line id="Línea_764" data-name="Línea 764" x1="9.427" y2="8.825" transform="translate(13.42 344.468)" fill="none" stroke="#7be0ff" stroke-miterlimit="10" stroke-width="1"/>
          <line id="Línea_765" data-name="Línea 765" x1="9.427" y2="8.825" transform="translate(12.529 338.711)" fill="none" stroke="#7be0ff" stroke-miterlimit="10" stroke-width="1"/>
          <line id="Línea_766" data-name="Línea 766" x1="9.427" y2="8.825" transform="translate(13.42 331.293)" fill="none" stroke="#7be0ff" stroke-miterlimit="10" stroke-width="1"/>
          <line id="Línea_767" data-name="Línea 767" x1="9.427" y2="8.825" transform="translate(12.529 325.536)" fill="none" stroke="#7be0ff" stroke-miterlimit="10" stroke-width="1"/>
          <line id="Línea_768" data-name="Línea 768" x1="9.427" y2="8.825" transform="translate(12.974 317.004)" fill="none" stroke="#7be0ff" stroke-miterlimit="10" stroke-width="1"/>
          <line id="Línea_769" data-name="Línea 769" x1="9.427" y2="8.825" transform="translate(12.083 311.247)" fill="none" stroke="#7be0ff" stroke-miterlimit="10" stroke-width="1"/>
          <line id="Línea_770" data-name="Línea 770" x1="9.427" y2="8.825" transform="translate(12.974 303.829)" fill="none" stroke="#7be0ff" stroke-miterlimit="10" stroke-width="1"/>
          <line id="Línea_771" data-name="Línea 771" x1="9.427" y2="8.825" transform="translate(12.083 298.073)" fill="none" stroke="#7be0ff" stroke-miterlimit="10" stroke-width="1"/>
          <line id="Línea_772" data-name="Línea 772" x1="9.427" y2="8.825" transform="translate(12.974 291.756)" fill="none" stroke="#7be0ff" stroke-miterlimit="10" stroke-width="1"/>
          <line id="Línea_773" data-name="Línea 773" x1="5.828" y2="5.456" transform="translate(12.083 289.369)" fill="none" stroke="#7be0ff" stroke-miterlimit="10" stroke-width="1"/>
          <line id="Línea_774" data-name="Línea 774" x1="10.924" y2="10.126" transform="translate(247.405 475.076)" fill="none" stroke="#7be0ff" stroke-miterlimit="10" stroke-width="1"/>
          <line id="Línea_775" data-name="Línea 775" x1="18.12" y2="17.118" transform="translate(247.272 475.076)" fill="none" stroke="#7be0ff" stroke-miterlimit="10" stroke-width="1"/>
          <line id="Línea_776" data-name="Línea 776" x1="8.825" y2="9.427" transform="translate(262.324 475.076)" fill="none" stroke="#7be0ff" stroke-miterlimit="10" stroke-width="1"/>
          <line id="Línea_777" data-name="Línea 777" x1="8.825" y2="9.427" transform="translate(246.926 489.749)" fill="none" stroke="#7be0ff" stroke-miterlimit="10" stroke-width="1"/>
          <line id="Línea_778" data-name="Línea 778" x1="8.825" y2="9.427" transform="translate(235.452 507.016)" fill="none" stroke="#7be0ff" stroke-miterlimit="10" stroke-width="1"/>
          <line id="Línea_779" data-name="Línea 779" x1="8.825" y2="9.427" transform="translate(246.926 496.687)" fill="none" stroke="#7be0ff" stroke-miterlimit="10" stroke-width="1"/>
          <line id="Línea_780" data-name="Línea 780" x1="8.825" y2="9.427" transform="translate(247.507 507.016)" fill="none" stroke="#7be0ff" stroke-miterlimit="10" stroke-width="1"/>
          <line id="Línea_781" data-name="Línea 781" x1="12.991" y2="13.876" transform="translate(242.76 501.501)" fill="none" stroke="#7be0ff" stroke-miterlimit="10" stroke-width="1"/>
          <line id="Línea_782" data-name="Línea 782" x1="8.825" y2="9.427" transform="translate(269.742 475.076)" fill="none" stroke="#7be0ff" stroke-miterlimit="10" stroke-width="1"/>
          <line id="Línea_783" data-name="Línea 783" x1="8.825" y2="9.427" transform="translate(275.498 475.076)" fill="none" stroke="#7be0ff" stroke-miterlimit="10" stroke-width="1"/>
          <line id="Línea_784" data-name="Línea 784" x1="8.825" y2="9.427" transform="translate(281.815 475.076)" fill="none" stroke="#7be0ff" stroke-miterlimit="10" stroke-width="1"/>
          <line id="Línea_785" data-name="Línea 785" x1="8.825" y2="9.427" transform="translate(287.572 475.076)" fill="none" stroke="#7be0ff" stroke-miterlimit="10" stroke-width="1"/>
          <line id="Línea_786" data-name="Línea 786" x1="8.825" y2="9.427" transform="translate(294.99 475.076)" fill="none" stroke="#7be0ff" stroke-miterlimit="10" stroke-width="1"/>
          <line id="Línea_787" data-name="Línea 787" x1="8.825" y2="9.427" transform="translate(300.746 475.076)" fill="none" stroke="#7be0ff" stroke-miterlimit="10" stroke-width="1"/>
          <line id="Línea_788" data-name="Línea 788" x1="8.825" y2="9.427" transform="translate(309.278 475.076)" fill="none" stroke="#7be0ff" stroke-miterlimit="10" stroke-width="1"/>
          <line id="Línea_789" data-name="Línea 789" x1="8.825" y2="9.427" transform="translate(315.035 475.076)" fill="none" stroke="#7be0ff" stroke-miterlimit="10" stroke-width="1"/>
          <line id="Línea_790" data-name="Línea 790" x1="8.825" y2="9.427" transform="translate(322.453 475.076)" fill="none" stroke="#7be0ff" stroke-miterlimit="10" stroke-width="1"/>
          <line id="Línea_791" data-name="Línea 791" x1="8.825" y2="9.427" transform="translate(328.21 475.076)" fill="none" stroke="#7be0ff" stroke-miterlimit="10" stroke-width="1"/>
          <line id="Línea_792" data-name="Línea 792" x1="8.825" y2="9.427" transform="translate(334.526 475.076)" fill="none" stroke="#7be0ff" stroke-miterlimit="10" stroke-width="1"/>
          <line id="Línea_793" data-name="Línea 793" x1="8.825" y2="9.427" transform="translate(340.283 475.076)" fill="none" stroke="#7be0ff" stroke-miterlimit="10" stroke-width="1"/>
          <line id="Línea_794" data-name="Línea 794" x1="8.825" y2="9.427" transform="translate(347.701 475.076)" fill="none" stroke="#7be0ff" stroke-miterlimit="10" stroke-width="1"/>
          <line id="Línea_795" data-name="Línea 795" x1="8.825" y2="9.427" transform="translate(353.458 475.076)" fill="none" stroke="#7be0ff" stroke-miterlimit="10" stroke-width="1"/>
          <line id="Línea_796" data-name="Línea 796" x1="8.825" y2="9.427" transform="translate(361.13 475.076)" fill="none" stroke="#7be0ff" stroke-miterlimit="10" stroke-width="1"/>
          <line id="Línea_797" data-name="Línea 797" x1="8.825" y2="9.427" transform="translate(368.548 475.076)" fill="none" stroke="#7be0ff" stroke-miterlimit="10" stroke-width="1"/>
          <line id="Línea_798" data-name="Línea 798" x1="8.825" y2="9.427" transform="translate(374.305 475.076)" fill="none" stroke="#7be0ff" stroke-miterlimit="10" stroke-width="1"/>
          <line id="Línea_799" data-name="Línea 799" x1="8.825" y2="9.427" transform="translate(380.622 475.076)" fill="none" stroke="#7be0ff" stroke-miterlimit="10" stroke-width="1"/>
          <line id="Línea_800" data-name="Línea 800" x1="8.825" y2="9.427" transform="translate(386.378 475.076)" fill="none" stroke="#7be0ff" stroke-miterlimit="10" stroke-width="1"/>
          <line id="Línea_801" data-name="Línea 801" x1="8.825" y2="9.427" transform="translate(393.796 475.076)" fill="none" stroke="#7be0ff" stroke-miterlimit="10" stroke-width="1"/>
          <line id="Línea_802" data-name="Línea 802" x1="8.825" y2="9.427" transform="translate(399.553 475.076)" fill="none" stroke="#7be0ff" stroke-miterlimit="10" stroke-width="1"/>
          <line id="Línea_803" data-name="Línea 803" x1="8.825" y2="9.427" transform="translate(408.085 475.076)" fill="none" stroke="#7be0ff" stroke-miterlimit="10" stroke-width="1"/>
          <line id="Línea_804" data-name="Línea 804" x1="8.825" y2="9.427" transform="translate(413.842 475.076)" fill="none" stroke="#7be0ff" stroke-miterlimit="10" stroke-width="1"/>
          <line id="Línea_805" data-name="Línea 805" x1="8.825" y2="9.427" transform="translate(421.26 475.076)" fill="none" stroke="#7be0ff" stroke-miterlimit="10" stroke-width="1"/>
          <line id="Línea_806" data-name="Línea 806" x1="8.825" y2="9.427" transform="translate(427.017 475.076)" fill="none" stroke="#7be0ff" stroke-miterlimit="10" stroke-width="1"/>
          <line id="Línea_807" data-name="Línea 807" x1="8.825" y2="9.427" transform="translate(433.333 475.076)" fill="none" stroke="#7be0ff" stroke-miterlimit="10" stroke-width="1"/>
          <line id="Línea_808" data-name="Línea 808" x1="8.393" y2="7.973" transform="translate(439.09 476.53)" fill="none" stroke="#7be0ff" stroke-miterlimit="10" stroke-width="1"/>
          <line id="Línea_809" data-name="Línea 809" x1="8.825" y2="9.427" transform="translate(444.65 475.076)" fill="none" stroke="#7be0ff" stroke-miterlimit="10" stroke-width="1"/>
          <line id="Línea_810" data-name="Línea 810" x1="8.825" y2="9.427" transform="translate(452.068 475.076)" fill="none" stroke="#7be0ff" stroke-miterlimit="10" stroke-width="1"/>
          <line id="Línea_811" data-name="Línea 811" x1="8.825" y2="9.427" transform="translate(457.825 475.076)" fill="none" stroke="#7be0ff" stroke-miterlimit="10" stroke-width="1"/>
          <line id="Línea_812" data-name="Línea 812" x1="8.825" y2="9.427" transform="translate(465.498 475.076)" fill="none" stroke="#7be0ff" stroke-miterlimit="10" stroke-width="1"/>
          <line id="Línea_813" data-name="Línea 813" x1="8.825" y2="9.427" transform="translate(472.916 475.076)" fill="none" stroke="#7be0ff" stroke-miterlimit="10" stroke-width="1"/>
          <line id="Línea_814" data-name="Línea 814" x1="8.825" y2="9.427" transform="translate(478.672 475.076)" fill="none" stroke="#7be0ff" stroke-miterlimit="10" stroke-width="1"/>
          <line id="Línea_815" data-name="Línea 815" x1="8.825" y2="9.427" transform="translate(484.989 475.076)" fill="none" stroke="#7be0ff" stroke-miterlimit="10" stroke-width="1"/>
          <line id="Línea_816" data-name="Línea 816" x1="8.825" y2="9.427" transform="translate(490.746 475.076)" fill="none" stroke="#7be0ff" stroke-miterlimit="10" stroke-width="1"/>
          <line id="Línea_817" data-name="Línea 817" x1="8.825" y2="9.427" transform="translate(498.164 475.076)" fill="none" stroke="#7be0ff" stroke-miterlimit="10" stroke-width="1"/>
          <line id="Línea_818" data-name="Línea 818" x1="8.825" y2="9.427" transform="translate(503.92 475.076)" fill="none" stroke="#7be0ff" stroke-miterlimit="10" stroke-width="1"/>
          <line id="Línea_819" data-name="Línea 819" x1="8.825" y2="9.427" transform="translate(512.453 475.076)" fill="none" stroke="#7be0ff" stroke-miterlimit="10" stroke-width="1"/>
          <line id="Línea_820" data-name="Línea 820" x1="8.825" y2="9.427" transform="translate(518.209 475.076)" fill="none" stroke="#7be0ff" stroke-miterlimit="10" stroke-width="1"/>
          <line id="Línea_821" data-name="Línea 821" x1="8.825" y2="9.427" transform="translate(525.627 475.076)" fill="none" stroke="#7be0ff" stroke-miterlimit="10" stroke-width="1"/>
          <line id="Línea_822" data-name="Línea 822" x1="8.825" y2="9.427" transform="translate(531.384 475.076)" fill="none" stroke="#7be0ff" stroke-miterlimit="10" stroke-width="1"/>
          <line id="Línea_823" data-name="Línea 823" x1="8.825" y2="9.427" transform="translate(537.7 475.076)" fill="none" stroke="#7be0ff" stroke-miterlimit="10" stroke-width="1"/>
          <line id="Línea_824" data-name="Línea 824" x1="8.52" y2="9.101" transform="translate(543.457 475.402)" fill="none" stroke="#7be0ff" stroke-miterlimit="10" stroke-width="1"/>
          <line id="Línea_825" data-name="Línea 825" x1="8.825" y2="9.427" transform="translate(549.724 475.803)" fill="none" stroke="#7be0ff" stroke-miterlimit="10" stroke-width="1"/>
          <line id="Línea_826" data-name="Línea 826" x1="8.825" y2="9.427" transform="translate(558.256 475.803)" fill="none" stroke="#7be0ff" stroke-miterlimit="10" stroke-width="1"/>
          <line id="Línea_827" data-name="Línea 827" x1="8.825" y2="9.427" transform="translate(564.012 475.803)" fill="none" stroke="#7be0ff" stroke-miterlimit="10" stroke-width="1"/>
          <line id="Línea_828" data-name="Línea 828" x1="8.825" y2="9.427" transform="translate(571.43 475.803)" fill="none" stroke="#7be0ff" stroke-miterlimit="10" stroke-width="1"/>
          <line id="Línea_829" data-name="Línea 829" x1="8.825" y2="9.427" transform="translate(577.187 475.803)" fill="none" stroke="#7be0ff" stroke-miterlimit="10" stroke-width="1"/>
          <line id="Línea_830" data-name="Línea 830" x1="8.825" y2="9.427" transform="translate(583.504 475.803)" fill="none" stroke="#7be0ff" stroke-miterlimit="10" stroke-width="1"/>
          <line id="Línea_831" data-name="Línea 831" x1="10.778" y2="11.512" transform="translate(596.795 473.718)" fill="none" stroke="#7be0ff" stroke-miterlimit="10" stroke-width="1"/>
          <line id="Línea_832" data-name="Línea 832" x1="17.538" y2="18.734" transform="translate(589.26 466.496)" fill="none" stroke="#7be0ff" stroke-miterlimit="10" stroke-width="1"/>
          <line id="Línea_833" data-name="Línea 833" x1="5.656" y2="6.041" transform="translate(601.795 479.474)" fill="none" stroke="#7be0ff" stroke-miterlimit="10" stroke-width="1"/>
          <g id="Grupo_60029" data-name="Grupo 60029" transform="translate(596.879)">
            <line id="Línea_834" data-name="Línea 834" x1="9.427" y2="8.825" transform="translate(0 460.136)" fill="none" stroke="#7be0ff" stroke-miterlimit="10" stroke-width="1"/>
            <line id="Línea_835" data-name="Línea 835" x1="9.427" y2="8.825" transform="translate(0 452.718)" fill="none" stroke="#7be0ff" stroke-miterlimit="10" stroke-width="1"/>
            <line id="Línea_836" data-name="Línea 836" x1="9.427" y2="8.825" transform="translate(0 446.961)" fill="none" stroke="#7be0ff" stroke-miterlimit="10" stroke-width="1"/>
            <line id="Línea_837" data-name="Línea 837" x1="9.427" y2="8.825" transform="translate(0 440.645)" fill="none" stroke="#7be0ff" stroke-miterlimit="10" stroke-width="1"/>
            <line id="Línea_838" data-name="Línea 838" x1="9.427" y2="8.825" transform="translate(0 434.888)" fill="none" stroke="#7be0ff" stroke-miterlimit="10" stroke-width="1"/>
            <line id="Línea_839" data-name="Línea 839" x1="9.427" y2="8.825" transform="translate(0 427.47)" fill="none" stroke="#7be0ff" stroke-miterlimit="10" stroke-width="1"/>
            <line id="Línea_840" data-name="Línea 840" x1="9.427" y2="8.825" transform="translate(0 421.713)" fill="none" stroke="#7be0ff" stroke-miterlimit="10" stroke-width="1"/>
            <line id="Línea_841" data-name="Línea 841" x1="9.427" y2="8.825" transform="translate(0 413.181)" fill="none" stroke="#7be0ff" stroke-miterlimit="10" stroke-width="1"/>
            <line id="Línea_842" data-name="Línea 842" x1="9.427" y2="8.825" transform="translate(0 407.424)" fill="none" stroke="#7be0ff" stroke-miterlimit="10" stroke-width="1"/>
            <line id="Línea_843" data-name="Línea 843" x1="9.427" y2="8.825" transform="translate(0 400.006)" fill="none" stroke="#7be0ff" stroke-miterlimit="10" stroke-width="1"/>
            <line id="Línea_844" data-name="Línea 844" x1="9.427" y2="8.825" transform="translate(0 394.25)" fill="none" stroke="#7be0ff" stroke-miterlimit="10" stroke-width="1"/>
            <line id="Línea_845" data-name="Línea 845" x1="9.427" y2="8.825" transform="translate(0 387.933)" fill="none" stroke="#7be0ff" stroke-miterlimit="10" stroke-width="1"/>
            <line id="Línea_846" data-name="Línea 846" x1="9.427" y2="8.825" transform="translate(0 382.177)" fill="none" stroke="#7be0ff" stroke-miterlimit="10" stroke-width="1"/>
            <line id="Línea_847" data-name="Línea 847" x1="9.427" y2="8.825" transform="translate(0 374.759)" fill="none" stroke="#7be0ff" stroke-miterlimit="10" stroke-width="1"/>
            <line id="Línea_848" data-name="Línea 848" x1="9.427" y2="8.825" transform="translate(0 369.002)" fill="none" stroke="#7be0ff" stroke-miterlimit="10" stroke-width="1"/>
            <line id="Línea_849" data-name="Línea 849" x1="9.427" y2="8.825" transform="translate(0 361.329)" fill="none" stroke="#7be0ff" stroke-miterlimit="10" stroke-width="1"/>
            <line id="Línea_850" data-name="Línea 850" x1="9.427" y2="8.825" transform="translate(0.727 232.662)" fill="none" stroke="#7be0ff" stroke-miterlimit="10" stroke-width="1"/>
            <line id="Línea_851" data-name="Línea 851" x1="9.427" y2="8.825" transform="translate(0.727 226.905)" fill="none" stroke="#7be0ff" stroke-miterlimit="10" stroke-width="1"/>
            <line id="Línea_852" data-name="Línea 852" x1="9.427" y2="8.825" transform="translate(0.727 219.487)" fill="none" stroke="#7be0ff" stroke-miterlimit="10" stroke-width="1"/>
            <line id="Línea_853" data-name="Línea 853" x1="9.427" y2="8.825" transform="translate(0.727 213.73)" fill="none" stroke="#7be0ff" stroke-miterlimit="10" stroke-width="1"/>
            <line id="Línea_854" data-name="Línea 854" x1="9.427" y2="8.825" transform="translate(0.727 205.198)" fill="none" stroke="#7be0ff" stroke-miterlimit="10" stroke-width="1"/>
            <line id="Línea_855" data-name="Línea 855" x1="9.427" y2="8.825" transform="translate(0.727 199.441)" fill="none" stroke="#7be0ff" stroke-miterlimit="10" stroke-width="1"/>
            <line id="Línea_856" data-name="Línea 856" x1="9.427" y2="8.825" transform="translate(0.727 192.024)" fill="none" stroke="#7be0ff" stroke-miterlimit="10" stroke-width="1"/>
            <line id="Línea_857" data-name="Línea 857" x1="9.427" y2="8.825" transform="translate(0.727 186.267)" fill="none" stroke="#7be0ff" stroke-miterlimit="10" stroke-width="1"/>
            <line id="Línea_858" data-name="Línea 858" x1="9.427" y2="8.825" transform="translate(0.727 179.95)" fill="none" stroke="#7be0ff" stroke-miterlimit="10" stroke-width="1"/>
            <line id="Línea_859" data-name="Línea 859" x1="9.101" y2="8.52" transform="translate(0.727 174.499)" fill="none" stroke="#7be0ff" stroke-miterlimit="10" stroke-width="1"/>
            <line id="Línea_860" data-name="Línea 860" x1="9.427" y2="8.825" transform="translate(0 167.927)" fill="none" stroke="#7be0ff" stroke-miterlimit="10" stroke-width="1"/>
            <line id="Línea_861" data-name="Línea 861" x1="9.427" y2="8.825" transform="translate(0 159.395)" fill="none" stroke="#7be0ff" stroke-miterlimit="10" stroke-width="1"/>
            <line id="Línea_862" data-name="Línea 862" x1="9.427" y2="8.825" transform="translate(0 153.638)" fill="none" stroke="#7be0ff" stroke-miterlimit="10" stroke-width="1"/>
            <line id="Línea_863" data-name="Línea 863" x1="9.427" y2="8.825" transform="translate(0 146.22)" fill="none" stroke="#7be0ff" stroke-miterlimit="10" stroke-width="1"/>
            <line id="Línea_864" data-name="Línea 864" x1="9.427" y2="8.825" transform="translate(0 140.464)" fill="none" stroke="#7be0ff" stroke-miterlimit="10" stroke-width="1"/>
            <line id="Línea_865" data-name="Línea 865" x1="9.427" y2="8.825" transform="translate(0 134.147)" fill="none" stroke="#7be0ff" stroke-miterlimit="10" stroke-width="1"/>
            <line id="Línea_866" data-name="Línea 866" x1="9.427" y2="8.825" transform="translate(0.727 128.231)" fill="none" stroke="#7be0ff" stroke-miterlimit="10" stroke-width="1"/>
            <line id="Línea_867" data-name="Línea 867" x1="9.427" y2="8.825" transform="translate(0.727 122.474)" fill="none" stroke="#7be0ff" stroke-miterlimit="10" stroke-width="1"/>
            <line id="Línea_868" data-name="Línea 868" x1="9.427" y2="8.825" transform="translate(0.727 115.056)" fill="none" stroke="#7be0ff" stroke-miterlimit="10" stroke-width="1"/>
            <line id="Línea_869" data-name="Línea 869" x1="9.427" y2="8.825" transform="translate(0.727 109.3)" fill="none" stroke="#7be0ff" stroke-miterlimit="10" stroke-width="1"/>
            <line id="Línea_870" data-name="Línea 870" x1="9.427" y2="8.825" transform="translate(0.727 102.983)" fill="none" stroke="#7be0ff" stroke-miterlimit="10" stroke-width="1"/>
            <line id="Línea_871" data-name="Línea 871" x1="7.434" y2="6.959" transform="translate(0 99.628)" fill="none" stroke="#7be0ff" stroke-miterlimit="10" stroke-width="1"/>
            <line id="Línea_872" data-name="Línea 872" x1="9.427" y2="8.825" transform="translate(1.538 31.164)" fill="none" stroke="#7be0ff" stroke-miterlimit="10" stroke-width="1"/>
            <line id="Línea_873" data-name="Línea 873" x1="9.427" y2="8.825" transform="translate(2.265 25.248)" fill="none" stroke="#7be0ff" stroke-miterlimit="10" stroke-width="1"/>
            <line id="Línea_874" data-name="Línea 874" x1="9.427" y2="8.825" transform="translate(2.265 19.491)" fill="none" stroke="#7be0ff" stroke-miterlimit="10" stroke-width="1"/>
            <line id="Línea_875" data-name="Línea 875" x1="9.427" y2="8.825" transform="translate(2.265 12.073)" fill="none" stroke="#7be0ff" stroke-miterlimit="10" stroke-width="1"/>
            <line id="Línea_876" data-name="Línea 876" x1="9.427" y2="8.825" transform="translate(2.265 6.316)" fill="none" stroke="#7be0ff" stroke-miterlimit="10" stroke-width="1"/>
            <line id="Línea_877" data-name="Línea 877" x1="9.427" y2="8.825" transform="translate(2.265)" fill="none" stroke="#7be0ff" stroke-miterlimit="10" stroke-width="1"/>
          </g>
          <path id="Trazado_125512" data-name="Trazado 125512" d="M360.8,15.711V51.174H349.373" transform="translate(247.481 -11.298)" fill="none" stroke="#7be0ff" stroke-miterlimit="10" stroke-width="1"/>
          <path id="Trazado_125513" data-name="Trazado 125513" d="M349.373,70.81H359.9V213.261h-9.778" transform="translate(247.481 28.457)" fill="none" stroke="#7be0ff" stroke-miterlimit="10" stroke-width="1"/>
          <path id="Trazado_125514" data-name="Trazado 125514" d="M501.284,222.732H514.12v123.95H160.514v31.088H137.859v-8.825" transform="translate(94.869 138.072)" fill="none" stroke="#7be0ff" stroke-miterlimit="10" stroke-width="1"/>
          <text id="HALL" transform="translate(263.414 162.5)" fill="#5cb366" font-size="21" font-family="Roboto-Regular, Roboto"><tspan x="0" y="0">HALL</tspan></text>
          <text id="HALL_BATH" data-name="HALL BATH" transform="translate(413.048 97.924)" fill="#5cb366" font-size="13" font-family="Roboto-Regular, Roboto"><tspan x="0" y="0">HALL BATH</tspan></text>
          <text id="B.R._3" data-name="B.R. #3" transform="translate(410.128 374.526)" fill="#5cb366" font-size="21" font-family="Roboto-Regular, Roboto"><tspan x="0" y="0">B.R. #3</tspan></text>
          <text id="B.R._2" data-name="B.R. #2" transform="translate(68.421 381.108)" fill="#5cb366" font-size="21" font-family="Roboto-Regular, Roboto"><tspan x="0" y="0">B.R. #2</tspan></text>
          <line id="Línea_878" data-name="Línea 878" x2="23.767" transform="translate(190.308 53.298)" fill="none" stroke="#c200aa" stroke-miterlimit="10" stroke-width="1"/>
          <line id="Línea_879" data-name="Línea 879" x2="23.767" transform="translate(190.308 57.044)" fill="none" stroke="#c200aa" stroke-miterlimit="10" stroke-width="1"/>
        </g>
      </g>
    </g>
  </g>
</svg>
