<svg xmlns="http://www.w3.org/2000/svg" width="505" height="366" viewBox="0 0 505 366">
  <g id="Grupo_62083" data-name="Grupo 62083" transform="translate(-285 -1785)">
    <g id="Grupo_62082" data-name="Grupo 62082">
      <g id="Grupo_62066" data-name="Grupo 62066">
        <g id="Grupo_60038" data-name="Grupo 60038" transform="translate(-316.196 255.596)">
          <g id="Grupo_60037" data-name="Grupo 60037" transform="translate(611 1595)">
            <path id="Trazado_125528" data-name="Trazado 125528" d="M941.594,763.43l-81.348,48.931,245.88,32.417,70.339-51.378Z" transform="translate(-860.246 -763.43)" fill="#bbb" stroke="#000" stroke-miterlimit="10" stroke-width="1" opacity="0.41"/>
            <path id="Trazado_125529" data-name="Trazado 125529" d="M941.594,794.42l-81.348,48.931,245.88,32.417,70.339-51.378Z" transform="translate(-860.246 -753.746)" fill="#bbb" stroke="#000" stroke-miterlimit="10" stroke-width="1" opacity="0.41"/>
            <path id="Trazado_125530" data-name="Trazado 125530" d="M941.594,825.41l-81.348,48.932,245.88,32.417,70.339-51.378Z" transform="translate(-860.246 -744.062)" fill="#bbb" stroke="#000" stroke-miterlimit="10" stroke-width="1" opacity="0.41"/>
            <path id="Trazado_125531" data-name="Trazado 125531" d="M941.594,854.769,860.246,903.7l245.88,32.417,70.339-51.378Z" transform="translate(-860.246 -734.887)" fill="#bbb" stroke="#000" stroke-miterlimit="10" stroke-width="1" opacity="0.41"/>
            <path id="Trazado_125532" data-name="Trazado 125532" d="M941.594,885.76l-81.348,48.931,245.88,32.417,70.339-51.378Z" transform="translate(-860.246 -725.203)" fill="#bbb" stroke="#000" stroke-miterlimit="10" stroke-width="1" opacity="0.41"/>
            <text id="Armarios" transform="translate(342.214 29.575)" fill="#12263f" font-size="18" font-family="Roboto-Black, Roboto" font-weight="800"><tspan x="0" y="0">Armarios</tspan></text>
            <text id="Accesorios" transform="translate(342.214 70.861)" fill="#12263f" font-size="18" font-family="Roboto-Black, Roboto" font-weight="800"><tspan x="0" y="0">Accesorios</tspan></text>
            <text id="Electricidad" transform="translate(342.214 118.569)" fill="#12263f" font-size="18" font-family="Roboto-Black, Roboto" font-weight="800"><tspan x="0" y="0">Electricidad</tspan></text>
            <text id="Puerta" transform="translate(342.214 161.385)" fill="#12263f" font-size="18" font-family="Roboto-Black, Roboto" font-weight="800"><tspan x="0" y="0">Puerta</tspan></text>
            <text id="Plano_de_suelo" data-name="Plano de suelo" transform="translate(342.214 210.622)" fill="#12263f" font-size="18" font-family="Roboto-Black, Roboto" font-weight="800"><tspan x="0" y="0">Plano de suelo</tspan></text>
          </g>
        </g>
      </g>
      <rect id="Rectángulo_30688" data-name="Rectángulo 30688" width="505" height="305" transform="translate(285 1806)" fill="none"/>
      <rect id="Rectángulo_30672" data-name="Rectángulo 30672" width="4" height="21" transform="translate(285 1785)" fill="#fba321"/>
      <path id="Trazado_131012" data-name="Trazado 131012" d="M10.9-4.061A4.708,4.708,0,0,1,9.4-.927,4.911,4.911,0,0,1,6.047.176,4.509,4.509,0,0,1,2.413-1.45,6.542,6.542,0,0,1,1.046-5.8v-1.23a7.291,7.291,0,0,1,.637-3.138,4.76,4.76,0,0,1,1.806-2.079A5.029,5.029,0,0,1,6.2-12.973a4.624,4.624,0,0,1,3.27,1.138A4.765,4.765,0,0,1,10.9-8.684H9.2a3.677,3.677,0,0,0-.954-2.222A2.885,2.885,0,0,0,6.2-11.593a3.019,3.019,0,0,0-2.536,1.2,5.492,5.492,0,0,0-.918,3.4v1.24a5.645,5.645,0,0,0,.87,3.316A2.812,2.812,0,0,0,6.047-1.2,3.247,3.247,0,0,0,8.2-1.841a3.536,3.536,0,0,0,1-2.219ZM18.817,0a3.416,3.416,0,0,1-.229-1A3.628,3.628,0,0,1,15.882.176a3.357,3.357,0,0,1-2.307-.8,2.573,2.573,0,0,1-.9-2.017A2.688,2.688,0,0,1,13.8-4.944a5.325,5.325,0,0,1,3.177-.822h1.582v-.747a1.826,1.826,0,0,0-.51-1.358,2.049,2.049,0,0,0-1.5-.505,2.371,2.371,0,0,0-1.459.439A1.3,1.3,0,0,0,14.5-6.873H12.867a2.244,2.244,0,0,1,.505-1.375A3.449,3.449,0,0,1,14.744-9.3a4.613,4.613,0,0,1,1.9-.387,3.759,3.759,0,0,1,2.575.822A2.964,2.964,0,0,1,20.188-6.6v4.377a5.351,5.351,0,0,0,.334,2.083V0Zm-2.7-1.239a2.858,2.858,0,0,0,1.45-.4,2.392,2.392,0,0,0,.993-1.028V-4.614H17.288q-2.988,0-2.988,1.749a1.48,1.48,0,0,0,.51,1.2A1.959,1.959,0,0,0,16.119-1.239Zm14.651-3.41a5.694,5.694,0,0,1-.993,3.5A3.183,3.183,0,0,1,27.088.176a3.488,3.488,0,0,1-2.725-1.1V3.656H22.737V-9.51h1.485L24.3-8.455a3.35,3.35,0,0,1,2.76-1.23,3.243,3.243,0,0,1,2.711,1.292,5.756,5.756,0,0,1,1,3.595Zm-1.626-.185a4.2,4.2,0,0,0-.686-2.54,2.208,2.208,0,0,0-1.881-.932A2.39,2.39,0,0,0,24.363-7v4.544a2.4,2.4,0,0,0,2.232,1.3,2.2,2.2,0,0,0,1.859-.927A4.587,4.587,0,0,0,29.145-4.834ZM38.707,0a3.416,3.416,0,0,1-.229-1A3.628,3.628,0,0,1,35.771.176a3.357,3.357,0,0,1-2.307-.8,2.573,2.573,0,0,1-.9-2.017,2.688,2.688,0,0,1,1.129-2.307,5.325,5.325,0,0,1,3.177-.822h1.582v-.747a1.826,1.826,0,0,0-.51-1.358,2.049,2.049,0,0,0-1.5-.505,2.371,2.371,0,0,0-1.459.439,1.3,1.3,0,0,0-.589,1.063H32.757a2.244,2.244,0,0,1,.505-1.375A3.449,3.449,0,0,1,34.633-9.3a4.613,4.613,0,0,1,1.9-.387,3.759,3.759,0,0,1,2.575.822A2.964,2.964,0,0,1,40.078-6.6v4.377a5.351,5.351,0,0,0,.334,2.083V0Zm-2.7-1.239a2.858,2.858,0,0,0,1.45-.4,2.392,2.392,0,0,0,.993-1.028V-4.614H37.178q-2.988,0-2.988,1.749a1.48,1.48,0,0,0,.51,1.2A1.959,1.959,0,0,0,36.009-1.239ZM48.164-2.522a1.2,1.2,0,0,0-.5-1.024,4.78,4.78,0,0,0-1.731-.628,8.186,8.186,0,0,1-1.96-.633A2.788,2.788,0,0,1,42.9-5.687,2.1,2.1,0,0,1,42.557-6.9a2.467,2.467,0,0,1,.989-1.978,3.861,3.861,0,0,1,2.527-.809,3.974,3.974,0,0,1,2.624.835A2.652,2.652,0,0,1,49.7-6.715H48.067A1.468,1.468,0,0,0,47.5-7.866a2.124,2.124,0,0,0-1.428-.483,2.223,2.223,0,0,0-1.389.387,1.217,1.217,0,0,0-.5,1.011.986.986,0,0,0,.466.888,5.731,5.731,0,0,0,1.683.571,8.77,8.77,0,0,1,1.973.65,2.878,2.878,0,0,1,1.121.91,2.237,2.237,0,0,1,.365,1.3,2.434,2.434,0,0,1-1.02,2.043,4.277,4.277,0,0,1-2.646.769,4.789,4.789,0,0,1-2.021-.4,3.288,3.288,0,0,1-1.375-1.129,2.722,2.722,0,0,1-.5-1.569h1.626a1.683,1.683,0,0,0,.655,1.3,2.54,2.54,0,0,0,1.613.479,2.622,2.622,0,0,0,1.481-.374A1.148,1.148,0,0,0,48.164-2.522Z" transform="translate(300 1800)" fill="#12263f"/>
    </g>
    <rect id="Rectángulo_29951" data-name="Rectángulo 29951" width="505" height="40" transform="translate(285 2111)" fill="#e8e8e8"/>
    <path id="Trazado_131011" data-name="Trazado 131011" d="M9.434,16H8.02L2.651,7.782V16H1.238V5.336H2.651L8.035,13.59V5.336h1.4Zm1.926-4.036a4.681,4.681,0,0,1,.458-2.095,3.415,3.415,0,0,1,1.274-1.436,3.469,3.469,0,0,1,1.864-.505,3.342,3.342,0,0,1,2.618,1.121,4.311,4.311,0,0,1,1,2.981v.1a4.722,4.722,0,0,1-.443,2.076,3.365,3.365,0,0,1-1.267,1.432,3.509,3.509,0,0,1-1.893.513,3.334,3.334,0,0,1-2.611-1.121,4.29,4.29,0,0,1-1-2.966Zm1.362.161a3.39,3.39,0,0,0,.612,2.117,2.072,2.072,0,0,0,3.278-.011,3.707,3.707,0,0,0,.608-2.267A3.384,3.384,0,0,0,16.6,9.851a1.968,1.968,0,0,0-1.644-.809,1.946,1.946,0,0,0-1.619.8A3.68,3.68,0,0,0,12.722,12.125Zm9.39-5.969V8.075h1.479V9.123H22.112v4.921a1.1,1.1,0,0,0,.2.715.832.832,0,0,0,.674.238,3.281,3.281,0,0,0,.645-.088V16a3.951,3.951,0,0,1-1.04.146,1.687,1.687,0,0,1-1.37-.549,2.36,2.36,0,0,1-.461-1.56V9.123H19.314V8.075h1.443V6.156ZM30.066,16a2.846,2.846,0,0,1-.19-.835,3.023,3.023,0,0,1-2.256.981,2.8,2.8,0,0,1-1.923-.663,2.145,2.145,0,0,1-.751-1.681,2.24,2.24,0,0,1,.941-1.923,4.437,4.437,0,0,1,2.648-.685h1.318v-.623a1.522,1.522,0,0,0-.425-1.132,1.707,1.707,0,0,0-1.252-.421,1.976,1.976,0,0,0-1.216.366,1.079,1.079,0,0,0-.491.886H25.107a1.87,1.87,0,0,1,.421-1.146,2.874,2.874,0,0,1,1.143-.875,3.844,3.844,0,0,1,1.586-.322,3.133,3.133,0,0,1,2.146.685,2.47,2.47,0,0,1,.806,1.886v3.647a4.459,4.459,0,0,0,.278,1.736V16Zm-2.249-1.033a2.381,2.381,0,0,0,1.208-.33,1.994,1.994,0,0,0,.828-.857V12.155H28.792q-2.49,0-2.49,1.458a1.234,1.234,0,0,0,.425,1A1.633,1.633,0,0,0,27.817,14.967Zm5.544.322a.849.849,0,0,1,.209-.586.8.8,0,0,1,.626-.234.819.819,0,0,1,.634.234.831.831,0,0,1,.216.586.786.786,0,0,1-.216.564.834.834,0,0,1-.634.227.753.753,0,0,1-.835-.791Zm14.919-8.8H44.854V16h-1.4V6.486h-3.42V5.336h8.247Zm.286,5.479a4.681,4.681,0,0,1,.458-2.095A3.415,3.415,0,0,1,50.3,8.434a3.469,3.469,0,0,1,1.864-.505,3.342,3.342,0,0,1,2.618,1.121,4.311,4.311,0,0,1,1,2.981v.1a4.722,4.722,0,0,1-.443,2.076,3.365,3.365,0,0,1-1.267,1.432,3.509,3.509,0,0,1-1.893.513,3.334,3.334,0,0,1-2.611-1.121,4.29,4.29,0,0,1-1-2.966Zm1.362.161a3.39,3.39,0,0,0,.612,2.117,2.072,2.072,0,0,0,3.278-.011,3.707,3.707,0,0,0,.608-2.267,3.384,3.384,0,0,0-.619-2.113,1.968,1.968,0,0,0-1.644-.809,1.946,1.946,0,0,0-1.619.8A3.68,3.68,0,0,0,49.929,12.125Zm8.826-4.05.037.879a2.927,2.927,0,0,1,2.351-1.025A2.266,2.266,0,0,1,63.406,9.2a3,3,0,0,1,1.029-.923,3.039,3.039,0,0,1,1.5-.352q2.607,0,2.651,2.761V16H67.229V10.771A1.82,1.82,0,0,0,66.841,9.5a1.71,1.71,0,0,0-1.3-.421,1.8,1.8,0,0,0-1.252.45,1.827,1.827,0,0,0-.579,1.212V16H62.344V10.807a1.512,1.512,0,0,0-1.692-1.729,1.813,1.813,0,0,0-1.824,1.135V16H57.473V8.075ZM75.52,16a2.846,2.846,0,0,1-.19-.835,3.023,3.023,0,0,1-2.256.981,2.8,2.8,0,0,1-1.923-.663A2.145,2.145,0,0,1,70.4,13.8a2.24,2.24,0,0,1,.941-1.923,4.437,4.437,0,0,1,2.648-.685h1.318v-.623a1.522,1.522,0,0,0-.425-1.132A1.707,1.707,0,0,0,73.63,9.02a1.976,1.976,0,0,0-1.216.366,1.079,1.079,0,0,0-.491.886H70.562a1.87,1.87,0,0,1,.421-1.146,2.874,2.874,0,0,1,1.143-.875,3.844,3.844,0,0,1,1.586-.322,3.133,3.133,0,0,1,2.146.685,2.47,2.47,0,0,1,.806,1.886v3.647a4.459,4.459,0,0,0,.278,1.736V16Zm-2.249-1.033a2.381,2.381,0,0,0,1.208-.33,1.994,1.994,0,0,0,.828-.857V12.155H74.246q-2.49,0-2.49,1.458a1.234,1.234,0,0,0,.425,1A1.633,1.633,0,0,0,73.271,14.967Zm5.186-3a4.642,4.642,0,0,1,.864-2.933,2.941,2.941,0,0,1,4.468-.157V4.75h1.355V16H83.9l-.066-.85a2.759,2.759,0,0,1-2.263,1,2.707,2.707,0,0,1-2.245-1.128,4.7,4.7,0,0,1-.868-2.944Zm1.355.154a3.515,3.515,0,0,0,.557,2.109A1.8,1.8,0,0,0,81.907,15a1.977,1.977,0,0,0,1.882-1.157V10.2a1.992,1.992,0,0,0-1.868-1.121,1.808,1.808,0,0,0-1.553.769A3.87,3.87,0,0,0,79.812,12.125ZM92.139,16a2.846,2.846,0,0,1-.19-.835,3.023,3.023,0,0,1-2.256.981,2.8,2.8,0,0,1-1.923-.663,2.145,2.145,0,0,1-.751-1.681,2.24,2.24,0,0,1,.941-1.923,4.437,4.437,0,0,1,2.648-.685h1.318v-.623A1.522,1.522,0,0,0,91.5,9.441a1.707,1.707,0,0,0-1.252-.421,1.976,1.976,0,0,0-1.216.366,1.079,1.079,0,0,0-.491.886H87.18A1.87,1.87,0,0,1,87.6,9.126a2.874,2.874,0,0,1,1.143-.875,3.844,3.844,0,0,1,1.586-.322,3.133,3.133,0,0,1,2.146.685,2.47,2.47,0,0,1,.806,1.886v3.647a4.459,4.459,0,0,0,.278,1.736V16ZM89.89,14.967a2.381,2.381,0,0,0,1.208-.33,1.994,1.994,0,0,0,.828-.857V12.155H90.864q-2.49,0-2.49,1.458a1.234,1.234,0,0,0,.425,1A1.633,1.633,0,0,0,89.89,14.967Zm8.9-3a4.642,4.642,0,0,1,.864-2.933,2.941,2.941,0,0,1,4.468-.157V4.75h1.355V16h-1.245l-.066-.85a2.759,2.759,0,0,1-2.263,1,2.707,2.707,0,0,1-2.245-1.128,4.7,4.7,0,0,1-.868-2.944Zm1.355.154a3.515,3.515,0,0,0,.557,2.109,1.8,1.8,0,0,0,1.538.762,1.977,1.977,0,0,0,1.882-1.157V10.2a1.992,1.992,0,0,0-1.868-1.121,1.808,1.808,0,0,0-1.553.769A3.87,3.87,0,0,0,100.144,12.125Zm10.723,4.021a3.463,3.463,0,0,1-2.622-1.058,3.928,3.928,0,0,1-1.011-2.831v-.249a4.756,4.756,0,0,1,.45-2.106,3.514,3.514,0,0,1,1.26-1.45,3.167,3.167,0,0,1,1.754-.524,2.968,2.968,0,0,1,2.4,1.018,4.408,4.408,0,0,1,.857,2.915v.564h-5.369a2.817,2.817,0,0,0,.685,1.893,2.153,2.153,0,0,0,1.666.721,2.36,2.36,0,0,0,1.216-.293,3.055,3.055,0,0,0,.872-.776l.828.645A3.328,3.328,0,0,1,110.867,16.146Zm-.168-7.1a1.807,1.807,0,0,0-1.377.6,2.9,2.9,0,0,0-.688,1.674h3.97v-.1a2.581,2.581,0,0,0-.557-1.6A1.7,1.7,0,0,0,110.7,9.042Zm14.641,4.167h-4.468l-1,2.791h-1.45L122.49,5.336h1.23L127.8,16h-1.443ZM121.3,12.06h3.625l-1.816-4.988Zm12.539,3.157a2.878,2.878,0,0,1-2.322.93,2.464,2.464,0,0,1-1.93-.736,3.186,3.186,0,0,1-.67-2.179V8.075h1.355v5.12q0,1.8,1.465,1.8a2.028,2.028,0,0,0,2.065-1.157V8.075h1.355V16h-1.289Zm5.215-9.06V8.075h1.479V9.123H139.05v4.921a1.1,1.1,0,0,0,.2.715.832.832,0,0,0,.674.238,3.281,3.281,0,0,0,.645-.088V16a3.951,3.951,0,0,1-1.04.146,1.687,1.687,0,0,1-1.37-.549,2.36,2.36,0,0,1-.461-1.56V9.123h-1.443V8.075H137.7V6.156Zm2.556,5.808a4.681,4.681,0,0,1,.458-2.095,3.415,3.415,0,0,1,1.274-1.436,3.469,3.469,0,0,1,1.864-.505,3.342,3.342,0,0,1,2.618,1.121,4.311,4.311,0,0,1,1,2.981v.1a4.722,4.722,0,0,1-.443,2.076,3.365,3.365,0,0,1-1.267,1.432,3.509,3.509,0,0,1-1.893.513,3.334,3.334,0,0,1-2.611-1.121,4.29,4.29,0,0,1-1-2.966Zm1.362.161a3.39,3.39,0,0,0,.612,2.117,2.072,2.072,0,0,0,3.278-.011,3.707,3.707,0,0,0,.608-2.267,3.384,3.384,0,0,0-.619-2.113,1.968,1.968,0,0,0-1.644-.809,1.946,1.946,0,0,0-1.619.8A3.68,3.68,0,0,0,142.969,12.125Zm7.222-.154a4.642,4.642,0,0,1,.864-2.933,2.941,2.941,0,0,1,4.468-.157V4.75h1.355V16h-1.245l-.066-.85a2.759,2.759,0,0,1-2.263,1,2.707,2.707,0,0,1-2.245-1.128,4.7,4.7,0,0,1-.868-2.944Zm1.355.154a3.515,3.515,0,0,0,.557,2.109A1.8,1.8,0,0,0,153.64,15a1.977,1.977,0,0,0,1.882-1.157V10.2a1.992,1.992,0,0,0-1.868-1.121,1.808,1.808,0,0,0-1.553.769A3.87,3.87,0,0,0,151.545,12.125Zm10.723,4.021a3.463,3.463,0,0,1-2.622-1.058,3.928,3.928,0,0,1-1.011-2.831v-.249a4.756,4.756,0,0,1,.45-2.106,3.514,3.514,0,0,1,1.26-1.45,3.167,3.167,0,0,1,1.754-.524,2.968,2.968,0,0,1,2.4,1.018,4.408,4.408,0,0,1,.857,2.915v.564H159.99a2.817,2.817,0,0,0,.685,1.893,2.153,2.153,0,0,0,1.666.721,2.36,2.36,0,0,0,1.216-.293,3.055,3.055,0,0,0,.872-.776l.828.645A3.328,3.328,0,0,1,162.268,16.146Zm-.168-7.1a1.807,1.807,0,0,0-1.377.6,2.9,2.9,0,0,0-.688,1.674H164v-.1a2.581,2.581,0,0,0-.557-1.6A1.7,1.7,0,0,0,162.1,9.042Zm9.441,4.856a1,1,0,0,0-.414-.853,3.983,3.983,0,0,0-1.443-.524,6.822,6.822,0,0,1-1.633-.527,2.324,2.324,0,0,1-.894-.732,1.752,1.752,0,0,1-.289-1.011,2.056,2.056,0,0,1,.824-1.648,3.218,3.218,0,0,1,2.106-.674,3.311,3.311,0,0,1,2.186.7,2.21,2.21,0,0,1,.839,1.78H171.46a1.223,1.223,0,0,0-.472-.959,1.77,1.77,0,0,0-1.19-.4,1.852,1.852,0,0,0-1.157.322,1.014,1.014,0,0,0-.417.842.822.822,0,0,0,.388.74,4.776,4.776,0,0,0,1.4.476,7.308,7.308,0,0,1,1.644.542,2.4,2.4,0,0,1,.934.758,1.864,1.864,0,0,1,.3,1.08,2.028,2.028,0,0,1-.85,1.7,3.564,3.564,0,0,1-2.2.641,3.991,3.991,0,0,1-1.685-.337,2.74,2.74,0,0,1-1.146-.941,2.268,2.268,0,0,1-.414-1.307h1.355a1.4,1.4,0,0,0,.546,1.08,2.117,2.117,0,0,0,1.344.4,2.185,2.185,0,0,0,1.234-.311A.956.956,0,0,0,171.541,13.9Zm5.332-1.567-.85.886V16h-1.355V4.75h1.355v6.8l.725-.872,2.468-2.607h1.648l-3.083,3.311L181.223,16h-1.589Zm9.053-.659a11.324,11.324,0,0,1,.443-3.179,9.234,9.234,0,0,1,1.322-2.769,5.624,5.624,0,0,1,1.824-1.758l.278.894a5.833,5.833,0,0,0-1.754,2.5,10.859,10.859,0,0,0-.751,3.772l-.007.623a10.916,10.916,0,0,0,1.033,4.907,5.861,5.861,0,0,0,1.479,1.948l-.278.828a5.8,5.8,0,0,1-1.86-1.816A10.181,10.181,0,0,1,185.925,11.671ZM197.952,16h-6.987v-.974l3.691-4.1a8.77,8.77,0,0,0,1.132-1.512,2.524,2.524,0,0,0,.311-1.2,1.913,1.913,0,0,0-.505-1.37,1.767,1.767,0,0,0-1.348-.535,2.093,2.093,0,0,0-1.571.575,2.2,2.2,0,0,0-.56,1.6h-1.355a3.145,3.145,0,0,1,.948-2.38,3.516,3.516,0,0,1,2.538-.908,3.379,3.379,0,0,1,2.351.78,2.661,2.661,0,0,1,.864,2.076q0,1.575-2.007,3.75l-2.856,3.1h5.354Zm8.123-4.548a6.2,6.2,0,0,1-.813,3.538,3.378,3.378,0,0,1-5.068.026,5.882,5.882,0,0,1-.85-3.38V9.826a6.059,6.059,0,0,1,.813-3.494,3.439,3.439,0,0,1,5.083-.04,5.847,5.847,0,0,1,.835,3.4ZM204.719,9.6a4.965,4.965,0,0,0-.483-2.509,1.664,1.664,0,0,0-1.531-.787,1.642,1.642,0,0,0-1.516.784A4.848,4.848,0,0,0,200.7,9.5v2.168a5.045,5.045,0,0,0,.5,2.552,1.661,1.661,0,0,0,1.52.824,1.638,1.638,0,0,0,1.49-.776,4.862,4.862,0,0,0,.509-2.446Zm7.544,6.4H210.9V6.969l-2.732,1V6.742l3.882-1.458h.212Zm9.163-4.687a3.315,3.315,0,0,1-1.014.813,2.752,2.752,0,0,1-1.293.308,2.841,2.841,0,0,1-1.608-.454,2.952,2.952,0,0,1-1.058-1.278,4.357,4.357,0,0,1-.374-1.82,4.439,4.439,0,0,1,.406-1.926,2.986,2.986,0,0,1,1.154-1.311,3.289,3.289,0,0,1,1.743-.454,2.978,2.978,0,0,1,2.494,1.183,5.159,5.159,0,0,1,.912,3.226v.4a6.894,6.894,0,0,1-1.23,4.545,4.727,4.727,0,0,1-3.713,1.469h-.264v-1.15h.286a3.73,3.73,0,0,0,2.578-.873A3.748,3.748,0,0,0,221.426,11.313Zm-2.087,0a2.092,2.092,0,0,0,1.256-.417,2.461,2.461,0,0,0,.839-1.033V9.32a3.729,3.729,0,0,0-.579-2.168,1.769,1.769,0,0,0-2.9-.15,2.825,2.825,0,0,0-.542,1.805,2.94,2.94,0,0,0,.524,1.8A1.658,1.658,0,0,0,219.338,11.313Zm8.745,4.834a3.463,3.463,0,0,1-2.622-1.058,3.928,3.928,0,0,1-1.011-2.831v-.249A4.756,4.756,0,0,1,224.9,9.9a3.514,3.514,0,0,1,1.26-1.45,3.167,3.167,0,0,1,1.754-.524,2.968,2.968,0,0,1,2.4,1.018,4.408,4.408,0,0,1,.857,2.915v.564h-5.369a2.817,2.817,0,0,0,.685,1.893,2.153,2.153,0,0,0,1.666.721,2.36,2.36,0,0,0,1.216-.293,3.055,3.055,0,0,0,.872-.776l.828.645A3.328,3.328,0,0,1,228.083,16.146Zm-.168-7.1a1.807,1.807,0,0,0-1.377.6,2.9,2.9,0,0,0-.688,1.674h3.97v-.1a2.581,2.581,0,0,0-.557-1.6A1.7,1.7,0,0,0,227.915,9.042Zm7.954,2.7a11.329,11.329,0,0,1-.428,3.131,9.259,9.259,0,0,1-1.311,2.765,5.744,5.744,0,0,1-1.849,1.8l-.286-.828a5.888,5.888,0,0,0,1.813-2.684,11.613,11.613,0,0,0,.7-4.039v-.234a12.057,12.057,0,0,0-.322-2.86,9.653,9.653,0,0,0-.9-2.369,5.473,5.473,0,0,0-1.293-1.633l.286-.828a5.722,5.722,0,0,1,1.842,1.787,9.278,9.278,0,0,1,1.311,2.761A11.591,11.591,0,0,1,235.869,11.745Zm2.117,3.545a.849.849,0,0,1,.209-.586.8.8,0,0,1,.626-.234.819.819,0,0,1,.634.234.831.831,0,0,1,.216.586.786.786,0,0,1-.216.564.834.834,0,0,1-.634.227.753.753,0,0,1-.835-.791Z" transform="translate(300 2122)" fill="#12263f"/>
  </g>
</svg>
