<svg xmlns="http://www.w3.org/2000/svg" width="505" height="366" viewBox="0 0 505 366">
  <g id="Grupo_62062" data-name="Grupo 62062" transform="translate(-285 -1785)">
    <g id="Grupo_62061" data-name="Grupo 62061">
      <g id="Grupo_59591" data-name="Grupo 59591" transform="translate(-7 -32)">
        <rect id="Rectángulo_30688" data-name="Rectángulo 30688" width="505" height="305" transform="translate(292 1838)" fill="none"/>
        <g id="Grupo_59589" data-name="Grupo 59589" transform="translate(292 1817)">
          <rect id="Rectángulo_30672" data-name="Rectángulo 30672" width="4" height="21" fill="#fba321"/>
          <path id="Trazado_131001" data-name="Trazado 131001" d="M10.9-4.061A4.708,4.708,0,0,1,9.4-.927,4.911,4.911,0,0,1,6.047.176,4.509,4.509,0,0,1,2.413-1.45,6.542,6.542,0,0,1,1.046-5.8v-1.23a7.291,7.291,0,0,1,.637-3.138,4.76,4.76,0,0,1,1.806-2.079A5.029,5.029,0,0,1,6.2-12.973a4.624,4.624,0,0,1,3.27,1.138A4.765,4.765,0,0,1,10.9-8.684H9.2a3.677,3.677,0,0,0-.954-2.222A2.885,2.885,0,0,0,6.2-11.593a3.019,3.019,0,0,0-2.536,1.2,5.492,5.492,0,0,0-.918,3.4v1.24a5.645,5.645,0,0,0,.87,3.316A2.812,2.812,0,0,0,6.047-1.2,3.247,3.247,0,0,0,8.2-1.841a3.536,3.536,0,0,0,1-2.219ZM18.817,0a3.416,3.416,0,0,1-.229-1A3.628,3.628,0,0,1,15.882.176a3.357,3.357,0,0,1-2.307-.8,2.573,2.573,0,0,1-.9-2.017A2.688,2.688,0,0,1,13.8-4.944a5.325,5.325,0,0,1,3.177-.822h1.582v-.747a1.826,1.826,0,0,0-.51-1.358,2.049,2.049,0,0,0-1.5-.505,2.371,2.371,0,0,0-1.459.439A1.3,1.3,0,0,0,14.5-6.873H12.867a2.244,2.244,0,0,1,.505-1.375A3.449,3.449,0,0,1,14.744-9.3a4.613,4.613,0,0,1,1.9-.387,3.759,3.759,0,0,1,2.575.822A2.964,2.964,0,0,1,20.188-6.6v4.377a5.351,5.351,0,0,0,.334,2.083V0Zm-2.7-1.239a2.858,2.858,0,0,0,1.45-.4,2.392,2.392,0,0,0,.993-1.028V-4.614H17.288q-2.988,0-2.988,1.749a1.48,1.48,0,0,0,.51,1.2A1.959,1.959,0,0,0,16.119-1.239Zm14.651-3.41a5.694,5.694,0,0,1-.993,3.5A3.183,3.183,0,0,1,27.088.176a3.488,3.488,0,0,1-2.725-1.1V3.656H22.737V-9.51h1.485L24.3-8.455a3.35,3.35,0,0,1,2.76-1.23,3.243,3.243,0,0,1,2.711,1.292,5.756,5.756,0,0,1,1,3.595Zm-1.626-.185a4.2,4.2,0,0,0-.686-2.54,2.208,2.208,0,0,0-1.881-.932A2.39,2.39,0,0,0,24.363-7v4.544a2.4,2.4,0,0,0,2.232,1.3,2.2,2.2,0,0,0,1.859-.927A4.587,4.587,0,0,0,29.145-4.834ZM38.707,0a3.416,3.416,0,0,1-.229-1A3.628,3.628,0,0,1,35.771.176a3.357,3.357,0,0,1-2.307-.8,2.573,2.573,0,0,1-.9-2.017,2.688,2.688,0,0,1,1.129-2.307,5.325,5.325,0,0,1,3.177-.822h1.582v-.747a1.826,1.826,0,0,0-.51-1.358,2.049,2.049,0,0,0-1.5-.505,2.371,2.371,0,0,0-1.459.439,1.3,1.3,0,0,0-.589,1.063H32.757a2.244,2.244,0,0,1,.505-1.375A3.449,3.449,0,0,1,34.633-9.3a4.613,4.613,0,0,1,1.9-.387,3.759,3.759,0,0,1,2.575.822A2.964,2.964,0,0,1,40.078-6.6v4.377a5.351,5.351,0,0,0,.334,2.083V0Zm-2.7-1.239a2.858,2.858,0,0,0,1.45-.4,2.392,2.392,0,0,0,.993-1.028V-4.614H37.178q-2.988,0-2.988,1.749a1.48,1.48,0,0,0,.51,1.2A1.959,1.959,0,0,0,36.009-1.239ZM48.164-2.522a1.2,1.2,0,0,0-.5-1.024,4.78,4.78,0,0,0-1.731-.628,8.186,8.186,0,0,1-1.96-.633A2.788,2.788,0,0,1,42.9-5.687,2.1,2.1,0,0,1,42.557-6.9a2.467,2.467,0,0,1,.989-1.978,3.861,3.861,0,0,1,2.527-.809,3.974,3.974,0,0,1,2.624.835A2.652,2.652,0,0,1,49.7-6.715H48.067A1.468,1.468,0,0,0,47.5-7.866a2.124,2.124,0,0,0-1.428-.483,2.223,2.223,0,0,0-1.389.387,1.217,1.217,0,0,0-.5,1.011.986.986,0,0,0,.466.888,5.731,5.731,0,0,0,1.683.571,8.77,8.77,0,0,1,1.973.65,2.878,2.878,0,0,1,1.121.91,2.237,2.237,0,0,1,.365,1.3,2.434,2.434,0,0,1-1.02,2.043,4.277,4.277,0,0,1-2.646.769,4.789,4.789,0,0,1-2.021-.4,3.288,3.288,0,0,1-1.375-1.129,2.722,2.722,0,0,1-.5-1.569h1.626a1.683,1.683,0,0,0,.655,1.3,2.54,2.54,0,0,0,1.613.479,2.622,2.622,0,0,0,1.481-.374A1.148,1.148,0,0,0,48.164-2.522Z" transform="translate(15 15)" fill="#12263f"/>
        </g>
        <g id="Grupo_59590" data-name="Grupo 59590" transform="translate(292 2143)">
          <rect id="Rectángulo_29951" data-name="Rectángulo 29951" width="505" height="40" fill="#e8e8e8"/>
          <path id="Trazado_131002" data-name="Trazado 131002" d="M8.176,14H6.951L2.3,6.878V14H1.073V4.758H2.3l4.666,7.154V4.758H8.176Zm1.669-3.5a4.057,4.057,0,0,1,.4-1.815,2.96,2.96,0,0,1,1.1-1.244A3.007,3.007,0,0,1,12.962,7a2.9,2.9,0,0,1,2.269.971A3.736,3.736,0,0,1,16.1,10.56v.083a4.092,4.092,0,0,1-.384,1.8,2.916,2.916,0,0,1-1.1,1.241,3.041,3.041,0,0,1-1.641.444,2.889,2.889,0,0,1-2.263-.971,3.718,3.718,0,0,1-.866-2.571Zm1.181.14a2.938,2.938,0,0,0,.53,1.834,1.8,1.8,0,0,0,2.841-.01,3.213,3.213,0,0,0,.527-1.965,2.933,2.933,0,0,0-.536-1.831,1.705,1.705,0,0,0-1.425-.7,1.686,1.686,0,0,0-1.4.692A3.189,3.189,0,0,0,11.026,10.642Zm8.138-5.173V7.132h1.282V8.04H19.164V12.3a.953.953,0,0,0,.171.62.721.721,0,0,0,.584.207,2.843,2.843,0,0,0,.559-.076V14a3.424,3.424,0,0,1-.9.126,1.462,1.462,0,0,1-1.187-.476,2.045,2.045,0,0,1-.4-1.352V8.04h-1.25V7.132h1.25V5.469ZM26.057,14a2.467,2.467,0,0,1-.165-.724,2.62,2.62,0,0,1-1.955.851,2.424,2.424,0,0,1-1.666-.574A1.859,1.859,0,0,1,21.62,12.1a1.942,1.942,0,0,1,.816-1.666,3.846,3.846,0,0,1,2.295-.594h1.143V9.3a1.319,1.319,0,0,0-.368-.981,1.48,1.48,0,0,0-1.085-.365,1.712,1.712,0,0,0-1.054.317.935.935,0,0,0-.425.768H21.76a1.621,1.621,0,0,1,.365-.993,2.491,2.491,0,0,1,.99-.759A3.331,3.331,0,0,1,24.489,7a2.715,2.715,0,0,1,1.86.594,2.141,2.141,0,0,1,.7,1.635v3.161a3.865,3.865,0,0,0,.241,1.5V14Zm-1.949-.9a2.064,2.064,0,0,0,1.047-.286,1.728,1.728,0,0,0,.717-.743V10.667h-.92q-2.158,0-2.158,1.263a1.069,1.069,0,0,0,.368.863A1.415,1.415,0,0,0,24.108,13.1Zm4.805.279a.735.735,0,0,1,.181-.508.689.689,0,0,1,.543-.2.71.71,0,0,1,.549.2.721.721,0,0,1,.187.508.681.681,0,0,1-.187.489.723.723,0,0,1-.549.2.653.653,0,0,1-.724-.686Zm12.93-7.63H38.873V14H37.661V5.754H34.7v-1h7.147Zm.248,4.748a4.057,4.057,0,0,1,.4-1.815,2.96,2.96,0,0,1,1.1-1.244A3.007,3.007,0,0,1,45.208,7a2.9,2.9,0,0,1,2.269.971,3.736,3.736,0,0,1,.866,2.583v.083a4.092,4.092,0,0,1-.384,1.8,2.916,2.916,0,0,1-1.1,1.241,3.041,3.041,0,0,1-1.641.444,2.889,2.889,0,0,1-2.263-.971,3.718,3.718,0,0,1-.866-2.571Zm1.181.14a2.938,2.938,0,0,0,.53,1.834,1.8,1.8,0,0,0,2.841-.01,3.213,3.213,0,0,0,.527-1.965,2.933,2.933,0,0,0-.536-1.831,1.705,1.705,0,0,0-1.425-.7,1.686,1.686,0,0,0-1.4.692A3.189,3.189,0,0,0,43.272,10.642Zm7.649-3.51.032.762A2.536,2.536,0,0,1,52.99,7a1.964,1.964,0,0,1,1.961,1.1,2.6,2.6,0,0,1,.892-.8,2.634,2.634,0,0,1,1.3-.3q2.26,0,2.3,2.393V14H58.265V9.468a1.577,1.577,0,0,0-.336-1.1A1.482,1.482,0,0,0,56.8,8a1.557,1.557,0,0,0-1.085.39,1.584,1.584,0,0,0-.5,1.051V14H54.031V9.5A1.31,1.31,0,0,0,52.565,8a1.571,1.571,0,0,0-1.581.984V14H49.81V7.132ZM65.451,14a2.467,2.467,0,0,1-.165-.724,2.62,2.62,0,0,1-1.955.851,2.424,2.424,0,0,1-1.666-.574,1.859,1.859,0,0,1-.651-1.457,1.942,1.942,0,0,1,.816-1.666,3.846,3.846,0,0,1,2.295-.594h1.143V9.3a1.319,1.319,0,0,0-.368-.981,1.48,1.48,0,0,0-1.085-.365,1.712,1.712,0,0,0-1.054.317.935.935,0,0,0-.425.768H61.153a1.621,1.621,0,0,1,.365-.993,2.491,2.491,0,0,1,.99-.759A3.331,3.331,0,0,1,63.883,7a2.715,2.715,0,0,1,1.86.594,2.141,2.141,0,0,1,.7,1.635v3.161a3.865,3.865,0,0,0,.241,1.5V14ZM63.5,13.1a2.064,2.064,0,0,0,1.047-.286,1.728,1.728,0,0,0,.717-.743V10.667h-.92q-2.158,0-2.158,1.263a1.069,1.069,0,0,0,.368.863A1.415,1.415,0,0,0,63.5,13.1ZM68,10.509a4.023,4.023,0,0,1,.749-2.542,2.548,2.548,0,0,1,3.872-.136V4.25h1.174V14H72.712l-.057-.736a2.391,2.391,0,0,1-1.961.863,2.346,2.346,0,0,1-1.946-.978A4.069,4.069,0,0,1,68,10.6Zm1.174.133a3.046,3.046,0,0,0,.482,1.828,1.56,1.56,0,0,0,1.333.66,1.713,1.713,0,0,0,1.631-1V8.973A1.726,1.726,0,0,0,71,8a1.567,1.567,0,0,0-1.346.667A3.354,3.354,0,0,0,69.17,10.642ZM79.854,14a2.467,2.467,0,0,1-.165-.724,2.62,2.62,0,0,1-1.955.851,2.424,2.424,0,0,1-1.666-.574,1.859,1.859,0,0,1-.651-1.457,1.942,1.942,0,0,1,.816-1.666,3.846,3.846,0,0,1,2.295-.594h1.143V9.3a1.319,1.319,0,0,0-.368-.981,1.48,1.48,0,0,0-1.085-.365,1.712,1.712,0,0,0-1.054.317.935.935,0,0,0-.425.768H75.556a1.621,1.621,0,0,1,.365-.993,2.491,2.491,0,0,1,.99-.759A3.331,3.331,0,0,1,78.286,7a2.715,2.715,0,0,1,1.86.594,2.141,2.141,0,0,1,.7,1.635v3.161a3.865,3.865,0,0,0,.241,1.5V14ZM77.9,13.1a2.064,2.064,0,0,0,1.047-.286,1.728,1.728,0,0,0,.717-.743V10.667h-.92q-2.158,0-2.158,1.263a1.069,1.069,0,0,0,.368.863A1.415,1.415,0,0,0,77.9,13.1Zm7.712-2.6a4.023,4.023,0,0,1,.749-2.542,2.548,2.548,0,0,1,3.872-.136V4.25h1.174V14H90.333l-.057-.736a2.391,2.391,0,0,1-1.961.863,2.346,2.346,0,0,1-1.946-.978,4.069,4.069,0,0,1-.752-2.552Zm1.174.133a3.046,3.046,0,0,0,.482,1.828,1.56,1.56,0,0,0,1.333.66,1.713,1.713,0,0,0,1.631-1V8.973A1.726,1.726,0,0,0,88.62,8a1.567,1.567,0,0,0-1.346.667A3.354,3.354,0,0,0,86.792,10.642Zm9.293,3.485a3,3,0,0,1-2.272-.917,3.4,3.4,0,0,1-.876-2.453v-.216a4.121,4.121,0,0,1,.39-1.825,3.045,3.045,0,0,1,1.092-1.257A2.745,2.745,0,0,1,95.938,7a2.572,2.572,0,0,1,2.082.882,3.82,3.82,0,0,1,.743,2.526V10.9H94.11a2.441,2.441,0,0,0,.594,1.641,1.866,1.866,0,0,0,1.444.625,2.045,2.045,0,0,0,1.054-.254,2.648,2.648,0,0,0,.755-.673l.717.559A2.884,2.884,0,0,1,96.084,14.127ZM95.938,7.97a1.566,1.566,0,0,0-1.193.517,2.515,2.515,0,0,0-.6,1.45h3.44V9.849a2.237,2.237,0,0,0-.482-1.387A1.475,1.475,0,0,0,95.938,7.97Zm12.689,3.612h-3.872L103.886,14h-1.257l3.529-9.242h1.066L110.76,14h-1.25Zm-3.5-1h3.142l-1.574-4.323Zm10.867,2.736a2.494,2.494,0,0,1-2.012.806,2.135,2.135,0,0,1-1.673-.638,2.761,2.761,0,0,1-.581-1.888V7.132H112.9v4.437q0,1.562,1.27,1.562a1.758,1.758,0,0,0,1.79-1v-5h1.174V14h-1.117Zm4.52-7.852V7.132h1.282V8.04H120.51V12.3a.953.953,0,0,0,.171.62.721.721,0,0,0,.584.207,2.843,2.843,0,0,0,.559-.076V14a3.424,3.424,0,0,1-.9.126,1.462,1.462,0,0,1-1.187-.476,2.045,2.045,0,0,1-.4-1.352V8.04h-1.25V7.132h1.25V5.469Zm2.215,5.034a4.057,4.057,0,0,1,.4-1.815,2.96,2.96,0,0,1,1.1-1.244A3.007,3.007,0,0,1,125.842,7a2.9,2.9,0,0,1,2.269.971,3.736,3.736,0,0,1,.866,2.583v.083a4.092,4.092,0,0,1-.384,1.8,2.916,2.916,0,0,1-1.1,1.241,3.041,3.041,0,0,1-1.641.444,2.889,2.889,0,0,1-2.263-.971,3.718,3.718,0,0,1-.866-2.571Zm1.181.14a2.938,2.938,0,0,0,.53,1.834,1.8,1.8,0,0,0,2.841-.01A3.213,3.213,0,0,0,127.8,10.5a2.933,2.933,0,0,0-.536-1.831,1.705,1.705,0,0,0-1.425-.7,1.686,1.686,0,0,0-1.4.692A3.189,3.189,0,0,0,123.906,10.642Zm6.259-.133a4.023,4.023,0,0,1,.749-2.542,2.548,2.548,0,0,1,3.872-.136V4.25h1.174V14h-1.079l-.057-.736a2.391,2.391,0,0,1-1.961.863,2.346,2.346,0,0,1-1.946-.978,4.069,4.069,0,0,1-.752-2.552Zm1.174.133a3.046,3.046,0,0,0,.482,1.828,1.56,1.56,0,0,0,1.333.66,1.713,1.713,0,0,0,1.631-1V8.973A1.726,1.726,0,0,0,133.167,8a1.567,1.567,0,0,0-1.346.667A3.354,3.354,0,0,0,131.339,10.642Zm9.293,3.485a3,3,0,0,1-2.272-.917,3.4,3.4,0,0,1-.876-2.453v-.216a4.121,4.121,0,0,1,.39-1.825,3.045,3.045,0,0,1,1.092-1.257A2.745,2.745,0,0,1,140.486,7a2.572,2.572,0,0,1,2.082.882,3.82,3.82,0,0,1,.743,2.526V10.9h-4.653a2.441,2.441,0,0,0,.594,1.641,1.866,1.866,0,0,0,1.444.625,2.045,2.045,0,0,0,1.054-.254,2.647,2.647,0,0,0,.755-.673l.717.559A2.884,2.884,0,0,1,140.632,14.127Zm-.146-6.157a1.566,1.566,0,0,0-1.193.517,2.515,2.515,0,0,0-.6,1.45h3.44V9.849a2.237,2.237,0,0,0-.482-1.387A1.475,1.475,0,0,0,140.486,7.97Zm8.182,4.208a.865.865,0,0,0-.359-.74,3.452,3.452,0,0,0-1.25-.454,5.912,5.912,0,0,1-1.416-.457,2.014,2.014,0,0,1-.774-.635,1.518,1.518,0,0,1-.251-.876,1.782,1.782,0,0,1,.714-1.428A2.789,2.789,0,0,1,147.158,7a2.87,2.87,0,0,1,1.895.6,1.915,1.915,0,0,1,.727,1.542H148.6a1.06,1.06,0,0,0-.409-.832,1.534,1.534,0,0,0-1.031-.349,1.605,1.605,0,0,0-1,.279.879.879,0,0,0-.362.73.712.712,0,0,0,.336.641,4.139,4.139,0,0,0,1.216.413,6.334,6.334,0,0,1,1.425.47,2.079,2.079,0,0,1,.809.657,1.615,1.615,0,0,1,.263.936,1.758,1.758,0,0,1-.736,1.476,3.089,3.089,0,0,1-1.911.555,3.459,3.459,0,0,1-1.46-.292,2.375,2.375,0,0,1-.993-.816,1.966,1.966,0,0,1-.359-1.133h1.174a1.216,1.216,0,0,0,.473.936,1.835,1.835,0,0,0,1.165.346,1.894,1.894,0,0,0,1.07-.27A.829.829,0,0,0,148.668,12.178Zm4.621-1.358-.736.768V14h-1.174V4.25h1.174v5.9l.628-.755,2.139-2.26h1.428L154.077,10l2.983,4h-1.377Zm7.846-.571a9.814,9.814,0,0,1,.384-2.755,8,8,0,0,1,1.146-2.4,4.874,4.874,0,0,1,1.581-1.523l.241.774a5.056,5.056,0,0,0-1.52,2.171,9.411,9.411,0,0,0-.651,3.269l-.006.54a9.46,9.46,0,0,0,.9,4.253,5.079,5.079,0,0,0,1.282,1.688l-.241.717a5.031,5.031,0,0,1-1.612-1.574A8.823,8.823,0,0,1,161.135,10.249ZM171.558,14H165.5v-.844L168.7,9.6a7.6,7.6,0,0,0,.981-1.311,2.188,2.188,0,0,0,.27-1.044,1.658,1.658,0,0,0-.438-1.187,1.531,1.531,0,0,0-1.168-.463,1.814,1.814,0,0,0-1.362.5,1.9,1.9,0,0,0-.486,1.387h-1.174a2.726,2.726,0,0,1,.822-2.063,3.047,3.047,0,0,1,2.2-.787,2.928,2.928,0,0,1,2.038.676,2.306,2.306,0,0,1,.749,1.8,5.287,5.287,0,0,1-1.739,3.25l-2.476,2.685h4.64Zm7.04-3.942a5.371,5.371,0,0,1-.7,3.066,2.928,2.928,0,0,1-4.393.022,5.1,5.1,0,0,1-.736-2.929V8.649a5.251,5.251,0,0,1,.7-3.028,2.98,2.98,0,0,1,4.405-.035,5.068,5.068,0,0,1,.724,2.948Zm-1.174-1.606A4.3,4.3,0,0,0,177,6.278a1.442,1.442,0,0,0-1.327-.682,1.423,1.423,0,0,0-1.314.679,4.2,4.2,0,0,0-.425,2.088v1.879a4.372,4.372,0,0,0,.435,2.212,1.439,1.439,0,0,0,1.317.714,1.42,1.42,0,0,0,1.292-.673,4.214,4.214,0,0,0,.441-2.12ZM183.961,14h-1.181V6.173l-2.368.87V5.977l3.364-1.263h.184ZM191.9,9.938a2.873,2.873,0,0,1-.879.7,2.385,2.385,0,0,1-1.12.267,2.463,2.463,0,0,1-1.393-.394,2.558,2.558,0,0,1-.917-1.108,3.776,3.776,0,0,1-.324-1.577,3.847,3.847,0,0,1,.352-1.669,2.588,2.588,0,0,1,1-1.136,2.851,2.851,0,0,1,1.511-.394,2.581,2.581,0,0,1,2.161,1.025,4.471,4.471,0,0,1,.79,2.8v.343a5.974,5.974,0,0,1-1.066,3.939,4.1,4.1,0,0,1-3.218,1.273h-.229v-1h.248a3.233,3.233,0,0,0,2.234-.757A3.248,3.248,0,0,0,191.9,9.938Zm-1.809,0a1.813,1.813,0,0,0,1.089-.362,2.133,2.133,0,0,0,.727-.9v-.47a3.232,3.232,0,0,0-.5-1.879,1.533,1.533,0,0,0-2.514-.13,2.448,2.448,0,0,0-.47,1.565,2.548,2.548,0,0,0,.454,1.558A1.437,1.437,0,0,0,190.093,9.938Zm7.579,4.189a3,3,0,0,1-2.272-.917,3.4,3.4,0,0,1-.876-2.453v-.216a4.121,4.121,0,0,1,.39-1.825,3.045,3.045,0,0,1,1.092-1.257A2.745,2.745,0,0,1,197.526,7a2.572,2.572,0,0,1,2.082.882,3.82,3.82,0,0,1,.743,2.526V10.9H195.7a2.441,2.441,0,0,0,.594,1.641,1.866,1.866,0,0,0,1.444.625,2.045,2.045,0,0,0,1.054-.254,2.647,2.647,0,0,0,.755-.673l.717.559A2.884,2.884,0,0,1,197.672,14.127Zm-.146-6.157a1.566,1.566,0,0,0-1.193.517,2.515,2.515,0,0,0-.6,1.45h3.44V9.849a2.237,2.237,0,0,0-.482-1.387A1.475,1.475,0,0,0,197.526,7.97Zm6.894,2.342a9.819,9.819,0,0,1-.371,2.714,8.024,8.024,0,0,1-1.136,2.4,4.978,4.978,0,0,1-1.6,1.562l-.248-.717a5.1,5.1,0,0,0,1.571-2.326,10.065,10.065,0,0,0,.606-3.5v-.2a10.449,10.449,0,0,0-.279-2.479,8.366,8.366,0,0,0-.778-2.053,4.743,4.743,0,0,0-1.12-1.416l.248-.717a4.959,4.959,0,0,1,1.6,1.549,8.041,8.041,0,0,1,1.136,2.393A10.045,10.045,0,0,1,204.42,10.312Zm1.834,3.072a.735.735,0,0,1,.181-.508.689.689,0,0,1,.543-.2.71.71,0,0,1,.549.2.721.721,0,0,1,.187.508.682.682,0,0,1-.187.489.723.723,0,0,1-.549.2.653.653,0,0,1-.724-.686Z" transform="translate(15 11)" fill="#12263f" stroke="#393434" stroke-width="1"/>
        </g>
      </g>
    </g>
    <g id="Grupo_60038" data-name="Grupo 60038" transform="translate(-316.196 255.596)">
      <g id="Grupo_60037" data-name="Grupo 60037" transform="translate(611 1595)">
        <path id="Trazado_125528" data-name="Trazado 125528" d="M941.594,763.43l-81.348,48.931,245.88,32.417,70.339-51.378Z" transform="translate(-860.246 -763.43)" fill="#bbb" stroke="#000" stroke-miterlimit="10" stroke-width="1" opacity="0.41"/>
        <path id="Trazado_125529" data-name="Trazado 125529" d="M941.594,794.42l-81.348,48.931,245.88,32.417,70.339-51.378Z" transform="translate(-860.246 -753.746)" fill="#bbb" stroke="#000" stroke-miterlimit="10" stroke-width="1" opacity="0.41"/>
        <path id="Trazado_125530" data-name="Trazado 125530" d="M941.594,825.41l-81.348,48.932,245.88,32.417,70.339-51.378Z" transform="translate(-860.246 -744.062)" fill="#bbb" stroke="#000" stroke-miterlimit="10" stroke-width="1" opacity="0.41"/>
        <path id="Trazado_125531" data-name="Trazado 125531" d="M941.594,854.769,860.246,903.7l245.88,32.417,70.339-51.378Z" transform="translate(-860.246 -734.887)" fill="#bbb" stroke="#000" stroke-miterlimit="10" stroke-width="1" opacity="0.41"/>
        <path id="Trazado_125532" data-name="Trazado 125532" d="M941.594,885.76l-81.348,48.931,245.88,32.417,70.339-51.378Z" transform="translate(-860.246 -725.203)" fill="#bbb" stroke="#000" stroke-miterlimit="10" stroke-width="1" opacity="0.41"/>
        <text id="Armarios" transform="translate(342.214 29.575)" fill="#12263f" font-size="18" font-family="Roboto-Black, Roboto" font-weight="800"><tspan x="0" y="0">Armarios</tspan></text>
        <text id="Accesorios" transform="translate(342.214 70.861)" fill="#12263f" font-size="18" font-family="Roboto-Black, Roboto" font-weight="800"><tspan x="0" y="0">Accesorios</tspan></text>
        <text id="Electricidad" transform="translate(342.214 118.569)" fill="#12263f" font-size="18" font-family="Roboto-Black, Roboto" font-weight="800"><tspan x="0" y="0">Electricidad</tspan></text>
        <text id="Puerta" transform="translate(342.214 161.385)" fill="#12263f" font-size="18" font-family="Roboto-Black, Roboto" font-weight="800"><tspan x="0" y="0">Puerta</tspan></text>
        <text id="Plano_de_suelo" data-name="Plano de suelo" transform="translate(342.214 210.622)" fill="#12263f" font-size="18" font-family="Roboto-Black, Roboto" font-weight="800"><tspan x="0" y="0">Plano de suelo</tspan></text>
      </g>
    </g>
  </g>
</svg>
