<svg xmlns="http://www.w3.org/2000/svg" width="820" height="644" viewBox="0 0 820 644">
  <g id="Grupo_62063" data-name="Grupo 62063" transform="translate(-600 -397)">
    <g id="Grupo_60035" data-name="Grupo 60035" transform="translate(105.386 -152)">
      <g id="Grupo_59586" data-name="Grupo 59586" transform="translate(599.614 549)">
        <rect id="Rectángulo_30672" data-name="Rectángulo 30672" width="5.63" height="32.656" transform="translate(0)" fill="#fba321"/>
        <path id="Trazado_130963" data-name="Trazado 130963" d="M6.176-2.418H2.3L1.435,0H.178L3.707-9.242H4.773L8.309,0H7.059Zm-3.5-1H5.814L4.24-7.738Zm6.411-.076a4.023,4.023,0,0,1,.749-2.542A2.369,2.369,0,0,1,11.794-7,2.382,2.382,0,0,1,13.7-6.17V-9.75h1.174V0H13.8l-.057-.736a2.391,2.391,0,0,1-1.961.863A2.346,2.346,0,0,1,9.836-.851,4.069,4.069,0,0,1,9.083-3.4Zm1.174.133A3.046,3.046,0,0,0,10.74-1.53a1.56,1.56,0,0,0,1.333.66,1.713,1.713,0,0,0,1.631-1V-5.027A1.726,1.726,0,0,0,12.086-6a1.567,1.567,0,0,0-1.346.667A3.354,3.354,0,0,0,10.258-3.358Zm7.547-3.51.032.762A2.536,2.536,0,0,1,19.875-7a1.964,1.964,0,0,1,1.961,1.1,2.6,2.6,0,0,1,.892-.8,2.634,2.634,0,0,1,1.3-.3q2.26,0,2.3,2.393V0H25.149V-4.532a1.577,1.577,0,0,0-.336-1.1A1.482,1.482,0,0,0,23.683-6a1.557,1.557,0,0,0-1.085.39,1.584,1.584,0,0,0-.5,1.051V0H20.916V-4.5A1.31,1.31,0,0,0,19.449-6a1.571,1.571,0,0,0-1.581.984V0H16.694V-6.868ZM29.371,0H28.2V-6.868h1.174ZM28.1-8.69a.7.7,0,0,1,.175-.482.655.655,0,0,1,.517-.2.666.666,0,0,1,.521.2.694.694,0,0,1,.178.482.671.671,0,0,1-.178.476.678.678,0,0,1-.521.19.667.667,0,0,1-.517-.19A.678.678,0,0,1,28.1-8.69ZM32.36-6.868,32.4-6A2.5,2.5,0,0,1,34.455-7q2.177,0,2.2,2.457V0H35.477V-4.545a1.581,1.581,0,0,0-.34-1.1A1.361,1.361,0,0,0,34.1-6a1.7,1.7,0,0,0-1,.3,2.069,2.069,0,0,0-.673.8V0H31.25V-6.868ZM39.7,0H38.524V-6.868H39.7Zm-1.27-8.69a.7.7,0,0,1,.175-.482.655.655,0,0,1,.517-.2.666.666,0,0,1,.521.2.694.694,0,0,1,.178.482.671.671,0,0,1-.178.476.678.678,0,0,1-.521.19.667.667,0,0,1-.517-.19A.678.678,0,0,1,38.429-8.69Zm7.147,6.868a.865.865,0,0,0-.359-.74,3.452,3.452,0,0,0-1.25-.454,5.912,5.912,0,0,1-1.416-.457,2.014,2.014,0,0,1-.774-.635,1.518,1.518,0,0,1-.251-.876,1.782,1.782,0,0,1,.714-1.428A2.789,2.789,0,0,1,44.065-7a2.87,2.87,0,0,1,1.895.6,1.915,1.915,0,0,1,.727,1.542H45.506a1.06,1.06,0,0,0-.409-.832,1.534,1.534,0,0,0-1.031-.349,1.605,1.605,0,0,0-1,.279.879.879,0,0,0-.362.73.712.712,0,0,0,.336.641,4.139,4.139,0,0,0,1.216.413,6.334,6.334,0,0,1,1.425.47,2.079,2.079,0,0,1,.809.657,1.615,1.615,0,0,1,.263.936,1.758,1.758,0,0,1-.736,1.476A3.089,3.089,0,0,1,44.1.127a3.459,3.459,0,0,1-1.46-.292,2.375,2.375,0,0,1-.993-.816,1.966,1.966,0,0,1-.359-1.133h1.174a1.216,1.216,0,0,0,.473.936A1.835,1.835,0,0,0,44.1-.832a1.894,1.894,0,0,0,1.07-.27A.829.829,0,0,0,45.576-1.822Zm4.3-6.709v1.663h1.282v.908H49.874V-1.7a.953.953,0,0,0,.171.62.721.721,0,0,0,.584.207,2.843,2.843,0,0,0,.559-.076V0a3.424,3.424,0,0,1-.9.126A1.462,1.462,0,0,1,49.1-.349,2.045,2.045,0,0,1,48.7-1.7V-5.96h-1.25v-.908H48.7V-8.531Zm5.973,2.717a3.519,3.519,0,0,0-.578-.044,1.547,1.547,0,0,0-1.568.984V0H52.527V-6.868h1.143l.019.793A1.829,1.829,0,0,1,55.326-7a1.2,1.2,0,0,1,.521.089ZM60.912,0a2.467,2.467,0,0,1-.165-.724,2.62,2.62,0,0,1-1.955.851,2.424,2.424,0,0,1-1.666-.574A1.859,1.859,0,0,1,56.475-1.9a1.942,1.942,0,0,1,.816-1.666,3.846,3.846,0,0,1,2.295-.594h1.143V-4.7a1.319,1.319,0,0,0-.368-.981,1.48,1.48,0,0,0-1.085-.365,1.712,1.712,0,0,0-1.054.317.935.935,0,0,0-.425.768H56.615a1.621,1.621,0,0,1,.365-.993,2.491,2.491,0,0,1,.99-.759A3.331,3.331,0,0,1,59.344-7,2.715,2.715,0,0,1,61.2-6.4a2.141,2.141,0,0,1,.7,1.635v3.161a3.865,3.865,0,0,0,.241,1.5V0ZM58.963-.9a2.064,2.064,0,0,0,1.047-.286,1.728,1.728,0,0,0,.717-.743V-3.333h-.92q-2.158,0-2.158,1.263a1.069,1.069,0,0,0,.368.863A1.415,1.415,0,0,0,58.963-.9Zm4.494-2.6a4.023,4.023,0,0,1,.749-2.542A2.369,2.369,0,0,1,66.168-7a2.382,2.382,0,0,1,1.911.825V-9.75h1.174V0H68.174l-.057-.736a2.391,2.391,0,0,1-1.961.863A2.346,2.346,0,0,1,64.21-.851,4.069,4.069,0,0,1,63.458-3.4Zm1.174.133a3.046,3.046,0,0,0,.482,1.828,1.56,1.56,0,0,0,1.333.66,1.713,1.713,0,0,0,1.631-1V-5.027A1.726,1.726,0,0,0,66.46-6a1.567,1.567,0,0,0-1.346.667A3.354,3.354,0,0,0,64.632-3.358Zm6.132-.14a4.057,4.057,0,0,1,.4-1.815,2.96,2.96,0,0,1,1.1-1.244A3.007,3.007,0,0,1,73.88-7a2.9,2.9,0,0,1,2.269.971,3.736,3.736,0,0,1,.866,2.583v.083a4.092,4.092,0,0,1-.384,1.8,2.916,2.916,0,0,1-1.1,1.241,3.041,3.041,0,0,1-1.641.444A2.889,2.889,0,0,1,71.63-.844a3.718,3.718,0,0,1-.866-2.571Zm1.181.14a2.938,2.938,0,0,0,.53,1.834,1.7,1.7,0,0,0,1.419.692,1.686,1.686,0,0,0,1.422-.7A3.213,3.213,0,0,0,75.842-3.5a2.933,2.933,0,0,0-.536-1.831,1.705,1.705,0,0,0-1.425-.7,1.686,1.686,0,0,0-1.4.692A3.189,3.189,0,0,0,71.944-3.358Zm9.864-2.457a3.519,3.519,0,0,0-.578-.044,1.547,1.547,0,0,0-1.568.984V0H78.489V-6.868h1.143l.019.793A1.829,1.829,0,0,1,81.288-7a1.2,1.2,0,0,1,.521.089ZM85.82-3.491a4.023,4.023,0,0,1,.749-2.542A2.369,2.369,0,0,1,88.531-7a2.382,2.382,0,0,1,1.911.825V-9.75h1.174V0H90.537l-.057-.736a2.391,2.391,0,0,1-1.961.863,2.346,2.346,0,0,1-1.946-.978A4.069,4.069,0,0,1,85.82-3.4Zm1.174.133a3.046,3.046,0,0,0,.482,1.828,1.56,1.56,0,0,0,1.333.66,1.713,1.713,0,0,0,1.631-1V-5.027A1.726,1.726,0,0,0,88.823-6a1.567,1.567,0,0,0-1.346.667A3.354,3.354,0,0,0,86.995-3.358ZM96.288.127A3,3,0,0,1,94.015-.79a3.4,3.4,0,0,1-.876-2.453v-.216a4.121,4.121,0,0,1,.39-1.825,3.045,3.045,0,0,1,1.092-1.257A2.745,2.745,0,0,1,96.142-7a2.572,2.572,0,0,1,2.082.882,3.82,3.82,0,0,1,.743,2.526V-3.1H94.313a2.441,2.441,0,0,0,.594,1.641,1.866,1.866,0,0,0,1.444.625A2.045,2.045,0,0,0,97.4-1.085a2.648,2.648,0,0,0,.755-.673l.717.559A2.884,2.884,0,0,1,96.288.127ZM96.142-6.03a1.566,1.566,0,0,0-1.193.517,2.515,2.515,0,0,0-.6,1.45h3.44v-.089a2.237,2.237,0,0,0-.482-1.387A1.475,1.475,0,0,0,96.142-6.03Zm14.384,3.1A3.4,3.4,0,0,1,109.443-.67a3.547,3.547,0,0,1-2.422.8A3.257,3.257,0,0,1,104.4-1.047a4.724,4.724,0,0,1-.987-3.142v-.889a5.266,5.266,0,0,1,.46-2.266,3.437,3.437,0,0,1,1.3-1.5,3.632,3.632,0,0,1,1.955-.524,3.34,3.34,0,0,1,2.361.822,3.441,3.441,0,0,1,1.035,2.276H109.3a2.655,2.655,0,0,0-.689-1.6,2.084,2.084,0,0,0-1.482-.5,2.181,2.181,0,0,0-1.831.864,3.966,3.966,0,0,0-.663,2.459v.9a4.077,4.077,0,0,0,.628,2.4,2.031,2.031,0,0,0,1.758.889,2.345,2.345,0,0,0,1.558-.46,2.554,2.554,0,0,0,.72-1.6ZM116.245,0a2.467,2.467,0,0,1-.165-.724,2.62,2.62,0,0,1-1.955.851,2.424,2.424,0,0,1-1.666-.574,1.859,1.859,0,0,1-.651-1.457,1.942,1.942,0,0,1,.816-1.666,3.846,3.846,0,0,1,2.295-.594h1.143V-4.7a1.319,1.319,0,0,0-.368-.981,1.48,1.48,0,0,0-1.085-.365,1.712,1.712,0,0,0-1.054.317.935.935,0,0,0-.425.768h-1.181a1.621,1.621,0,0,1,.365-.993,2.491,2.491,0,0,1,.99-.759A3.331,3.331,0,0,1,114.677-7a2.715,2.715,0,0,1,1.86.594,2.141,2.141,0,0,1,.7,1.635v3.161a3.865,3.865,0,0,0,.241,1.5V0ZM114.3-.9a2.064,2.064,0,0,0,1.047-.286,1.728,1.728,0,0,0,.717-.743V-3.333h-.92q-2.158,0-2.158,1.263a1.069,1.069,0,0,0,.368.863A1.415,1.415,0,0,0,114.3-.9Zm10.582-2.463a4.113,4.113,0,0,1-.717,2.526,2.3,2.3,0,0,1-1.942.958,2.519,2.519,0,0,1-1.968-.793V2.641h-1.174V-6.868h1.073l.057.762A2.419,2.419,0,0,1,122.2-7a2.342,2.342,0,0,1,1.958.933,4.157,4.157,0,0,1,.72,2.6ZM123.7-3.491a3.035,3.035,0,0,0-.5-1.834A1.6,1.6,0,0,0,121.85-6a1.726,1.726,0,0,0-1.6.946v3.282a1.73,1.73,0,0,0,1.612.939A1.587,1.587,0,0,0,123.2-1.5,3.313,3.313,0,0,0,123.7-3.491ZM130.609,0a2.467,2.467,0,0,1-.165-.724,2.62,2.62,0,0,1-1.955.851,2.424,2.424,0,0,1-1.666-.574,1.859,1.859,0,0,1-.651-1.457,1.942,1.942,0,0,1,.816-1.666,3.846,3.846,0,0,1,2.295-.594h1.143V-4.7a1.319,1.319,0,0,0-.368-.981,1.48,1.48,0,0,0-1.085-.365,1.712,1.712,0,0,0-1.054.317.935.935,0,0,0-.425.768h-1.181a1.621,1.621,0,0,1,.365-.993,2.491,2.491,0,0,1,.99-.759A3.331,3.331,0,0,1,129.042-7a2.715,2.715,0,0,1,1.86.594,2.141,2.141,0,0,1,.7,1.635v3.161a3.865,3.865,0,0,0,.241,1.5V0Zm-1.949-.9a2.064,2.064,0,0,0,1.047-.286,1.728,1.728,0,0,0,.717-.743V-3.333h-.92q-2.158,0-2.158,1.263a1.069,1.069,0,0,0,.368.863A1.415,1.415,0,0,0,128.661-.9Zm8.779-.927a.865.865,0,0,0-.359-.74,3.452,3.452,0,0,0-1.25-.454,5.912,5.912,0,0,1-1.416-.457,2.014,2.014,0,0,1-.774-.635,1.518,1.518,0,0,1-.251-.876,1.782,1.782,0,0,1,.714-1.428A2.789,2.789,0,0,1,135.929-7a2.87,2.87,0,0,1,1.895.6,1.915,1.915,0,0,1,.727,1.542H137.37a1.06,1.06,0,0,0-.409-.832,1.534,1.534,0,0,0-1.031-.349,1.605,1.605,0,0,0-1,.279.879.879,0,0,0-.362.73.712.712,0,0,0,.336.641,4.139,4.139,0,0,0,1.216.413,6.334,6.334,0,0,1,1.425.47,2.079,2.079,0,0,1,.809.657,1.615,1.615,0,0,1,.263.936,1.758,1.758,0,0,1-.736,1.476,3.089,3.089,0,0,1-1.911.555,3.459,3.459,0,0,1-1.46-.292,2.375,2.375,0,0,1-.993-.816,1.966,1.966,0,0,1-.359-1.133h1.174a1.216,1.216,0,0,0,.473.936,1.835,1.835,0,0,0,1.165.346,1.894,1.894,0,0,0,1.07-.27A.829.829,0,0,0,137.439-1.822Z" transform="translate(22.521 20.92)" fill="#12263f"/>
      </g>
      <g id="Grupo_57751" data-name="Grupo 57751" transform="translate(599.614 1146.95)">
        <rect id="Rectángulo_29951" data-name="Rectángulo 29951" width="609.211" height="45.682" transform="translate(0 0)" fill="#e8e8e8"/>
        <path id="Trazado_130962" data-name="Trazado 130962" d="M8.176,14H6.951L2.3,6.878V14H1.073V4.758H2.3l4.666,7.154V4.758H8.176Zm1.669-3.5a4.057,4.057,0,0,1,.4-1.815,2.96,2.96,0,0,1,1.1-1.244A3.007,3.007,0,0,1,12.962,7a2.9,2.9,0,0,1,2.269.971A3.736,3.736,0,0,1,16.1,10.56v.083a4.092,4.092,0,0,1-.384,1.8,2.916,2.916,0,0,1-1.1,1.241,3.041,3.041,0,0,1-1.641.444,2.889,2.889,0,0,1-2.263-.971,3.718,3.718,0,0,1-.866-2.571Zm1.181.14a2.938,2.938,0,0,0,.53,1.834,1.8,1.8,0,0,0,2.841-.01,3.213,3.213,0,0,0,.527-1.965,2.933,2.933,0,0,0-.536-1.831,1.705,1.705,0,0,0-1.425-.7,1.686,1.686,0,0,0-1.4.692A3.189,3.189,0,0,0,11.026,10.642Zm8.138-5.173V7.132h1.282V8.04H19.164V12.3a.953.953,0,0,0,.171.62.721.721,0,0,0,.584.207,2.843,2.843,0,0,0,.559-.076V14a3.424,3.424,0,0,1-.9.126,1.462,1.462,0,0,1-1.187-.476,2.045,2.045,0,0,1-.4-1.352V8.04h-1.25V7.132h1.25V5.469ZM26.057,14a2.467,2.467,0,0,1-.165-.724,2.62,2.62,0,0,1-1.955.851,2.424,2.424,0,0,1-1.666-.574A1.859,1.859,0,0,1,21.62,12.1a1.942,1.942,0,0,1,.816-1.666,3.846,3.846,0,0,1,2.295-.594h1.143V9.3a1.319,1.319,0,0,0-.368-.981,1.48,1.48,0,0,0-1.085-.365,1.712,1.712,0,0,0-1.054.317.935.935,0,0,0-.425.768H21.76a1.621,1.621,0,0,1,.365-.993,2.491,2.491,0,0,1,.99-.759A3.331,3.331,0,0,1,24.489,7a2.715,2.715,0,0,1,1.86.594,2.141,2.141,0,0,1,.7,1.635v3.161a3.865,3.865,0,0,0,.241,1.5V14Zm-1.949-.9a2.064,2.064,0,0,0,1.047-.286,1.728,1.728,0,0,0,.717-.743V10.667h-.92q-2.158,0-2.158,1.263a1.069,1.069,0,0,0,.368.863A1.415,1.415,0,0,0,24.108,13.1Zm4.805.279a.735.735,0,0,1,.181-.508.689.689,0,0,1,.543-.2.71.71,0,0,1,.549.2.721.721,0,0,1,.187.508.681.681,0,0,1-.187.489.723.723,0,0,1-.549.2.653.653,0,0,1-.724-.686Zm12.93-7.63H38.873V14H37.661V5.754H34.7v-1h7.147Zm.248,4.748a4.057,4.057,0,0,1,.4-1.815,2.96,2.96,0,0,1,1.1-1.244A3.007,3.007,0,0,1,45.208,7a2.9,2.9,0,0,1,2.269.971,3.736,3.736,0,0,1,.866,2.583v.083a4.092,4.092,0,0,1-.384,1.8,2.916,2.916,0,0,1-1.1,1.241,3.041,3.041,0,0,1-1.641.444,2.889,2.889,0,0,1-2.263-.971,3.718,3.718,0,0,1-.866-2.571Zm1.181.14a2.938,2.938,0,0,0,.53,1.834,1.8,1.8,0,0,0,2.841-.01,3.213,3.213,0,0,0,.527-1.965,2.933,2.933,0,0,0-.536-1.831,1.705,1.705,0,0,0-1.425-.7,1.686,1.686,0,0,0-1.4.692A3.189,3.189,0,0,0,43.272,10.642Zm7.649-3.51.032.762A2.536,2.536,0,0,1,52.99,7a1.964,1.964,0,0,1,1.961,1.1,2.6,2.6,0,0,1,.892-.8,2.634,2.634,0,0,1,1.3-.3q2.26,0,2.3,2.393V14H58.265V9.468a1.577,1.577,0,0,0-.336-1.1A1.482,1.482,0,0,0,56.8,8a1.557,1.557,0,0,0-1.085.39,1.584,1.584,0,0,0-.5,1.051V14H54.031V9.5A1.31,1.31,0,0,0,52.565,8a1.571,1.571,0,0,0-1.581.984V14H49.81V7.132ZM65.451,14a2.467,2.467,0,0,1-.165-.724,2.62,2.62,0,0,1-1.955.851,2.424,2.424,0,0,1-1.666-.574,1.859,1.859,0,0,1-.651-1.457,1.942,1.942,0,0,1,.816-1.666,3.846,3.846,0,0,1,2.295-.594h1.143V9.3a1.319,1.319,0,0,0-.368-.981,1.48,1.48,0,0,0-1.085-.365,1.712,1.712,0,0,0-1.054.317.935.935,0,0,0-.425.768H61.153a1.621,1.621,0,0,1,.365-.993,2.491,2.491,0,0,1,.99-.759A3.331,3.331,0,0,1,63.883,7a2.715,2.715,0,0,1,1.86.594,2.141,2.141,0,0,1,.7,1.635v3.161a3.865,3.865,0,0,0,.241,1.5V14ZM63.5,13.1a2.064,2.064,0,0,0,1.047-.286,1.728,1.728,0,0,0,.717-.743V10.667h-.92q-2.158,0-2.158,1.263a1.069,1.069,0,0,0,.368.863A1.415,1.415,0,0,0,63.5,13.1ZM68,10.509a4.023,4.023,0,0,1,.749-2.542,2.548,2.548,0,0,1,3.872-.136V4.25h1.174V14H72.712l-.057-.736a2.391,2.391,0,0,1-1.961.863,2.346,2.346,0,0,1-1.946-.978A4.069,4.069,0,0,1,68,10.6Zm1.174.133a3.046,3.046,0,0,0,.482,1.828,1.56,1.56,0,0,0,1.333.66,1.713,1.713,0,0,0,1.631-1V8.973A1.726,1.726,0,0,0,71,8a1.567,1.567,0,0,0-1.346.667A3.354,3.354,0,0,0,69.17,10.642ZM79.854,14a2.467,2.467,0,0,1-.165-.724,2.62,2.62,0,0,1-1.955.851,2.424,2.424,0,0,1-1.666-.574,1.859,1.859,0,0,1-.651-1.457,1.942,1.942,0,0,1,.816-1.666,3.846,3.846,0,0,1,2.295-.594h1.143V9.3a1.319,1.319,0,0,0-.368-.981,1.48,1.48,0,0,0-1.085-.365,1.712,1.712,0,0,0-1.054.317.935.935,0,0,0-.425.768H75.556a1.621,1.621,0,0,1,.365-.993,2.491,2.491,0,0,1,.99-.759A3.331,3.331,0,0,1,78.286,7a2.715,2.715,0,0,1,1.86.594,2.141,2.141,0,0,1,.7,1.635v3.161a3.865,3.865,0,0,0,.241,1.5V14ZM77.9,13.1a2.064,2.064,0,0,0,1.047-.286,1.728,1.728,0,0,0,.717-.743V10.667h-.92q-2.158,0-2.158,1.263a1.069,1.069,0,0,0,.368.863A1.415,1.415,0,0,0,77.9,13.1Zm7.712-2.6a4.023,4.023,0,0,1,.749-2.542,2.548,2.548,0,0,1,3.872-.136V4.25h1.174V14H90.333l-.057-.736a2.391,2.391,0,0,1-1.961.863,2.346,2.346,0,0,1-1.946-.978,4.069,4.069,0,0,1-.752-2.552Zm1.174.133a3.046,3.046,0,0,0,.482,1.828,1.56,1.56,0,0,0,1.333.66,1.713,1.713,0,0,0,1.631-1V8.973A1.726,1.726,0,0,0,88.62,8a1.567,1.567,0,0,0-1.346.667A3.354,3.354,0,0,0,86.792,10.642Zm9.293,3.485a3,3,0,0,1-2.272-.917,3.4,3.4,0,0,1-.876-2.453v-.216a4.121,4.121,0,0,1,.39-1.825,3.045,3.045,0,0,1,1.092-1.257A2.745,2.745,0,0,1,95.938,7a2.572,2.572,0,0,1,2.082.882,3.82,3.82,0,0,1,.743,2.526V10.9H94.11a2.441,2.441,0,0,0,.594,1.641,1.866,1.866,0,0,0,1.444.625,2.045,2.045,0,0,0,1.054-.254,2.648,2.648,0,0,0,.755-.673l.717.559A2.884,2.884,0,0,1,96.084,14.127ZM95.938,7.97a1.566,1.566,0,0,0-1.193.517,2.515,2.515,0,0,0-.6,1.45h3.44V9.849a2.237,2.237,0,0,0-.482-1.387A1.475,1.475,0,0,0,95.938,7.97Zm12.689,3.612h-3.872L103.886,14h-1.257l3.529-9.242h1.066L110.76,14h-1.25Zm-3.5-1h3.142l-1.574-4.323Zm10.867,2.736a2.494,2.494,0,0,1-2.012.806,2.135,2.135,0,0,1-1.673-.638,2.761,2.761,0,0,1-.581-1.888V7.132H112.9v4.437q0,1.562,1.27,1.562a1.758,1.758,0,0,0,1.79-1v-5h1.174V14h-1.117Zm4.52-7.852V7.132h1.282V8.04H120.51V12.3a.953.953,0,0,0,.171.62.721.721,0,0,0,.584.207,2.843,2.843,0,0,0,.559-.076V14a3.424,3.424,0,0,1-.9.126,1.462,1.462,0,0,1-1.187-.476,2.045,2.045,0,0,1-.4-1.352V8.04h-1.25V7.132h1.25V5.469Zm2.215,5.034a4.057,4.057,0,0,1,.4-1.815,2.96,2.96,0,0,1,1.1-1.244A3.007,3.007,0,0,1,125.842,7a2.9,2.9,0,0,1,2.269.971,3.736,3.736,0,0,1,.866,2.583v.083a4.092,4.092,0,0,1-.384,1.8,2.916,2.916,0,0,1-1.1,1.241,3.041,3.041,0,0,1-1.641.444,2.889,2.889,0,0,1-2.263-.971,3.718,3.718,0,0,1-.866-2.571Zm1.181.14a2.938,2.938,0,0,0,.53,1.834,1.8,1.8,0,0,0,2.841-.01A3.213,3.213,0,0,0,127.8,10.5a2.933,2.933,0,0,0-.536-1.831,1.705,1.705,0,0,0-1.425-.7,1.686,1.686,0,0,0-1.4.692A3.189,3.189,0,0,0,123.906,10.642Zm6.259-.133a4.023,4.023,0,0,1,.749-2.542,2.548,2.548,0,0,1,3.872-.136V4.25h1.174V14h-1.079l-.057-.736a2.391,2.391,0,0,1-1.961.863,2.346,2.346,0,0,1-1.946-.978,4.069,4.069,0,0,1-.752-2.552Zm1.174.133a3.046,3.046,0,0,0,.482,1.828,1.56,1.56,0,0,0,1.333.66,1.713,1.713,0,0,0,1.631-1V8.973A1.726,1.726,0,0,0,133.167,8a1.567,1.567,0,0,0-1.346.667A3.354,3.354,0,0,0,131.339,10.642Zm9.293,3.485a3,3,0,0,1-2.272-.917,3.4,3.4,0,0,1-.876-2.453v-.216a4.121,4.121,0,0,1,.39-1.825,3.045,3.045,0,0,1,1.092-1.257A2.745,2.745,0,0,1,140.486,7a2.572,2.572,0,0,1,2.082.882,3.82,3.82,0,0,1,.743,2.526V10.9h-4.653a2.441,2.441,0,0,0,.594,1.641,1.866,1.866,0,0,0,1.444.625,2.045,2.045,0,0,0,1.054-.254,2.647,2.647,0,0,0,.755-.673l.717.559A2.884,2.884,0,0,1,140.632,14.127Zm-.146-6.157a1.566,1.566,0,0,0-1.193.517,2.515,2.515,0,0,0-.6,1.45h3.44V9.849a2.237,2.237,0,0,0-.482-1.387A1.475,1.475,0,0,0,140.486,7.97Zm8.182,4.208a.865.865,0,0,0-.359-.74,3.452,3.452,0,0,0-1.25-.454,5.912,5.912,0,0,1-1.416-.457,2.014,2.014,0,0,1-.774-.635,1.518,1.518,0,0,1-.251-.876,1.782,1.782,0,0,1,.714-1.428A2.789,2.789,0,0,1,147.158,7a2.87,2.87,0,0,1,1.895.6,1.915,1.915,0,0,1,.727,1.542H148.6a1.06,1.06,0,0,0-.409-.832,1.534,1.534,0,0,0-1.031-.349,1.605,1.605,0,0,0-1,.279.879.879,0,0,0-.362.73.712.712,0,0,0,.336.641,4.139,4.139,0,0,0,1.216.413,6.334,6.334,0,0,1,1.425.47,2.079,2.079,0,0,1,.809.657,1.615,1.615,0,0,1,.263.936,1.758,1.758,0,0,1-.736,1.476,3.089,3.089,0,0,1-1.911.555,3.459,3.459,0,0,1-1.46-.292,2.375,2.375,0,0,1-.993-.816,1.966,1.966,0,0,1-.359-1.133h1.174a1.216,1.216,0,0,0,.473.936,1.835,1.835,0,0,0,1.165.346,1.894,1.894,0,0,0,1.07-.27A.829.829,0,0,0,148.668,12.178Zm4.621-1.358-.736.768V14h-1.174V4.25h1.174v5.9l.628-.755,2.139-2.26h1.428L154.077,10l2.983,4h-1.377Zm7.846-.571a9.814,9.814,0,0,1,.384-2.755,8,8,0,0,1,1.146-2.4,4.874,4.874,0,0,1,1.581-1.523l.241.774a5.056,5.056,0,0,0-1.52,2.171,9.411,9.411,0,0,0-.651,3.269l-.006.54a9.46,9.46,0,0,0,.9,4.253,5.079,5.079,0,0,0,1.282,1.688l-.241.717a5.031,5.031,0,0,1-1.612-1.574A8.823,8.823,0,0,1,161.135,10.249ZM171.558,14H165.5v-.844L168.7,9.6a7.6,7.6,0,0,0,.981-1.311,2.188,2.188,0,0,0,.27-1.044,1.658,1.658,0,0,0-.438-1.187,1.531,1.531,0,0,0-1.168-.463,1.814,1.814,0,0,0-1.362.5,1.9,1.9,0,0,0-.486,1.387h-1.174a2.726,2.726,0,0,1,.822-2.063,3.047,3.047,0,0,1,2.2-.787,2.928,2.928,0,0,1,2.038.676,2.306,2.306,0,0,1,.749,1.8,5.287,5.287,0,0,1-1.739,3.25l-2.476,2.685h4.64Zm7.04-3.942a5.371,5.371,0,0,1-.7,3.066,2.928,2.928,0,0,1-4.393.022,5.1,5.1,0,0,1-.736-2.929V8.649a5.251,5.251,0,0,1,.7-3.028,2.98,2.98,0,0,1,4.405-.035,5.068,5.068,0,0,1,.724,2.948Zm-1.174-1.606A4.3,4.3,0,0,0,177,6.278a1.442,1.442,0,0,0-1.327-.682,1.423,1.423,0,0,0-1.314.679,4.2,4.2,0,0,0-.425,2.088v1.879a4.372,4.372,0,0,0,.435,2.212,1.439,1.439,0,0,0,1.317.714,1.42,1.42,0,0,0,1.292-.673,4.214,4.214,0,0,0,.441-2.12ZM183.961,14h-1.181V6.173l-2.368.87V5.977l3.364-1.263h.184ZM191.9,9.938a2.873,2.873,0,0,1-.879.7,2.385,2.385,0,0,1-1.12.267,2.463,2.463,0,0,1-1.393-.394,2.558,2.558,0,0,1-.917-1.108,3.776,3.776,0,0,1-.324-1.577,3.847,3.847,0,0,1,.352-1.669,2.588,2.588,0,0,1,1-1.136,2.851,2.851,0,0,1,1.511-.394,2.581,2.581,0,0,1,2.161,1.025,4.471,4.471,0,0,1,.79,2.8v.343a5.974,5.974,0,0,1-1.066,3.939,4.1,4.1,0,0,1-3.218,1.273h-.229v-1h.248a3.233,3.233,0,0,0,2.234-.757A3.248,3.248,0,0,0,191.9,9.938Zm-1.809,0a1.813,1.813,0,0,0,1.089-.362,2.133,2.133,0,0,0,.727-.9v-.47a3.232,3.232,0,0,0-.5-1.879,1.533,1.533,0,0,0-2.514-.13,2.448,2.448,0,0,0-.47,1.565,2.548,2.548,0,0,0,.454,1.558A1.437,1.437,0,0,0,190.093,9.938Zm7.579,4.189a3,3,0,0,1-2.272-.917,3.4,3.4,0,0,1-.876-2.453v-.216a4.121,4.121,0,0,1,.39-1.825,3.045,3.045,0,0,1,1.092-1.257A2.745,2.745,0,0,1,197.526,7a2.572,2.572,0,0,1,2.082.882,3.82,3.82,0,0,1,.743,2.526V10.9H195.7a2.441,2.441,0,0,0,.594,1.641,1.866,1.866,0,0,0,1.444.625,2.045,2.045,0,0,0,1.054-.254,2.647,2.647,0,0,0,.755-.673l.717.559A2.884,2.884,0,0,1,197.672,14.127Zm-.146-6.157a1.566,1.566,0,0,0-1.193.517,2.515,2.515,0,0,0-.6,1.45h3.44V9.849a2.237,2.237,0,0,0-.482-1.387A1.475,1.475,0,0,0,197.526,7.97Zm6.894,2.342a9.819,9.819,0,0,1-.371,2.714,8.024,8.024,0,0,1-1.136,2.4,4.978,4.978,0,0,1-1.6,1.562l-.248-.717a5.1,5.1,0,0,0,1.571-2.326,10.065,10.065,0,0,0,.606-3.5v-.2a10.449,10.449,0,0,0-.279-2.479,8.366,8.366,0,0,0-.778-2.053,4.743,4.743,0,0,0-1.12-1.416l.248-.717a4.959,4.959,0,0,1,1.6,1.549,8.041,8.041,0,0,1,1.136,2.393A10.045,10.045,0,0,1,204.42,10.312Zm1.834,3.072a.735.735,0,0,1,.181-.508.689.689,0,0,1,.543-.2.71.71,0,0,1,.549.2.721.721,0,0,1,.187.508.682.682,0,0,1-.187.489.723.723,0,0,1-.549.2.653.653,0,0,1-.724-.686Z" transform="translate(22.521 14.639)" fill="#12263f"/>
      </g>
      <g id="Grupo_60031" data-name="Grupo 60031" transform="translate(600.08 605.168)">
        <g id="Grupo_60030" data-name="Grupo 60030" transform="translate(0 0)">
          <line id="Línea_666" data-name="Línea 666" x2="154.436" transform="translate(71.272 496.386)" fill="none" stroke="#0024aa" stroke-miterlimit="10" stroke-width="1"/>
          <line id="Línea_667" data-name="Línea 667" x2="151.828" transform="translate(71.272 501.4)" fill="none" stroke="#0024aa" stroke-miterlimit="10" stroke-width="1"/>
          <line id="Línea_668" data-name="Línea 668" x1="154.436" transform="translate(71.272 507.016)" fill="none" stroke="#0024aa" stroke-miterlimit="10" stroke-width="1"/>
          <rect id="Rectángulo_30741" data-name="Rectángulo 30741" width="8.077" height="9.828" transform="translate(117.348 496.386)" fill="#fdf0c4" stroke="#0024aa" stroke-miterlimit="10" stroke-width="1"/>
          <rect id="Rectángulo_30742" data-name="Rectángulo 30742" width="8.077" height="9.828" transform="translate(170.899 496.386)" fill="#fdf0c4" stroke="#0024aa" stroke-miterlimit="10" stroke-width="1"/>
          <rect id="Rectángulo_30743" data-name="Rectángulo 30743" width="3.044" height="47.434" transform="translate(211.031 123.635)" fill="#7cc0ff"/>
          <rect id="Rectángulo_30744" data-name="Rectángulo 30744" width="5.415" height="68.593" transform="translate(61.344 28.567)" fill="none" stroke="#c200aa" stroke-miterlimit="10" stroke-width="1"/>
          <path id="Trazado_125486" data-name="Trazado 125486" d="M45.453,42.324H29.207L25.9,45.634V63.685l1.5,1.5H45.453" transform="translate(14.086 7.904)" fill="none" stroke="#0024aa" stroke-miterlimit="10" stroke-width="1"/>
          <line id="Línea_669" data-name="Línea 669" y2="28.881" transform="translate(55.026 86.631)" fill="none" stroke="#000" stroke-miterlimit="10" stroke-width="1"/>
          <line id="Línea_670" data-name="Línea 670" y2="26.453" transform="translate(55.026 50.551)" fill="none" stroke="#000" stroke-miterlimit="10" stroke-width="1"/>
          <line id="Línea_671" data-name="Línea 671" y2="35.5" transform="translate(46.302 11.419)" fill="none" stroke="#c200aa" stroke-miterlimit="10" stroke-width="1"/>
          <line id="Línea_672" data-name="Línea 672" y2="35.5" transform="translate(51.416 11.419)" fill="none" stroke="#c200aa" stroke-miterlimit="10" stroke-width="1"/>
          <line id="Línea_673" data-name="Línea 673" y2="35.5" transform="translate(55.026 11.419)" fill="none" stroke="#000" stroke-miterlimit="10" stroke-width="1"/>
          <line id="Línea_674" data-name="Línea 674" y2="104.094" transform="translate(34.869 11.419)" fill="none" stroke="#000" stroke-miterlimit="10" stroke-width="1"/>
          <path id="Trazado_125487" data-name="Trazado 125487" d="M14.189,90.01V77.072S17.252,60.115,31.5,65.795a18.355,18.355,0,0,1,7.106,5.5c1.5,1.79,7.47,5.817,15.292,1.863" transform="translate(5.638 23.999)" fill="none" stroke="#c200aa" stroke-miterlimit="10" stroke-width="1"/>
          <circle id="Elipse_4601" data-name="Elipse 4601" cx="7.07" cy="7.07" r="7.07" transform="translate(110.182 83.021)" fill="none" stroke="#c200aa" stroke-miterlimit="10" stroke-width="1"/>
          <rect id="Rectángulo_30745" data-name="Rectángulo 30745" width="7.22" height="10.831" transform="translate(15.916 97.16)" fill="#c200aa"/>
          <circle id="Elipse_4602" data-name="Elipse 4602" cx="6.393" cy="6.393" r="6.393" transform="translate(42.992 28.567)" fill="none" stroke="#c200aa" stroke-miterlimit="10" stroke-width="1"/>
          <path id="Trazado_125488" data-name="Trazado 125488" d="M243.622,15.237v6.92H231.889V135.276H215.643v-8.123h6.017v-105H162.393v105h7.521v8.123H144.643v-8.123h11.131V23.661H87.181V127.153h9.025v8.123H86.579v5.98H77.253v-5.98H2.672v-8.123H75.749V23.059H25.808V16.44" transform="translate(-2.672 -11.64)" fill="#fdf0c4" stroke="#0024aa" stroke-miterlimit="10" stroke-width="1"/>
          <line id="Línea_675" data-name="Línea 675" y2="15.042" transform="translate(62.848 54.741)" fill="none" stroke="#0024aa" stroke-miterlimit="10" stroke-width="1"/>
          <line id="Línea_676" data-name="Línea 676" x2="10.229" transform="translate(99.953 90.091)" fill="none" stroke="#c200aa" stroke-miterlimit="10" stroke-width="1"/>
          <line id="Línea_677" data-name="Línea 677" x2="10.229" transform="translate(123.419 90.091)" fill="none" stroke="#c200aa" stroke-miterlimit="10" stroke-width="1"/>
          <line id="Línea_678" data-name="Línea 678" y1="10.229" transform="translate(117.252 72.04)" fill="none" stroke="#c200aa" stroke-miterlimit="10" stroke-width="1"/>
          <rect id="Rectángulo_30746" data-name="Rectángulo 30746" width="47.534" height="51.545" transform="translate(166.541 18.238)" fill="none" stroke="#000" stroke-miterlimit="10" stroke-width="1"/>
          <line id="Línea_679" data-name="Línea 679" x1="47.601" y1="51.484" transform="translate(166.507 18.269)" fill="none" stroke="#000" stroke-miterlimit="10" stroke-width="1"/>
          <line id="Línea_680" data-name="Línea 680" x1="47.534" y2="51.545" transform="translate(166.541 18.238)" fill="none" stroke="#000" stroke-miterlimit="10" stroke-width="1"/>
          <ellipse id="Elipse_4603" data-name="Elipse 4603" cx="5.014" cy="6.569" rx="5.014" ry="6.569" transform="translate(193.015 49.125)" fill="none" stroke="#c200aa" stroke-miterlimit="10" stroke-width="1"/>
          <rect id="Rectángulo_30747" data-name="Rectángulo 30747" width="7.02" height="8.624" transform="translate(142.874 134.967)" fill="#c200aa"/>
          <rect id="Rectángulo_30748" data-name="Rectángulo 30748" width="3.008" height="7.02" transform="translate(144.478 152.015)" fill="#c200aa"/>
          <g id="Grupo_60024" data-name="Grupo 60024" transform="translate(93.535 123.635)">
            <rect id="Rectángulo_30749" data-name="Rectángulo 30749" width="4.011" height="47.434" fill="none" stroke="#7cc0ff" stroke-miterlimit="10" stroke-width="1"/>
            <path id="Trazado_125489" data-name="Trazado 125489" d="M103.76,84.965l-2.14,10.081A46.574,46.574,0,0,1,66.4,130.789l-7.069,1.61" transform="translate(-55.323 -84.965)" fill="none" stroke="#7cc0ff" stroke-miterlimit="10" stroke-width="1"/>
          </g>
          <path id="Trazado_125490" data-name="Trazado 125490" d="M99.5,84.965l2.142,10.081a46.572,46.572,0,0,0,35.217,35.742l7.067,1.61" transform="translate(67.191 38.67)" fill="none" stroke="#7cc0ff" stroke-miterlimit="10" stroke-width="1"/>
          <rect id="Rectángulo_30750" data-name="Rectángulo 30750" width="3.044" height="47.434" transform="translate(400.901 120.2) rotate(91.359)" fill="#7cc0ff"/>
          <path id="Trazado_125491" data-name="Trazado 125491" d="M208.613,56.567l10.028,2.379A46.578,46.578,0,0,1,253.538,95l1.441,7.1" transform="translate(145.92 18.18)" fill="none" stroke="#7cc0ff" stroke-miterlimit="10" stroke-width="1"/>
          <path id="Trazado_125492" data-name="Trazado 125492" d="M70.834,69.586l-.045.766a46.361,46.361,0,0,0,25.666,44.262h0" transform="translate(46.418 27.574)" fill="none" stroke="#c200aa" stroke-miterlimit="10" stroke-width="1"/>
          <line id="Línea_681" data-name="Línea 681" y2="12.936" transform="translate(146.384 123.635)" fill="none" stroke="#c200aa" stroke-miterlimit="10" stroke-width="1"/>
          <path id="Trazado_125493" data-name="Trazado 125493" d="M26.83,146.286V128.034l50.341-18.6c28.853-8.883,73.655-9.224,102.29.346l46.731,17.851V117" transform="translate(14.759 51.459)" fill="none" stroke="#c200aa" stroke-miterlimit="10" stroke-width="1"/>
          <line id="Línea_682" data-name="Línea 682" y2="36.045" transform="translate(139.865 165.109)" fill="none" stroke="#c200aa" stroke-miterlimit="10" stroke-width="1"/>
          <line id="Línea_683" data-name="Línea 683" y2="36.045" transform="translate(142.874 165.109)" fill="none" stroke="#c200aa" stroke-miterlimit="10" stroke-width="1"/>
          <circle id="Elipse_4604" data-name="Elipse 4604" cx="6.031" cy="6.031" r="6.031" transform="translate(133.92 171.069)" fill="none" stroke="#c200aa" stroke-miterlimit="10" stroke-width="1"/>
          <line id="Línea_684" data-name="Línea 684" x1="36.045" transform="translate(32.376 439.139)" fill="none" stroke="#c200aa" stroke-miterlimit="10" stroke-width="1"/>
          <line id="Línea_685" data-name="Línea 685" x1="36.045" transform="translate(32.376 442.147)" fill="none" stroke="#c200aa" stroke-miterlimit="10" stroke-width="1"/>
          <circle id="Elipse_4605" data-name="Elipse 4605" cx="6.031" cy="6.031" r="6.031" transform="translate(50.399 433.194)" fill="none" stroke="#c200aa" stroke-miterlimit="10" stroke-width="1"/>
          <line id="Línea_686" data-name="Línea 686" x2="36.045" transform="translate(202.857 481.519)" fill="none" stroke="#c200aa" stroke-miterlimit="10" stroke-width="1"/>
          <line id="Línea_687" data-name="Línea 687" x2="36.045" transform="translate(202.857 478.511)" fill="none" stroke="#c200aa" stroke-miterlimit="10" stroke-width="1"/>
          <circle id="Elipse_4606" data-name="Elipse 4606" cx="6.031" cy="6.031" r="6.031" transform="translate(208.817 475.402)" fill="none" stroke="#c200aa" stroke-miterlimit="10" stroke-width="1"/>
          <line id="Línea_688" data-name="Línea 688" y2="36.045" transform="translate(522.745 429.193)" fill="none" stroke="#c200aa" stroke-miterlimit="10" stroke-width="1"/>
          <line id="Línea_689" data-name="Línea 689" y2="36.045" transform="translate(525.754 429.193)" fill="none" stroke="#c200aa" stroke-miterlimit="10" stroke-width="1"/>
          <circle id="Elipse_4607" data-name="Elipse 4607" cx="6.031" cy="6.031" r="6.031" transform="translate(516.8 435.153)" fill="none" stroke="#c200aa" stroke-miterlimit="10" stroke-width="1"/>
          <line id="Línea_690" data-name="Línea 690" x1="36.045" y1="0.064" transform="translate(345.66 344.562)" fill="none" stroke="#c200aa" stroke-miterlimit="10" stroke-width="1"/>
          <line id="Línea_691" data-name="Línea 691" x1="36.045" y1="0.064" transform="translate(345.655 347.571)" fill="none" stroke="#c200aa" stroke-miterlimit="10" stroke-width="1"/>
          <circle id="Elipse_4608" data-name="Elipse 4608" cx="6.031" cy="6.031" r="6.031" transform="translate(363.682 338.66)" fill="none" stroke="#c200aa" stroke-miterlimit="10" stroke-width="1"/>
          <circle id="Elipse_4609" data-name="Elipse 4609" cx="8.073" cy="8.073" r="8.073" transform="translate(233.329 152.015)" fill="none" stroke="#c200aa" stroke-miterlimit="10" stroke-width="1"/>
          <line id="Línea_692" data-name="Línea 692" y2="9.226" transform="translate(241.402 143.591)" fill="none" stroke="#c200aa" stroke-miterlimit="10" stroke-width="1"/>
          <line id="Línea_693" data-name="Línea 693" x2="11.031" transform="translate(222.298 161.642)" fill="none" stroke="#c200aa" stroke-miterlimit="10" stroke-width="1"/>
          <line id="Línea_694" data-name="Línea 694" x2="11.131" transform="translate(249.475 161.642)" fill="none" stroke="#c200aa" stroke-miterlimit="10" stroke-width="1"/>
          <line id="Línea_695" data-name="Línea 695" y1="0.602" x2="35.801" transform="translate(31.259 229.835)" fill="none" stroke="#c200aa" stroke-miterlimit="10" stroke-width="1"/>
          <line id="Línea_696" data-name="Línea 696" y1="0.602" x2="34.898" transform="translate(31.861 234.648)" fill="none" stroke="#c200aa" stroke-miterlimit="10" stroke-width="1"/>
          <line id="Línea_697" data-name="Línea 697" y2="35.554" transform="translate(161.226 207.061)" fill="none" stroke="#c200aa" stroke-miterlimit="10" stroke-width="1"/>
          <line id="Línea_698" data-name="Línea 698" y2="33.538" transform="translate(164.836 209.076)" fill="none" stroke="#c200aa" stroke-miterlimit="10" stroke-width="1"/>
          <circle id="Elipse_4610" data-name="Elipse 4610" cx="8.8" cy="8.8" r="8.8" transform="translate(297.811 279.475)" fill="none" stroke="#c200aa" stroke-miterlimit="10" stroke-width="1"/>
          <line id="Línea_699" data-name="Línea 699" y2="9.627" transform="translate(306.611 269.847)" fill="none" stroke="#c200aa" stroke-miterlimit="10" stroke-width="1"/>
          <line id="Línea_700" data-name="Línea 700" x2="7.822" transform="translate(289.989 288.274)" fill="none" stroke="#c200aa" stroke-miterlimit="10" stroke-width="1"/>
          <line id="Línea_701" data-name="Línea 701" y2="10.229" transform="translate(306.611 298.428)" fill="none" stroke="#c200aa" stroke-miterlimit="10" stroke-width="1"/>
          <circle id="Elipse_4611" data-name="Elipse 4611" cx="8.8" cy="8.8" r="8.8" transform="translate(458.088 292.712)" fill="none" stroke="#c200aa" stroke-miterlimit="10" stroke-width="1"/>
          <line id="Línea_702" data-name="Línea 702" x2="9.627" transform="translate(448.461 301.512)" fill="none" stroke="#c200aa" stroke-miterlimit="10" stroke-width="1"/>
          <line id="Línea_703" data-name="Línea 703" y1="7.822" transform="translate(466.888 310.312)" fill="none" stroke="#c200aa" stroke-miterlimit="10" stroke-width="1"/>
          <line id="Línea_704" data-name="Línea 704" x2="10.229" transform="translate(477.041 301.512)" fill="none" stroke="#c200aa" stroke-miterlimit="10" stroke-width="1"/>
          <circle id="Elipse_4612" data-name="Elipse 4612" cx="8.8" cy="8.8" r="8.8" transform="translate(290.051 388.344)" fill="none" stroke="#c200aa" stroke-miterlimit="10" stroke-width="1"/>
          <line id="Línea_705" data-name="Línea 705" y1="7.822" transform="translate(298.851 405.944)" fill="none" stroke="#c200aa" stroke-miterlimit="10" stroke-width="1"/>
          <line id="Línea_706" data-name="Línea 706" y1="13.989" transform="translate(298.851 374.355)" fill="none" stroke="#c200aa" stroke-miterlimit="10" stroke-width="1"/>
          <line id="Línea_707" data-name="Línea 707" x2="10.229" transform="translate(309.005 397.144)" fill="none" stroke="#c200aa" stroke-miterlimit="10" stroke-width="1"/>
          <circle id="Elipse_4613" data-name="Elipse 4613" cx="8.8" cy="8.8" r="8.8" transform="translate(139.264 328.763)" fill="none" stroke="#c200aa" stroke-miterlimit="10" stroke-width="1"/>
          <line id="Línea_708" data-name="Línea 708" x2="7.822" transform="translate(131.442 337.563)" fill="none" stroke="#c200aa" stroke-miterlimit="10" stroke-width="1"/>
          <line id="Línea_709" data-name="Línea 709" x2="13.989" transform="translate(156.863 337.563)" fill="none" stroke="#c200aa" stroke-miterlimit="10" stroke-width="1"/>
          <line id="Línea_710" data-name="Línea 710" y2="10.229" transform="translate(148.064 345.608)" fill="none" stroke="#c200aa" stroke-miterlimit="10" stroke-width="1"/>
          <ellipse id="Elipse_4614" data-name="Elipse 4614" cx="6.468" cy="5.454" rx="6.468" ry="5.454" transform="translate(155.51 225.845)" fill="none" stroke="#c200aa" stroke-miterlimit="10" stroke-width="1"/>
          <line id="Línea_711" data-name="Línea 711" y2="35.554" transform="translate(486.518 135.041)" fill="none" stroke="#c200aa" stroke-miterlimit="10" stroke-width="1"/>
          <line id="Línea_712" data-name="Línea 712" y2="33.538" transform="translate(490.128 137.056)" fill="none" stroke="#c200aa" stroke-miterlimit="10" stroke-width="1"/>
          <ellipse id="Elipse_4615" data-name="Elipse 4615" cx="6.468" cy="5.454" rx="6.468" ry="5.454" transform="translate(480.802 153.825)" fill="none" stroke="#c200aa" stroke-miterlimit="10" stroke-width="1"/>
          <line id="Línea_713" data-name="Línea 713" x1="35.554" transform="translate(436.011 38.003)" fill="none" stroke="#c200aa" stroke-miterlimit="10" stroke-width="1"/>
          <line id="Línea_714" data-name="Línea 714" x1="35.554" transform="translate(436.011 41.613)" fill="none" stroke="#c200aa" stroke-miterlimit="10" stroke-width="1"/>
          <ellipse id="Elipse_4616" data-name="Elipse 4616" cx="5.454" cy="6.468" rx="5.454" ry="6.468" transform="translate(441.871 32.287)" fill="none" stroke="#c200aa" stroke-miterlimit="10" stroke-width="1"/>
          <line id="Línea_715" data-name="Línea 715" x2="35.554" transform="translate(353.408 38.003)" fill="none" stroke="#c200aa" stroke-miterlimit="10" stroke-width="1"/>
          <line id="Línea_716" data-name="Línea 716" x2="35.554" transform="translate(353.408 41.613)" fill="none" stroke="#c200aa" stroke-miterlimit="10" stroke-width="1"/>
          <ellipse id="Elipse_4617" data-name="Elipse 4617" cx="5.454" cy="6.468" rx="5.454" ry="6.468" transform="translate(372.193 32.287)" fill="none" stroke="#c200aa" stroke-miterlimit="10" stroke-width="1"/>
          <circle id="Elipse_4618" data-name="Elipse 4618" cx="7.027" cy="7.027" r="7.027" transform="translate(48.407 225.845)" fill="none" stroke="#c200aa" stroke-miterlimit="10" stroke-width="1"/>
          <rect id="Rectángulo_30751" data-name="Rectángulo 30751" width="9.326" height="5.867" transform="translate(360.688 59.254)" fill="#c200aa"/>
          <rect id="Rectángulo_30752" data-name="Rectángulo 30752" width="9.326" height="5.867" transform="translate(360.688 68.881)" fill="#c200aa"/>
          <rect id="Rectángulo_30753" data-name="Rectángulo 30753" width="3.46" height="5.566" transform="translate(435.148 76.552)" fill="#c200aa"/>
          <rect id="Rectángulo_30754" data-name="Rectángulo 30754" width="4.513" height="9.627" transform="translate(378.438 145.898)" fill="#c200aa"/>
          <rect id="Rectángulo_30755" data-name="Rectángulo 30755" width="5.114" height="9.928" transform="translate(170.853 217.5)" fill="#c200aa"/>
          <rect id="Rectángulo_30756" data-name="Rectángulo 30756" width="3.309" height="6.92" transform="translate(262.01 384.471)" fill="#c200aa"/>
          <rect id="Rectángulo_30757" data-name="Rectángulo 30757" width="7.822" height="7.822" transform="translate(233.73 357.094)" fill="#c200aa"/>
          <rect id="Rectángulo_30758" data-name="Rectángulo 30758" width="6.318" height="6.318" transform="translate(353.769 263.53)" fill="#c200aa"/>
          <line id="Línea_717" data-name="Línea 717" x1="8.95" y2="6.619" transform="translate(444.324 214.191)" fill="none" stroke="#c200aa" stroke-miterlimit="10" stroke-width="1"/>
          <line id="Línea_718" data-name="Línea 718" x1="8.95" y2="6.619" transform="translate(447.08 216.946)" fill="none" stroke="#c200aa" stroke-miterlimit="10" stroke-width="1"/>
          <g id="Grupo_60025" data-name="Grupo 60025" transform="translate(184.066 207.366)">
            <rect id="Rectángulo_30759" data-name="Rectángulo 30759" width="4.971" height="58.777" transform="translate(60.019 58.777) rotate(-180)" fill="none" stroke="#7cc0ff" stroke-miterlimit="10" stroke-width="1"/>
            <path id="Trazado_125494" data-name="Trazado 125494" d="M109.592,133.6l2.651,12.491a57.717,57.717,0,0,0,43.639,44.29l8.757,2" transform="translate(-109.592 -133.602)" fill="none" stroke="#7cc0ff" stroke-miterlimit="10" stroke-width="1"/>
          </g>
          <g id="Grupo_60026" data-name="Grupo 60026" transform="translate(298.906 153.139)">
            <rect id="Rectángulo_30760" data-name="Rectángulo 30760" width="4.971" height="58.777" transform="matrix(0.72, -0.694, 0.694, 0.72, 0, 41.671)" fill="none" stroke="#7cc0ff" stroke-miterlimit="10" stroke-width="1"/>
            <path id="Trazado_125495" data-name="Trazado 125495" d="M201.392,102.1l6.766,10.832a57.716,57.716,0,0,1-.658,62.173l-4.918,7.516" transform="translate(-158.196 -102.103)" fill="none" stroke="#7cc0ff" stroke-miterlimit="10" stroke-width="1"/>
          </g>
          <g id="Grupo_60027" data-name="Grupo 60027" transform="translate(345.985 268.983)">
            <rect id="Rectángulo_30761" data-name="Rectángulo 30761" width="3.93" height="46.473" transform="translate(0.001 47.456) rotate(-90)" fill="none" stroke="#7cc0ff" stroke-miterlimit="10" stroke-width="1"/>
            <path id="Trazado_125496" data-name="Trazado 125496" d="M203.648,169.395l9.878,2.1A45.634,45.634,0,0,1,248.544,206l1.577,6.924" transform="translate(-203.648 -169.395)" fill="none" stroke="#7cc0ff" stroke-miterlimit="10" stroke-width="1"/>
          </g>
          <g id="Grupo_60028" data-name="Grupo 60028" transform="translate(204.865 373.416)">
            <rect id="Rectángulo_30762" data-name="Rectángulo 30762" width="3.93" height="46.473" transform="translate(0 47.455) rotate(-90)" fill="none" stroke="#7cc0ff" stroke-miterlimit="10" stroke-width="1"/>
            <path id="Trazado_125497" data-name="Trazado 125497" d="M168.147,230.058l-9.878,2.1a45.632,45.632,0,0,0-35.018,34.5l-1.577,6.924" transform="translate(-121.674 -230.058)" fill="none" stroke="#7cc0ff" stroke-miterlimit="10" stroke-width="1"/>
          </g>
          <path id="Trazado_125498" data-name="Trazado 125498" d="M2.672,221.476H25.206v186.8H53.887v31.614H73.944v-10.63H62.712V398.374H35.435V141.951H189.871V130.621H87.582V124.4H75.749v6.219H25.808V212.35H2.672" transform="translate(-2.672 67.125)" fill="#fdf0c4" stroke="#0024aa" stroke-miterlimit="10" stroke-width="1"/>
          <path id="Trazado_125499" data-name="Trazado 125499" d="M155.312,441.446V409.832H504.9v-116h-8.223V399.668H254.592V250.87h-8.624v4.853H167.547V143.506h21.461l57.161,56.259v5.616h8.563v-8.223L197.3,139.726l11.261-11.261-6.218-6.218-10.329,10.329H151.3V142.6h8.223V310.076h8.223V264.748h78.221V399.729H168.349V355.3h-8.265V400.33H147.648v30.486h-14.8v10.63Z" transform="translate(91.254 65.57)" fill="#fdf0c4" stroke="#0024aa" stroke-miterlimit="10" stroke-width="1"/>
          <line id="Línea_719" data-name="Línea 719" y2="115.983" transform="translate(588.731 242.614)" fill="none" stroke="#0024aa" stroke-miterlimit="10" stroke-width="1"/>
          <line id="Línea_720" data-name="Línea 720" y2="116.786" transform="translate(596.152 242.614)" fill="none" stroke="#0024aa" stroke-miterlimit="10" stroke-width="1"/>
          <line id="Línea_721" data-name="Línea 721" y2="115.983" transform="translate(592.341 242.614)" fill="none" stroke="#0024aa" stroke-miterlimit="10" stroke-width="1"/>
          <path id="Trazado_125500" data-name="Trazado 125500" d="M450.354,109.23H219.44l-16.5,15.761-6.017-6.92L208.5,109.23v-15.9h8.547v4.883H449.639V69.936h9.727V213.892h-9.025Z" transform="translate(137.488 27.826)" fill="#fdf0c4" stroke="#0024aa" stroke-miterlimit="10" stroke-width="1"/>
          <path id="Trazado_125501" data-name="Trazado 125501" d="M176.96,15.006v8.041h46.389V67.786H188.3v9.142h35.049V88.359h6.978V22.634H464.981V53.42h8.791V15.006" transform="translate(123.082 -11.807)" fill="#fdf0c4" stroke="#0024aa" stroke-miterlimit="10" stroke-width="1"/>
          <line id="Línea_722" data-name="Línea 722" y2="54.527" transform="translate(588.269 42.99)" fill="none" stroke="#0024aa" stroke-miterlimit="10" stroke-width="1"/>
          <line id="Línea_723" data-name="Línea 723" y2="54.527" transform="translate(593.011 42.99)" fill="none" stroke="#0024aa" stroke-miterlimit="10" stroke-width="1"/>
          <line id="Línea_724" data-name="Línea 724" y2="54.527" transform="translate(596.854 42.99)" fill="none" stroke="#0024aa" stroke-miterlimit="10" stroke-width="1"/>
          <line id="Línea_725" data-name="Línea 725" y2="115.215" transform="translate(530.541 10.827)" fill="none" stroke="#848fff" stroke-miterlimit="10" stroke-width="1"/>
          <path id="Trazado_125502" data-name="Trazado 125502" d="M357.712,33.616s-9.9-17.525-29.894-5.772c0,0-12.164,35.873-12.577,41.234s0,46.388,0,46.388,3.918,9.859,10.1,10.29,22.679,0,22.679,0,10.309-6.167,9.691-11.527S357.712,33.616,357.712,33.616Z" transform="translate(222.722 -5.471)" fill="none" stroke="#848fff" stroke-miterlimit="10" stroke-width="1"/>
          <path id="Trazado_125503" data-name="Trazado 125503" d="M286.7,22.311h31.858l2.474,2.543v9.21l-2.474,2.061h-8.041l-1.031,8.415s12.056,27.494-5.621,31.394S289.493,53.65,292.379,43.548l1.546-2.269V36.538l-9.585.207L283.308,35.3V23.342Z" transform="translate(199.814 -6.536)" fill="none" stroke="#848fff" stroke-miterlimit="10" stroke-width="1"/>
          <path id="Trazado_125504" data-name="Trazado 125504" d="M239.154,25.665s-10.028,8.664-2.322,17.32c4.689,5.268,12.443,6.445,18.837,3.469,6.693-3.118,12.937-9.159,2.866-19.965" transform="translate(164.179 -4.116)" fill="none" stroke="#848fff" stroke-miterlimit="10" stroke-width="1"/>
          <line id="Línea_726" data-name="Línea 726" x2="117.032" transform="translate(354.532 53.298)" fill="none" stroke="#000" stroke-miterlimit="10" stroke-width="1"/>
          <line id="Línea_727" data-name="Línea 727" y2="42.471" transform="translate(471.564 10.827)" fill="none" stroke="#000" stroke-miterlimit="10" stroke-width="1"/>
          <line id="Línea_728" data-name="Línea 728" x2="16.606" transform="translate(353.408 32.063)" fill="none" stroke="#000" stroke-miterlimit="10" stroke-width="1"/>
          <line id="Línea_729" data-name="Línea 729" x2="23.71" transform="translate(382.098 32.063)" fill="none" stroke="#000" stroke-miterlimit="10" stroke-width="1"/>
          <line id="Línea_730" data-name="Línea 730" x2="26.184" transform="translate(417.353 32.287)" fill="none" stroke="#000" stroke-miterlimit="10" stroke-width="1"/>
          <line id="Línea_731" data-name="Línea 731" x2="18.784" transform="translate(452.78 32.063)" fill="none" stroke="#000" stroke-miterlimit="10" stroke-width="1"/>
          <rect id="Rectángulo_30763" data-name="Rectángulo 30763" width="93.855" height="4.33" transform="translate(365.351 19.486)" fill="none" stroke="#c200aa" stroke-miterlimit="10" stroke-width="1"/>
          <rect id="Rectángulo_30764" data-name="Rectángulo 30764" width="16.7" height="31.338" transform="translate(499.616 46.495)" fill="none" stroke="#c200aa" stroke-miterlimit="10" stroke-width="1"/>
          <circle id="Elipse_4619" data-name="Elipse 4619" cx="5.467" cy="5.467" r="5.467" transform="translate(502.498 64.323)" fill="none" stroke="#c200aa" stroke-miterlimit="10" stroke-width="1"/>
          <circle id="Elipse_4620" data-name="Elipse 4620" cx="5.467" cy="5.467" r="5.467" transform="translate(502.498 47.831)" fill="none" stroke="#c200aa" stroke-miterlimit="10" stroke-width="1"/>
          <line id="Línea_732" data-name="Línea 732" x2="16.7" transform="translate(499.616 62.164)" fill="none" stroke="#c200aa" stroke-miterlimit="10" stroke-width="1"/>
          <path id="Trazado_125505" data-name="Trazado 125505" d="M207.96,55.517h24.308a175.694,175.694,0,0,0,59.162,7.521c32.017-1.709,56.552-5.116,62.738-9.083" transform="translate(145.449 16.296)" fill="none" stroke="#c200aa" stroke-miterlimit="10" stroke-width="1"/>
          <path id="Trazado_125506" data-name="Trazado 125506" d="M208.613,64.5h19.73s18.627-7.389,16.7-21.462c-2-14.617-10.269-16.06-10.269-16.06" transform="translate(145.92 -3.166)" fill="none" stroke="#c200aa" stroke-miterlimit="10" stroke-width="1"/>
          <rect id="Rectángulo_30765" data-name="Rectángulo 30765" width="3.442" height="44.739" transform="translate(307.939 11.239)" fill="none" stroke="#000" stroke-miterlimit="10" stroke-width="1"/>
          <path id="Trazado_125507" data-name="Trazado 125507" d="M223.81,92.761v18.468l7,3.123A133.622,133.622,0,0,1,310,234.427h0v13.989" transform="translate(156.885 44.295)" fill="none" stroke="#c200aa" stroke-miterlimit="10" stroke-width="1"/>
          <path id="Trazado_125508" data-name="Trazado 125508" d="M216.462,167.745h19.517s-7.823,18-36.1,22.132H185.888" transform="translate(129.523 98.398)" fill="none" stroke="#c200aa" stroke-miterlimit="10" stroke-width="1"/>
          <path id="Trazado_125509" data-name="Trazado 125509" d="M163.441,222.848H140.765s-21.75,4.516-9.716,32.191c0,0,17.165,15.945,32.952-1.8,0,0,8.868-8.763,21.5-1.5l7.585,7.258h9.627" transform="translate(87.337 138.156)" fill="none" stroke="#c200aa" stroke-miterlimit="10" stroke-width="1"/>
          <path id="Trazado_125510" data-name="Trazado 125510" d="M114.025,134.6v13.388l4.726,15.54a71.43,71.43,0,0,1-28.157,79.829l-1.914,1.3v9.628" transform="translate(59.384 74.48)" fill="none" stroke="#c200aa" stroke-miterlimit="10" stroke-width="1"/>
          <line id="Línea_733" data-name="Línea 733" x2="13.212" y2="2.547" transform="translate(171.446 275.935)" fill="none" stroke="#c200aa" stroke-miterlimit="10" stroke-width="1"/>
          <line id="Línea_734" data-name="Línea 734" x2="11.578" y2="1.516" transform="translate(171.67 280.979)" fill="none" stroke="#c200aa" stroke-miterlimit="10" stroke-width="1"/>
          <path id="Trazado_125511" data-name="Trazado 125511" d="M9.82,182.037V376.244H37.2v30.085H58.858v-8.023" transform="translate(2.486 108.71)" fill="none" stroke="#7be0ff" stroke-miterlimit="10" stroke-width="1"/>
          <line id="Línea_735" data-name="Línea 735" x1="9.527" y2="8.023" transform="translate(51.817 507.016)" fill="none" stroke="#7be0ff" stroke-miterlimit="10" stroke-width="1"/>
          <line id="Línea_736" data-name="Línea 736" x1="9.427" y2="8.825" transform="translate(43.393 506.214)" fill="none" stroke="#7be0ff" stroke-miterlimit="10" stroke-width="1"/>
          <line id="Línea_737" data-name="Línea 737" x1="9.427" y2="8.825" transform="translate(40.972 498.191)" fill="none" stroke="#7be0ff" stroke-miterlimit="10" stroke-width="1"/>
          <line id="Línea_738" data-name="Línea 738" x1="9.427" y2="8.825" transform="translate(40.972 490.561)" fill="none" stroke="#7be0ff" stroke-miterlimit="10" stroke-width="1"/>
          <line id="Línea_739" data-name="Línea 739" x1="9.427" y2="8.825" transform="translate(40.972 483.052)" fill="none" stroke="#7be0ff" stroke-miterlimit="10" stroke-width="1"/>
          <line id="Línea_740" data-name="Línea 740" x1="9.427" y2="8.825" transform="translate(40.301 476.03)" fill="none" stroke="#7be0ff" stroke-miterlimit="10" stroke-width="1"/>
          <line id="Línea_741" data-name="Línea 741" x1="9.427" y2="8.825" transform="translate(33.322 475.585)" fill="none" stroke="#7be0ff" stroke-miterlimit="10" stroke-width="1"/>
          <line id="Línea_742" data-name="Línea 742" x1="9.427" y2="8.825" transform="translate(25.794 476.488)" fill="none" stroke="#7be0ff" stroke-miterlimit="10" stroke-width="1"/>
          <line id="Línea_743" data-name="Línea 743" x1="9.427" y2="8.825" transform="translate(20.226 476.03)" fill="none" stroke="#7be0ff" stroke-miterlimit="10" stroke-width="1"/>
          <line id="Línea_744" data-name="Línea 744" x1="9.427" y2="8.825" transform="translate(13.56 475.585)" fill="none" stroke="#7be0ff" stroke-miterlimit="10" stroke-width="1"/>
          <line id="Línea_745" data-name="Línea 745" x1="9.427" y2="8.825" transform="translate(13.197 468.522)" fill="none" stroke="#7be0ff" stroke-miterlimit="10" stroke-width="1"/>
          <line id="Línea_746" data-name="Línea 746" x1="9.427" y2="8.825" transform="translate(12.306 462.766)" fill="none" stroke="#7be0ff" stroke-miterlimit="10" stroke-width="1"/>
          <line id="Línea_747" data-name="Línea 747" x1="9.427" y2="8.825" transform="translate(13.197 455.348)" fill="none" stroke="#7be0ff" stroke-miterlimit="10" stroke-width="1"/>
          <line id="Línea_748" data-name="Línea 748" x1="9.427" y2="8.825" transform="translate(12.306 449.591)" fill="none" stroke="#7be0ff" stroke-miterlimit="10" stroke-width="1"/>
          <line id="Línea_749" data-name="Línea 749" x1="9.427" y2="8.825" transform="translate(13.197 443.275)" fill="none" stroke="#7be0ff" stroke-miterlimit="10" stroke-width="1"/>
          <line id="Línea_750" data-name="Línea 750" x1="9.427" y2="8.825" transform="translate(12.306 437.518)" fill="none" stroke="#7be0ff" stroke-miterlimit="10" stroke-width="1"/>
          <line id="Línea_751" data-name="Línea 751" x1="9.427" y2="8.825" transform="translate(13.197 430.1)" fill="none" stroke="#7be0ff" stroke-miterlimit="10" stroke-width="1"/>
          <line id="Línea_752" data-name="Línea 752" x1="9.427" y2="8.825" transform="translate(12.306 424.343)" fill="none" stroke="#7be0ff" stroke-miterlimit="10" stroke-width="1"/>
          <line id="Línea_753" data-name="Línea 753" x1="9.427" y2="8.825" transform="translate(12.751 415.811)" fill="none" stroke="#7be0ff" stroke-miterlimit="10" stroke-width="1"/>
          <line id="Línea_754" data-name="Línea 754" x1="9.427" y2="8.825" transform="translate(11.86 410.054)" fill="none" stroke="#7be0ff" stroke-miterlimit="10" stroke-width="1"/>
          <line id="Línea_755" data-name="Línea 755" x1="9.427" y2="8.825" transform="translate(12.751 402.636)" fill="none" stroke="#7be0ff" stroke-miterlimit="10" stroke-width="1"/>
          <line id="Línea_756" data-name="Línea 756" x1="9.427" y2="8.825" transform="translate(11.86 396.88)" fill="none" stroke="#7be0ff" stroke-miterlimit="10" stroke-width="1"/>
          <line id="Línea_757" data-name="Línea 757" x1="9.427" y2="8.825" transform="translate(12.751 390.563)" fill="none" stroke="#7be0ff" stroke-miterlimit="10" stroke-width="1"/>
          <line id="Línea_758" data-name="Línea 758" x1="9.427" y2="8.825" transform="translate(11.86 384.806)" fill="none" stroke="#7be0ff" stroke-miterlimit="10" stroke-width="1"/>
          <line id="Línea_759" data-name="Línea 759" x1="9.427" y2="8.825" transform="translate(12.751 377.388)" fill="none" stroke="#7be0ff" stroke-miterlimit="10" stroke-width="1"/>
          <line id="Línea_760" data-name="Línea 760" x1="9.427" y2="8.825" transform="translate(11.86 371.632)" fill="none" stroke="#7be0ff" stroke-miterlimit="10" stroke-width="1"/>
          <line id="Línea_761" data-name="Línea 761" x1="9.427" y2="8.825" transform="translate(12.529 363.959)" fill="none" stroke="#7be0ff" stroke-miterlimit="10" stroke-width="1"/>
          <line id="Línea_762" data-name="Línea 762" x1="9.427" y2="8.825" transform="translate(13.42 356.541)" fill="none" stroke="#7be0ff" stroke-miterlimit="10" stroke-width="1"/>
          <line id="Línea_763" data-name="Línea 763" x1="9.427" y2="8.825" transform="translate(12.529 350.784)" fill="none" stroke="#7be0ff" stroke-miterlimit="10" stroke-width="1"/>
          <line id="Línea_764" data-name="Línea 764" x1="9.427" y2="8.825" transform="translate(13.42 344.468)" fill="none" stroke="#7be0ff" stroke-miterlimit="10" stroke-width="1"/>
          <line id="Línea_765" data-name="Línea 765" x1="9.427" y2="8.825" transform="translate(12.529 338.711)" fill="none" stroke="#7be0ff" stroke-miterlimit="10" stroke-width="1"/>
          <line id="Línea_766" data-name="Línea 766" x1="9.427" y2="8.825" transform="translate(13.42 331.293)" fill="none" stroke="#7be0ff" stroke-miterlimit="10" stroke-width="1"/>
          <line id="Línea_767" data-name="Línea 767" x1="9.427" y2="8.825" transform="translate(12.529 325.536)" fill="none" stroke="#7be0ff" stroke-miterlimit="10" stroke-width="1"/>
          <line id="Línea_768" data-name="Línea 768" x1="9.427" y2="8.825" transform="translate(12.974 317.004)" fill="none" stroke="#7be0ff" stroke-miterlimit="10" stroke-width="1"/>
          <line id="Línea_769" data-name="Línea 769" x1="9.427" y2="8.825" transform="translate(12.083 311.247)" fill="none" stroke="#7be0ff" stroke-miterlimit="10" stroke-width="1"/>
          <line id="Línea_770" data-name="Línea 770" x1="9.427" y2="8.825" transform="translate(12.974 303.829)" fill="none" stroke="#7be0ff" stroke-miterlimit="10" stroke-width="1"/>
          <line id="Línea_771" data-name="Línea 771" x1="9.427" y2="8.825" transform="translate(12.083 298.073)" fill="none" stroke="#7be0ff" stroke-miterlimit="10" stroke-width="1"/>
          <line id="Línea_772" data-name="Línea 772" x1="9.427" y2="8.825" transform="translate(12.974 291.756)" fill="none" stroke="#7be0ff" stroke-miterlimit="10" stroke-width="1"/>
          <line id="Línea_773" data-name="Línea 773" x1="5.828" y2="5.456" transform="translate(12.083 289.369)" fill="none" stroke="#7be0ff" stroke-miterlimit="10" stroke-width="1"/>
          <line id="Línea_774" data-name="Línea 774" x1="10.924" y2="10.126" transform="translate(247.405 475.076)" fill="none" stroke="#7be0ff" stroke-miterlimit="10" stroke-width="1"/>
          <line id="Línea_775" data-name="Línea 775" x1="18.12" y2="17.118" transform="translate(247.272 475.076)" fill="none" stroke="#7be0ff" stroke-miterlimit="10" stroke-width="1"/>
          <line id="Línea_776" data-name="Línea 776" x1="8.825" y2="9.427" transform="translate(262.324 475.076)" fill="none" stroke="#7be0ff" stroke-miterlimit="10" stroke-width="1"/>
          <line id="Línea_777" data-name="Línea 777" x1="8.825" y2="9.427" transform="translate(246.926 489.749)" fill="none" stroke="#7be0ff" stroke-miterlimit="10" stroke-width="1"/>
          <line id="Línea_778" data-name="Línea 778" x1="8.825" y2="9.427" transform="translate(235.452 507.016)" fill="none" stroke="#7be0ff" stroke-miterlimit="10" stroke-width="1"/>
          <line id="Línea_779" data-name="Línea 779" x1="8.825" y2="9.427" transform="translate(246.926 496.687)" fill="none" stroke="#7be0ff" stroke-miterlimit="10" stroke-width="1"/>
          <line id="Línea_780" data-name="Línea 780" x1="8.825" y2="9.427" transform="translate(247.507 507.016)" fill="none" stroke="#7be0ff" stroke-miterlimit="10" stroke-width="1"/>
          <line id="Línea_781" data-name="Línea 781" x1="12.991" y2="13.876" transform="translate(242.76 501.501)" fill="none" stroke="#7be0ff" stroke-miterlimit="10" stroke-width="1"/>
          <line id="Línea_782" data-name="Línea 782" x1="8.825" y2="9.427" transform="translate(269.742 475.076)" fill="none" stroke="#7be0ff" stroke-miterlimit="10" stroke-width="1"/>
          <line id="Línea_783" data-name="Línea 783" x1="8.825" y2="9.427" transform="translate(275.498 475.076)" fill="none" stroke="#7be0ff" stroke-miterlimit="10" stroke-width="1"/>
          <line id="Línea_784" data-name="Línea 784" x1="8.825" y2="9.427" transform="translate(281.815 475.076)" fill="none" stroke="#7be0ff" stroke-miterlimit="10" stroke-width="1"/>
          <line id="Línea_785" data-name="Línea 785" x1="8.825" y2="9.427" transform="translate(287.572 475.076)" fill="none" stroke="#7be0ff" stroke-miterlimit="10" stroke-width="1"/>
          <line id="Línea_786" data-name="Línea 786" x1="8.825" y2="9.427" transform="translate(294.99 475.076)" fill="none" stroke="#7be0ff" stroke-miterlimit="10" stroke-width="1"/>
          <line id="Línea_787" data-name="Línea 787" x1="8.825" y2="9.427" transform="translate(300.746 475.076)" fill="none" stroke="#7be0ff" stroke-miterlimit="10" stroke-width="1"/>
          <line id="Línea_788" data-name="Línea 788" x1="8.825" y2="9.427" transform="translate(309.278 475.076)" fill="none" stroke="#7be0ff" stroke-miterlimit="10" stroke-width="1"/>
          <line id="Línea_789" data-name="Línea 789" x1="8.825" y2="9.427" transform="translate(315.035 475.076)" fill="none" stroke="#7be0ff" stroke-miterlimit="10" stroke-width="1"/>
          <line id="Línea_790" data-name="Línea 790" x1="8.825" y2="9.427" transform="translate(322.453 475.076)" fill="none" stroke="#7be0ff" stroke-miterlimit="10" stroke-width="1"/>
          <line id="Línea_791" data-name="Línea 791" x1="8.825" y2="9.427" transform="translate(328.21 475.076)" fill="none" stroke="#7be0ff" stroke-miterlimit="10" stroke-width="1"/>
          <line id="Línea_792" data-name="Línea 792" x1="8.825" y2="9.427" transform="translate(334.526 475.076)" fill="none" stroke="#7be0ff" stroke-miterlimit="10" stroke-width="1"/>
          <line id="Línea_793" data-name="Línea 793" x1="8.825" y2="9.427" transform="translate(340.283 475.076)" fill="none" stroke="#7be0ff" stroke-miterlimit="10" stroke-width="1"/>
          <line id="Línea_794" data-name="Línea 794" x1="8.825" y2="9.427" transform="translate(347.701 475.076)" fill="none" stroke="#7be0ff" stroke-miterlimit="10" stroke-width="1"/>
          <line id="Línea_795" data-name="Línea 795" x1="8.825" y2="9.427" transform="translate(353.458 475.076)" fill="none" stroke="#7be0ff" stroke-miterlimit="10" stroke-width="1"/>
          <line id="Línea_796" data-name="Línea 796" x1="8.825" y2="9.427" transform="translate(361.13 475.076)" fill="none" stroke="#7be0ff" stroke-miterlimit="10" stroke-width="1"/>
          <line id="Línea_797" data-name="Línea 797" x1="8.825" y2="9.427" transform="translate(368.548 475.076)" fill="none" stroke="#7be0ff" stroke-miterlimit="10" stroke-width="1"/>
          <line id="Línea_798" data-name="Línea 798" x1="8.825" y2="9.427" transform="translate(374.305 475.076)" fill="none" stroke="#7be0ff" stroke-miterlimit="10" stroke-width="1"/>
          <line id="Línea_799" data-name="Línea 799" x1="8.825" y2="9.427" transform="translate(380.622 475.076)" fill="none" stroke="#7be0ff" stroke-miterlimit="10" stroke-width="1"/>
          <line id="Línea_800" data-name="Línea 800" x1="8.825" y2="9.427" transform="translate(386.378 475.076)" fill="none" stroke="#7be0ff" stroke-miterlimit="10" stroke-width="1"/>
          <line id="Línea_801" data-name="Línea 801" x1="8.825" y2="9.427" transform="translate(393.796 475.076)" fill="none" stroke="#7be0ff" stroke-miterlimit="10" stroke-width="1"/>
          <line id="Línea_802" data-name="Línea 802" x1="8.825" y2="9.427" transform="translate(399.553 475.076)" fill="none" stroke="#7be0ff" stroke-miterlimit="10" stroke-width="1"/>
          <line id="Línea_803" data-name="Línea 803" x1="8.825" y2="9.427" transform="translate(408.085 475.076)" fill="none" stroke="#7be0ff" stroke-miterlimit="10" stroke-width="1"/>
          <line id="Línea_804" data-name="Línea 804" x1="8.825" y2="9.427" transform="translate(413.842 475.076)" fill="none" stroke="#7be0ff" stroke-miterlimit="10" stroke-width="1"/>
          <line id="Línea_805" data-name="Línea 805" x1="8.825" y2="9.427" transform="translate(421.26 475.076)" fill="none" stroke="#7be0ff" stroke-miterlimit="10" stroke-width="1"/>
          <line id="Línea_806" data-name="Línea 806" x1="8.825" y2="9.427" transform="translate(427.017 475.076)" fill="none" stroke="#7be0ff" stroke-miterlimit="10" stroke-width="1"/>
          <line id="Línea_807" data-name="Línea 807" x1="8.825" y2="9.427" transform="translate(433.333 475.076)" fill="none" stroke="#7be0ff" stroke-miterlimit="10" stroke-width="1"/>
          <line id="Línea_808" data-name="Línea 808" x1="8.393" y2="7.973" transform="translate(439.09 476.53)" fill="none" stroke="#7be0ff" stroke-miterlimit="10" stroke-width="1"/>
          <line id="Línea_809" data-name="Línea 809" x1="8.825" y2="9.427" transform="translate(444.65 475.076)" fill="none" stroke="#7be0ff" stroke-miterlimit="10" stroke-width="1"/>
          <line id="Línea_810" data-name="Línea 810" x1="8.825" y2="9.427" transform="translate(452.068 475.076)" fill="none" stroke="#7be0ff" stroke-miterlimit="10" stroke-width="1"/>
          <line id="Línea_811" data-name="Línea 811" x1="8.825" y2="9.427" transform="translate(457.825 475.076)" fill="none" stroke="#7be0ff" stroke-miterlimit="10" stroke-width="1"/>
          <line id="Línea_812" data-name="Línea 812" x1="8.825" y2="9.427" transform="translate(465.498 475.076)" fill="none" stroke="#7be0ff" stroke-miterlimit="10" stroke-width="1"/>
          <line id="Línea_813" data-name="Línea 813" x1="8.825" y2="9.427" transform="translate(472.916 475.076)" fill="none" stroke="#7be0ff" stroke-miterlimit="10" stroke-width="1"/>
          <line id="Línea_814" data-name="Línea 814" x1="8.825" y2="9.427" transform="translate(478.672 475.076)" fill="none" stroke="#7be0ff" stroke-miterlimit="10" stroke-width="1"/>
          <line id="Línea_815" data-name="Línea 815" x1="8.825" y2="9.427" transform="translate(484.989 475.076)" fill="none" stroke="#7be0ff" stroke-miterlimit="10" stroke-width="1"/>
          <line id="Línea_816" data-name="Línea 816" x1="8.825" y2="9.427" transform="translate(490.746 475.076)" fill="none" stroke="#7be0ff" stroke-miterlimit="10" stroke-width="1"/>
          <line id="Línea_817" data-name="Línea 817" x1="8.825" y2="9.427" transform="translate(498.164 475.076)" fill="none" stroke="#7be0ff" stroke-miterlimit="10" stroke-width="1"/>
          <line id="Línea_818" data-name="Línea 818" x1="8.825" y2="9.427" transform="translate(503.92 475.076)" fill="none" stroke="#7be0ff" stroke-miterlimit="10" stroke-width="1"/>
          <line id="Línea_819" data-name="Línea 819" x1="8.825" y2="9.427" transform="translate(512.453 475.076)" fill="none" stroke="#7be0ff" stroke-miterlimit="10" stroke-width="1"/>
          <line id="Línea_820" data-name="Línea 820" x1="8.825" y2="9.427" transform="translate(518.209 475.076)" fill="none" stroke="#7be0ff" stroke-miterlimit="10" stroke-width="1"/>
          <line id="Línea_821" data-name="Línea 821" x1="8.825" y2="9.427" transform="translate(525.627 475.076)" fill="none" stroke="#7be0ff" stroke-miterlimit="10" stroke-width="1"/>
          <line id="Línea_822" data-name="Línea 822" x1="8.825" y2="9.427" transform="translate(531.384 475.076)" fill="none" stroke="#7be0ff" stroke-miterlimit="10" stroke-width="1"/>
          <line id="Línea_823" data-name="Línea 823" x1="8.825" y2="9.427" transform="translate(537.7 475.076)" fill="none" stroke="#7be0ff" stroke-miterlimit="10" stroke-width="1"/>
          <line id="Línea_824" data-name="Línea 824" x1="8.52" y2="9.101" transform="translate(543.457 475.402)" fill="none" stroke="#7be0ff" stroke-miterlimit="10" stroke-width="1"/>
          <line id="Línea_825" data-name="Línea 825" x1="8.825" y2="9.427" transform="translate(549.724 475.803)" fill="none" stroke="#7be0ff" stroke-miterlimit="10" stroke-width="1"/>
          <line id="Línea_826" data-name="Línea 826" x1="8.825" y2="9.427" transform="translate(558.256 475.803)" fill="none" stroke="#7be0ff" stroke-miterlimit="10" stroke-width="1"/>
          <line id="Línea_827" data-name="Línea 827" x1="8.825" y2="9.427" transform="translate(564.012 475.803)" fill="none" stroke="#7be0ff" stroke-miterlimit="10" stroke-width="1"/>
          <line id="Línea_828" data-name="Línea 828" x1="8.825" y2="9.427" transform="translate(571.43 475.803)" fill="none" stroke="#7be0ff" stroke-miterlimit="10" stroke-width="1"/>
          <line id="Línea_829" data-name="Línea 829" x1="8.825" y2="9.427" transform="translate(577.187 475.803)" fill="none" stroke="#7be0ff" stroke-miterlimit="10" stroke-width="1"/>
          <line id="Línea_830" data-name="Línea 830" x1="8.825" y2="9.427" transform="translate(583.504 475.803)" fill="none" stroke="#7be0ff" stroke-miterlimit="10" stroke-width="1"/>
          <line id="Línea_831" data-name="Línea 831" x1="10.778" y2="11.512" transform="translate(596.795 473.718)" fill="none" stroke="#7be0ff" stroke-miterlimit="10" stroke-width="1"/>
          <line id="Línea_832" data-name="Línea 832" x1="17.538" y2="18.734" transform="translate(589.26 466.496)" fill="none" stroke="#7be0ff" stroke-miterlimit="10" stroke-width="1"/>
          <line id="Línea_833" data-name="Línea 833" x1="5.656" y2="6.041" transform="translate(601.795 479.474)" fill="none" stroke="#7be0ff" stroke-miterlimit="10" stroke-width="1"/>
          <g id="Grupo_60029" data-name="Grupo 60029" transform="translate(596.879)">
            <line id="Línea_834" data-name="Línea 834" x1="9.427" y2="8.825" transform="translate(0 460.136)" fill="none" stroke="#7be0ff" stroke-miterlimit="10" stroke-width="1"/>
            <line id="Línea_835" data-name="Línea 835" x1="9.427" y2="8.825" transform="translate(0 452.718)" fill="none" stroke="#7be0ff" stroke-miterlimit="10" stroke-width="1"/>
            <line id="Línea_836" data-name="Línea 836" x1="9.427" y2="8.825" transform="translate(0 446.961)" fill="none" stroke="#7be0ff" stroke-miterlimit="10" stroke-width="1"/>
            <line id="Línea_837" data-name="Línea 837" x1="9.427" y2="8.825" transform="translate(0 440.645)" fill="none" stroke="#7be0ff" stroke-miterlimit="10" stroke-width="1"/>
            <line id="Línea_838" data-name="Línea 838" x1="9.427" y2="8.825" transform="translate(0 434.888)" fill="none" stroke="#7be0ff" stroke-miterlimit="10" stroke-width="1"/>
            <line id="Línea_839" data-name="Línea 839" x1="9.427" y2="8.825" transform="translate(0 427.47)" fill="none" stroke="#7be0ff" stroke-miterlimit="10" stroke-width="1"/>
            <line id="Línea_840" data-name="Línea 840" x1="9.427" y2="8.825" transform="translate(0 421.713)" fill="none" stroke="#7be0ff" stroke-miterlimit="10" stroke-width="1"/>
            <line id="Línea_841" data-name="Línea 841" x1="9.427" y2="8.825" transform="translate(0 413.181)" fill="none" stroke="#7be0ff" stroke-miterlimit="10" stroke-width="1"/>
            <line id="Línea_842" data-name="Línea 842" x1="9.427" y2="8.825" transform="translate(0 407.424)" fill="none" stroke="#7be0ff" stroke-miterlimit="10" stroke-width="1"/>
            <line id="Línea_843" data-name="Línea 843" x1="9.427" y2="8.825" transform="translate(0 400.006)" fill="none" stroke="#7be0ff" stroke-miterlimit="10" stroke-width="1"/>
            <line id="Línea_844" data-name="Línea 844" x1="9.427" y2="8.825" transform="translate(0 394.25)" fill="none" stroke="#7be0ff" stroke-miterlimit="10" stroke-width="1"/>
            <line id="Línea_845" data-name="Línea 845" x1="9.427" y2="8.825" transform="translate(0 387.933)" fill="none" stroke="#7be0ff" stroke-miterlimit="10" stroke-width="1"/>
            <line id="Línea_846" data-name="Línea 846" x1="9.427" y2="8.825" transform="translate(0 382.177)" fill="none" stroke="#7be0ff" stroke-miterlimit="10" stroke-width="1"/>
            <line id="Línea_847" data-name="Línea 847" x1="9.427" y2="8.825" transform="translate(0 374.759)" fill="none" stroke="#7be0ff" stroke-miterlimit="10" stroke-width="1"/>
            <line id="Línea_848" data-name="Línea 848" x1="9.427" y2="8.825" transform="translate(0 369.002)" fill="none" stroke="#7be0ff" stroke-miterlimit="10" stroke-width="1"/>
            <line id="Línea_849" data-name="Línea 849" x1="9.427" y2="8.825" transform="translate(0 361.329)" fill="none" stroke="#7be0ff" stroke-miterlimit="10" stroke-width="1"/>
            <line id="Línea_850" data-name="Línea 850" x1="9.427" y2="8.825" transform="translate(0.727 232.662)" fill="none" stroke="#7be0ff" stroke-miterlimit="10" stroke-width="1"/>
            <line id="Línea_851" data-name="Línea 851" x1="9.427" y2="8.825" transform="translate(0.727 226.905)" fill="none" stroke="#7be0ff" stroke-miterlimit="10" stroke-width="1"/>
            <line id="Línea_852" data-name="Línea 852" x1="9.427" y2="8.825" transform="translate(0.727 219.487)" fill="none" stroke="#7be0ff" stroke-miterlimit="10" stroke-width="1"/>
            <line id="Línea_853" data-name="Línea 853" x1="9.427" y2="8.825" transform="translate(0.727 213.73)" fill="none" stroke="#7be0ff" stroke-miterlimit="10" stroke-width="1"/>
            <line id="Línea_854" data-name="Línea 854" x1="9.427" y2="8.825" transform="translate(0.727 205.198)" fill="none" stroke="#7be0ff" stroke-miterlimit="10" stroke-width="1"/>
            <line id="Línea_855" data-name="Línea 855" x1="9.427" y2="8.825" transform="translate(0.727 199.441)" fill="none" stroke="#7be0ff" stroke-miterlimit="10" stroke-width="1"/>
            <line id="Línea_856" data-name="Línea 856" x1="9.427" y2="8.825" transform="translate(0.727 192.024)" fill="none" stroke="#7be0ff" stroke-miterlimit="10" stroke-width="1"/>
            <line id="Línea_857" data-name="Línea 857" x1="9.427" y2="8.825" transform="translate(0.727 186.267)" fill="none" stroke="#7be0ff" stroke-miterlimit="10" stroke-width="1"/>
            <line id="Línea_858" data-name="Línea 858" x1="9.427" y2="8.825" transform="translate(0.727 179.95)" fill="none" stroke="#7be0ff" stroke-miterlimit="10" stroke-width="1"/>
            <line id="Línea_859" data-name="Línea 859" x1="9.101" y2="8.52" transform="translate(0.727 174.499)" fill="none" stroke="#7be0ff" stroke-miterlimit="10" stroke-width="1"/>
            <line id="Línea_860" data-name="Línea 860" x1="9.427" y2="8.825" transform="translate(0 167.927)" fill="none" stroke="#7be0ff" stroke-miterlimit="10" stroke-width="1"/>
            <line id="Línea_861" data-name="Línea 861" x1="9.427" y2="8.825" transform="translate(0 159.395)" fill="none" stroke="#7be0ff" stroke-miterlimit="10" stroke-width="1"/>
            <line id="Línea_862" data-name="Línea 862" x1="9.427" y2="8.825" transform="translate(0 153.638)" fill="none" stroke="#7be0ff" stroke-miterlimit="10" stroke-width="1"/>
            <line id="Línea_863" data-name="Línea 863" x1="9.427" y2="8.825" transform="translate(0 146.22)" fill="none" stroke="#7be0ff" stroke-miterlimit="10" stroke-width="1"/>
            <line id="Línea_864" data-name="Línea 864" x1="9.427" y2="8.825" transform="translate(0 140.464)" fill="none" stroke="#7be0ff" stroke-miterlimit="10" stroke-width="1"/>
            <line id="Línea_865" data-name="Línea 865" x1="9.427" y2="8.825" transform="translate(0 134.147)" fill="none" stroke="#7be0ff" stroke-miterlimit="10" stroke-width="1"/>
            <line id="Línea_866" data-name="Línea 866" x1="9.427" y2="8.825" transform="translate(0.727 128.231)" fill="none" stroke="#7be0ff" stroke-miterlimit="10" stroke-width="1"/>
            <line id="Línea_867" data-name="Línea 867" x1="9.427" y2="8.825" transform="translate(0.727 122.474)" fill="none" stroke="#7be0ff" stroke-miterlimit="10" stroke-width="1"/>
            <line id="Línea_868" data-name="Línea 868" x1="9.427" y2="8.825" transform="translate(0.727 115.056)" fill="none" stroke="#7be0ff" stroke-miterlimit="10" stroke-width="1"/>
            <line id="Línea_869" data-name="Línea 869" x1="9.427" y2="8.825" transform="translate(0.727 109.3)" fill="none" stroke="#7be0ff" stroke-miterlimit="10" stroke-width="1"/>
            <line id="Línea_870" data-name="Línea 870" x1="9.427" y2="8.825" transform="translate(0.727 102.983)" fill="none" stroke="#7be0ff" stroke-miterlimit="10" stroke-width="1"/>
            <line id="Línea_871" data-name="Línea 871" x1="7.434" y2="6.959" transform="translate(0 99.628)" fill="none" stroke="#7be0ff" stroke-miterlimit="10" stroke-width="1"/>
            <line id="Línea_872" data-name="Línea 872" x1="9.427" y2="8.825" transform="translate(1.538 31.164)" fill="none" stroke="#7be0ff" stroke-miterlimit="10" stroke-width="1"/>
            <line id="Línea_873" data-name="Línea 873" x1="9.427" y2="8.825" transform="translate(2.265 25.248)" fill="none" stroke="#7be0ff" stroke-miterlimit="10" stroke-width="1"/>
            <line id="Línea_874" data-name="Línea 874" x1="9.427" y2="8.825" transform="translate(2.265 19.491)" fill="none" stroke="#7be0ff" stroke-miterlimit="10" stroke-width="1"/>
            <line id="Línea_875" data-name="Línea 875" x1="9.427" y2="8.825" transform="translate(2.265 12.073)" fill="none" stroke="#7be0ff" stroke-miterlimit="10" stroke-width="1"/>
            <line id="Línea_876" data-name="Línea 876" x1="9.427" y2="8.825" transform="translate(2.265 6.316)" fill="none" stroke="#7be0ff" stroke-miterlimit="10" stroke-width="1"/>
            <line id="Línea_877" data-name="Línea 877" x1="9.427" y2="8.825" transform="translate(2.265)" fill="none" stroke="#7be0ff" stroke-miterlimit="10" stroke-width="1"/>
          </g>
          <path id="Trazado_125512" data-name="Trazado 125512" d="M360.8,15.711V51.174H349.373" transform="translate(247.481 -11.298)" fill="none" stroke="#7be0ff" stroke-miterlimit="10" stroke-width="1"/>
          <path id="Trazado_125513" data-name="Trazado 125513" d="M349.373,70.81H359.9V213.261h-9.778" transform="translate(247.481 28.457)" fill="none" stroke="#7be0ff" stroke-miterlimit="10" stroke-width="1"/>
          <path id="Trazado_125514" data-name="Trazado 125514" d="M501.284,222.732H514.12v123.95H160.514v31.088H137.859v-8.825" transform="translate(94.869 138.072)" fill="none" stroke="#7be0ff" stroke-miterlimit="10" stroke-width="1"/>
          <text id="HALL" transform="translate(263.414 162.5)" fill="#5cb366" font-size="21" font-family="Roboto-Regular, Roboto"><tspan x="0" y="0">HALL</tspan></text>
          <text id="HALL_BATH" data-name="HALL BATH" transform="translate(413.048 97.924)" fill="#5cb366" font-size="13" font-family="Roboto-Regular, Roboto"><tspan x="0" y="0">HALL BATH</tspan></text>
          <text id="B.R._3" data-name="B.R. #3" transform="translate(410.128 374.526)" fill="#5cb366" font-size="21" font-family="Roboto-Regular, Roboto"><tspan x="0" y="0">B.R. #3</tspan></text>
          <text id="B.R._2" data-name="B.R. #2" transform="translate(68.421 381.108)" fill="#5cb366" font-size="21" font-family="Roboto-Regular, Roboto"><tspan x="0" y="0">B.R. #2</tspan></text>
          <line id="Línea_878" data-name="Línea 878" x2="23.767" transform="translate(190.308 53.298)" fill="none" stroke="#c200aa" stroke-miterlimit="10" stroke-width="1"/>
          <line id="Línea_879" data-name="Línea 879" x2="23.767" transform="translate(190.308 57.044)" fill="none" stroke="#c200aa" stroke-miterlimit="10" stroke-width="1"/>
        </g>
      </g>
    </g>
    <rect id="Rectángulo_30772" data-name="Rectángulo 30772" width="820" height="644" transform="translate(600 397)" fill="none"/>
  </g>
</svg>
