<svg xmlns="http://www.w3.org/2000/svg" width="1030" height="570.209" viewBox="0 0 1030 570.209">
  <g id="Grupo_62099" data-name="Grupo 62099" transform="translate(-285 -7912)">
    <rect id="Rectángulo_30809" data-name="Rectángulo 30809" width="1030" height="570" transform="translate(285 7912)" fill="#5e6062"/>
    <g id="Grupo_60116" data-name="Grupo 60116" transform="translate(0 497)">
      <path id="Trazado_130966" data-name="Trazado 130966" d="M8.552-3.349H3.19L1.986,0H.246L5.133-12.8H6.609L11.5,0H9.773ZM3.7-4.729H8.051l-2.18-5.985Zm18.94.668a4.708,4.708,0,0,1-1.5,3.133,4.911,4.911,0,0,1-3.353,1.1A4.509,4.509,0,0,1,14.155-1.45,6.542,6.542,0,0,1,12.788-5.8v-1.23a7.291,7.291,0,0,1,.637-3.138,4.76,4.76,0,0,1,1.806-2.079,5.029,5.029,0,0,1,2.707-.725,4.624,4.624,0,0,1,3.27,1.138,4.765,4.765,0,0,1,1.433,3.151h-1.7a3.677,3.677,0,0,0-.954-2.222,2.885,2.885,0,0,0-2.052-.688A3.019,3.019,0,0,0,15.4-10.4a5.492,5.492,0,0,0-.918,3.4v1.24a5.645,5.645,0,0,0,.87,3.316A2.812,2.812,0,0,0,17.789-1.2a3.247,3.247,0,0,0,2.158-.637,3.536,3.536,0,0,0,1-2.219ZM34.778,0h-1.7V-5.915H26.631V0H24.943V-12.8h1.688v5.5h6.451v-5.5h1.7ZM46.784-12.8v8.7a4.082,4.082,0,0,1-1.138,2.962A4.586,4.586,0,0,1,42.583.158l-.448.018A4.79,4.79,0,0,1,38.786-.958a4.055,4.055,0,0,1-1.266-3.12V-12.8h1.67v8.666a2.927,2.927,0,0,0,.765,2.158,2.939,2.939,0,0,0,2.18.769,2.959,2.959,0,0,0,2.193-.765,2.921,2.921,0,0,0,.76-2.153V-12.8Zm7.356,7.62H51.135V0h-1.7V-12.8h4.236A5.014,5.014,0,0,1,57-11.812a3.542,3.542,0,0,1,1.165,2.865,3.445,3.445,0,0,1-.646,2.083,3.856,3.856,0,0,1-1.8,1.327L58.729-.105V0H56.918Zm-3.006-1.38h2.593a2.924,2.924,0,0,0,2-.652,2.2,2.2,0,0,0,.743-1.743,2.32,2.32,0,0,0-.708-1.823,3,3,0,0,0-2.043-.643H51.135ZM67.6-3.349H62.235L61.031,0h-1.74l4.887-12.8h1.477L70.55,0H68.818Zm-4.852-1.38H67.1l-2.18-5.985ZM72.272,0V-12.8h3.612a5.815,5.815,0,0,1,2.953.738,4.993,4.993,0,0,1,1.982,2.1,6.837,6.837,0,0,1,.708,3.129v.817a6.861,6.861,0,0,1-.7,3.173,4.915,4.915,0,0,1-2,2.092A6.185,6.185,0,0,1,75.814,0ZM73.96-11.417V-1.38h1.775a3.863,3.863,0,0,0,3.037-1.214,5.016,5.016,0,0,0,1.085-3.457V-6.8a5.1,5.1,0,0,0-1.024-3.391,3.644,3.644,0,0,0-2.9-1.227ZM93.92-5.985A7.916,7.916,0,0,1,93.287-2.7a4.793,4.793,0,0,1-1.793,2.14,4.933,4.933,0,0,1-2.707.738,4.891,4.891,0,0,1-2.681-.743,4.908,4.908,0,0,1-1.815-2.118,7.6,7.6,0,0,1-.664-3.186v-.923a7.822,7.822,0,0,1,.642-3.261,4.891,4.891,0,0,1,1.815-2.167,4.87,4.87,0,0,1,2.685-.751,4.961,4.961,0,0,1,2.711.743,4.784,4.784,0,0,1,1.806,2.153,7.955,7.955,0,0,1,.633,3.283Zm-1.679-.826a5.738,5.738,0,0,0-.914-3.494,3.015,3.015,0,0,0-2.558-1.217,2.982,2.982,0,0,0-2.518,1.217,5.62,5.62,0,0,0-.945,3.379v.94a5.746,5.746,0,0,0,.927,3.467,3,3,0,0,0,2.553,1.261,2.983,2.983,0,0,0,2.531-1.191,5.714,5.714,0,0,0,.923-3.415Zm7.98,1.107a7.935,7.935,0,0,1-3.16-1.534,2.93,2.93,0,0,1-.989-2.246,3.1,3.1,0,0,1,1.208-2.5,4.8,4.8,0,0,1,3.142-.989,5.243,5.243,0,0,1,2.351.51,3.866,3.866,0,0,1,1.6,1.406,3.6,3.6,0,0,1,.567,1.96h-1.7a2.34,2.34,0,0,0-.738-1.83,3,3,0,0,0-2.083-.666,3.074,3.074,0,0,0-1.947.55,1.836,1.836,0,0,0-.7,1.528,1.652,1.652,0,0,0,.664,1.325A6.509,6.509,0,0,0,100.7-7.2a10.481,10.481,0,0,1,2.5.99,3.788,3.788,0,0,1,1.336,1.261,3.219,3.219,0,0,1,.435,1.7A2.99,2.99,0,0,1,103.755-.76a5.171,5.171,0,0,1-3.243.936A6.015,6.015,0,0,1,98.051-.33a4.142,4.142,0,0,1-1.762-1.384,3.378,3.378,0,0,1-.62-2h1.7a2.2,2.2,0,0,0,.857,1.833,3.608,3.608,0,0,0,2.29.672,3.317,3.317,0,0,0,2.048-.545,1.77,1.77,0,0,0,.712-1.485,1.738,1.738,0,0,0-.659-1.455A7.6,7.6,0,0,0,100.222-5.7Z" transform="translate(331 7515.272)" fill="#36dfdf"/>
      <path id="Trazado_130967" data-name="Trazado 130967" d="M10.9-4.061A4.708,4.708,0,0,1,9.4-.927,4.911,4.911,0,0,1,6.047.176,4.509,4.509,0,0,1,2.413-1.45,6.542,6.542,0,0,1,1.046-5.8v-1.23a7.291,7.291,0,0,1,.637-3.138,4.76,4.76,0,0,1,1.806-2.079A5.029,5.029,0,0,1,6.2-12.973a4.624,4.624,0,0,1,3.27,1.138A4.765,4.765,0,0,1,10.9-8.684H9.2a3.677,3.677,0,0,0-.954-2.222A2.885,2.885,0,0,0,6.2-11.593a3.019,3.019,0,0,0-2.536,1.2,5.492,5.492,0,0,0-.918,3.4v1.24a5.645,5.645,0,0,0,.87,3.316A2.812,2.812,0,0,0,6.047-1.2,3.247,3.247,0,0,0,8.2-1.841a3.536,3.536,0,0,0,1-2.219ZM17.1-6.372l3.34-6.425h1.916L17.947-4.772V0H16.26V-4.772L11.848-12.8h1.934ZM30.252-3.349H24.891L23.687,0h-1.74l4.887-12.8H28.31L33.205,0H31.474ZM25.4-4.729h4.351l-2.18-5.985ZM44.763,0h-1.7L36.624-9.861V0h-1.7V-12.8h1.7l6.46,9.905V-12.8h1.679Z" transform="translate(571 7515.272)" fill="#36dfdf"/>
      <text id="CYAN" transform="translate(571 7544.924)" fill="#36dfdf" font-size="18" font-family="Roboto-Regular, Roboto"><tspan x="0" y="0">CYAN</tspan></text>
      <text id="AUXILIAR" transform="translate(345 7544.924)" fill="#36dfdf" font-size="18" font-family="Roboto-Regular, Roboto"><tspan x="0" y="0">AUXILIAR</tspan></text>
      <path id="Trazado_130971" data-name="Trazado 130971" d="M5.388-6.372,8.728-12.8h1.916L6.231-4.772V0H4.544V-4.772L.132-12.8H2.065Zm14.142.457H13.983V-1.38h6.442V0H12.3V-12.8h8.042v1.38H13.983v4.122h5.546ZM24.223-1.38h6.064V0H22.526V-12.8h1.7Zm9.686,0h6.064V0H32.212V-12.8h1.7ZM51.17-5.985A7.916,7.916,0,0,1,50.537-2.7a4.793,4.793,0,0,1-1.793,2.14,4.933,4.933,0,0,1-2.707.738,4.891,4.891,0,0,1-2.681-.743,4.908,4.908,0,0,1-1.815-2.118,7.6,7.6,0,0,1-.664-3.186v-.923a7.822,7.822,0,0,1,.642-3.261,4.891,4.891,0,0,1,1.815-2.167,4.87,4.87,0,0,1,2.685-.751,4.961,4.961,0,0,1,2.711.743,4.784,4.784,0,0,1,1.806,2.153,7.955,7.955,0,0,1,.633,3.283Zm-1.679-.826a5.738,5.738,0,0,0-.914-3.494,3.015,3.015,0,0,0-2.558-1.217A2.982,2.982,0,0,0,43.5-10.305a5.62,5.62,0,0,0-.945,3.379v.94a5.746,5.746,0,0,0,.927,3.467,3,3,0,0,0,2.553,1.261,2.983,2.983,0,0,0,2.531-1.191,5.714,5.714,0,0,0,.923-3.415Zm6.97,2.777.246,1.688.36-1.521L59.6-12.8h1.424l2.47,8.93.352,1.547.272-1.723L66.1-12.8h1.7L64.7,0H63.158L60.521-9.325l-.2-.976-.2.976L57.384,0H55.846L52.752-12.8h1.688Z" transform="translate(560 7573.478)" fill="#e0df3d"/>
      <path id="Trazado_130970" data-name="Trazado 130970" d="M10.9-4.061A4.708,4.708,0,0,1,9.4-.927,4.911,4.911,0,0,1,6.047.176,4.509,4.509,0,0,1,2.413-1.45,6.542,6.542,0,0,1,1.046-5.8v-1.23a7.291,7.291,0,0,1,.637-3.138,4.76,4.76,0,0,1,1.806-2.079A5.029,5.029,0,0,1,6.2-12.973a4.624,4.624,0,0,1,3.27,1.138A4.765,4.765,0,0,1,10.9-8.684H9.2a3.677,3.677,0,0,0-.954-2.222A2.885,2.885,0,0,0,6.2-11.593a3.019,3.019,0,0,0-2.536,1.2,5.492,5.492,0,0,0-.918,3.4v1.24a5.645,5.645,0,0,0,.87,3.316A2.812,2.812,0,0,0,6.047-1.2,3.247,3.247,0,0,0,8.2-1.841a3.536,3.536,0,0,0,1-2.219ZM23.045-5.985A7.916,7.916,0,0,1,22.412-2.7a4.793,4.793,0,0,1-1.793,2.14,4.933,4.933,0,0,1-2.707.738,4.891,4.891,0,0,1-2.681-.743,4.908,4.908,0,0,1-1.815-2.118,7.6,7.6,0,0,1-.664-3.186v-.923a7.822,7.822,0,0,1,.642-3.261,4.891,4.891,0,0,1,1.815-2.167,4.87,4.87,0,0,1,2.685-.751,4.961,4.961,0,0,1,2.711.743,4.784,4.784,0,0,1,1.806,2.153,7.955,7.955,0,0,1,.633,3.283Zm-1.679-.826a5.738,5.738,0,0,0-.914-3.494,3.015,3.015,0,0,0-2.558-1.217,2.982,2.982,0,0,0-2.518,1.217,5.62,5.62,0,0,0-.945,3.379v.94a5.746,5.746,0,0,0,.927,3.467,3,3,0,0,0,2.553,1.261,2.983,2.983,0,0,0,2.531-1.191,5.714,5.714,0,0,0,.923-3.415ZM35.411,0h-1.7L27.272-9.861V0h-1.7V-12.8h1.7l6.46,9.905V-12.8h1.679ZM47.25-11.417H43.137V0H41.458V-11.417h-4.1V-12.8h9.9Zm11.5,5.432A7.916,7.916,0,0,1,58.113-2.7,4.793,4.793,0,0,1,56.32-.562a4.933,4.933,0,0,1-2.707.738,4.891,4.891,0,0,1-2.681-.743,4.908,4.908,0,0,1-1.815-2.118,7.6,7.6,0,0,1-.664-3.186v-.923a7.822,7.822,0,0,1,.642-3.261,4.891,4.891,0,0,1,1.815-2.167,4.87,4.87,0,0,1,2.685-.751,4.961,4.961,0,0,1,2.711.743,4.784,4.784,0,0,1,1.806,2.153,7.955,7.955,0,0,1,.633,3.283Zm-1.679-.826a5.738,5.738,0,0,0-.914-3.494A3.015,3.015,0,0,0,53.6-11.522a2.982,2.982,0,0,0-2.518,1.217,5.62,5.62,0,0,0-.945,3.379v.94a5.746,5.746,0,0,0,.927,3.467,3,3,0,0,0,2.553,1.261,2.983,2.983,0,0,0,2.531-1.191,5.714,5.714,0,0,0,.923-3.415Zm8.9,1.635H62.965V0h-1.7V-12.8H65.5a5.014,5.014,0,0,1,3.327.984A3.542,3.542,0,0,1,70-8.947a3.445,3.445,0,0,1-.646,2.083,3.856,3.856,0,0,1-1.8,1.327L70.559-.105V0H68.748Zm-3.006-1.38h2.593a2.924,2.924,0,0,0,2-.652A2.2,2.2,0,0,0,68.3-8.952a2.32,2.32,0,0,0-.708-1.823,3,3,0,0,0-2.043-.643H62.965ZM82.2,0H80.5L74.057-9.861V0h-1.7V-12.8h1.7l6.46,9.905V-12.8H82.2ZM95.036-5.985A7.916,7.916,0,0,1,94.4-2.7,4.793,4.793,0,0,1,92.61-.562,4.933,4.933,0,0,1,89.9.176a4.891,4.891,0,0,1-2.681-.743,4.908,4.908,0,0,1-1.815-2.118,7.6,7.6,0,0,1-.664-3.186v-.923a7.822,7.822,0,0,1,.642-3.261A4.891,4.891,0,0,1,87.2-12.221a4.87,4.87,0,0,1,2.685-.751,4.961,4.961,0,0,1,2.711.743A4.784,4.784,0,0,1,94.4-10.077a7.955,7.955,0,0,1,.633,3.283Zm-1.679-.826a5.738,5.738,0,0,0-.914-3.494,3.015,3.015,0,0,0-2.558-1.217,2.982,2.982,0,0,0-2.518,1.217,5.62,5.62,0,0,0-.945,3.379v.94a5.746,5.746,0,0,0,.927,3.467A3,3,0,0,0,89.9-1.257a2.983,2.983,0,0,0,2.531-1.191,5.714,5.714,0,0,0,.923-3.415Z" transform="translate(337.096 7573.478)" fill="#e0df3d"/>
      <path id="Trazado_130974" data-name="Trazado 130974" d="M1.485,0V-12.8H5.669a4.856,4.856,0,0,1,3.133.861,3.1,3.1,0,0,1,1.05,2.549A2.6,2.6,0,0,1,9.343-7.8,3.3,3.3,0,0,1,7.954-6.732a2.968,2.968,0,0,1,1.639,1.1,3.166,3.166,0,0,1,.6,1.938A3.423,3.423,0,0,1,9.079-.984,4.616,4.616,0,0,1,5.924,0ZM3.173-5.985V-1.38H5.959a2.683,2.683,0,0,0,1.859-.611A2.145,2.145,0,0,0,8.5-3.674q0-2.312-2.514-2.312Zm0-1.354H5.722a2.672,2.672,0,0,0,1.771-.555A1.86,1.86,0,0,0,8.156-9.4a1.829,1.829,0,0,0-.615-1.537,3.021,3.021,0,0,0-1.872-.48h-2.5ZM14.388-1.38h6.064V0H12.691V-12.8h1.7ZM29.61-3.349H24.249L23.045,0H21.3l4.887-12.8h1.477L32.563,0H30.832Zm-4.852-1.38h4.351l-2.18-5.985Zm18.94.668A4.708,4.708,0,0,1,42.2-.927a4.911,4.911,0,0,1-3.353,1.1A4.509,4.509,0,0,1,35.213-1.45,6.542,6.542,0,0,1,33.847-5.8v-1.23a7.291,7.291,0,0,1,.637-3.138,4.76,4.76,0,0,1,1.806-2.079A5.029,5.029,0,0,1,39-12.973a4.624,4.624,0,0,1,3.27,1.138A4.765,4.765,0,0,1,43.7-8.684H42a3.677,3.677,0,0,0-.954-2.222A2.885,2.885,0,0,0,39-11.593a3.019,3.019,0,0,0-2.536,1.2,5.492,5.492,0,0,0-.918,3.4v1.24a5.645,5.645,0,0,0,.87,3.316A2.812,2.812,0,0,0,38.848-1.2a3.247,3.247,0,0,0,2.158-.637,3.536,3.536,0,0,0,1-2.219Zm5.555-1.89L47.689-4.324V0H46V-12.8h1.688v6.328L53.376-12.8h2.039L50.379-7.146,55.811,0H53.789Z" transform="translate(566 7598.737)" fill="#fafafa"/>
      <path id="Trazado_130973" data-name="Trazado 130973" d="M1.485,0V-12.8H5.1a5.815,5.815,0,0,1,2.953.738,4.993,4.993,0,0,1,1.982,2.1,6.837,6.837,0,0,1,.708,3.129v.817a6.861,6.861,0,0,1-.7,3.173,4.915,4.915,0,0,1-2,2.092A6.185,6.185,0,0,1,5.027,0ZM3.173-11.417V-1.38H4.948A3.863,3.863,0,0,0,7.985-2.594,5.016,5.016,0,0,0,9.07-6.051V-6.8A5.1,5.1,0,0,0,8.046-10.19a3.644,3.644,0,0,0-2.9-1.227ZM15.1,0H13.412V-12.8H15.1Zm5.265-12.8L24.548-2.355,28.731-12.8H30.92V0H29.232V-4.983l.158-5.379L25.189,0H23.9L19.705-10.336l.167,5.353V0H18.185V-12.8ZM41.133-5.915H35.587V-1.38h6.442V0H33.9V-12.8h8.042v1.38H35.587v4.122h5.546ZM53.965,0h-1.7L45.826-9.861V0h-1.7V-12.8h1.7l6.46,9.905V-12.8h1.679Zm6.768-5.7a7.935,7.935,0,0,1-3.16-1.534,2.93,2.93,0,0,1-.989-2.246,3.1,3.1,0,0,1,1.208-2.5,4.8,4.8,0,0,1,3.142-.989,5.243,5.243,0,0,1,2.351.51,3.866,3.866,0,0,1,1.6,1.406,3.6,3.6,0,0,1,.567,1.96h-1.7a2.34,2.34,0,0,0-.738-1.83,3,3,0,0,0-2.083-.666,3.074,3.074,0,0,0-1.947.55,1.836,1.836,0,0,0-.7,1.528,1.652,1.652,0,0,0,.664,1.325,6.509,6.509,0,0,0,2.259.991,10.481,10.481,0,0,1,2.5.99,3.788,3.788,0,0,1,1.336,1.261,3.219,3.219,0,0,1,.435,1.7A2.99,2.99,0,0,1,64.266-.76a5.171,5.171,0,0,1-3.243.936A6.015,6.015,0,0,1,58.562-.33,4.142,4.142,0,0,1,56.8-1.714a3.378,3.378,0,0,1-.62-2h1.7a2.2,2.2,0,0,0,.857,1.833,3.608,3.608,0,0,0,2.29.672,3.317,3.317,0,0,0,2.048-.545,1.77,1.77,0,0,0,.712-1.485,1.738,1.738,0,0,0-.659-1.455A7.6,7.6,0,0,0,60.732-5.7ZM69.451,0H67.764V-12.8h1.688ZM82.38-5.985A7.916,7.916,0,0,1,81.747-2.7a4.793,4.793,0,0,1-1.793,2.14,4.933,4.933,0,0,1-2.707.738,4.891,4.891,0,0,1-2.681-.743,4.908,4.908,0,0,1-1.815-2.118,7.6,7.6,0,0,1-.664-3.186v-.923a7.822,7.822,0,0,1,.642-3.261,4.891,4.891,0,0,1,1.815-2.167,4.87,4.87,0,0,1,2.685-.751,4.961,4.961,0,0,1,2.711.743,4.784,4.784,0,0,1,1.806,2.153,7.955,7.955,0,0,1,.633,3.283ZM80.7-6.812a5.738,5.738,0,0,0-.914-3.494,3.015,3.015,0,0,0-2.558-1.217,2.982,2.982,0,0,0-2.518,1.217,5.62,5.62,0,0,0-.945,3.379v.94a5.746,5.746,0,0,0,.927,3.467,3,3,0,0,0,2.553,1.261,2.983,2.983,0,0,0,2.531-1.191A5.714,5.714,0,0,0,80.7-5.862ZM94.746,0h-1.7L86.607-9.861V0h-1.7V-12.8h1.7l6.46,9.905V-12.8h1.679Zm10.23-5.915H99.431V-1.38h6.442V0h-8.13V-12.8h8.042v1.38H99.431v4.122h5.546Zm6.768.211a7.935,7.935,0,0,1-3.16-1.534,2.93,2.93,0,0,1-.989-2.246,3.1,3.1,0,0,1,1.208-2.5,4.8,4.8,0,0,1,3.142-.989,5.243,5.243,0,0,1,2.351.51,3.866,3.866,0,0,1,1.6,1.406,3.6,3.6,0,0,1,.567,1.96h-1.7a2.34,2.34,0,0,0-.738-1.83,3,3,0,0,0-2.083-.666,3.074,3.074,0,0,0-1.947.55,1.836,1.836,0,0,0-.7,1.528,1.652,1.652,0,0,0,.664,1.325,6.509,6.509,0,0,0,2.259.991,10.481,10.481,0,0,1,2.5.99,3.788,3.788,0,0,1,1.336,1.261,3.219,3.219,0,0,1,.435,1.7A2.99,2.99,0,0,1,115.277-.76a5.171,5.171,0,0,1-3.243.936,6.015,6.015,0,0,1-2.461-.505,4.142,4.142,0,0,1-1.762-1.384,3.378,3.378,0,0,1-.62-2h1.7a2.2,2.2,0,0,0,.857,1.833,3.608,3.608,0,0,0,2.29.672,3.317,3.317,0,0,0,2.048-.545,1.77,1.77,0,0,0,.712-1.485,1.738,1.738,0,0,0-.659-1.455A7.6,7.6,0,0,0,111.744-5.7Z" transform="translate(325 7598.737)" fill="#fafafa"/>
      <path id="Trazado_130968" data-name="Trazado 130968" d="M10.9-4.061A4.708,4.708,0,0,1,9.4-.927,4.911,4.911,0,0,1,6.047.176,4.509,4.509,0,0,1,2.413-1.45,6.542,6.542,0,0,1,1.046-5.8v-1.23a7.291,7.291,0,0,1,.637-3.138,4.76,4.76,0,0,1,1.806-2.079A5.029,5.029,0,0,1,6.2-12.973a4.624,4.624,0,0,1,3.27,1.138A4.765,4.765,0,0,1,10.9-8.684H9.2a3.677,3.677,0,0,0-.954-2.222A2.885,2.885,0,0,0,6.2-11.593a3.019,3.019,0,0,0-2.536,1.2,5.492,5.492,0,0,0-.918,3.4v1.24a5.645,5.645,0,0,0,.87,3.316A2.812,2.812,0,0,0,6.047-1.2,3.247,3.247,0,0,0,8.2-1.841a3.536,3.536,0,0,0,1-2.219ZM23.045-5.985A7.916,7.916,0,0,1,22.412-2.7a4.793,4.793,0,0,1-1.793,2.14,4.933,4.933,0,0,1-2.707.738,4.891,4.891,0,0,1-2.681-.743,4.908,4.908,0,0,1-1.815-2.118,7.6,7.6,0,0,1-.664-3.186v-.923a7.822,7.822,0,0,1,.642-3.261,4.891,4.891,0,0,1,1.815-2.167,4.87,4.87,0,0,1,2.685-.751,4.961,4.961,0,0,1,2.711.743,4.784,4.784,0,0,1,1.806,2.153,7.955,7.955,0,0,1,.633,3.283Zm-1.679-.826a5.738,5.738,0,0,0-.914-3.494,3.015,3.015,0,0,0-2.558-1.217,2.982,2.982,0,0,0-2.518,1.217,5.62,5.62,0,0,0-.945,3.379v.94a5.746,5.746,0,0,0,.927,3.467,3,3,0,0,0,2.553,1.261,2.983,2.983,0,0,0,2.531-1.191,5.714,5.714,0,0,0,.923-3.415ZM35.411,0h-1.7L27.272-9.861V0h-1.7V-12.8h1.7l6.46,9.905V-12.8h1.679ZM47.25-11.417H43.137V0H41.458V-11.417h-4.1V-12.8h9.9ZM50.959,0H49.271V-12.8h1.688Zm12.92,0h-1.7L55.74-9.861V0h-1.7V-12.8h1.7L62.2-2.892V-12.8h1.679ZM75.885-12.8v8.7a4.082,4.082,0,0,1-1.138,2.962A4.586,4.586,0,0,1,71.684.158l-.448.018A4.79,4.79,0,0,1,67.887-.958a4.055,4.055,0,0,1-1.266-3.12V-12.8h1.67v8.666a2.927,2.927,0,0,0,.765,2.158,2.939,2.939,0,0,0,2.18.769,2.959,2.959,0,0,0,2.193-.765,2.921,2.921,0,0,0,.76-2.153V-12.8ZM88.392-5.985A7.916,7.916,0,0,1,87.759-2.7a4.793,4.793,0,0,1-1.793,2.14,4.933,4.933,0,0,1-2.707.738,4.891,4.891,0,0,1-2.681-.743,4.908,4.908,0,0,1-1.815-2.118A7.6,7.6,0,0,1,78.1-5.871v-.923a7.822,7.822,0,0,1,.642-3.261,4.891,4.891,0,0,1,1.815-2.167,4.87,4.87,0,0,1,2.685-.751,4.961,4.961,0,0,1,2.711.743,4.784,4.784,0,0,1,1.806,2.153,7.955,7.955,0,0,1,.633,3.283Zm-1.679-.826a5.738,5.738,0,0,0-.914-3.494,3.015,3.015,0,0,0-2.558-1.217,2.982,2.982,0,0,0-2.518,1.217,5.62,5.62,0,0,0-.945,3.379v.94a5.746,5.746,0,0,0,.927,3.467,3,3,0,0,0,2.553,1.261A2.983,2.983,0,0,0,85.79-2.448a5.714,5.714,0,0,0,.923-3.415ZM99.932-12.8v8.7a4.082,4.082,0,0,1-1.138,2.962A4.586,4.586,0,0,1,95.73.158l-.448.018A4.79,4.79,0,0,1,91.934-.958a4.055,4.055,0,0,1-1.266-3.12V-12.8h1.67v8.666A2.927,2.927,0,0,0,93.1-1.973a2.939,2.939,0,0,0,2.18.769,2.959,2.959,0,0,0,2.193-.765,2.921,2.921,0,0,0,.76-2.153V-12.8ZM106.365-5.7a7.935,7.935,0,0,1-3.16-1.534,2.93,2.93,0,0,1-.989-2.246,3.1,3.1,0,0,1,1.208-2.5,4.8,4.8,0,0,1,3.142-.989,5.243,5.243,0,0,1,2.351.51,3.866,3.866,0,0,1,1.6,1.406,3.6,3.6,0,0,1,.567,1.96h-1.7a2.34,2.34,0,0,0-.738-1.83,3,3,0,0,0-2.083-.666,3.074,3.074,0,0,0-1.947.55,1.836,1.836,0,0,0-.7,1.528,1.652,1.652,0,0,0,.664,1.325,6.509,6.509,0,0,0,2.259.991,10.481,10.481,0,0,1,2.5.99,3.788,3.788,0,0,1,1.336,1.261,3.219,3.219,0,0,1,.435,1.7A2.99,2.99,0,0,1,109.9-.76a5.171,5.171,0,0,1-3.243.936,6.015,6.015,0,0,1-2.461-.505,4.142,4.142,0,0,1-1.762-1.384,3.378,3.378,0,0,1-.62-2h1.7a2.2,2.2,0,0,0,.857,1.833,3.608,3.608,0,0,0,2.29.672,3.317,3.317,0,0,0,2.048-.545,1.77,1.77,0,0,0,.712-1.485,1.738,1.738,0,0,0-.659-1.455A7.6,7.6,0,0,0,106.365-5.7Z" transform="translate(738.343 7515.272)" fill="#36dfdf"/>
      <path id="Trazado_130969" data-name="Trazado 130969" d="M10.9-4.061A4.708,4.708,0,0,1,9.4-.927,4.911,4.911,0,0,1,6.047.176,4.509,4.509,0,0,1,2.413-1.45,6.542,6.542,0,0,1,1.046-5.8v-1.23a7.291,7.291,0,0,1,.637-3.138,4.76,4.76,0,0,1,1.806-2.079A5.029,5.029,0,0,1,6.2-12.973a4.624,4.624,0,0,1,3.27,1.138A4.765,4.765,0,0,1,10.9-8.684H9.2a3.677,3.677,0,0,0-.954-2.222A2.885,2.885,0,0,0,6.2-11.593a3.019,3.019,0,0,0-2.536,1.2,5.492,5.492,0,0,0-.918,3.4v1.24a5.645,5.645,0,0,0,.87,3.316A2.812,2.812,0,0,0,6.047-1.2,3.247,3.247,0,0,0,8.2-1.841a3.536,3.536,0,0,0,1-2.219ZM23.045-5.985A7.916,7.916,0,0,1,22.412-2.7a4.793,4.793,0,0,1-1.793,2.14,4.933,4.933,0,0,1-2.707.738,4.891,4.891,0,0,1-2.681-.743,4.908,4.908,0,0,1-1.815-2.118,7.6,7.6,0,0,1-.664-3.186v-.923a7.822,7.822,0,0,1,.642-3.261,4.891,4.891,0,0,1,1.815-2.167,4.87,4.87,0,0,1,2.685-.751,4.961,4.961,0,0,1,2.711.743,4.784,4.784,0,0,1,1.806,2.153,7.955,7.955,0,0,1,.633,3.283Zm-1.679-.826a5.738,5.738,0,0,0-.914-3.494,3.015,3.015,0,0,0-2.558-1.217,2.982,2.982,0,0,0-2.518,1.217,5.62,5.62,0,0,0-.945,3.379v.94a5.746,5.746,0,0,0,.927,3.467,3,3,0,0,0,2.553,1.261,2.983,2.983,0,0,0,2.531-1.191,5.714,5.714,0,0,0,.923-3.415ZM35.411,0h-1.7L27.272-9.861V0h-1.7V-12.8h1.7l6.46,9.905V-12.8h1.679ZM47.25-11.417H43.137V0H41.458V-11.417h-4.1V-12.8h9.9ZM50.959,0H49.271V-12.8h1.688Zm12.92,0h-1.7L55.74-9.861V0h-1.7V-12.8h1.7L62.2-2.892V-12.8h1.679ZM75.885-12.8v8.7a4.082,4.082,0,0,1-1.138,2.962A4.586,4.586,0,0,1,71.684.158l-.448.018A4.79,4.79,0,0,1,67.887-.958a4.055,4.055,0,0,1-1.266-3.12V-12.8h1.67v8.666a2.927,2.927,0,0,0,.765,2.158,2.939,2.939,0,0,0,2.18.769,2.959,2.959,0,0,0,2.193-.765,2.921,2.921,0,0,0,.76-2.153V-12.8ZM88.392-5.985A7.916,7.916,0,0,1,87.759-2.7a4.793,4.793,0,0,1-1.793,2.14,4.933,4.933,0,0,1-2.707.738,4.891,4.891,0,0,1-2.681-.743,4.908,4.908,0,0,1-1.815-2.118A7.6,7.6,0,0,1,78.1-5.871v-.923a7.822,7.822,0,0,1,.642-3.261,4.891,4.891,0,0,1,1.815-2.167,4.87,4.87,0,0,1,2.685-.751,4.961,4.961,0,0,1,2.711.743,4.784,4.784,0,0,1,1.806,2.153,7.955,7.955,0,0,1,.633,3.283Zm-1.679-.826a5.738,5.738,0,0,0-.914-3.494,3.015,3.015,0,0,0-2.558-1.217,2.982,2.982,0,0,0-2.518,1.217,5.62,5.62,0,0,0-.945,3.379v.94a5.746,5.746,0,0,0,.927,3.467,3,3,0,0,0,2.553,1.261A2.983,2.983,0,0,0,85.79-2.448a5.714,5.714,0,0,0,.923-3.415ZM99.932-12.8v8.7a4.082,4.082,0,0,1-1.138,2.962A4.586,4.586,0,0,1,95.73.158l-.448.018A4.79,4.79,0,0,1,91.934-.958a4.055,4.055,0,0,1-1.266-3.12V-12.8h1.67v8.666A2.927,2.927,0,0,0,93.1-1.973a2.939,2.939,0,0,0,2.18.769,2.959,2.959,0,0,0,2.193-.765,2.921,2.921,0,0,0,.76-2.153V-12.8ZM106.365-5.7a7.935,7.935,0,0,1-3.16-1.534,2.93,2.93,0,0,1-.989-2.246,3.1,3.1,0,0,1,1.208-2.5,4.8,4.8,0,0,1,3.142-.989,5.243,5.243,0,0,1,2.351.51,3.866,3.866,0,0,1,1.6,1.406,3.6,3.6,0,0,1,.567,1.96h-1.7a2.34,2.34,0,0,0-.738-1.83,3,3,0,0,0-2.083-.666,3.074,3.074,0,0,0-1.947.55,1.836,1.836,0,0,0-.7,1.528,1.652,1.652,0,0,0,.664,1.325,6.509,6.509,0,0,0,2.259.991,10.481,10.481,0,0,1,2.5.99,3.788,3.788,0,0,1,1.336,1.261,3.219,3.219,0,0,1,.435,1.7A2.99,2.99,0,0,1,109.9-.76a5.171,5.171,0,0,1-3.243.936,6.015,6.015,0,0,1-2.461-.505,4.142,4.142,0,0,1-1.762-1.384,3.378,3.378,0,0,1-.62-2h1.7a2.2,2.2,0,0,0,.857,1.833,3.608,3.608,0,0,0,2.29.672,3.317,3.317,0,0,0,2.048-.545,1.77,1.77,0,0,0,.712-1.485,1.738,1.738,0,0,0-.659-1.455A7.6,7.6,0,0,0,106.365-5.7Z" transform="translate(738.343 7544.924)" fill="#36dfdf"/>
      <path id="Trazado_130972" data-name="Trazado 130972" d="M10.9-4.061A4.708,4.708,0,0,1,9.4-.927,4.911,4.911,0,0,1,6.047.176,4.509,4.509,0,0,1,2.413-1.45,6.542,6.542,0,0,1,1.046-5.8v-1.23a7.291,7.291,0,0,1,.637-3.138,4.76,4.76,0,0,1,1.806-2.079A5.029,5.029,0,0,1,6.2-12.973a4.624,4.624,0,0,1,3.27,1.138A4.765,4.765,0,0,1,10.9-8.684H9.2a3.677,3.677,0,0,0-.954-2.222A2.885,2.885,0,0,0,6.2-11.593a3.019,3.019,0,0,0-2.536,1.2,5.492,5.492,0,0,0-.918,3.4v1.24a5.645,5.645,0,0,0,.87,3.316A2.812,2.812,0,0,0,6.047-1.2,3.247,3.247,0,0,0,8.2-1.841a3.536,3.536,0,0,0,1-2.219ZM23.045-5.985A7.916,7.916,0,0,1,22.412-2.7a4.793,4.793,0,0,1-1.793,2.14,4.933,4.933,0,0,1-2.707.738,4.891,4.891,0,0,1-2.681-.743,4.908,4.908,0,0,1-1.815-2.118,7.6,7.6,0,0,1-.664-3.186v-.923a7.822,7.822,0,0,1,.642-3.261,4.891,4.891,0,0,1,1.815-2.167,4.87,4.87,0,0,1,2.685-.751,4.961,4.961,0,0,1,2.711.743,4.784,4.784,0,0,1,1.806,2.153,7.955,7.955,0,0,1,.633,3.283Zm-1.679-.826a5.738,5.738,0,0,0-.914-3.494,3.015,3.015,0,0,0-2.558-1.217,2.982,2.982,0,0,0-2.518,1.217,5.62,5.62,0,0,0-.945,3.379v.94a5.746,5.746,0,0,0,.927,3.467,3,3,0,0,0,2.553,1.261,2.983,2.983,0,0,0,2.531-1.191,5.714,5.714,0,0,0,.923-3.415ZM35.411,0h-1.7L27.272-9.861V0h-1.7V-12.8h1.7l6.46,9.905V-12.8h1.679ZM47.25-11.417H43.137V0H41.458V-11.417h-4.1V-12.8h9.9ZM50.959,0H49.271V-12.8h1.688Zm12.92,0h-1.7L55.74-9.861V0h-1.7V-12.8h1.7L62.2-2.892V-12.8h1.679ZM75.885-12.8v8.7a4.082,4.082,0,0,1-1.138,2.962A4.586,4.586,0,0,1,71.684.158l-.448.018A4.79,4.79,0,0,1,67.887-.958a4.055,4.055,0,0,1-1.266-3.12V-12.8h1.67v8.666a2.927,2.927,0,0,0,.765,2.158,2.939,2.939,0,0,0,2.18.769,2.959,2.959,0,0,0,2.193-.765,2.921,2.921,0,0,0,.76-2.153V-12.8ZM88.392-5.985A7.916,7.916,0,0,1,87.759-2.7a4.793,4.793,0,0,1-1.793,2.14,4.933,4.933,0,0,1-2.707.738,4.891,4.891,0,0,1-2.681-.743,4.908,4.908,0,0,1-1.815-2.118A7.6,7.6,0,0,1,78.1-5.871v-.923a7.822,7.822,0,0,1,.642-3.261,4.891,4.891,0,0,1,1.815-2.167,4.87,4.87,0,0,1,2.685-.751,4.961,4.961,0,0,1,2.711.743,4.784,4.784,0,0,1,1.806,2.153,7.955,7.955,0,0,1,.633,3.283Zm-1.679-.826a5.738,5.738,0,0,0-.914-3.494,3.015,3.015,0,0,0-2.558-1.217,2.982,2.982,0,0,0-2.518,1.217,5.62,5.62,0,0,0-.945,3.379v.94a5.746,5.746,0,0,0,.927,3.467,3,3,0,0,0,2.553,1.261A2.983,2.983,0,0,0,85.79-2.448a5.714,5.714,0,0,0,.923-3.415ZM99.932-12.8v8.7a4.082,4.082,0,0,1-1.138,2.962A4.586,4.586,0,0,1,95.73.158l-.448.018A4.79,4.79,0,0,1,91.934-.958a4.055,4.055,0,0,1-1.266-3.12V-12.8h1.67v8.666A2.927,2.927,0,0,0,93.1-1.973a2.939,2.939,0,0,0,2.18.769,2.959,2.959,0,0,0,2.193-.765,2.921,2.921,0,0,0,.76-2.153V-12.8ZM106.365-5.7a7.935,7.935,0,0,1-3.16-1.534,2.93,2.93,0,0,1-.989-2.246,3.1,3.1,0,0,1,1.208-2.5,4.8,4.8,0,0,1,3.142-.989,5.243,5.243,0,0,1,2.351.51,3.866,3.866,0,0,1,1.6,1.406,3.6,3.6,0,0,1,.567,1.96h-1.7a2.34,2.34,0,0,0-.738-1.83,3,3,0,0,0-2.083-.666,3.074,3.074,0,0,0-1.947.55,1.836,1.836,0,0,0-.7,1.528,1.652,1.652,0,0,0,.664,1.325,6.509,6.509,0,0,0,2.259.991,10.481,10.481,0,0,1,2.5.99,3.788,3.788,0,0,1,1.336,1.261,3.219,3.219,0,0,1,.435,1.7A2.99,2.99,0,0,1,109.9-.76a5.171,5.171,0,0,1-3.243.936,6.015,6.015,0,0,1-2.461-.505,4.142,4.142,0,0,1-1.762-1.384,3.378,3.378,0,0,1-.62-2h1.7a2.2,2.2,0,0,0,.857,1.833,3.608,3.608,0,0,0,2.29.672,3.317,3.317,0,0,0,2.048-.545,1.77,1.77,0,0,0,.712-1.485,1.738,1.738,0,0,0-.659-1.455A7.6,7.6,0,0,0,106.365-5.7Z" transform="translate(738.343 7573.478)" fill="#e0df3d"/>
      <path id="Trazado_130975" data-name="Trazado 130975" d="M10.9-4.061A4.708,4.708,0,0,1,9.4-.927,4.911,4.911,0,0,1,6.047.176,4.509,4.509,0,0,1,2.413-1.45,6.542,6.542,0,0,1,1.046-5.8v-1.23a7.291,7.291,0,0,1,.637-3.138,4.76,4.76,0,0,1,1.806-2.079A5.029,5.029,0,0,1,6.2-12.973a4.624,4.624,0,0,1,3.27,1.138A4.765,4.765,0,0,1,10.9-8.684H9.2a3.677,3.677,0,0,0-.954-2.222A2.885,2.885,0,0,0,6.2-11.593a3.019,3.019,0,0,0-2.536,1.2,5.492,5.492,0,0,0-.918,3.4v1.24a5.645,5.645,0,0,0,.87,3.316A2.812,2.812,0,0,0,6.047-1.2,3.247,3.247,0,0,0,8.2-1.841a3.536,3.536,0,0,0,1-2.219ZM23.045-5.985A7.916,7.916,0,0,1,22.412-2.7a4.793,4.793,0,0,1-1.793,2.14,4.933,4.933,0,0,1-2.707.738,4.891,4.891,0,0,1-2.681-.743,4.908,4.908,0,0,1-1.815-2.118,7.6,7.6,0,0,1-.664-3.186v-.923a7.822,7.822,0,0,1,.642-3.261,4.891,4.891,0,0,1,1.815-2.167,4.87,4.87,0,0,1,2.685-.751,4.961,4.961,0,0,1,2.711.743,4.784,4.784,0,0,1,1.806,2.153,7.955,7.955,0,0,1,.633,3.283Zm-1.679-.826a5.738,5.738,0,0,0-.914-3.494,3.015,3.015,0,0,0-2.558-1.217,2.982,2.982,0,0,0-2.518,1.217,5.62,5.62,0,0,0-.945,3.379v.94a5.746,5.746,0,0,0,.927,3.467,3,3,0,0,0,2.553,1.261,2.983,2.983,0,0,0,2.531-1.191,5.714,5.714,0,0,0,.923-3.415ZM35.411,0h-1.7L27.272-9.861V0h-1.7V-12.8h1.7l6.46,9.905V-12.8h1.679ZM47.25-11.417H43.137V0H41.458V-11.417h-4.1V-12.8h9.9ZM50.959,0H49.271V-12.8h1.688Zm12.92,0h-1.7L55.74-9.861V0h-1.7V-12.8h1.7L62.2-2.892V-12.8h1.679ZM75.885-12.8v8.7a4.082,4.082,0,0,1-1.138,2.962A4.586,4.586,0,0,1,71.684.158l-.448.018A4.79,4.79,0,0,1,67.887-.958a4.055,4.055,0,0,1-1.266-3.12V-12.8h1.67v8.666a2.927,2.927,0,0,0,.765,2.158,2.939,2.939,0,0,0,2.18.769,2.959,2.959,0,0,0,2.193-.765,2.921,2.921,0,0,0,.76-2.153V-12.8ZM88.392-5.985A7.916,7.916,0,0,1,87.759-2.7a4.793,4.793,0,0,1-1.793,2.14,4.933,4.933,0,0,1-2.707.738,4.891,4.891,0,0,1-2.681-.743,4.908,4.908,0,0,1-1.815-2.118A7.6,7.6,0,0,1,78.1-5.871v-.923a7.822,7.822,0,0,1,.642-3.261,4.891,4.891,0,0,1,1.815-2.167,4.87,4.87,0,0,1,2.685-.751,4.961,4.961,0,0,1,2.711.743,4.784,4.784,0,0,1,1.806,2.153,7.955,7.955,0,0,1,.633,3.283Zm-1.679-.826a5.738,5.738,0,0,0-.914-3.494,3.015,3.015,0,0,0-2.558-1.217,2.982,2.982,0,0,0-2.518,1.217,5.62,5.62,0,0,0-.945,3.379v.94a5.746,5.746,0,0,0,.927,3.467,3,3,0,0,0,2.553,1.261A2.983,2.983,0,0,0,85.79-2.448a5.714,5.714,0,0,0,.923-3.415ZM99.932-12.8v8.7a4.082,4.082,0,0,1-1.138,2.962A4.586,4.586,0,0,1,95.73.158l-.448.018A4.79,4.79,0,0,1,91.934-.958a4.055,4.055,0,0,1-1.266-3.12V-12.8h1.67v8.666A2.927,2.927,0,0,0,93.1-1.973a2.939,2.939,0,0,0,2.18.769,2.959,2.959,0,0,0,2.193-.765,2.921,2.921,0,0,0,.76-2.153V-12.8ZM106.365-5.7a7.935,7.935,0,0,1-3.16-1.534,2.93,2.93,0,0,1-.989-2.246,3.1,3.1,0,0,1,1.208-2.5,4.8,4.8,0,0,1,3.142-.989,5.243,5.243,0,0,1,2.351.51,3.866,3.866,0,0,1,1.6,1.406,3.6,3.6,0,0,1,.567,1.96h-1.7a2.34,2.34,0,0,0-.738-1.83,3,3,0,0,0-2.083-.666,3.074,3.074,0,0,0-1.947.55,1.836,1.836,0,0,0-.7,1.528,1.652,1.652,0,0,0,.664,1.325,6.509,6.509,0,0,0,2.259.991,10.481,10.481,0,0,1,2.5.99,3.788,3.788,0,0,1,1.336,1.261,3.219,3.219,0,0,1,.435,1.7A2.99,2.99,0,0,1,109.9-.76a5.171,5.171,0,0,1-3.243.936,6.015,6.015,0,0,1-2.461-.505,4.142,4.142,0,0,1-1.762-1.384,3.378,3.378,0,0,1-.62-2h1.7a2.2,2.2,0,0,0,.857,1.833,3.608,3.608,0,0,0,2.29.672,3.317,3.317,0,0,0,2.048-.545,1.77,1.77,0,0,0,.712-1.485,1.738,1.738,0,0,0-.659-1.455A7.6,7.6,0,0,0,106.365-5.7Z" transform="translate(738.343 7598.737)" fill="#fafafa"/>
      <line id="Línea_1046" data-name="Línea 1046" x2="375.973" transform="translate(904.254 7508.39)" fill="none" stroke="#36dfdf" stroke-miterlimit="10" stroke-width="1"/>
      <line id="Línea_1047" data-name="Línea 1047" x2="375.973" transform="translate(904.254 7539.14)" fill="none" stroke="#36dfdf" stroke-miterlimit="10" stroke-width="1"/>
      <line id="Línea_1048" data-name="Línea 1048" x2="375.973" transform="translate(904.254 7569.89)" fill="none" stroke="#e0df3d" stroke-miterlimit="10" stroke-width="1"/>
      <line id="Línea_1049" data-name="Línea 1049" x2="375.973" transform="translate(904.254 7594.051)" fill="none" stroke="#fafafa" stroke-miterlimit="10" stroke-width="1"/>
      <path id="Trazado_130980" data-name="Trazado 130980" d="M3.665-12.8,7.849-2.355,12.032-12.8h2.188V0H12.533V-4.983l.158-5.379L8.49,0H7.2L3.006-10.336l.167,5.353V0H1.485V-12.8Zm20.6,9.448H18.905L17.7,0h-1.74l4.887-12.8h1.477L27.22,0H25.488Zm-4.852-1.38h4.351l-2.18-5.985Zm18.976,3.05A3.9,3.9,0,0,1,36.576-.286a7.331,7.331,0,0,1-2.711.461,5.258,5.258,0,0,1-2.777-.734A4.889,4.889,0,0,1,29.21-2.646a7.21,7.21,0,0,1-.681-3.138V-6.9a6.73,6.73,0,0,1,1.349-4.482,4.7,4.7,0,0,1,3.792-1.591A4.856,4.856,0,0,1,36.9-11.949a4.461,4.461,0,0,1,1.494,2.9H36.7a2.79,2.79,0,0,0-3.023-2.549A2.987,2.987,0,0,0,31.109-10.4a5.82,5.82,0,0,0-.883,3.453V-5.9a5.454,5.454,0,0,0,.984,3.426A3.191,3.191,0,0,0,33.873-1.2a5.882,5.882,0,0,0,1.661-.21,2.569,2.569,0,0,0,1.178-.71V-4.992H33.75v-1.38h4.641ZM48.437-5.915H42.891V-1.38h6.442V0H41.2V-12.8h8.042v1.38H42.891v4.122h5.546ZM61.269,0h-1.7L53.13-9.861V0h-1.7V-12.8h1.7l6.46,9.905V-12.8h1.679ZM73.107-11.417H68.994V0H67.315V-11.417h-4.1V-12.8h9.9Zm8.271,8.068H76.017L74.813,0h-1.74l4.887-12.8h1.477L84.331,0H82.6Zm-4.852-1.38h4.351L78.7-10.714Z" transform="translate(552 7721.416)" fill="#f265f1"/>
      <path id="Trazado_130979" data-name="Trazado 130979" d="M8.543-5.651H3.173V0H1.485V-12.8H9.413v1.38H3.173v4.386h5.37Zm12.735-.334A7.916,7.916,0,0,1,20.646-2.7a4.793,4.793,0,0,1-1.793,2.14,4.933,4.933,0,0,1-2.707.738,4.891,4.891,0,0,1-2.681-.743A4.908,4.908,0,0,1,11.65-2.685a7.6,7.6,0,0,1-.664-3.186v-.923a7.822,7.822,0,0,1,.642-3.261,4.891,4.891,0,0,1,1.815-2.167,4.87,4.87,0,0,1,2.685-.751,4.961,4.961,0,0,1,2.711.743,4.784,4.784,0,0,1,1.806,2.153,7.955,7.955,0,0,1,.633,3.283ZM19.6-6.812a5.738,5.738,0,0,0-.914-3.494,3.015,3.015,0,0,0-2.558-1.217,2.982,2.982,0,0,0-2.518,1.217,5.62,5.62,0,0,0-.945,3.379v.94a5.746,5.746,0,0,0,.927,3.467,3,3,0,0,0,2.553,1.261,2.983,2.983,0,0,0,2.531-1.191A5.714,5.714,0,0,0,19.6-5.862Zm8.9,1.635H25.5V0H23.8V-12.8h4.236a5.014,5.014,0,0,1,3.327.984,3.542,3.542,0,0,1,1.165,2.865,3.445,3.445,0,0,1-.646,2.083,3.856,3.856,0,0,1-1.8,1.327L33.091-.105V0H31.28ZM25.5-6.557H28.09a2.924,2.924,0,0,0,2-.652,2.2,2.2,0,0,0,.743-1.743,2.32,2.32,0,0,0-.708-1.823,3,3,0,0,0-2.043-.643H25.5ZM37.072-12.8,41.256-2.355,45.439-12.8h2.188V0H45.94V-4.983l.158-5.379L41.9,0H40.605L36.413-10.336l.167,5.353V0H34.893V-12.8Zm20.6,9.448H52.313L51.108,0h-1.74l4.887-12.8h1.477L60.627,0H58.9Zm-4.852-1.38h4.351l-2.18-5.985Zm17.235-6.688H65.944V0H64.266V-11.417h-4.1V-12.8h9.9Zm11.5,5.432A7.916,7.916,0,0,1,80.921-2.7a4.793,4.793,0,0,1-1.793,2.14,4.933,4.933,0,0,1-2.707.738A4.891,4.891,0,0,1,73.74-.567a4.908,4.908,0,0,1-1.815-2.118,7.6,7.6,0,0,1-.664-3.186v-.923a7.822,7.822,0,0,1,.642-3.261,4.891,4.891,0,0,1,1.815-2.167,4.87,4.87,0,0,1,2.685-.751,4.961,4.961,0,0,1,2.711.743,4.784,4.784,0,0,1,1.806,2.153,7.955,7.955,0,0,1,.633,3.283Zm-1.679-.826a5.738,5.738,0,0,0-.914-3.494A3.015,3.015,0,0,0,76.4-11.522a2.982,2.982,0,0,0-2.518,1.217,5.62,5.62,0,0,0-.945,3.379v.94a5.746,5.746,0,0,0,.927,3.467,3,3,0,0,0,2.553,1.261,2.983,2.983,0,0,0,2.531-1.191,5.714,5.714,0,0,0,.923-3.415Z" transform="translate(343 7721.416)" fill="#f265f1"/>
      <path id="Trazado_130981" data-name="Trazado 130981" d="M10.9-4.061A4.708,4.708,0,0,1,9.4-.927,4.911,4.911,0,0,1,6.047.176,4.509,4.509,0,0,1,2.413-1.45,6.542,6.542,0,0,1,1.046-5.8v-1.23a7.291,7.291,0,0,1,.637-3.138,4.76,4.76,0,0,1,1.806-2.079A5.029,5.029,0,0,1,6.2-12.973a4.624,4.624,0,0,1,3.27,1.138A4.765,4.765,0,0,1,10.9-8.684H9.2a3.677,3.677,0,0,0-.954-2.222A2.885,2.885,0,0,0,6.2-11.593a3.019,3.019,0,0,0-2.536,1.2,5.492,5.492,0,0,0-.918,3.4v1.24a5.645,5.645,0,0,0,.87,3.316A2.812,2.812,0,0,0,6.047-1.2,3.247,3.247,0,0,0,8.2-1.841a3.536,3.536,0,0,0,1-2.219ZM23.045-5.985A7.916,7.916,0,0,1,22.412-2.7a4.793,4.793,0,0,1-1.793,2.14,4.933,4.933,0,0,1-2.707.738,4.891,4.891,0,0,1-2.681-.743,4.908,4.908,0,0,1-1.815-2.118,7.6,7.6,0,0,1-.664-3.186v-.923a7.822,7.822,0,0,1,.642-3.261,4.891,4.891,0,0,1,1.815-2.167,4.87,4.87,0,0,1,2.685-.751,4.961,4.961,0,0,1,2.711.743,4.784,4.784,0,0,1,1.806,2.153,7.955,7.955,0,0,1,.633,3.283Zm-1.679-.826a5.738,5.738,0,0,0-.914-3.494,3.015,3.015,0,0,0-2.558-1.217,2.982,2.982,0,0,0-2.518,1.217,5.62,5.62,0,0,0-.945,3.379v.94a5.746,5.746,0,0,0,.927,3.467,3,3,0,0,0,2.553,1.261,2.983,2.983,0,0,0,2.531-1.191,5.714,5.714,0,0,0,.923-3.415ZM35.411,0h-1.7L27.272-9.861V0h-1.7V-12.8h1.7l6.46,9.905V-12.8h1.679ZM47.25-11.417H43.137V0H41.458V-11.417h-4.1V-12.8h9.9ZM50.959,0H49.271V-12.8h1.688Zm12.92,0h-1.7L55.74-9.861V0h-1.7V-12.8h1.7L62.2-2.892V-12.8h1.679ZM75.885-12.8v8.7a4.082,4.082,0,0,1-1.138,2.962A4.586,4.586,0,0,1,71.684.158l-.448.018A4.79,4.79,0,0,1,67.887-.958a4.055,4.055,0,0,1-1.266-3.12V-12.8h1.67v8.666a2.927,2.927,0,0,0,.765,2.158,2.939,2.939,0,0,0,2.18.769,2.959,2.959,0,0,0,2.193-.765,2.921,2.921,0,0,0,.76-2.153V-12.8ZM88.392-5.985A7.916,7.916,0,0,1,87.759-2.7a4.793,4.793,0,0,1-1.793,2.14,4.933,4.933,0,0,1-2.707.738,4.891,4.891,0,0,1-2.681-.743,4.908,4.908,0,0,1-1.815-2.118A7.6,7.6,0,0,1,78.1-5.871v-.923a7.822,7.822,0,0,1,.642-3.261,4.891,4.891,0,0,1,1.815-2.167,4.87,4.87,0,0,1,2.685-.751,4.961,4.961,0,0,1,2.711.743,4.784,4.784,0,0,1,1.806,2.153,7.955,7.955,0,0,1,.633,3.283Zm-1.679-.826a5.738,5.738,0,0,0-.914-3.494,3.015,3.015,0,0,0-2.558-1.217,2.982,2.982,0,0,0-2.518,1.217,5.62,5.62,0,0,0-.945,3.379v.94a5.746,5.746,0,0,0,.927,3.467,3,3,0,0,0,2.553,1.261A2.983,2.983,0,0,0,85.79-2.448a5.714,5.714,0,0,0,.923-3.415ZM99.932-12.8v8.7a4.082,4.082,0,0,1-1.138,2.962A4.586,4.586,0,0,1,95.73.158l-.448.018A4.79,4.79,0,0,1,91.934-.958a4.055,4.055,0,0,1-1.266-3.12V-12.8h1.67v8.666A2.927,2.927,0,0,0,93.1-1.973a2.939,2.939,0,0,0,2.18.769,2.959,2.959,0,0,0,2.193-.765,2.921,2.921,0,0,0,.76-2.153V-12.8ZM106.365-5.7a7.935,7.935,0,0,1-3.16-1.534,2.93,2.93,0,0,1-.989-2.246,3.1,3.1,0,0,1,1.208-2.5,4.8,4.8,0,0,1,3.142-.989,5.243,5.243,0,0,1,2.351.51,3.866,3.866,0,0,1,1.6,1.406,3.6,3.6,0,0,1,.567,1.96h-1.7a2.34,2.34,0,0,0-.738-1.83,3,3,0,0,0-2.083-.666,3.074,3.074,0,0,0-1.947.55,1.836,1.836,0,0,0-.7,1.528,1.652,1.652,0,0,0,.664,1.325,6.509,6.509,0,0,0,2.259.991,10.481,10.481,0,0,1,2.5.99,3.788,3.788,0,0,1,1.336,1.261,3.219,3.219,0,0,1,.435,1.7A2.99,2.99,0,0,1,109.9-.76a5.171,5.171,0,0,1-3.243.936,6.015,6.015,0,0,1-2.461-.505,4.142,4.142,0,0,1-1.762-1.384,3.378,3.378,0,0,1-.62-2h1.7a2.2,2.2,0,0,0,.857,1.833,3.608,3.608,0,0,0,2.29.672,3.317,3.317,0,0,0,2.048-.545,1.77,1.77,0,0,0,.712-1.485,1.738,1.738,0,0,0-.659-1.455A7.6,7.6,0,0,0,106.365-5.7Z" transform="translate(737.72 7721.416)" fill="#f265f1"/>
      <line id="Línea_1050" data-name="Línea 1050" x2="375.973" transform="translate(904.254 7712.43)" fill="none" stroke="#f265f1" stroke-miterlimit="10" stroke-width="1"/>
      <path id="Trazado_130986" data-name="Trazado 130986" d="M1.485,0V-12.8H5.669a4.856,4.856,0,0,1,3.133.861,3.1,3.1,0,0,1,1.05,2.549A2.6,2.6,0,0,1,9.343-7.8,3.3,3.3,0,0,1,7.954-6.732a2.968,2.968,0,0,1,1.639,1.1,3.166,3.166,0,0,1,.6,1.938A3.423,3.423,0,0,1,9.079-.984,4.616,4.616,0,0,1,5.924,0ZM3.173-5.985V-1.38H5.959a2.683,2.683,0,0,0,1.859-.611A2.145,2.145,0,0,0,8.5-3.674q0-2.312-2.514-2.312Zm0-1.354H5.722a2.672,2.672,0,0,0,1.771-.555A1.86,1.86,0,0,0,8.156-9.4a1.829,1.829,0,0,0-.615-1.537,3.021,3.021,0,0,0-1.872-.48h-2.5ZM14.388-1.38h6.064V0H12.691V-12.8h1.7ZM29.61-3.349H24.249L23.045,0H21.3l4.887-12.8h1.477L32.563,0H30.832Zm-4.852-1.38h4.351l-2.18-5.985Zm18.94.668A4.708,4.708,0,0,1,42.2-.927a4.911,4.911,0,0,1-3.353,1.1A4.509,4.509,0,0,1,35.213-1.45,6.542,6.542,0,0,1,33.847-5.8v-1.23a7.291,7.291,0,0,1,.637-3.138,4.76,4.76,0,0,1,1.806-2.079A5.029,5.029,0,0,1,39-12.973a4.624,4.624,0,0,1,3.27,1.138A4.765,4.765,0,0,1,43.7-8.684H42a3.677,3.677,0,0,0-.954-2.222A2.885,2.885,0,0,0,39-11.593a3.019,3.019,0,0,0-2.536,1.2,5.492,5.492,0,0,0-.918,3.4v1.24a5.645,5.645,0,0,0,.87,3.316A2.812,2.812,0,0,0,38.848-1.2a3.247,3.247,0,0,0,2.158-.637,3.536,3.536,0,0,0,1-2.219Zm5.555-1.89L47.689-4.324V0H46V-12.8h1.688v6.328L53.376-12.8h2.039L50.379-7.146,55.811,0H53.789Z" transform="translate(566 7842.098)" fill="#fafafa"/>
      <path id="Trazado_130985" data-name="Trazado 130985" d="M3.3,0H1.608V-12.8H3.3ZM15.223-11.417H11.109V0H9.431V-11.417h-4.1V-12.8h9.9Zm9.132,5.5H18.809V-1.38h6.442V0h-8.13V-12.8h8.042v1.38H18.809v4.122h5.546ZM29.531-12.8,33.715-2.355,37.9-12.8h2.188V0H38.4V-4.983l.158-5.379L34.356,0H33.064L28.872-10.336l.167,5.353V0H27.352V-12.8Z" transform="translate(363 7842.098)" fill="#fafafa"/>
      <path id="Trazado_130987" data-name="Trazado 130987" d="M10.9-4.061A4.708,4.708,0,0,1,9.4-.927,4.911,4.911,0,0,1,6.047.176,4.509,4.509,0,0,1,2.413-1.45,6.542,6.542,0,0,1,1.046-5.8v-1.23a7.291,7.291,0,0,1,.637-3.138,4.76,4.76,0,0,1,1.806-2.079A5.029,5.029,0,0,1,6.2-12.973a4.624,4.624,0,0,1,3.27,1.138A4.765,4.765,0,0,1,10.9-8.684H9.2a3.677,3.677,0,0,0-.954-2.222A2.885,2.885,0,0,0,6.2-11.593a3.019,3.019,0,0,0-2.536,1.2,5.492,5.492,0,0,0-.918,3.4v1.24a5.645,5.645,0,0,0,.87,3.316A2.812,2.812,0,0,0,6.047-1.2,3.247,3.247,0,0,0,8.2-1.841a3.536,3.536,0,0,0,1-2.219ZM23.045-5.985A7.916,7.916,0,0,1,22.412-2.7a4.793,4.793,0,0,1-1.793,2.14,4.933,4.933,0,0,1-2.707.738,4.891,4.891,0,0,1-2.681-.743,4.908,4.908,0,0,1-1.815-2.118,7.6,7.6,0,0,1-.664-3.186v-.923a7.822,7.822,0,0,1,.642-3.261,4.891,4.891,0,0,1,1.815-2.167,4.87,4.87,0,0,1,2.685-.751,4.961,4.961,0,0,1,2.711.743,4.784,4.784,0,0,1,1.806,2.153,7.955,7.955,0,0,1,.633,3.283Zm-1.679-.826a5.738,5.738,0,0,0-.914-3.494,3.015,3.015,0,0,0-2.558-1.217,2.982,2.982,0,0,0-2.518,1.217,5.62,5.62,0,0,0-.945,3.379v.94a5.746,5.746,0,0,0,.927,3.467,3,3,0,0,0,2.553,1.261,2.983,2.983,0,0,0,2.531-1.191,5.714,5.714,0,0,0,.923-3.415ZM35.411,0h-1.7L27.272-9.861V0h-1.7V-12.8h1.7l6.46,9.905V-12.8h1.679ZM47.25-11.417H43.137V0H41.458V-11.417h-4.1V-12.8h9.9ZM50.959,0H49.271V-12.8h1.688Zm12.92,0h-1.7L55.74-9.861V0h-1.7V-12.8h1.7L62.2-2.892V-12.8h1.679ZM75.885-12.8v8.7a4.082,4.082,0,0,1-1.138,2.962A4.586,4.586,0,0,1,71.684.158l-.448.018A4.79,4.79,0,0,1,67.887-.958a4.055,4.055,0,0,1-1.266-3.12V-12.8h1.67v8.666a2.927,2.927,0,0,0,.765,2.158,2.939,2.939,0,0,0,2.18.769,2.959,2.959,0,0,0,2.193-.765,2.921,2.921,0,0,0,.76-2.153V-12.8ZM88.392-5.985A7.916,7.916,0,0,1,87.759-2.7a4.793,4.793,0,0,1-1.793,2.14,4.933,4.933,0,0,1-2.707.738,4.891,4.891,0,0,1-2.681-.743,4.908,4.908,0,0,1-1.815-2.118A7.6,7.6,0,0,1,78.1-5.871v-.923a7.822,7.822,0,0,1,.642-3.261,4.891,4.891,0,0,1,1.815-2.167,4.87,4.87,0,0,1,2.685-.751,4.961,4.961,0,0,1,2.711.743,4.784,4.784,0,0,1,1.806,2.153,7.955,7.955,0,0,1,.633,3.283Zm-1.679-.826a5.738,5.738,0,0,0-.914-3.494,3.015,3.015,0,0,0-2.558-1.217,2.982,2.982,0,0,0-2.518,1.217,5.62,5.62,0,0,0-.945,3.379v.94a5.746,5.746,0,0,0,.927,3.467,3,3,0,0,0,2.553,1.261A2.983,2.983,0,0,0,85.79-2.448a5.714,5.714,0,0,0,.923-3.415ZM99.932-12.8v8.7a4.082,4.082,0,0,1-1.138,2.962A4.586,4.586,0,0,1,95.73.158l-.448.018A4.79,4.79,0,0,1,91.934-.958a4.055,4.055,0,0,1-1.266-3.12V-12.8h1.67v8.666A2.927,2.927,0,0,0,93.1-1.973a2.939,2.939,0,0,0,2.18.769,2.959,2.959,0,0,0,2.193-.765,2.921,2.921,0,0,0,.76-2.153V-12.8ZM106.365-5.7a7.935,7.935,0,0,1-3.16-1.534,2.93,2.93,0,0,1-.989-2.246,3.1,3.1,0,0,1,1.208-2.5,4.8,4.8,0,0,1,3.142-.989,5.243,5.243,0,0,1,2.351.51,3.866,3.866,0,0,1,1.6,1.406,3.6,3.6,0,0,1,.567,1.96h-1.7a2.34,2.34,0,0,0-.738-1.83,3,3,0,0,0-2.083-.666,3.074,3.074,0,0,0-1.947.55,1.836,1.836,0,0,0-.7,1.528,1.652,1.652,0,0,0,.664,1.325,6.509,6.509,0,0,0,2.259.991,10.481,10.481,0,0,1,2.5.99,3.788,3.788,0,0,1,1.336,1.261,3.219,3.219,0,0,1,.435,1.7A2.99,2.99,0,0,1,109.9-.76a5.171,5.171,0,0,1-3.243.936,6.015,6.015,0,0,1-2.461-.505,4.142,4.142,0,0,1-1.762-1.384,3.378,3.378,0,0,1-.62-2h1.7a2.2,2.2,0,0,0,.857,1.833,3.608,3.608,0,0,0,2.29.672,3.317,3.317,0,0,0,2.048-.545,1.77,1.77,0,0,0,.712-1.485,1.738,1.738,0,0,0-.659-1.455A7.6,7.6,0,0,0,106.365-5.7Z" transform="translate(736.945 7842.098)" fill="#fafafa"/>
      <line id="Línea_1051" data-name="Línea 1051" x2="375.973" transform="translate(904.254 7834.822)" fill="none" stroke="#fafafa" stroke-miterlimit="10" stroke-width="1"/>
      <path id="Trazado_130992" data-name="Trazado 130992" d="M1.485,0V-12.8H5.669a4.856,4.856,0,0,1,3.133.861,3.1,3.1,0,0,1,1.05,2.549A2.6,2.6,0,0,1,9.343-7.8,3.3,3.3,0,0,1,7.954-6.732a2.968,2.968,0,0,1,1.639,1.1,3.166,3.166,0,0,1,.6,1.938A3.423,3.423,0,0,1,9.079-.984,4.616,4.616,0,0,1,5.924,0ZM3.173-5.985V-1.38H5.959a2.683,2.683,0,0,0,1.859-.611A2.145,2.145,0,0,0,8.5-3.674q0-2.312-2.514-2.312Zm0-1.354H5.722a2.672,2.672,0,0,0,1.771-.555A1.86,1.86,0,0,0,8.156-9.4a1.829,1.829,0,0,0-.615-1.537,3.021,3.021,0,0,0-1.872-.48h-2.5ZM14.388-1.38h6.064V0H12.691V-12.8h1.7ZM29.61-3.349H24.249L23.045,0H21.3l4.887-12.8h1.477L32.563,0H30.832Zm-4.852-1.38h4.351l-2.18-5.985Zm18.94.668A4.708,4.708,0,0,1,42.2-.927a4.911,4.911,0,0,1-3.353,1.1A4.509,4.509,0,0,1,35.213-1.45,6.542,6.542,0,0,1,33.847-5.8v-1.23a7.291,7.291,0,0,1,.637-3.138,4.76,4.76,0,0,1,1.806-2.079A5.029,5.029,0,0,1,39-12.973a4.624,4.624,0,0,1,3.27,1.138A4.765,4.765,0,0,1,43.7-8.684H42a3.677,3.677,0,0,0-.954-2.222A2.885,2.885,0,0,0,39-11.593a3.019,3.019,0,0,0-2.536,1.2,5.492,5.492,0,0,0-.918,3.4v1.24a5.645,5.645,0,0,0,.87,3.316A2.812,2.812,0,0,0,38.848-1.2a3.247,3.247,0,0,0,2.158-.637,3.536,3.536,0,0,0,1-2.219Zm5.555-1.89L47.689-4.324V0H46V-12.8h1.688v6.328L53.376-12.8h2.039L50.379-7.146,55.811,0H53.789Z" transform="translate(565.013 7967.961) rotate(-0.042)" fill="#fafafa"/>
      <path id="Trazado_130991" data-name="Trazado 130991" d="M10.327-11.417H6.214V0H4.535V-11.417H.431V-12.8h9.9Zm9.132,5.5H13.913V-1.38h6.442V0h-8.13V-12.8h8.042v1.38H13.913v4.122h5.546Zm7.172-1.978L29.7-12.8h1.986L27.642-6.451,31.781,0h-2L26.631-4.992,23.467,0h-2L25.62-6.451,21.568-12.8h1.978Zm15.952-3.524H38.47V0H36.791V-11.417h-4.1V-12.8h9.9Zm11.5,5.432A7.916,7.916,0,0,1,53.446-2.7a4.793,4.793,0,0,1-1.793,2.14,4.933,4.933,0,0,1-2.707.738,4.891,4.891,0,0,1-2.681-.743,4.908,4.908,0,0,1-1.815-2.118,7.6,7.6,0,0,1-.664-3.186v-.923a7.822,7.822,0,0,1,.642-3.261,4.891,4.891,0,0,1,1.815-2.167,4.87,4.87,0,0,1,2.685-.751,4.961,4.961,0,0,1,2.711.743,4.784,4.784,0,0,1,1.806,2.153,7.955,7.955,0,0,1,.633,3.283ZM52.4-6.812a5.738,5.738,0,0,0-.914-3.494,3.015,3.015,0,0,0-2.558-1.217,2.982,2.982,0,0,0-2.518,1.217,5.62,5.62,0,0,0-.945,3.379v.94a5.746,5.746,0,0,0,.927,3.467,3,3,0,0,0,2.553,1.261,2.983,2.983,0,0,0,2.531-1.191A5.714,5.714,0,0,0,52.4-5.862Z" transform="translate(356.013 7968.124) rotate(-0.042)" fill="#fafafa"/>
      <path id="Trazado_130993" data-name="Trazado 130993" d="M10.9-4.061A4.708,4.708,0,0,1,9.4-.927,4.911,4.911,0,0,1,6.047.176,4.509,4.509,0,0,1,2.413-1.45,6.542,6.542,0,0,1,1.046-5.8v-1.23a7.291,7.291,0,0,1,.637-3.138,4.76,4.76,0,0,1,1.806-2.079A5.029,5.029,0,0,1,6.2-12.973a4.624,4.624,0,0,1,3.27,1.138A4.765,4.765,0,0,1,10.9-8.684H9.2a3.677,3.677,0,0,0-.954-2.222A2.885,2.885,0,0,0,6.2-11.593a3.019,3.019,0,0,0-2.536,1.2,5.492,5.492,0,0,0-.918,3.4v1.24a5.645,5.645,0,0,0,.87,3.316A2.812,2.812,0,0,0,6.047-1.2,3.247,3.247,0,0,0,8.2-1.841a3.536,3.536,0,0,0,1-2.219ZM23.045-5.985A7.916,7.916,0,0,1,22.412-2.7a4.793,4.793,0,0,1-1.793,2.14,4.933,4.933,0,0,1-2.707.738,4.891,4.891,0,0,1-2.681-.743,4.908,4.908,0,0,1-1.815-2.118,7.6,7.6,0,0,1-.664-3.186v-.923a7.822,7.822,0,0,1,.642-3.261,4.891,4.891,0,0,1,1.815-2.167,4.87,4.87,0,0,1,2.685-.751,4.961,4.961,0,0,1,2.711.743,4.784,4.784,0,0,1,1.806,2.153,7.955,7.955,0,0,1,.633,3.283Zm-1.679-.826a5.738,5.738,0,0,0-.914-3.494,3.015,3.015,0,0,0-2.558-1.217,2.982,2.982,0,0,0-2.518,1.217,5.62,5.62,0,0,0-.945,3.379v.94a5.746,5.746,0,0,0,.927,3.467,3,3,0,0,0,2.553,1.261,2.983,2.983,0,0,0,2.531-1.191,5.714,5.714,0,0,0,.923-3.415ZM35.411,0h-1.7L27.272-9.861V0h-1.7V-12.8h1.7l6.46,9.905V-12.8h1.679ZM47.25-11.417H43.137V0H41.458V-11.417h-4.1V-12.8h9.9ZM50.959,0H49.271V-12.8h1.688Zm12.92,0h-1.7L55.74-9.861V0h-1.7V-12.8h1.7L62.2-2.892V-12.8h1.679ZM75.885-12.8v8.7a4.082,4.082,0,0,1-1.138,2.962A4.586,4.586,0,0,1,71.684.158l-.448.018A4.79,4.79,0,0,1,67.887-.958a4.055,4.055,0,0,1-1.266-3.12V-12.8h1.67v8.666a2.927,2.927,0,0,0,.765,2.158,2.939,2.939,0,0,0,2.18.769,2.959,2.959,0,0,0,2.193-.765,2.921,2.921,0,0,0,.76-2.153V-12.8ZM88.392-5.985A7.916,7.916,0,0,1,87.759-2.7a4.793,4.793,0,0,1-1.793,2.14,4.933,4.933,0,0,1-2.707.738,4.891,4.891,0,0,1-2.681-.743,4.908,4.908,0,0,1-1.815-2.118A7.6,7.6,0,0,1,78.1-5.871v-.923a7.822,7.822,0,0,1,.642-3.261,4.891,4.891,0,0,1,1.815-2.167,4.87,4.87,0,0,1,2.685-.751,4.961,4.961,0,0,1,2.711.743,4.784,4.784,0,0,1,1.806,2.153,7.955,7.955,0,0,1,.633,3.283Zm-1.679-.826a5.738,5.738,0,0,0-.914-3.494,3.015,3.015,0,0,0-2.558-1.217,2.982,2.982,0,0,0-2.518,1.217,5.62,5.62,0,0,0-.945,3.379v.94a5.746,5.746,0,0,0,.927,3.467,3,3,0,0,0,2.553,1.261A2.983,2.983,0,0,0,85.79-2.448a5.714,5.714,0,0,0,.923-3.415ZM99.932-12.8v8.7a4.082,4.082,0,0,1-1.138,2.962A4.586,4.586,0,0,1,95.73.158l-.448.018A4.79,4.79,0,0,1,91.934-.958a4.055,4.055,0,0,1-1.266-3.12V-12.8h1.67v8.666A2.927,2.927,0,0,0,93.1-1.973a2.939,2.939,0,0,0,2.18.769,2.959,2.959,0,0,0,2.193-.765,2.921,2.921,0,0,0,.76-2.153V-12.8ZM106.365-5.7a7.935,7.935,0,0,1-3.16-1.534,2.93,2.93,0,0,1-.989-2.246,3.1,3.1,0,0,1,1.208-2.5,4.8,4.8,0,0,1,3.142-.989,5.243,5.243,0,0,1,2.351.51,3.866,3.866,0,0,1,1.6,1.406,3.6,3.6,0,0,1,.567,1.96h-1.7a2.34,2.34,0,0,0-.738-1.83,3,3,0,0,0-2.083-.666,3.074,3.074,0,0,0-1.947.55,1.836,1.836,0,0,0-.7,1.528,1.652,1.652,0,0,0,.664,1.325,6.509,6.509,0,0,0,2.259.991,10.481,10.481,0,0,1,2.5.99,3.788,3.788,0,0,1,1.336,1.261,3.219,3.219,0,0,1,.435,1.7A2.99,2.99,0,0,1,109.9-.76a5.171,5.171,0,0,1-3.243.936,6.015,6.015,0,0,1-2.461-.505,4.142,4.142,0,0,1-1.762-1.384,3.378,3.378,0,0,1-.62-2h1.7a2.2,2.2,0,0,0,.857,1.833,3.608,3.608,0,0,0,2.29.672,3.317,3.317,0,0,0,2.048-.545,1.77,1.77,0,0,0,.712-1.485,1.738,1.738,0,0,0-.659-1.455A7.6,7.6,0,0,0,106.365-5.7Z" transform="translate(737.159 7967.842) rotate(-0.042)" fill="#fafafa"/>
      <line id="Línea_1052" data-name="Línea 1052" x2="375.973" transform="translate(904.254 7963.46)" fill="none" stroke="#fafafa" stroke-miterlimit="10" stroke-width="1"/>
      <line id="Línea_1053" data-name="Línea 1053" x2="375.973" transform="translate(904.254 7754.809)" fill="none" stroke="#3bd43e" stroke-miterlimit="10" stroke-width="1"/>
      <path id="Trazado_130983" data-name="Trazado 130983" d="M10.934-1.679A3.9,3.9,0,0,1,9.119-.286,7.331,7.331,0,0,1,6.407.176,5.258,5.258,0,0,1,3.63-.558,4.889,4.889,0,0,1,1.753-2.646a7.21,7.21,0,0,1-.681-3.138V-6.9a6.73,6.73,0,0,1,1.349-4.482,4.7,4.7,0,0,1,3.792-1.591,4.856,4.856,0,0,1,3.226,1.024,4.461,4.461,0,0,1,1.494,2.9H9.246a2.79,2.79,0,0,0-3.023-2.549A2.987,2.987,0,0,0,3.652-10.4a5.82,5.82,0,0,0-.883,3.453V-5.9a5.454,5.454,0,0,0,.984,3.426A3.191,3.191,0,0,0,6.416-1.2a5.882,5.882,0,0,0,1.661-.21,2.569,2.569,0,0,0,1.178-.71V-4.992H6.293v-1.38h4.641Zm7.506-3.5H15.434V0h-1.7V-12.8h4.236a5.014,5.014,0,0,1,3.327.984,3.542,3.542,0,0,1,1.165,2.865,3.445,3.445,0,0,1-.646,2.083,3.856,3.856,0,0,1-1.8,1.327L23.027-.105V0H21.217Zm-3.006-1.38h2.593a2.924,2.924,0,0,0,2-.652,2.2,2.2,0,0,0,.743-1.743,2.32,2.32,0,0,0-.708-1.823,3,3,0,0,0-2.043-.643H15.434Zm16.629.642H26.517V-1.38h6.442V0h-8.13V-12.8h8.042v1.38H26.517v4.122h5.546Zm10.23,0H36.747V-1.38h6.442V0H35.06V-12.8H43.1v1.38H36.747v4.122h5.546ZM55.125,0h-1.7L46.986-9.861V0h-1.7V-12.8h1.7l6.46,9.905V-12.8h1.679Z" transform="translate(566 7783.897)" fill="#3bd43e"/>
      <path id="Trazado_130982" data-name="Trazado 130982" d="M3.3,0H1.608V-12.8H3.3Zm12.92,0h-1.7L8.077-9.861V0h-1.7V-12.8h1.7l6.46,9.905V-12.8h1.679Zm7.233-2.241L27.105-12.8h1.846L24.205,0H22.711L17.974-12.8h1.837ZM32.476,0H30.788V-12.8h1.688Zm6.855-5.7a7.935,7.935,0,0,1-3.16-1.534,2.93,2.93,0,0,1-.989-2.246,3.1,3.1,0,0,1,1.208-2.5,4.8,4.8,0,0,1,3.142-.989,5.243,5.243,0,0,1,2.351.51,3.866,3.866,0,0,1,1.6,1.406,3.6,3.6,0,0,1,.567,1.96h-1.7a2.34,2.34,0,0,0-.738-1.83,3,3,0,0,0-2.083-.666,3.074,3.074,0,0,0-1.947.55,1.836,1.836,0,0,0-.7,1.528,1.652,1.652,0,0,0,.664,1.325A6.509,6.509,0,0,0,39.81-7.2a10.481,10.481,0,0,1,2.5.99,3.788,3.788,0,0,1,1.336,1.261,3.219,3.219,0,0,1,.435,1.7A2.99,2.99,0,0,1,42.864-.76a5.171,5.171,0,0,1-3.243.936A6.015,6.015,0,0,1,37.16-.33,4.142,4.142,0,0,1,35.4-1.714a3.378,3.378,0,0,1-.62-2h1.7a2.2,2.2,0,0,0,.857,1.833,3.608,3.608,0,0,0,2.29.672,3.317,3.317,0,0,0,2.048-.545,1.77,1.77,0,0,0,.712-1.485,1.738,1.738,0,0,0-.659-1.455A7.6,7.6,0,0,0,39.331-5.7ZM48.05,0H46.362V-12.8H48.05Zm3.085,0V-12.8h4.184a4.856,4.856,0,0,1,3.133.861A3.1,3.1,0,0,1,59.5-9.387a2.6,2.6,0,0,1-.51,1.586A3.3,3.3,0,0,1,57.6-6.732a2.968,2.968,0,0,1,1.639,1.1,3.166,3.166,0,0,1,.6,1.938A3.423,3.423,0,0,1,58.729-.984,4.616,4.616,0,0,1,55.573,0Zm1.688-5.985V-1.38h2.786a2.683,2.683,0,0,0,1.859-.611,2.145,2.145,0,0,0,.681-1.683q0-2.312-2.514-2.312Zm0-1.354h2.549a2.672,2.672,0,0,0,1.771-.555A1.86,1.86,0,0,0,57.806-9.4a1.829,1.829,0,0,0-.615-1.537,3.021,3.021,0,0,0-1.872-.48h-2.5ZM64.037-1.38H70.1V0H62.341V-12.8h1.7ZM79.26-5.915H73.714V-1.38h6.442V0h-8.13V-12.8h8.042v1.38H73.714v4.122H79.26Zm6.768.211a7.935,7.935,0,0,1-3.16-1.534,2.93,2.93,0,0,1-.989-2.246,3.1,3.1,0,0,1,1.208-2.5,4.8,4.8,0,0,1,3.142-.989,5.243,5.243,0,0,1,2.351.51,3.866,3.866,0,0,1,1.6,1.406,3.6,3.6,0,0,1,.567,1.96h-1.7a2.34,2.34,0,0,0-.738-1.83,3,3,0,0,0-2.083-.666,3.074,3.074,0,0,0-1.947.55,1.836,1.836,0,0,0-.7,1.528,1.652,1.652,0,0,0,.664,1.325,6.509,6.509,0,0,0,2.259.991,10.481,10.481,0,0,1,2.5.99,3.788,3.788,0,0,1,1.336,1.261,3.219,3.219,0,0,1,.435,1.7A2.99,2.99,0,0,1,89.561-.76a5.171,5.171,0,0,1-3.243.936A6.015,6.015,0,0,1,83.856-.33a4.142,4.142,0,0,1-1.762-1.384,3.378,3.378,0,0,1-.62-2h1.7a2.2,2.2,0,0,0,.857,1.833,3.608,3.608,0,0,0,2.29.672,3.317,3.317,0,0,0,2.048-.545,1.77,1.77,0,0,0,.712-1.485,1.738,1.738,0,0,0-.659-1.455A7.6,7.6,0,0,0,86.027-5.7Z" transform="translate(337 7783.898)" fill="#3bd43e"/>
      <path id="Trazado_130984" data-name="Trazado 130984" d="M11.32,0h-1.7V-5.915H3.173V0H1.485V-12.8H3.173v5.5H9.624v-5.5h1.7Zm4.808,0H14.44V-12.8h1.688Zm3.085,0V-12.8h3.612a5.815,5.815,0,0,1,2.953.738,4.993,4.993,0,0,1,1.982,2.1,6.837,6.837,0,0,1,.708,3.129v.817a6.861,6.861,0,0,1-.7,3.173,4.915,4.915,0,0,1-2,2.092A6.185,6.185,0,0,1,22.755,0ZM20.9-11.417V-1.38h1.775a3.863,3.863,0,0,0,3.037-1.214A5.016,5.016,0,0,0,26.8-6.051V-6.8a5.1,5.1,0,0,0-1.024-3.391,3.644,3.644,0,0,0-2.9-1.227ZM31.017,0V-12.8h3.612a5.815,5.815,0,0,1,2.953.738,4.993,4.993,0,0,1,1.982,2.1,6.837,6.837,0,0,1,.708,3.129v.817a6.861,6.861,0,0,1-.7,3.173,4.915,4.915,0,0,1-2,2.092A6.185,6.185,0,0,1,34.559,0ZM32.7-11.417V-1.38h1.775a3.863,3.863,0,0,0,3.037-1.214A5.016,5.016,0,0,0,38.6-6.051V-6.8a5.1,5.1,0,0,0-1.024-3.391,3.644,3.644,0,0,0-2.9-1.227Zm17.35,5.5H44.508V-1.38H50.95V0H42.82V-12.8h8.042v1.38H44.508v4.122h5.546ZM62.886,0h-1.7L54.747-9.861V0h-1.7V-12.8h1.7l6.46,9.905V-12.8h1.679ZM75.727-5.985A7.916,7.916,0,0,1,75.094-2.7,4.793,4.793,0,0,1,73.3-.562a4.933,4.933,0,0,1-2.707.738,4.891,4.891,0,0,1-2.681-.743A4.908,4.908,0,0,1,66.1-2.685a7.6,7.6,0,0,1-.664-3.186v-.923a7.822,7.822,0,0,1,.642-3.261,4.891,4.891,0,0,1,1.815-2.167,4.87,4.87,0,0,1,2.685-.751,4.961,4.961,0,0,1,2.711.743,4.784,4.784,0,0,1,1.806,2.153,7.955,7.955,0,0,1,.633,3.283Zm-1.679-.826a5.738,5.738,0,0,0-.914-3.494,3.015,3.015,0,0,0-2.558-1.217,2.982,2.982,0,0,0-2.518,1.217,5.62,5.62,0,0,0-.945,3.379v.94a5.746,5.746,0,0,0,.927,3.467,3,3,0,0,0,2.553,1.261,2.983,2.983,0,0,0,2.531-1.191,5.714,5.714,0,0,0,.923-3.415ZM82.028-5.7a7.935,7.935,0,0,1-3.16-1.534,2.93,2.93,0,0,1-.989-2.246,3.1,3.1,0,0,1,1.208-2.5,4.8,4.8,0,0,1,3.142-.989,5.243,5.243,0,0,1,2.351.51,3.866,3.866,0,0,1,1.6,1.406,3.6,3.6,0,0,1,.567,1.96h-1.7a2.34,2.34,0,0,0-.738-1.83,3,3,0,0,0-2.083-.666,3.074,3.074,0,0,0-1.947.55,1.836,1.836,0,0,0-.7,1.528,1.652,1.652,0,0,0,.664,1.325,6.509,6.509,0,0,0,2.259.991,10.481,10.481,0,0,1,2.5.99,3.788,3.788,0,0,1,1.336,1.261,3.219,3.219,0,0,1,.435,1.7A2.99,2.99,0,0,1,85.562-.76a5.171,5.171,0,0,1-3.243.936A6.015,6.015,0,0,1,79.857-.33,4.142,4.142,0,0,1,78.1-1.714a3.378,3.378,0,0,1-.62-2h1.7a2.2,2.2,0,0,0,.857,1.833,3.608,3.608,0,0,0,2.29.672,3.317,3.317,0,0,0,2.048-.545,1.77,1.77,0,0,0,.712-1.485,1.738,1.738,0,0,0-.659-1.455A7.6,7.6,0,0,0,82.028-5.7ZM11.32,22h-1.7V16.085H3.173V22H1.485V9.2H3.173v5.5H9.624V9.2h1.7Zm4.808,0H14.44V9.2h1.688Zm3.085,0V9.2h3.612a5.815,5.815,0,0,1,2.953.738,4.993,4.993,0,0,1,1.982,2.1,6.837,6.837,0,0,1,.708,3.129v.817a6.861,6.861,0,0,1-.7,3.173,4.915,4.915,0,0,1-2,2.092A6.185,6.185,0,0,1,22.755,22ZM20.9,10.583V20.62h1.775a3.863,3.863,0,0,0,3.037-1.214A5.016,5.016,0,0,0,26.8,15.949V15.2a5.1,5.1,0,0,0-1.024-3.391,3.644,3.644,0,0,0-2.9-1.227ZM31.017,22V9.2h3.612a5.815,5.815,0,0,1,2.953.738,4.993,4.993,0,0,1,1.982,2.1,6.837,6.837,0,0,1,.708,3.129v.817a6.861,6.861,0,0,1-.7,3.173,4.915,4.915,0,0,1-2,2.092A6.185,6.185,0,0,1,34.559,22ZM32.7,10.583V20.62h1.775a3.863,3.863,0,0,0,3.037-1.214A5.016,5.016,0,0,0,38.6,15.949V15.2a5.1,5.1,0,0,0-1.024-3.391,3.644,3.644,0,0,0-2.9-1.227Zm17.35,5.5H44.508V20.62H50.95V22H42.82V9.2h8.042v1.38H44.508v4.122h5.546ZM62.886,22h-1.7l-6.442-9.861V22h-1.7V9.2h1.7l6.46,9.905V9.2h1.679ZM11.32,44h-1.7V38.085H3.173V44H1.485V31.2H3.173v5.5H9.624V31.2h1.7Zm4.808,0H14.44V31.2h1.688Zm3.085,0V31.2h3.612a5.815,5.815,0,0,1,2.953.738,4.993,4.993,0,0,1,1.982,2.1,6.837,6.837,0,0,1,.708,3.129v.817a6.861,6.861,0,0,1-.7,3.173,4.915,4.915,0,0,1-2,2.092A6.185,6.185,0,0,1,22.755,44ZM20.9,32.583V42.62h1.775a3.863,3.863,0,0,0,3.037-1.214A5.016,5.016,0,0,0,26.8,37.949V37.2a5.1,5.1,0,0,0-1.024-3.391,3.644,3.644,0,0,0-2.9-1.227ZM31.017,44V31.2h3.612a5.815,5.815,0,0,1,2.953.738,4.993,4.993,0,0,1,1.982,2.1,6.837,6.837,0,0,1,.708,3.129v.817a6.861,6.861,0,0,1-.7,3.173,4.915,4.915,0,0,1-2,2.092A6.185,6.185,0,0,1,34.559,44ZM32.7,32.583V42.62h1.775a3.863,3.863,0,0,0,3.037-1.214A5.016,5.016,0,0,0,38.6,37.949V37.2a5.1,5.1,0,0,0-1.024-3.391,3.644,3.644,0,0,0-2.9-1.227Zm17.35,5.5H44.508V42.62H50.95V44H42.82V31.2h8.042v1.38H44.508v4.122h5.546ZM62.886,44h-1.7l-6.442-9.861V44h-1.7V31.2h1.7l6.46,9.905V31.2h1.679Zm7.172-7.893,3.067-4.9h1.986l-4.043,6.346L75.208,44h-2l-3.146-4.992L66.894,44h-2l4.148-6.451L65,31.2h1.978ZM85.131,44H76.746V42.831l4.43-4.922a10.524,10.524,0,0,0,1.358-1.815,3.029,3.029,0,0,0,.374-1.446A2.3,2.3,0,0,0,82.3,33a2.12,2.12,0,0,0-1.617-.642,2.511,2.511,0,0,0-1.885.69,2.635,2.635,0,0,0-.672,1.92H76.5a3.774,3.774,0,0,1,1.138-2.856,4.219,4.219,0,0,1,3.045-1.09,4.054,4.054,0,0,1,2.821.936,3.193,3.193,0,0,1,1.037,2.492q0,1.89-2.408,4.5l-3.428,3.718h6.425Z" transform="translate(737.162 7761.274)" fill="#3bd43e"/>
      <line id="Línea_1054" data-name="Línea 1054" x2="375.973" transform="translate(904.254 7777.663)" fill="none" stroke="#3bd43e" stroke-miterlimit="10" stroke-width="1" stroke-dasharray="12"/>
      <line id="Línea_1055" data-name="Línea 1055" x2="375.973" transform="translate(904.254 7800.517)" fill="none" stroke="#3bd43e" stroke-miterlimit="10" stroke-width="1" stroke-dasharray="32"/>
      <path id="Trazado_130989" data-name="Trazado 130989" d="M1.485,0V-12.8H5.669a4.856,4.856,0,0,1,3.133.861,3.1,3.1,0,0,1,1.05,2.549A2.6,2.6,0,0,1,9.343-7.8,3.3,3.3,0,0,1,7.954-6.732a2.968,2.968,0,0,1,1.639,1.1,3.166,3.166,0,0,1,.6,1.938A3.423,3.423,0,0,1,9.079-.984,4.616,4.616,0,0,1,5.924,0ZM3.173-5.985V-1.38H5.959a2.683,2.683,0,0,0,1.859-.611A2.145,2.145,0,0,0,8.5-3.674q0-2.312-2.514-2.312Zm0-1.354H5.722a2.672,2.672,0,0,0,1.771-.555A1.86,1.86,0,0,0,8.156-9.4a1.829,1.829,0,0,0-.615-1.537,3.021,3.021,0,0,0-1.872-.48h-2.5ZM14.388-1.38h6.064V0H12.691V-12.8h1.7ZM30.911-12.8v8.7a4.082,4.082,0,0,1-1.138,2.962A4.586,4.586,0,0,1,26.71.158l-.448.018A4.79,4.79,0,0,1,22.913-.958a4.055,4.055,0,0,1-1.266-3.12V-12.8h1.67v8.666a2.927,2.927,0,0,0,.765,2.158,2.939,2.939,0,0,0,2.18.769,2.959,2.959,0,0,0,2.193-.765,2.921,2.921,0,0,0,.76-2.153V-12.8Zm9.9,6.882H35.262V-1.38H41.7V0h-8.13V-12.8h8.042v1.38H35.262v4.122h5.546Z" transform="translate(572 7904.489)" fill="#161ec9"/>
      <path id="Trazado_130988" data-name="Trazado 130988" d="M6.179-5.177H3.173V0h-1.7V-12.8H5.713a5.014,5.014,0,0,1,3.327.984A3.542,3.542,0,0,1,10.2-8.947a3.445,3.445,0,0,1-.646,2.083,3.856,3.856,0,0,1-1.8,1.327L10.767-.105V0H8.956ZM3.173-6.557H5.766a2.924,2.924,0,0,0,2-.652,2.2,2.2,0,0,0,.743-1.743A2.32,2.32,0,0,0,7.8-10.774a3,3,0,0,0-2.043-.643H3.173ZM19.8-5.915H14.256V-1.38H20.7V0h-8.13V-12.8H20.61v1.38H14.256v4.122H19.8Zm10.055.264h-5.37V0H22.8V-12.8h7.928v1.38h-6.24v4.386h5.37Zm10.125-.264H34.436V-1.38h6.442V0h-8.13V-12.8H40.79v1.38H34.436v4.122h5.546Zm7.69.738H44.666V0h-1.7V-12.8h4.236a5.014,5.014,0,0,1,3.327.984A3.542,3.542,0,0,1,51.7-8.947a3.445,3.445,0,0,1-.646,2.083,3.856,3.856,0,0,1-1.8,1.327L52.26-.105V0H50.449Zm-3.006-1.38h2.593a2.924,2.924,0,0,0,2-.652A2.2,2.2,0,0,0,50-8.952a2.32,2.32,0,0,0-.708-1.823,3,3,0,0,0-2.043-.643H44.666Zm16.629.642H55.749V-1.38h6.442V0h-8.13V-12.8H62.1v1.38H55.749v4.122h5.546ZM74.127,0h-1.7L65.988-9.861V0h-1.7V-12.8h1.7l6.46,9.905V-12.8h1.679Zm12.41-4.061a4.708,4.708,0,0,1-1.5,3.133,4.911,4.911,0,0,1-3.353,1.1A4.509,4.509,0,0,1,78.051-1.45,6.542,6.542,0,0,1,76.685-5.8v-1.23a7.291,7.291,0,0,1,.637-3.138,4.76,4.76,0,0,1,1.806-2.079,5.029,5.029,0,0,1,2.707-.725,4.624,4.624,0,0,1,3.27,1.138,4.765,4.765,0,0,1,1.433,3.151h-1.7a3.677,3.677,0,0,0-.954-2.222,2.885,2.885,0,0,0-2.052-.688A3.019,3.019,0,0,0,79.3-10.4a5.492,5.492,0,0,0-.918,3.4v1.24a5.645,5.645,0,0,0,.87,3.316A2.812,2.812,0,0,0,81.686-1.2a3.247,3.247,0,0,0,2.158-.637,3.536,3.536,0,0,0,1-2.219ZM90.65,0H88.963V-12.8H90.65ZM100.8-3.349H95.44L94.236,0H92.5l4.887-12.8h1.477l4.9,12.8h-1.731ZM95.95-4.729H100.3l-2.18-5.985Z" transform="translate(332 7904.489)" fill="#161ec9"/>
      <path id="Trazado_130990" data-name="Trazado 130990" d="M3.173-5.01V0H1.485V-12.8h4.72A4.742,4.742,0,0,1,9.5-11.725a3.635,3.635,0,0,1,1.191,2.839,3.587,3.587,0,0,1-1.165,2.87A4.954,4.954,0,0,1,6.188-5.01Zm0-1.38H6.205a3.032,3.032,0,0,0,2.074-.638A2.334,2.334,0,0,0,9-8.873,2.411,2.411,0,0,0,8.279-10.7,2.84,2.84,0,0,0,6.3-11.417H3.173ZM22.676,0h-1.7V-5.915H14.528V0H12.841V-12.8h1.688v5.5h6.451v-5.5h1.7ZM32.9-3.349H27.536L26.332,0h-1.74l4.887-12.8h1.477L35.851,0H34.119Zm-4.852-1.38H32.4l-2.18-5.985ZM47.408,0h-1.7L39.27-9.861V0h-1.7V-12.8h1.7l6.46,9.905V-12.8h1.679ZM59.247-11.417H55.134V0H53.455V-11.417h-4.1V-12.8h9.9Zm11.5,5.432A7.916,7.916,0,0,1,70.11-2.7a4.793,4.793,0,0,1-1.793,2.14A4.933,4.933,0,0,1,65.61.176,4.891,4.891,0,0,1,62.93-.567a4.908,4.908,0,0,1-1.815-2.118,7.6,7.6,0,0,1-.664-3.186v-.923a7.822,7.822,0,0,1,.642-3.261,4.891,4.891,0,0,1,1.815-2.167,4.87,4.87,0,0,1,2.685-.751,4.961,4.961,0,0,1,2.711.743,4.784,4.784,0,0,1,1.806,2.153,7.955,7.955,0,0,1,.633,3.283Zm-1.679-.826a5.738,5.738,0,0,0-.914-3.494,3.015,3.015,0,0,0-2.558-1.217,2.982,2.982,0,0,0-2.518,1.217,5.62,5.62,0,0,0-.945,3.379v.94a5.746,5.746,0,0,0,.927,3.467A3,3,0,0,0,65.61-1.257a2.983,2.983,0,0,0,2.531-1.191,5.714,5.714,0,0,0,.923-3.415Zm6.39-5.985L79.638-2.355,83.821-12.8H86.01V0H84.322V-4.983l.158-5.379L80.279,0H78.987L74.795-10.336l.167,5.353V0H73.274V-12.8ZM96.592-5.458a7.436,7.436,0,0,1-.976,4.245A3.47,3.47,0,0,1,92.566.176a3.5,3.5,0,0,1-3.032-1.358,7.058,7.058,0,0,1-1.02-4.056V-7.409A7.271,7.271,0,0,1,89.49-11.6a3.5,3.5,0,0,1,3.059-1.371A3.528,3.528,0,0,1,95.59-11.65a7.017,7.017,0,0,1,1,4.083ZM94.966-7.682a5.958,5.958,0,0,0-.58-3.01,2,2,0,0,0-1.837-.945,1.97,1.97,0,0,0-1.819.94A5.817,5.817,0,0,0,90.141-7.8v2.6a6.053,6.053,0,0,0,.6,3.063,1.993,1.993,0,0,0,1.824.989,1.966,1.966,0,0,0,1.789-.932,5.834,5.834,0,0,0,.611-2.936Zm4.456,1.266.65-6.381h6.557v1.5h-5.177L101.065-7.8a4.13,4.13,0,0,1,2.136-.554A3.531,3.531,0,0,1,105.979-7.2a4.53,4.53,0,0,1,1.028,3.125,4.372,4.372,0,0,1-1.068,3.116A3.892,3.892,0,0,1,102.955.176a4.045,4.045,0,0,1-2.769-.94,3.754,3.754,0,0,1-1.222-2.6H100.5a2.582,2.582,0,0,0,.782,1.657,2.432,2.432,0,0,0,1.67.558,2.194,2.194,0,0,0,1.78-.773,3.233,3.233,0,0,0,.646-2.136,2.968,2.968,0,0,0-.7-2.061,2.377,2.377,0,0,0-1.859-.778,2.681,2.681,0,0,0-1.67.466l-.431.352ZM3.173,16.99V22H1.485V9.2h4.72A4.742,4.742,0,0,1,9.5,10.275a3.635,3.635,0,0,1,1.191,2.839,3.587,3.587,0,0,1-1.165,2.87A4.954,4.954,0,0,1,6.188,16.99Zm0-1.38H6.205a3.032,3.032,0,0,0,2.074-.638A2.334,2.334,0,0,0,9,13.127,2.411,2.411,0,0,0,8.279,11.3,2.84,2.84,0,0,0,6.3,10.583H3.173ZM22.676,22h-1.7V16.085H14.528V22H12.841V9.2h1.688v5.5h6.451V9.2h1.7ZM32.9,18.651H27.536L26.332,22h-1.74L29.479,9.2h1.477l4.9,12.8H34.119Zm-4.852-1.38H32.4l-2.18-5.985ZM47.408,22h-1.7L39.27,12.139V22h-1.7V9.2h1.7l6.46,9.905V9.2h1.679ZM59.247,10.583H55.134V22H53.455V10.583h-4.1V9.2h9.9Zm11.5,5.432A7.916,7.916,0,0,1,70.11,19.3a4.793,4.793,0,0,1-1.793,2.14,4.948,4.948,0,0,1-7.2-2.123,7.6,7.6,0,0,1-.664-3.186v-.923a7.822,7.822,0,0,1,.642-3.261,4.745,4.745,0,0,1,4.5-2.918A4.961,4.961,0,0,1,68.3,9.77a4.784,4.784,0,0,1,1.806,2.153,7.955,7.955,0,0,1,.633,3.283Zm-1.679-.826a5.738,5.738,0,0,0-.914-3.494,3.015,3.015,0,0,0-2.558-1.217,2.982,2.982,0,0,0-2.518,1.217,5.62,5.62,0,0,0-.945,3.379v.94a5.746,5.746,0,0,0,.927,3.467,3.249,3.249,0,0,0,5.084.07,5.714,5.714,0,0,0,.923-3.415ZM75.454,9.2l4.184,10.441L83.821,9.2H86.01V22H84.322V17.017l.158-5.379L80.279,22H78.987L74.795,11.664l.167,5.353V22H73.274V9.2ZM3.173,38.99V44H1.485V31.2h4.72A4.742,4.742,0,0,1,9.5,32.275a3.635,3.635,0,0,1,1.191,2.839,3.587,3.587,0,0,1-1.165,2.87A4.954,4.954,0,0,1,6.188,38.99Zm0-1.38H6.205a3.032,3.032,0,0,0,2.074-.638A2.334,2.334,0,0,0,9,35.127,2.411,2.411,0,0,0,8.279,33.3,2.84,2.84,0,0,0,6.3,32.583H3.173ZM22.676,44h-1.7V38.085H14.528V44H12.841V31.2h1.688v5.5h6.451V31.2h1.7ZM32.9,40.651H27.536L26.332,44h-1.74l4.887-12.8h1.477l4.9,12.8H34.119Zm-4.852-1.38H32.4l-2.18-5.985ZM47.408,44h-1.7L39.27,34.139V44h-1.7V31.2h1.7l6.46,9.905V31.2h1.679ZM59.247,32.583H55.134V44H53.455V32.583h-4.1V31.2h9.9Zm11.5,5.432A7.916,7.916,0,0,1,70.11,41.3a4.793,4.793,0,0,1-1.793,2.14,4.948,4.948,0,0,1-7.2-2.123,7.6,7.6,0,0,1-.664-3.186v-.923a7.822,7.822,0,0,1,.642-3.261,4.745,4.745,0,0,1,4.5-2.918,4.961,4.961,0,0,1,2.711.743,4.784,4.784,0,0,1,1.806,2.153,7.955,7.955,0,0,1,.633,3.283Zm-1.679-.826a5.738,5.738,0,0,0-.914-3.494,3.015,3.015,0,0,0-2.558-1.217,2.982,2.982,0,0,0-2.518,1.217,5.62,5.62,0,0,0-.945,3.379v.94a5.746,5.746,0,0,0,.927,3.467,3.249,3.249,0,0,0,5.084.07,5.714,5.714,0,0,0,.923-3.415Zm6.39-5.985,4.184,10.441L83.821,31.2H86.01V44H84.322V39.017l.158-5.379L80.279,44H78.987L74.795,33.664l.167,5.353V44H73.274V31.2Zm17.71,4.9,3.067-4.9h1.986l-4.043,6.346L98.314,44h-2l-3.146-4.992L90,44H88l4.148-6.451L88.1,31.2h1.978ZM108.237,44H99.853V42.831l4.43-4.922a10.524,10.524,0,0,0,1.358-1.815,3.029,3.029,0,0,0,.374-1.446A2.3,2.3,0,0,0,105.407,33a2.12,2.12,0,0,0-1.617-.642,2.511,2.511,0,0,0-1.885.69,2.635,2.635,0,0,0-.672,1.92H99.606a3.774,3.774,0,0,1,1.138-2.856,4.219,4.219,0,0,1,3.045-1.09,4.054,4.054,0,0,1,2.821.936,3.193,3.193,0,0,1,1.037,2.492q0,1.89-2.408,4.5l-3.428,3.718h6.425Z" transform="translate(737.967 7881.865)" fill="#161ec9"/>
      <line id="Línea_1056" data-name="Línea 1056" x2="57.107" transform="translate(884.683 7874.673)" fill="none" stroke="#3138d4" stroke-miterlimit="10" stroke-width="1"/>
      <line id="Línea_1057" data-name="Línea 1057" x2="57.107" transform="translate(976.961 7874.673)" fill="none" stroke="#3138d4" stroke-miterlimit="10" stroke-width="1"/>
      <line id="Línea_1058" data-name="Línea 1058" x2="7.048" transform="translate(949.056 7874.673)" fill="none" stroke="#3138d4" stroke-miterlimit="10" stroke-width="1"/>
      <line id="Línea_1059" data-name="Línea 1059" x2="7.048" transform="translate(960.33 7874.673)" fill="none" stroke="#3138d4" stroke-miterlimit="10" stroke-width="1"/>
      <line id="Línea_1060" data-name="Línea 1060" x2="84.174" transform="translate(885.747 7896.271)" fill="none" stroke="#3138d4" stroke-miterlimit="10" stroke-width="1"/>
      <line id="Línea_1061" data-name="Línea 1061" x2="84.174" transform="translate(1022.024 7896.271)" fill="none" stroke="#3138d4" stroke-miterlimit="10" stroke-width="1"/>
      <line id="Línea_1062" data-name="Línea 1062" x2="10.388" transform="translate(980.552 7896.271)" fill="none" stroke="#3138d4" stroke-miterlimit="10" stroke-width="1"/>
      <line id="Línea_1063" data-name="Línea 1063" x2="10.388" transform="translate(997.173 7896.271)" fill="none" stroke="#3138d4" stroke-miterlimit="10" stroke-width="1"/>
      <line id="Línea_1064" data-name="Línea 1064" x2="149.051" transform="translate(888.611 7917.87)" fill="none" stroke="#3138d4" stroke-miterlimit="10" stroke-width="1"/>
      <line id="Línea_1065" data-name="Línea 1065" x2="149.051" transform="translate(1131.176 7917.87)" fill="none" stroke="#3138d4" stroke-miterlimit="10" stroke-width="1"/>
      <line id="Línea_1066" data-name="Línea 1066" x2="18.395" transform="translate(1056.104 7917.87)" fill="none" stroke="#3138d4" stroke-miterlimit="10" stroke-width="1"/>
      <line id="Línea_1067" data-name="Línea 1067" x2="18.395" transform="translate(1085.551 7917.87)" fill="none" stroke="#3138d4" stroke-miterlimit="10" stroke-width="1"/>
      <line id="Línea_1068" data-name="Línea 1068" x2="110.941" transform="translate(1169.286 7896.271)" fill="none" stroke="#3138d4" stroke-miterlimit="10" stroke-width="1"/>
      <line id="Línea_1069" data-name="Línea 1069" x2="13.691" transform="translate(1121.896 7896.271)" fill="none" stroke="#3138d4" stroke-miterlimit="10" stroke-width="1"/>
      <line id="Línea_1070" data-name="Línea 1070" x2="13.691" transform="translate(1142.599 7896.271)" fill="none" stroke="#3138d4" stroke-miterlimit="10" stroke-width="1"/>
      <line id="Línea_1071" data-name="Línea 1071" x2="57.107" transform="translate(1068.446 7874.673)" fill="none" stroke="#3138d4" stroke-miterlimit="10" stroke-width="1"/>
      <line id="Línea_1072" data-name="Línea 1072" x2="7.048" transform="translate(1040.243 7874.673)" fill="none" stroke="#3138d4" stroke-miterlimit="10" stroke-width="1"/>
      <line id="Línea_1073" data-name="Línea 1073" x2="7.048" transform="translate(1051.517 7874.673)" fill="none" stroke="#3138d4" stroke-miterlimit="10" stroke-width="1"/>
      <line id="Línea_1074" data-name="Línea 1074" x2="57.107" transform="translate(1165.604 7874.673)" fill="none" stroke="#3138d4" stroke-miterlimit="10" stroke-width="1"/>
      <line id="Línea_1075" data-name="Línea 1075" x2="7.048" transform="translate(1141.21 7874.673)" fill="none" stroke="#3138d4" stroke-miterlimit="10" stroke-width="1"/>
      <line id="Línea_1076" data-name="Línea 1076" x2="7.048" transform="translate(1151.867 7874.673)" fill="none" stroke="#3138d4" stroke-miterlimit="10" stroke-width="1"/>
      <line id="Línea_1077" data-name="Línea 1077" x2="25.748" transform="translate(1254.479 7874.673)" fill="none" stroke="#3138d4" stroke-miterlimit="10" stroke-width="1"/>
      <line id="Línea_1078" data-name="Línea 1078" x2="7.048" transform="translate(1230.085 7874.673)" fill="none" stroke="#3138d4" stroke-miterlimit="10" stroke-width="1"/>
      <line id="Línea_1079" data-name="Línea 1079" x2="7.048" transform="translate(1240.742 7874.673)" fill="none" stroke="#3138d4" stroke-miterlimit="10" stroke-width="1"/>
      <path id="Trazado_130977" data-name="Trazado 130977" d="M10.9-4.061A4.708,4.708,0,0,1,9.4-.927,4.911,4.911,0,0,1,6.047.176,4.509,4.509,0,0,1,2.413-1.45,6.542,6.542,0,0,1,1.046-5.8v-1.23a7.291,7.291,0,0,1,.637-3.138,4.76,4.76,0,0,1,1.806-2.079A5.029,5.029,0,0,1,6.2-12.973a4.624,4.624,0,0,1,3.27,1.138A4.765,4.765,0,0,1,10.9-8.684H9.2a3.677,3.677,0,0,0-.954-2.222A2.885,2.885,0,0,0,6.2-11.593a3.019,3.019,0,0,0-2.536,1.2,5.492,5.492,0,0,0-.918,3.4v1.24a5.645,5.645,0,0,0,.87,3.316A2.812,2.812,0,0,0,6.047-1.2,3.247,3.247,0,0,0,8.2-1.841a3.536,3.536,0,0,0,1-2.219ZM17.1-6.372l3.34-6.425h1.916L17.947-4.772V0H16.26V-4.772L11.848-12.8h1.934ZM30.252-3.349H24.891L23.687,0h-1.74l4.887-12.8H28.31L33.205,0H31.474ZM25.4-4.729h4.351l-2.18-5.985ZM44.763,0h-1.7L36.624-9.861V0h-1.7V-12.8h1.7l6.46,9.905V-12.8h1.679Z" transform="translate(571 7663.093)" fill="#36dfdf"/>
      <path id="Trazado_130976" data-name="Trazado 130976" d="M8.719-5.915H3.173V-1.38H9.615V0H1.485V-12.8H9.527v1.38H3.173v4.122H8.719ZM17.077-12.8h1.7v9.062a3.753,3.753,0,0,1-1.1,2.874A4.117,4.117,0,0,1,14.73.176,4.232,4.232,0,0,1,11.76-.8,3.523,3.523,0,0,1,10.7-3.533h1.688a2.346,2.346,0,0,0,.6,1.714A2.332,2.332,0,0,0,14.73-1.2a2.263,2.263,0,0,0,1.692-.659,2.554,2.554,0,0,0,.655-1.846Zm11.8,6.882H23.335V-1.38h6.442V0h-8.13V-12.8h8.042v1.38H23.335v4.122h5.546Zm6.768.211a7.935,7.935,0,0,1-3.16-1.534A2.93,2.93,0,0,1,31.5-9.483a3.1,3.1,0,0,1,1.208-2.5,4.8,4.8,0,0,1,3.142-.989,5.243,5.243,0,0,1,2.351.51,3.866,3.866,0,0,1,1.6,1.406,3.6,3.6,0,0,1,.567,1.96h-1.7a2.34,2.34,0,0,0-.738-1.83,3,3,0,0,0-2.083-.666,3.074,3.074,0,0,0-1.947.55,1.836,1.836,0,0,0-.7,1.528,1.652,1.652,0,0,0,.664,1.325,6.509,6.509,0,0,0,2.259.991,10.481,10.481,0,0,1,2.5.99,3.788,3.788,0,0,1,1.336,1.261,3.219,3.219,0,0,1,.435,1.7A2.99,2.99,0,0,1,39.182-.76a5.171,5.171,0,0,1-3.243.936A6.015,6.015,0,0,1,33.478-.33a4.142,4.142,0,0,1-1.762-1.384,3.378,3.378,0,0,1-.62-2h1.7a2.2,2.2,0,0,0,.857,1.833,3.608,3.608,0,0,0,2.29.672,3.317,3.317,0,0,0,2.048-.545A1.77,1.77,0,0,0,38.7-3.234a1.738,1.738,0,0,0-.659-1.455A7.6,7.6,0,0,0,35.648-5.7Z" transform="translate(363 7663.093)" fill="#36dfdf"/>
      <path id="Trazado_130978" data-name="Trazado 130978" d="M10.9-4.061A4.708,4.708,0,0,1,9.4-.927,4.911,4.911,0,0,1,6.047.176,4.509,4.509,0,0,1,2.413-1.45,6.542,6.542,0,0,1,1.046-5.8v-1.23a7.291,7.291,0,0,1,.637-3.138,4.76,4.76,0,0,1,1.806-2.079A5.029,5.029,0,0,1,6.2-12.973a4.624,4.624,0,0,1,3.27,1.138A4.765,4.765,0,0,1,10.9-8.684H9.2a3.677,3.677,0,0,0-.954-2.222A2.885,2.885,0,0,0,6.2-11.593a3.019,3.019,0,0,0-2.536,1.2,5.492,5.492,0,0,0-.918,3.4v1.24a5.645,5.645,0,0,0,.87,3.316A2.812,2.812,0,0,0,6.047-1.2,3.247,3.247,0,0,0,8.2-1.841a3.536,3.536,0,0,0,1-2.219Zm9.536-1.854H14.889V-1.38h6.442V0H13.2V-12.8h8.042v1.38H14.889v4.122h5.546ZM33.267,0h-1.7L25.128-9.861V0h-1.7V-12.8h1.7l6.46,9.905V-12.8h1.679ZM45.105-11.417H40.992V0H39.313V-11.417h-4.1V-12.8h9.9Zm9.132,5.5H48.691V-1.38h6.442V0H47V-12.8h8.042v1.38H48.691v4.122h5.546Zm7.69.738H58.922V0h-1.7V-12.8h4.236a5.014,5.014,0,0,1,3.327.984,3.542,3.542,0,0,1,1.165,2.865,3.445,3.445,0,0,1-.646,2.083,3.856,3.856,0,0,1-1.8,1.327L66.516-.105V0H64.705Zm-3.006-1.38h2.593a2.924,2.924,0,0,0,2-.652,2.2,2.2,0,0,0,.743-1.743,2.32,2.32,0,0,0-.708-1.823,3,3,0,0,0-2.043-.643H58.922Zm19.239.571A7.916,7.916,0,0,1,77.528-2.7a4.793,4.793,0,0,1-1.793,2.14,4.933,4.933,0,0,1-2.707.738,4.891,4.891,0,0,1-2.681-.743,4.908,4.908,0,0,1-1.815-2.118,7.6,7.6,0,0,1-.664-3.186v-.923a7.822,7.822,0,0,1,.642-3.261,4.891,4.891,0,0,1,1.815-2.167,4.87,4.87,0,0,1,2.685-.751,4.961,4.961,0,0,1,2.711.743,4.784,4.784,0,0,1,1.806,2.153,7.955,7.955,0,0,1,.633,3.283Zm-1.679-.826a5.738,5.738,0,0,0-.914-3.494,3.015,3.015,0,0,0-2.558-1.217,2.982,2.982,0,0,0-2.518,1.217,5.62,5.62,0,0,0-.945,3.379v.94a5.746,5.746,0,0,0,.927,3.467,3,3,0,0,0,2.553,1.261A2.983,2.983,0,0,0,75.56-2.448a5.714,5.714,0,0,0,.923-3.415ZM84.463-5.7A7.935,7.935,0,0,1,81.3-7.238a2.93,2.93,0,0,1-.989-2.246,3.1,3.1,0,0,1,1.208-2.5,4.8,4.8,0,0,1,3.142-.989,5.243,5.243,0,0,1,2.351.51,3.866,3.866,0,0,1,1.6,1.406,3.6,3.6,0,0,1,.567,1.96h-1.7a2.34,2.34,0,0,0-.738-1.83,3,3,0,0,0-2.083-.666,3.074,3.074,0,0,0-1.947.55,1.836,1.836,0,0,0-.7,1.528,1.652,1.652,0,0,0,.664,1.325,6.509,6.509,0,0,0,2.259.991,10.481,10.481,0,0,1,2.5.99,3.788,3.788,0,0,1,1.336,1.261,3.219,3.219,0,0,1,.435,1.7A2.99,2.99,0,0,1,88-.76a5.171,5.171,0,0,1-3.243.936A6.015,6.015,0,0,1,82.292-.33,4.142,4.142,0,0,1,80.53-1.714a3.378,3.378,0,0,1-.62-2h1.7a2.2,2.2,0,0,0,.857,1.833,3.608,3.608,0,0,0,2.29.672A3.317,3.317,0,0,0,86.8-1.749a1.77,1.77,0,0,0,.712-1.485,1.738,1.738,0,0,0-.659-1.455A7.6,7.6,0,0,0,84.463-5.7ZM10.9,17.939a4.708,4.708,0,0,1-1.5,3.133,4.911,4.911,0,0,1-3.353,1.1A4.509,4.509,0,0,1,2.413,20.55,6.542,6.542,0,0,1,1.046,16.2v-1.23a7.291,7.291,0,0,1,.637-3.138A4.76,4.76,0,0,1,3.489,9.752,5.029,5.029,0,0,1,6.2,9.027a4.624,4.624,0,0,1,3.27,1.138A4.765,4.765,0,0,1,10.9,13.316H9.2a3.677,3.677,0,0,0-.954-2.222A2.885,2.885,0,0,0,6.2,10.407a3.019,3.019,0,0,0-2.536,1.2,5.492,5.492,0,0,0-.918,3.4v1.24a5.645,5.645,0,0,0,.87,3.316A2.812,2.812,0,0,0,6.047,20.8,3.247,3.247,0,0,0,8.2,20.159a3.536,3.536,0,0,0,1-2.219Zm9.536-1.854H14.889V20.62h6.442V22H13.2V9.2h8.042v1.38H14.889v4.122h5.546ZM33.267,22h-1.7l-6.442-9.861V22h-1.7V9.2h1.7l6.46,9.905V9.2h1.679ZM45.105,10.583H40.992V22H39.313V10.583h-4.1V9.2h9.9Zm9.132,5.5H48.691V20.62h6.442V22H47V9.2h8.042v1.38H48.691v4.122h5.546Zm7.69.738H58.922V22h-1.7V9.2h4.236a5.014,5.014,0,0,1,3.327.984,3.542,3.542,0,0,1,1.165,2.865,3.445,3.445,0,0,1-.646,2.083,3.856,3.856,0,0,1-1.8,1.327l3.006,5.432V22H64.705Zm-3.006-1.38h2.593a2.924,2.924,0,0,0,2-.652,2.2,2.2,0,0,0,.743-1.743,2.32,2.32,0,0,0-.708-1.823,3,3,0,0,0-2.043-.643H58.922ZM10.9,39.939a4.708,4.708,0,0,1-1.5,3.133,4.911,4.911,0,0,1-3.353,1.1A4.509,4.509,0,0,1,2.413,42.55,6.542,6.542,0,0,1,1.046,38.2v-1.23a7.291,7.291,0,0,1,.637-3.138,4.76,4.76,0,0,1,1.806-2.079A5.029,5.029,0,0,1,6.2,31.027a4.624,4.624,0,0,1,3.27,1.138A4.765,4.765,0,0,1,10.9,35.316H9.2a3.677,3.677,0,0,0-.954-2.222A2.885,2.885,0,0,0,6.2,32.407a3.019,3.019,0,0,0-2.536,1.2,5.492,5.492,0,0,0-.918,3.4v1.24a5.645,5.645,0,0,0,.87,3.316A2.812,2.812,0,0,0,6.047,42.8,3.247,3.247,0,0,0,8.2,42.159a3.536,3.536,0,0,0,1-2.219Zm9.536-1.854H14.889V42.62h6.442V44H13.2V31.2h8.042v1.38H14.889v4.122h5.546ZM33.267,44h-1.7l-6.442-9.861V44h-1.7V31.2h1.7l6.46,9.905V31.2h1.679ZM45.105,32.583H40.992V44H39.313V32.583h-4.1V31.2h9.9Zm9.132,5.5H48.691V42.62h6.442V44H47V31.2h8.042v1.38H48.691v4.122h5.546Zm7.69.738H58.922V44h-1.7V31.2h4.236a5.014,5.014,0,0,1,3.327.984,3.542,3.542,0,0,1,1.165,2.865,3.445,3.445,0,0,1-.646,2.083,3.856,3.856,0,0,1-1.8,1.327l3.006,5.432V44H64.705Zm-3.006-1.38h2.593a2.924,2.924,0,0,0,2-.652,2.2,2.2,0,0,0,.743-1.743,2.32,2.32,0,0,0-.708-1.823,3,3,0,0,0-2.043-.643H58.922Zm13.57-1.336,3.067-4.9h1.986L73.5,37.549,77.643,44h-2l-3.146-4.992L69.328,44h-2l4.148-6.451L67.43,31.2h1.978ZM87.565,44H79.181V42.831l4.43-4.922a10.524,10.524,0,0,0,1.358-1.815,3.029,3.029,0,0,0,.374-1.446A2.3,2.3,0,0,0,84.735,33a2.12,2.12,0,0,0-1.617-.642,2.511,2.511,0,0,0-1.885.69,2.635,2.635,0,0,0-.672,1.92H78.935a3.774,3.774,0,0,1,1.138-2.856,4.219,4.219,0,0,1,3.045-1.09,4.054,4.054,0,0,1,2.821.936,3.193,3.193,0,0,1,1.037,2.492q0,1.89-2.408,4.5l-3.428,3.718h6.425Z" transform="translate(736.229 7640.469)" fill="#36dfdf"/>
      <line id="Línea_1080" data-name="Línea 1080" x2="57.107" transform="translate(883.887 7631.6)" fill="none" stroke="#36dfdf" stroke-miterlimit="10" stroke-width="1"/>
      <line id="Línea_1081" data-name="Línea 1081" x2="57.107" transform="translate(970.476 7631.6)" fill="none" stroke="#36dfdf" stroke-miterlimit="10" stroke-width="1"/>
      <line id="Línea_1082" data-name="Línea 1082" x2="13.178" transform="translate(948.615 7631.6)" fill="none" stroke="#36dfdf" stroke-miterlimit="10" stroke-width="1"/>
      <line id="Línea_1083" data-name="Línea 1083" x2="57.107" transform="translate(1055.583 7631.6)" fill="none" stroke="#36dfdf" stroke-miterlimit="10" stroke-width="1"/>
      <line id="Línea_1084" data-name="Línea 1084" x2="13.178" transform="translate(1033.458 7631.6)" fill="none" stroke="#36dfdf" stroke-miterlimit="10" stroke-width="1"/>
      <line id="Línea_1085" data-name="Línea 1085" x2="98.267" transform="translate(885.561 7656.126)" fill="none" stroke="#36dfdf" stroke-miterlimit="10" stroke-width="1"/>
      <line id="Línea_1086" data-name="Línea 1086" x2="98.267" transform="translate(1035.04 7656.126)" fill="none" stroke="#36dfdf" stroke-miterlimit="10" stroke-width="1"/>
      <line id="Línea_1087" data-name="Línea 1087" x2="22.677" transform="translate(996.833 7656.126)" fill="none" stroke="#36dfdf" stroke-miterlimit="10" stroke-width="1"/>
      <line id="Línea_1088" data-name="Línea 1088" x2="155.026" transform="translate(888.189 7680.653)" fill="none" stroke="#36dfdf" stroke-miterlimit="10" stroke-width="1"/>
      <line id="Línea_1089" data-name="Línea 1089" x2="155.026" transform="translate(1125.201 7680.653)" fill="none" stroke="#36dfdf" stroke-miterlimit="10" stroke-width="1"/>
      <line id="Línea_1090" data-name="Línea 1090" x2="35.775" transform="translate(1063.446 7680.653)" fill="none" stroke="#36dfdf" stroke-miterlimit="10" stroke-width="1"/>
      <line id="Línea_1091" data-name="Línea 1091" x2="98.267" transform="translate(1181.961 7656.126)" fill="none" stroke="#36dfdf" stroke-miterlimit="10" stroke-width="1"/>
      <line id="Línea_1092" data-name="Línea 1092" x2="22.677" transform="translate(1149.537 7656.126)" fill="none" stroke="#36dfdf" stroke-miterlimit="10" stroke-width="1"/>
      <line id="Línea_1093" data-name="Línea 1093" x2="57.107" transform="translate(1144.384 7631.6)" fill="none" stroke="#36dfdf" stroke-miterlimit="10" stroke-width="1"/>
      <line id="Línea_1094" data-name="Línea 1094" x2="13.178" transform="translate(1125.541 7631.6)" fill="none" stroke="#36dfdf" stroke-miterlimit="10" stroke-width="1"/>
      <line id="Línea_1095" data-name="Línea 1095" x2="57.107" transform="translate(1223.12 7631.6)" fill="none" stroke="#36dfdf" stroke-miterlimit="10" stroke-width="1"/>
      <line id="Línea_1096" data-name="Línea 1096" x2="13.178" transform="translate(1204.277 7631.6)" fill="none" stroke="#36dfdf" stroke-miterlimit="10" stroke-width="1"/>
      <rect id="Rectángulo_30802" data-name="Rectángulo 30802" width="993.758" height="121.903" transform="translate(302 7488.831)" fill="none" stroke="#000" stroke-miterlimit="10" stroke-width="1"/>
      <rect id="Rectángulo_30803" data-name="Rectángulo 30803" width="993.758" height="42.681" transform="translate(302 7695.372)" fill="none" stroke="#000" stroke-miterlimit="10" stroke-width="1"/>
      <rect id="Rectángulo_30804" data-name="Rectángulo 30804" width="993.758" height="42.681" transform="translate(302 7942.028)" fill="none" stroke="#000" stroke-miterlimit="10" stroke-width="1"/>
      <rect id="Rectángulo_30805" data-name="Rectángulo 30805" width="993.758" height="42.681" transform="translate(302 7816.054)" fill="none" stroke="#000" stroke-miterlimit="10" stroke-width="1"/>
      <rect id="Rectángulo_30806" data-name="Rectángulo 30806" width="193" height="538.709" transform="translate(302 7446)" fill="none" stroke="#000" stroke-miterlimit="10" stroke-width="1"/>
      <rect id="Rectángulo_30807" data-name="Rectángulo 30807" width="590.758" height="538.709" transform="translate(705 7446)" fill="none" stroke="#000" stroke-miterlimit="10" stroke-width="1"/>
      <path id="Trazado_130962" data-name="Trazado 130962" d="M3.182-1.38H9.246V0H1.485V-12.8h1.7ZM18.4-3.349H13.043L11.839,0H10.1l4.887-12.8h1.477L21.357,0H19.626Zm-4.852-1.38H17.9l-2.18-5.985Zm12.6-1.644L29.5-12.8h1.916L27-4.772V0H25.313V-4.772L20.9-12.8h1.934ZM40.3-5.915H34.752V-1.38h6.442V0h-8.13V-12.8h8.042v1.38H34.752v4.122H40.3Zm7.69.738H44.982V0h-1.7V-12.8h4.236a5.014,5.014,0,0,1,3.327.984,3.542,3.542,0,0,1,1.165,2.865,3.445,3.445,0,0,1-.646,2.083,3.856,3.856,0,0,1-1.8,1.327L52.576-.105V0H50.766Zm-3.006-1.38h2.593a2.924,2.924,0,0,0,2-.652,2.2,2.2,0,0,0,.743-1.743,2.32,2.32,0,0,0-.708-1.823,3,3,0,0,0-2.043-.643H44.982Z" transform="translate(357 7472.119)" fill="#fff"/>
      <path id="Trazado_130964" data-name="Trazado 130964" d="M10.9-4.061A4.708,4.708,0,0,1,9.4-.927,4.911,4.911,0,0,1,6.047.176,4.509,4.509,0,0,1,2.413-1.45,6.542,6.542,0,0,1,1.046-5.8v-1.23a7.291,7.291,0,0,1,.637-3.138,4.76,4.76,0,0,1,1.806-2.079A5.029,5.029,0,0,1,6.2-12.973a4.624,4.624,0,0,1,3.27,1.138A4.765,4.765,0,0,1,10.9-8.684H9.2a3.677,3.677,0,0,0-.954-2.222A2.885,2.885,0,0,0,6.2-11.593a3.019,3.019,0,0,0-2.536,1.2,5.492,5.492,0,0,0-.918,3.4v1.24a5.645,5.645,0,0,0,.87,3.316A2.812,2.812,0,0,0,6.047-1.2,3.247,3.247,0,0,0,8.2-1.841a3.536,3.536,0,0,0,1-2.219ZM23.045-5.985A7.916,7.916,0,0,1,22.412-2.7a4.793,4.793,0,0,1-1.793,2.14,4.933,4.933,0,0,1-2.707.738,4.891,4.891,0,0,1-2.681-.743,4.908,4.908,0,0,1-1.815-2.118,7.6,7.6,0,0,1-.664-3.186v-.923a7.822,7.822,0,0,1,.642-3.261,4.891,4.891,0,0,1,1.815-2.167,4.87,4.87,0,0,1,2.685-.751,4.961,4.961,0,0,1,2.711.743,4.784,4.784,0,0,1,1.806,2.153,7.955,7.955,0,0,1,.633,3.283Zm-1.679-.826a5.738,5.738,0,0,0-.914-3.494,3.015,3.015,0,0,0-2.558-1.217,2.982,2.982,0,0,0-2.518,1.217,5.62,5.62,0,0,0-.945,3.379v.94a5.746,5.746,0,0,0,.927,3.467,3,3,0,0,0,2.553,1.261,2.983,2.983,0,0,0,2.531-1.191,5.714,5.714,0,0,0,.923-3.415ZM27.272-1.38h6.064V0H25.576V-12.8h1.7ZM44.534-5.985A7.916,7.916,0,0,1,43.9-2.7a4.793,4.793,0,0,1-1.793,2.14A4.933,4.933,0,0,1,39.4.176a4.891,4.891,0,0,1-2.681-.743,4.908,4.908,0,0,1-1.815-2.118,7.6,7.6,0,0,1-.664-3.186v-.923a7.822,7.822,0,0,1,.642-3.261A4.891,4.891,0,0,1,36.7-12.221a4.87,4.87,0,0,1,2.685-.751,4.961,4.961,0,0,1,2.711.743A4.784,4.784,0,0,1,43.9-10.077a7.955,7.955,0,0,1,.633,3.283Zm-1.679-.826a5.738,5.738,0,0,0-.914-3.494,3.015,3.015,0,0,0-2.558-1.217,2.982,2.982,0,0,0-2.518,1.217,5.62,5.62,0,0,0-.945,3.379v.94a5.746,5.746,0,0,0,.927,3.467A3,3,0,0,0,39.4-1.257a2.983,2.983,0,0,0,2.531-1.191,5.714,5.714,0,0,0,.923-3.415Zm8.9,1.635H48.753V0h-1.7V-12.8h4.236a5.014,5.014,0,0,1,3.327.984,3.542,3.542,0,0,1,1.165,2.865,3.445,3.445,0,0,1-.646,2.083,3.856,3.856,0,0,1-1.8,1.327L56.347-.105V0H54.536Zm-3.006-1.38h2.593a2.924,2.924,0,0,0,2-.652,2.2,2.2,0,0,0,.743-1.743,2.32,2.32,0,0,0-.708-1.823,3,3,0,0,0-2.043-.643H48.753Z" transform="translate(565 7472.119)" fill="#fff"/>
      <path id="Trazado_130965" data-name="Trazado 130965" d="M3.182-1.38H9.246V0H1.485V-12.8h1.7ZM12.981,0H11.294V-12.8h1.688ZM25.9,0h-1.7L17.763-9.861V0h-1.7V-12.8h1.7l6.46,9.905V-12.8H25.9Zm10.23-5.915H30.586V-1.38h6.442V0H28.9V-12.8H36.94v1.38H30.586v4.122h5.546Zm12.015-5.5H44.033V0H42.354V-11.417h-4.1V-12.8h9.9Zm5.941,5.045,3.34-6.425h1.916L54.932-4.772V0H53.244V-4.772L48.832-12.8h1.934Zm8.6,1.362V0H61V-12.8h4.72a4.742,4.742,0,0,1,3.292,1.072A3.635,3.635,0,0,1,70.2-8.886a3.587,3.587,0,0,1-1.165,2.87A4.954,4.954,0,0,1,65.7-5.01Zm0-1.38h3.032a3.032,3.032,0,0,0,2.074-.638,2.334,2.334,0,0,0,.721-1.845A2.411,2.411,0,0,0,67.79-10.7a2.84,2.84,0,0,0-1.978-.713H62.684Zm16.9.475H74.039V-1.38h6.442V0h-8.13V-12.8h8.042v1.38H74.039v4.122h5.546Z" transform="translate(928.376 7472.119)" fill="#fff"/>
      <rect id="Rectángulo_30808" data-name="Rectángulo 30808" width="993.758" height="42.831" transform="translate(302 7446)" fill="none" stroke="#000" stroke-miterlimit="10" stroke-width="1"/>
      <rect id="Rectángulo_31210" data-name="Rectángulo 31210" width="993.758" height="25.635" transform="translate(302 7524.147)" fill="none" stroke="#000" stroke-miterlimit="10" stroke-width="1"/>
      <line id="Línea_1109" data-name="Línea 1109" x2="993" transform="translate(302.5 7580.5)" fill="none" stroke="#000" stroke-width="1"/>
    </g>
  </g>
</svg>
