<svg xmlns="http://www.w3.org/2000/svg" width="610.342" height="621.879" viewBox="0 0 610.342 621.879">
  <g id="Grupo_62064" data-name="Grupo 62064" transform="translate(-704.501 -1099.999)">
    <g id="Grupo_60039" data-name="Grupo 60039" transform="translate(525 -0.146)">
      <g id="Grupo_59588" data-name="Grupo 59588" transform="translate(180 1681.065)">
        <rect id="Rectángulo_29951" data-name="Rectángulo 29951" width="609" height="40.878" transform="translate(0 0.081)" fill="#e8e8e8"/>
        <path id="Trazado_130965" data-name="Trazado 130965" d="M8.176,14H6.951L2.3,6.878V14H1.073V4.758H2.3l4.666,7.154V4.758H8.176Zm1.669-3.5a4.057,4.057,0,0,1,.4-1.815,2.96,2.96,0,0,1,1.1-1.244A3.007,3.007,0,0,1,12.962,7a2.9,2.9,0,0,1,2.269.971A3.736,3.736,0,0,1,16.1,10.56v.083a4.092,4.092,0,0,1-.384,1.8,2.916,2.916,0,0,1-1.1,1.241,3.041,3.041,0,0,1-1.641.444,2.889,2.889,0,0,1-2.263-.971,3.718,3.718,0,0,1-.866-2.571Zm1.181.14a2.938,2.938,0,0,0,.53,1.834,1.8,1.8,0,0,0,2.841-.01,3.213,3.213,0,0,0,.527-1.965,2.933,2.933,0,0,0-.536-1.831,1.705,1.705,0,0,0-1.425-.7,1.686,1.686,0,0,0-1.4.692A3.189,3.189,0,0,0,11.026,10.642Zm8.138-5.173V7.132h1.282V8.04H19.164V12.3a.953.953,0,0,0,.171.62.721.721,0,0,0,.584.207,2.843,2.843,0,0,0,.559-.076V14a3.424,3.424,0,0,1-.9.126,1.462,1.462,0,0,1-1.187-.476,2.045,2.045,0,0,1-.4-1.352V8.04h-1.25V7.132h1.25V5.469ZM26.057,14a2.467,2.467,0,0,1-.165-.724,2.62,2.62,0,0,1-1.955.851,2.424,2.424,0,0,1-1.666-.574A1.859,1.859,0,0,1,21.62,12.1a1.942,1.942,0,0,1,.816-1.666,3.846,3.846,0,0,1,2.295-.594h1.143V9.3a1.319,1.319,0,0,0-.368-.981,1.48,1.48,0,0,0-1.085-.365,1.712,1.712,0,0,0-1.054.317.935.935,0,0,0-.425.768H21.76a1.621,1.621,0,0,1,.365-.993,2.491,2.491,0,0,1,.99-.759A3.331,3.331,0,0,1,24.489,7a2.715,2.715,0,0,1,1.86.594,2.141,2.141,0,0,1,.7,1.635v3.161a3.865,3.865,0,0,0,.241,1.5V14Zm-1.949-.9a2.064,2.064,0,0,0,1.047-.286,1.728,1.728,0,0,0,.717-.743V10.667h-.92q-2.158,0-2.158,1.263a1.069,1.069,0,0,0,.368.863A1.415,1.415,0,0,0,24.108,13.1Zm4.805.279a.735.735,0,0,1,.181-.508.689.689,0,0,1,.543-.2.71.71,0,0,1,.549.2.721.721,0,0,1,.187.508.681.681,0,0,1-.187.489.723.723,0,0,1-.549.2.653.653,0,0,1-.724-.686Zm12.93-7.63H38.873V14H37.661V5.754H34.7v-1h7.147Zm.248,4.748a4.057,4.057,0,0,1,.4-1.815,2.96,2.96,0,0,1,1.1-1.244A3.007,3.007,0,0,1,45.208,7a2.9,2.9,0,0,1,2.269.971,3.736,3.736,0,0,1,.866,2.583v.083a4.092,4.092,0,0,1-.384,1.8,2.916,2.916,0,0,1-1.1,1.241,3.041,3.041,0,0,1-1.641.444,2.889,2.889,0,0,1-2.263-.971,3.718,3.718,0,0,1-.866-2.571Zm1.181.14a2.938,2.938,0,0,0,.53,1.834,1.8,1.8,0,0,0,2.841-.01,3.213,3.213,0,0,0,.527-1.965,2.933,2.933,0,0,0-.536-1.831,1.705,1.705,0,0,0-1.425-.7,1.686,1.686,0,0,0-1.4.692A3.189,3.189,0,0,0,43.272,10.642Zm7.649-3.51.032.762A2.536,2.536,0,0,1,52.99,7a1.964,1.964,0,0,1,1.961,1.1,2.6,2.6,0,0,1,.892-.8,2.634,2.634,0,0,1,1.3-.3q2.26,0,2.3,2.393V14H58.265V9.468a1.577,1.577,0,0,0-.336-1.1A1.482,1.482,0,0,0,56.8,8a1.557,1.557,0,0,0-1.085.39,1.584,1.584,0,0,0-.5,1.051V14H54.031V9.5A1.31,1.31,0,0,0,52.565,8a1.571,1.571,0,0,0-1.581.984V14H49.81V7.132ZM65.451,14a2.467,2.467,0,0,1-.165-.724,2.62,2.62,0,0,1-1.955.851,2.424,2.424,0,0,1-1.666-.574,1.859,1.859,0,0,1-.651-1.457,1.942,1.942,0,0,1,.816-1.666,3.846,3.846,0,0,1,2.295-.594h1.143V9.3a1.319,1.319,0,0,0-.368-.981,1.48,1.48,0,0,0-1.085-.365,1.712,1.712,0,0,0-1.054.317.935.935,0,0,0-.425.768H61.153a1.621,1.621,0,0,1,.365-.993,2.491,2.491,0,0,1,.99-.759A3.331,3.331,0,0,1,63.883,7a2.715,2.715,0,0,1,1.86.594,2.141,2.141,0,0,1,.7,1.635v3.161a3.865,3.865,0,0,0,.241,1.5V14ZM63.5,13.1a2.064,2.064,0,0,0,1.047-.286,1.728,1.728,0,0,0,.717-.743V10.667h-.92q-2.158,0-2.158,1.263a1.069,1.069,0,0,0,.368.863A1.415,1.415,0,0,0,63.5,13.1ZM68,10.509a4.023,4.023,0,0,1,.749-2.542,2.548,2.548,0,0,1,3.872-.136V4.25h1.174V14H72.712l-.057-.736a2.391,2.391,0,0,1-1.961.863,2.346,2.346,0,0,1-1.946-.978A4.069,4.069,0,0,1,68,10.6Zm1.174.133a3.046,3.046,0,0,0,.482,1.828,1.56,1.56,0,0,0,1.333.66,1.713,1.713,0,0,0,1.631-1V8.973A1.726,1.726,0,0,0,71,8a1.567,1.567,0,0,0-1.346.667A3.354,3.354,0,0,0,69.17,10.642ZM79.854,14a2.467,2.467,0,0,1-.165-.724,2.62,2.62,0,0,1-1.955.851,2.424,2.424,0,0,1-1.666-.574,1.859,1.859,0,0,1-.651-1.457,1.942,1.942,0,0,1,.816-1.666,3.846,3.846,0,0,1,2.295-.594h1.143V9.3a1.319,1.319,0,0,0-.368-.981,1.48,1.48,0,0,0-1.085-.365,1.712,1.712,0,0,0-1.054.317.935.935,0,0,0-.425.768H75.556a1.621,1.621,0,0,1,.365-.993,2.491,2.491,0,0,1,.99-.759A3.331,3.331,0,0,1,78.286,7a2.715,2.715,0,0,1,1.86.594,2.141,2.141,0,0,1,.7,1.635v3.161a3.865,3.865,0,0,0,.241,1.5V14ZM77.9,13.1a2.064,2.064,0,0,0,1.047-.286,1.728,1.728,0,0,0,.717-.743V10.667h-.92q-2.158,0-2.158,1.263a1.069,1.069,0,0,0,.368.863A1.415,1.415,0,0,0,77.9,13.1Zm7.712-2.6a4.023,4.023,0,0,1,.749-2.542,2.548,2.548,0,0,1,3.872-.136V4.25h1.174V14H90.333l-.057-.736a2.391,2.391,0,0,1-1.961.863,2.346,2.346,0,0,1-1.946-.978,4.069,4.069,0,0,1-.752-2.552Zm1.174.133a3.046,3.046,0,0,0,.482,1.828,1.56,1.56,0,0,0,1.333.66,1.713,1.713,0,0,0,1.631-1V8.973A1.726,1.726,0,0,0,88.62,8a1.567,1.567,0,0,0-1.346.667A3.354,3.354,0,0,0,86.792,10.642Zm9.293,3.485a3,3,0,0,1-2.272-.917,3.4,3.4,0,0,1-.876-2.453v-.216a4.121,4.121,0,0,1,.39-1.825,3.045,3.045,0,0,1,1.092-1.257A2.745,2.745,0,0,1,95.938,7a2.572,2.572,0,0,1,2.082.882,3.82,3.82,0,0,1,.743,2.526V10.9H94.11a2.441,2.441,0,0,0,.594,1.641,1.866,1.866,0,0,0,1.444.625,2.045,2.045,0,0,0,1.054-.254,2.648,2.648,0,0,0,.755-.673l.717.559A2.884,2.884,0,0,1,96.084,14.127ZM95.938,7.97a1.566,1.566,0,0,0-1.193.517,2.515,2.515,0,0,0-.6,1.45h3.44V9.849a2.237,2.237,0,0,0-.482-1.387A1.475,1.475,0,0,0,95.938,7.97Zm12.689,3.612h-3.872L103.886,14h-1.257l3.529-9.242h1.066L110.76,14h-1.25Zm-3.5-1h3.142l-1.574-4.323Zm10.867,2.736a2.494,2.494,0,0,1-2.012.806,2.135,2.135,0,0,1-1.673-.638,2.761,2.761,0,0,1-.581-1.888V7.132H112.9v4.437q0,1.562,1.27,1.562a1.758,1.758,0,0,0,1.79-1v-5h1.174V14h-1.117Zm4.52-7.852V7.132h1.282V8.04H120.51V12.3a.953.953,0,0,0,.171.62.721.721,0,0,0,.584.207,2.843,2.843,0,0,0,.559-.076V14a3.424,3.424,0,0,1-.9.126,1.462,1.462,0,0,1-1.187-.476,2.045,2.045,0,0,1-.4-1.352V8.04h-1.25V7.132h1.25V5.469Zm2.215,5.034a4.057,4.057,0,0,1,.4-1.815,2.96,2.96,0,0,1,1.1-1.244A3.007,3.007,0,0,1,125.842,7a2.9,2.9,0,0,1,2.269.971,3.736,3.736,0,0,1,.866,2.583v.083a4.092,4.092,0,0,1-.384,1.8,2.916,2.916,0,0,1-1.1,1.241,3.041,3.041,0,0,1-1.641.444,2.889,2.889,0,0,1-2.263-.971,3.718,3.718,0,0,1-.866-2.571Zm1.181.14a2.938,2.938,0,0,0,.53,1.834,1.8,1.8,0,0,0,2.841-.01A3.213,3.213,0,0,0,127.8,10.5a2.933,2.933,0,0,0-.536-1.831,1.705,1.705,0,0,0-1.425-.7,1.686,1.686,0,0,0-1.4.692A3.189,3.189,0,0,0,123.906,10.642Zm6.259-.133a4.023,4.023,0,0,1,.749-2.542,2.548,2.548,0,0,1,3.872-.136V4.25h1.174V14h-1.079l-.057-.736a2.391,2.391,0,0,1-1.961.863,2.346,2.346,0,0,1-1.946-.978,4.069,4.069,0,0,1-.752-2.552Zm1.174.133a3.046,3.046,0,0,0,.482,1.828,1.56,1.56,0,0,0,1.333.66,1.713,1.713,0,0,0,1.631-1V8.973A1.726,1.726,0,0,0,133.167,8a1.567,1.567,0,0,0-1.346.667A3.354,3.354,0,0,0,131.339,10.642Zm9.293,3.485a3,3,0,0,1-2.272-.917,3.4,3.4,0,0,1-.876-2.453v-.216a4.121,4.121,0,0,1,.39-1.825,3.045,3.045,0,0,1,1.092-1.257A2.745,2.745,0,0,1,140.486,7a2.572,2.572,0,0,1,2.082.882,3.82,3.82,0,0,1,.743,2.526V10.9h-4.653a2.441,2.441,0,0,0,.594,1.641,1.866,1.866,0,0,0,1.444.625,2.045,2.045,0,0,0,1.054-.254,2.647,2.647,0,0,0,.755-.673l.717.559A2.884,2.884,0,0,1,140.632,14.127Zm-.146-6.157a1.566,1.566,0,0,0-1.193.517,2.515,2.515,0,0,0-.6,1.45h3.44V9.849a2.237,2.237,0,0,0-.482-1.387A1.475,1.475,0,0,0,140.486,7.97Zm8.182,4.208a.865.865,0,0,0-.359-.74,3.452,3.452,0,0,0-1.25-.454,5.912,5.912,0,0,1-1.416-.457,2.014,2.014,0,0,1-.774-.635,1.518,1.518,0,0,1-.251-.876,1.782,1.782,0,0,1,.714-1.428A2.789,2.789,0,0,1,147.158,7a2.87,2.87,0,0,1,1.895.6,1.915,1.915,0,0,1,.727,1.542H148.6a1.06,1.06,0,0,0-.409-.832,1.534,1.534,0,0,0-1.031-.349,1.605,1.605,0,0,0-1,.279.879.879,0,0,0-.362.73.712.712,0,0,0,.336.641,4.139,4.139,0,0,0,1.216.413,6.334,6.334,0,0,1,1.425.47,2.079,2.079,0,0,1,.809.657,1.615,1.615,0,0,1,.263.936,1.758,1.758,0,0,1-.736,1.476,3.089,3.089,0,0,1-1.911.555,3.459,3.459,0,0,1-1.46-.292,2.375,2.375,0,0,1-.993-.816,1.966,1.966,0,0,1-.359-1.133h1.174a1.216,1.216,0,0,0,.473.936,1.835,1.835,0,0,0,1.165.346,1.894,1.894,0,0,0,1.07-.27A.829.829,0,0,0,148.668,12.178Zm4.621-1.358-.736.768V14h-1.174V4.25h1.174v5.9l.628-.755,2.139-2.26h1.428L154.077,10l2.983,4h-1.377Zm7.846-.571a9.814,9.814,0,0,1,.384-2.755,8,8,0,0,1,1.146-2.4,4.874,4.874,0,0,1,1.581-1.523l.241.774a5.056,5.056,0,0,0-1.52,2.171,9.411,9.411,0,0,0-.651,3.269l-.006.54a9.46,9.46,0,0,0,.9,4.253,5.079,5.079,0,0,0,1.282,1.688l-.241.717a5.031,5.031,0,0,1-1.612-1.574A8.823,8.823,0,0,1,161.135,10.249ZM171.558,14H165.5v-.844L168.7,9.6a7.6,7.6,0,0,0,.981-1.311,2.188,2.188,0,0,0,.27-1.044,1.658,1.658,0,0,0-.438-1.187,1.531,1.531,0,0,0-1.168-.463,1.814,1.814,0,0,0-1.362.5,1.9,1.9,0,0,0-.486,1.387h-1.174a2.726,2.726,0,0,1,.822-2.063,3.047,3.047,0,0,1,2.2-.787,2.928,2.928,0,0,1,2.038.676,2.306,2.306,0,0,1,.749,1.8,5.287,5.287,0,0,1-1.739,3.25l-2.476,2.685h4.64Zm7.04-3.942a5.371,5.371,0,0,1-.7,3.066,2.928,2.928,0,0,1-4.393.022,5.1,5.1,0,0,1-.736-2.929V8.649a5.251,5.251,0,0,1,.7-3.028,2.98,2.98,0,0,1,4.405-.035,5.068,5.068,0,0,1,.724,2.948Zm-1.174-1.606A4.3,4.3,0,0,0,177,6.278a1.442,1.442,0,0,0-1.327-.682,1.423,1.423,0,0,0-1.314.679,4.2,4.2,0,0,0-.425,2.088v1.879a4.372,4.372,0,0,0,.435,2.212,1.439,1.439,0,0,0,1.317.714,1.42,1.42,0,0,0,1.292-.673,4.214,4.214,0,0,0,.441-2.12ZM183.961,14h-1.181V6.173l-2.368.87V5.977l3.364-1.263h.184ZM191.9,9.938a2.873,2.873,0,0,1-.879.7,2.385,2.385,0,0,1-1.12.267,2.463,2.463,0,0,1-1.393-.394,2.558,2.558,0,0,1-.917-1.108,3.776,3.776,0,0,1-.324-1.577,3.847,3.847,0,0,1,.352-1.669,2.588,2.588,0,0,1,1-1.136,2.851,2.851,0,0,1,1.511-.394,2.581,2.581,0,0,1,2.161,1.025,4.471,4.471,0,0,1,.79,2.8v.343a5.974,5.974,0,0,1-1.066,3.939,4.1,4.1,0,0,1-3.218,1.273h-.229v-1h.248a3.233,3.233,0,0,0,2.234-.757A3.248,3.248,0,0,0,191.9,9.938Zm-1.809,0a1.813,1.813,0,0,0,1.089-.362,2.133,2.133,0,0,0,.727-.9v-.47a3.232,3.232,0,0,0-.5-1.879,1.533,1.533,0,0,0-2.514-.13,2.448,2.448,0,0,0-.47,1.565,2.548,2.548,0,0,0,.454,1.558A1.437,1.437,0,0,0,190.093,9.938Zm7.579,4.189a3,3,0,0,1-2.272-.917,3.4,3.4,0,0,1-.876-2.453v-.216a4.121,4.121,0,0,1,.39-1.825,3.045,3.045,0,0,1,1.092-1.257A2.745,2.745,0,0,1,197.526,7a2.572,2.572,0,0,1,2.082.882,3.82,3.82,0,0,1,.743,2.526V10.9H195.7a2.441,2.441,0,0,0,.594,1.641,1.866,1.866,0,0,0,1.444.625,2.045,2.045,0,0,0,1.054-.254,2.647,2.647,0,0,0,.755-.673l.717.559A2.884,2.884,0,0,1,197.672,14.127Zm-.146-6.157a1.566,1.566,0,0,0-1.193.517,2.515,2.515,0,0,0-.6,1.45h3.44V9.849a2.237,2.237,0,0,0-.482-1.387A1.475,1.475,0,0,0,197.526,7.97Zm6.894,2.342a9.819,9.819,0,0,1-.371,2.714,8.024,8.024,0,0,1-1.136,2.4,4.978,4.978,0,0,1-1.6,1.562l-.248-.717a5.1,5.1,0,0,0,1.571-2.326,10.065,10.065,0,0,0,.606-3.5v-.2a10.449,10.449,0,0,0-.279-2.479,8.366,8.366,0,0,0-.778-2.053,4.743,4.743,0,0,0-1.12-1.416l.248-.717a4.959,4.959,0,0,1,1.6,1.549,8.041,8.041,0,0,1,1.136,2.393A10.045,10.045,0,0,1,204.42,10.312Zm1.834,3.072a.735.735,0,0,1,.181-.508.689.689,0,0,1,.543-.2.71.71,0,0,1,.549.2.721.721,0,0,1,.187.508.682.682,0,0,1-.187.489.723.723,0,0,1-.549.2.653.653,0,0,1-.724-.686Z" transform="translate(23 13.081)" fill="#12263f"/>
      </g>
      <g id="Grupo_60034" data-name="Grupo 60034" transform="translate(180.001 1147.258)">
        <g id="Grupo_60033" data-name="Grupo 60033" transform="translate(0 0)">
          <line id="Línea_880" data-name="Línea 880" x2="154.525" transform="translate(71.313 496.674)" fill="none" stroke="#0024aa" stroke-miterlimit="10" stroke-width="1"/>
          <line id="Línea_881" data-name="Línea 881" x2="151.916" transform="translate(71.313 501.691)" fill="none" stroke="#0024aa" stroke-miterlimit="10" stroke-width="1"/>
          <line id="Línea_882" data-name="Línea 882" x1="154.525" transform="translate(71.313 507.31)" fill="none" stroke="#0024aa" stroke-miterlimit="10" stroke-width="1"/>
          <rect id="Rectángulo_30766" data-name="Rectángulo 30766" width="8.081" height="9.833" transform="translate(117.416 496.674)" fill="#fdf0c4" stroke="#0024aa" stroke-miterlimit="10" stroke-width="1"/>
          <rect id="Rectángulo_30767" data-name="Rectángulo 30767" width="8.081" height="9.833" transform="translate(170.998 496.674)" fill="#fdf0c4" stroke="#0024aa" stroke-miterlimit="10" stroke-width="1"/>
          <path id="Trazado_125515" data-name="Trazado 125515" d="M45.464,33.225H29.209L25.9,36.536V54.6L27.4,56.1H45.464" transform="translate(14.109 17.032)" fill="none" stroke="#0024aa" stroke-miterlimit="10" stroke-width="1"/>
          <line id="Línea_883" data-name="Línea 883" y2="28.898" transform="translate(55.058 86.681)" fill="none" stroke="#000" stroke-miterlimit="10" stroke-width="1"/>
          <line id="Línea_884" data-name="Línea 884" y2="26.468" transform="translate(55.058 50.58)" fill="none" stroke="#000" stroke-miterlimit="10" stroke-width="1"/>
          <line id="Línea_885" data-name="Línea 885" y2="35.521" transform="translate(55.058 11.425)" fill="none" stroke="#000" stroke-miterlimit="10" stroke-width="1"/>
          <line id="Línea_886" data-name="Línea 886" y2="104.154" transform="translate(34.89 11.425)" fill="none" stroke="#000" stroke-miterlimit="10" stroke-width="1"/>
          <path id="Trazado_125516" data-name="Trazado 125516" d="M243.762,6.137v6.924h-11.74V126.246H215.767v-8.128h6.02V13.061h-59.3V118.118h7.526v8.128H144.726v-8.128h11.138V14.566H87.23V118.118h9.031v8.128H86.628v5.984H77.3v-5.984H2.672v-8.128H75.791V13.964H25.821V7.342" transform="translate(-2.672 -2.539)" fill="#fdf0c4" stroke="#0024aa" stroke-miterlimit="10" stroke-width="1"/>
          <line id="Línea_887" data-name="Línea 887" y2="15.051" transform="translate(62.885 54.773)" fill="none" stroke="#0024aa" stroke-miterlimit="10" stroke-width="1"/>
          <rect id="Rectángulo_30768" data-name="Rectángulo 30768" width="47.562" height="51.575" transform="translate(166.637 18.248)" fill="none" stroke="#000" stroke-miterlimit="10" stroke-width="1"/>
          <line id="Línea_888" data-name="Línea 888" x1="47.628" y1="51.514" transform="translate(166.604 18.279)" fill="none" stroke="#000" stroke-miterlimit="10" stroke-width="1"/>
          <line id="Línea_889" data-name="Línea 889" x1="47.562" y2="51.575" transform="translate(166.637 18.248)" fill="none" stroke="#000" stroke-miterlimit="10" stroke-width="1"/>
          <path id="Trazado_125517" data-name="Trazado 125517" d="M2.672,212.432H25.219v186.91h28.7v31.632H73.985V420.339H62.747v-30.9H35.454V132.862H189.979V121.525H87.632V115.3H75.791v6.222H25.821V203.3H2.672" transform="translate(-2.672 76.335)" fill="#fdf0c4" stroke="#0024aa" stroke-miterlimit="10" stroke-width="1"/>
          <path id="Trazado_125518" data-name="Trazado 125518" d="M155.325,432.532V400.9H505.114V284.83h-8.228v105.9H254.663V241.845h-8.629V246.7H167.567V134.419H189.04l57.194,56.291v5.619H254.8V188.1l-57.465-57.465,11.268-11.268-6.221-6.221-10.335,10.335H151.312v10.033h8.228V301.085h8.228V255.731h78.266V390.79H168.37V346.337H160.1v45.055H147.657v30.5H132.849v10.636Z" transform="translate(91.384 74.778)" fill="#fdf0c4" stroke="#0024aa" stroke-miterlimit="10" stroke-width="1"/>
          <line id="Línea_890" data-name="Línea 890" y2="116.051" transform="translate(589.073 242.755)" fill="none" stroke="#0024aa" stroke-miterlimit="10" stroke-width="1"/>
          <line id="Línea_891" data-name="Línea 891" y2="116.853" transform="translate(596.498 242.755)" fill="none" stroke="#0024aa" stroke-miterlimit="10" stroke-width="1"/>
          <line id="Línea_892" data-name="Línea 892" y2="116.051" transform="translate(592.685 242.755)" fill="none" stroke="#0024aa" stroke-miterlimit="10" stroke-width="1"/>
          <path id="Trazado_125519" data-name="Trazado 125519" d="M450.5,100.153H219.453l-16.506,15.771L196.926,109l11.579-8.847V84.246h8.552v4.886H449.786v-28.3h9.733V204.876h-9.031Z" transform="translate(137.682 36.982)" fill="#fdf0c4" stroke="#0024aa" stroke-miterlimit="10" stroke-width="1"/>
          <path id="Trazado_125520" data-name="Trazado 125520" d="M176.96,5.906v8.045h46.415V58.717H188.306v9.147h35.069V79.3h6.982V13.539H465.148v30.8h8.8V5.906" transform="translate(123.256 -2.706)" fill="#fdf0c4" stroke="#0024aa" stroke-miterlimit="10" stroke-width="1"/>
          <line id="Línea_893" data-name="Línea 893" y2="54.558" transform="translate(588.61 43.015)" fill="none" stroke="#0024aa" stroke-miterlimit="10" stroke-width="1"/>
          <line id="Línea_894" data-name="Línea 894" y2="54.558" transform="translate(593.355 43.015)" fill="none" stroke="#0024aa" stroke-miterlimit="10" stroke-width="1"/>
          <line id="Línea_895" data-name="Línea 895" y2="54.558" transform="translate(597.2 43.015)" fill="none" stroke="#0024aa" stroke-miterlimit="10" stroke-width="1"/>
          <line id="Línea_896" data-name="Línea 896" y2="115.282" transform="translate(530.849 10.833)" fill="none" stroke="#848fff" stroke-miterlimit="10" stroke-width="1"/>
          <path id="Trazado_125521" data-name="Trazado 125521" d="M357.737,24.522s-9.9-17.534-29.912-5.776c0,0-12.171,35.894-12.585,41.258s0,46.415,0,46.415,3.92,9.865,10.108,10.3,22.692,0,22.692,0,10.315-6.17,9.7-11.534S357.737,24.522,357.737,24.522Z" transform="translate(223.034 3.639)" fill="none" stroke="#848fff" stroke-miterlimit="10" stroke-width="1"/>
          <path id="Trazado_125522" data-name="Trazado 125522" d="M286.707,13.212h31.877l2.475,2.542V24.97l-2.475,2.064h-8.046l-1.032,8.418s12.063,27.51-5.624,31.412-14.385-22.3-11.5-32.4l1.547-2.269V27.445l-9.591.207-1.032-1.443V14.244Z" transform="translate(200.094 2.573)" fill="none" stroke="#848fff" stroke-miterlimit="10" stroke-width="1"/>
          <path id="Trazado_125523" data-name="Trazado 125523" d="M239.157,16.565s-10.034,8.669-2.324,17.33c4.692,5.271,12.45,6.451,18.848,3.471,6.7-3.119,12.945-9.162,2.868-19.976" transform="translate(164.41 4.995)" fill="none" stroke="#848fff" stroke-miterlimit="10" stroke-width="1"/>
          <line id="Línea_897" data-name="Línea 897" x2="117.099" transform="translate(354.738 53.329)" fill="none" stroke="#000" stroke-miterlimit="10" stroke-width="1"/>
          <line id="Línea_898" data-name="Línea 898" y2="42.496" transform="translate(471.838 10.833)" fill="none" stroke="#000" stroke-miterlimit="10" stroke-width="1"/>
          <line id="Línea_899" data-name="Línea 899" x2="16.616" transform="translate(353.613 32.081)" fill="none" stroke="#000" stroke-miterlimit="10" stroke-width="1"/>
          <line id="Línea_900" data-name="Línea 900" x2="23.723" transform="translate(382.32 32.081)" fill="none" stroke="#000" stroke-miterlimit="10" stroke-width="1"/>
          <line id="Línea_901" data-name="Línea 901" x2="26.199" transform="translate(417.595 32.305)" fill="none" stroke="#000" stroke-miterlimit="10" stroke-width="1"/>
          <line id="Línea_902" data-name="Línea 902" x2="18.795" transform="translate(453.042 32.081)" fill="none" stroke="#000" stroke-miterlimit="10" stroke-width="1"/>
          <rect id="Rectángulo_30769" data-name="Rectángulo 30769" width="3.444" height="44.765" transform="translate(308.118 11.246)" fill="none" stroke="#000" stroke-miterlimit="10" stroke-width="1"/>
          <path id="Trazado_125524" data-name="Trazado 125524" d="M9.82,172.937v194.32H37.213v30.1H58.887v-8.027" transform="translate(2.493 117.978)" fill="none" stroke="#7be0ff" stroke-miterlimit="10" stroke-width="1"/>
          <line id="Línea_903" data-name="Línea 903" x1="9.532" y2="8.027" transform="translate(51.847 507.31)" fill="none" stroke="#7be0ff" stroke-miterlimit="10" stroke-width="1"/>
          <line id="Línea_904" data-name="Línea 904" x1="9.432" y2="8.83" transform="translate(43.418 506.507)" fill="none" stroke="#7be0ff" stroke-miterlimit="10" stroke-width="1"/>
          <line id="Línea_905" data-name="Línea 905" x1="9.432" y2="8.83" transform="translate(40.996 498.48)" fill="none" stroke="#7be0ff" stroke-miterlimit="10" stroke-width="1"/>
          <line id="Línea_906" data-name="Línea 906" x1="9.432" y2="8.83" transform="translate(40.996 490.845)" fill="none" stroke="#7be0ff" stroke-miterlimit="10" stroke-width="1"/>
          <line id="Línea_907" data-name="Línea 907" x1="9.432" y2="8.83" transform="translate(40.996 483.332)" fill="none" stroke="#7be0ff" stroke-miterlimit="10" stroke-width="1"/>
          <line id="Línea_908" data-name="Línea 908" x1="9.432" y2="8.83" transform="translate(40.325 476.306)" fill="none" stroke="#7be0ff" stroke-miterlimit="10" stroke-width="1"/>
          <line id="Línea_909" data-name="Línea 909" x1="9.432" y2="8.83" transform="translate(33.341 475.861)" fill="none" stroke="#7be0ff" stroke-miterlimit="10" stroke-width="1"/>
          <line id="Línea_910" data-name="Línea 910" x1="9.432" y2="8.83" transform="translate(25.809 476.764)" fill="none" stroke="#7be0ff" stroke-miterlimit="10" stroke-width="1"/>
          <line id="Línea_911" data-name="Línea 911" x1="9.432" y2="8.83" transform="translate(20.238 476.306)" fill="none" stroke="#7be0ff" stroke-miterlimit="10" stroke-width="1"/>
          <line id="Línea_912" data-name="Línea 912" x1="9.432" y2="8.83" transform="translate(13.568 475.861)" fill="none" stroke="#7be0ff" stroke-miterlimit="10" stroke-width="1"/>
          <line id="Línea_913" data-name="Línea 913" x1="9.432" y2="8.83" transform="translate(13.205 468.794)" fill="none" stroke="#7be0ff" stroke-miterlimit="10" stroke-width="1"/>
          <line id="Línea_914" data-name="Línea 914" x1="9.432" y2="8.83" transform="translate(12.313 463.034)" fill="none" stroke="#7be0ff" stroke-miterlimit="10" stroke-width="1"/>
          <line id="Línea_915" data-name="Línea 915" x1="9.432" y2="8.83" transform="translate(13.205 455.612)" fill="none" stroke="#7be0ff" stroke-miterlimit="10" stroke-width="1"/>
          <line id="Línea_916" data-name="Línea 916" x1="9.432" y2="8.83" transform="translate(12.313 449.852)" fill="none" stroke="#7be0ff" stroke-miterlimit="10" stroke-width="1"/>
          <line id="Línea_917" data-name="Línea 917" x1="9.432" y2="8.83" transform="translate(13.205 443.531)" fill="none" stroke="#7be0ff" stroke-miterlimit="10" stroke-width="1"/>
          <line id="Línea_918" data-name="Línea 918" x1="9.432" y2="8.83" transform="translate(12.313 437.771)" fill="none" stroke="#7be0ff" stroke-miterlimit="10" stroke-width="1"/>
          <line id="Línea_919" data-name="Línea 919" x1="9.432" y2="8.83" transform="translate(13.205 430.349)" fill="none" stroke="#7be0ff" stroke-miterlimit="10" stroke-width="1"/>
          <line id="Línea_920" data-name="Línea 920" x1="9.432" y2="8.83" transform="translate(12.313 424.589)" fill="none" stroke="#7be0ff" stroke-miterlimit="10" stroke-width="1"/>
          <line id="Línea_921" data-name="Línea 921" x1="9.432" y2="8.83" transform="translate(12.759 416.052)" fill="none" stroke="#7be0ff" stroke-miterlimit="10" stroke-width="1"/>
          <line id="Línea_922" data-name="Línea 922" x1="9.432" y2="8.83" transform="translate(11.867 410.292)" fill="none" stroke="#7be0ff" stroke-miterlimit="10" stroke-width="1"/>
          <line id="Línea_923" data-name="Línea 923" x1="9.432" y2="8.83" transform="translate(12.759 402.87)" fill="none" stroke="#7be0ff" stroke-miterlimit="10" stroke-width="1"/>
          <line id="Línea_924" data-name="Línea 924" x1="9.432" y2="8.83" transform="translate(11.867 397.109)" fill="none" stroke="#7be0ff" stroke-miterlimit="10" stroke-width="1"/>
          <line id="Línea_925" data-name="Línea 925" x1="9.432" y2="8.83" transform="translate(12.759 390.789)" fill="none" stroke="#7be0ff" stroke-miterlimit="10" stroke-width="1"/>
          <line id="Línea_926" data-name="Línea 926" x1="9.432" y2="8.83" transform="translate(11.867 385.029)" fill="none" stroke="#7be0ff" stroke-miterlimit="10" stroke-width="1"/>
          <line id="Línea_927" data-name="Línea 927" x1="9.432" y2="8.83" transform="translate(12.759 377.607)" fill="none" stroke="#7be0ff" stroke-miterlimit="10" stroke-width="1"/>
          <line id="Línea_928" data-name="Línea 928" x1="9.432" y2="8.83" transform="translate(11.867 371.847)" fill="none" stroke="#7be0ff" stroke-miterlimit="10" stroke-width="1"/>
          <line id="Línea_929" data-name="Línea 929" x1="9.432" y2="8.83" transform="translate(12.536 364.17)" fill="none" stroke="#7be0ff" stroke-miterlimit="10" stroke-width="1"/>
          <line id="Línea_930" data-name="Línea 930" x1="9.432" y2="8.83" transform="translate(13.428 356.747)" fill="none" stroke="#7be0ff" stroke-miterlimit="10" stroke-width="1"/>
          <line id="Línea_931" data-name="Línea 931" x1="9.432" y2="8.83" transform="translate(12.536 350.987)" fill="none" stroke="#7be0ff" stroke-miterlimit="10" stroke-width="1"/>
          <line id="Línea_932" data-name="Línea 932" x1="9.432" y2="8.83" transform="translate(13.428 344.667)" fill="none" stroke="#7be0ff" stroke-miterlimit="10" stroke-width="1"/>
          <line id="Línea_933" data-name="Línea 933" x1="9.432" y2="8.83" transform="translate(12.536 338.907)" fill="none" stroke="#7be0ff" stroke-miterlimit="10" stroke-width="1"/>
          <line id="Línea_934" data-name="Línea 934" x1="9.432" y2="8.83" transform="translate(13.428 331.485)" fill="none" stroke="#7be0ff" stroke-miterlimit="10" stroke-width="1"/>
          <line id="Línea_935" data-name="Línea 935" x1="9.432" y2="8.83" transform="translate(12.536 325.725)" fill="none" stroke="#7be0ff" stroke-miterlimit="10" stroke-width="1"/>
          <line id="Línea_936" data-name="Línea 936" x1="9.432" y2="8.83" transform="translate(12.982 317.188)" fill="none" stroke="#7be0ff" stroke-miterlimit="10" stroke-width="1"/>
          <line id="Línea_937" data-name="Línea 937" x1="9.432" y2="8.83" transform="translate(12.09 311.428)" fill="none" stroke="#7be0ff" stroke-miterlimit="10" stroke-width="1"/>
          <line id="Línea_938" data-name="Línea 938" x1="9.432" y2="8.83" transform="translate(12.982 304.005)" fill="none" stroke="#7be0ff" stroke-miterlimit="10" stroke-width="1"/>
          <line id="Línea_939" data-name="Línea 939" x1="9.432" y2="8.83" transform="translate(12.09 298.245)" fill="none" stroke="#7be0ff" stroke-miterlimit="10" stroke-width="1"/>
          <line id="Línea_940" data-name="Línea 940" x1="9.432" y2="8.83" transform="translate(12.982 291.925)" fill="none" stroke="#7be0ff" stroke-miterlimit="10" stroke-width="1"/>
          <line id="Línea_941" data-name="Línea 941" x1="5.831" y2="5.459" transform="translate(12.09 289.536)" fill="none" stroke="#7be0ff" stroke-miterlimit="10" stroke-width="1"/>
          <line id="Línea_942" data-name="Línea 942" x1="10.931" y2="10.132" transform="translate(247.548 475.352)" fill="none" stroke="#7be0ff" stroke-miterlimit="10" stroke-width="1"/>
          <line id="Línea_943" data-name="Línea 943" x1="18.131" y2="17.127" transform="translate(247.415 475.352)" fill="none" stroke="#7be0ff" stroke-miterlimit="10" stroke-width="1"/>
          <line id="Línea_944" data-name="Línea 944" x1="8.83" y2="9.432" transform="translate(262.476 475.352)" fill="none" stroke="#7be0ff" stroke-miterlimit="10" stroke-width="1"/>
          <line id="Línea_945" data-name="Línea 945" x1="8.83" y2="9.432" transform="translate(247.069 490.033)" fill="none" stroke="#7be0ff" stroke-miterlimit="10" stroke-width="1"/>
          <line id="Línea_946" data-name="Línea 946" x1="8.83" y2="9.432" transform="translate(235.589 507.31)" fill="none" stroke="#7be0ff" stroke-miterlimit="10" stroke-width="1"/>
          <line id="Línea_947" data-name="Línea 947" x1="8.83" y2="9.432" transform="translate(247.069 496.975)" fill="none" stroke="#7be0ff" stroke-miterlimit="10" stroke-width="1"/>
          <line id="Línea_948" data-name="Línea 948" x1="8.83" y2="9.432" transform="translate(247.651 507.31)" fill="none" stroke="#7be0ff" stroke-miterlimit="10" stroke-width="1"/>
          <line id="Línea_949" data-name="Línea 949" x1="12.998" y2="13.884" transform="translate(242.901 501.791)" fill="none" stroke="#7be0ff" stroke-miterlimit="10" stroke-width="1"/>
          <line id="Línea_950" data-name="Línea 950" x1="8.83" y2="9.432" transform="translate(269.898 475.352)" fill="none" stroke="#7be0ff" stroke-miterlimit="10" stroke-width="1"/>
          <line id="Línea_951" data-name="Línea 951" x1="8.83" y2="9.432" transform="translate(275.658 475.352)" fill="none" stroke="#7be0ff" stroke-miterlimit="10" stroke-width="1"/>
          <line id="Línea_952" data-name="Línea 952" x1="8.83" y2="9.432" transform="translate(281.978 475.352)" fill="none" stroke="#7be0ff" stroke-miterlimit="10" stroke-width="1"/>
          <line id="Línea_953" data-name="Línea 953" x1="8.83" y2="9.432" transform="translate(287.738 475.352)" fill="none" stroke="#7be0ff" stroke-miterlimit="10" stroke-width="1"/>
          <line id="Línea_954" data-name="Línea 954" x1="8.83" y2="9.432" transform="translate(295.161 475.352)" fill="none" stroke="#7be0ff" stroke-miterlimit="10" stroke-width="1"/>
          <line id="Línea_955" data-name="Línea 955" x1="8.83" y2="9.432" transform="translate(300.921 475.352)" fill="none" stroke="#7be0ff" stroke-miterlimit="10" stroke-width="1"/>
          <line id="Línea_956" data-name="Línea 956" x1="8.83" y2="9.432" transform="translate(309.458 475.352)" fill="none" stroke="#7be0ff" stroke-miterlimit="10" stroke-width="1"/>
          <line id="Línea_957" data-name="Línea 957" x1="8.83" y2="9.432" transform="translate(315.218 475.352)" fill="none" stroke="#7be0ff" stroke-miterlimit="10" stroke-width="1"/>
          <line id="Línea_958" data-name="Línea 958" x1="8.83" y2="9.432" transform="translate(322.64 475.352)" fill="none" stroke="#7be0ff" stroke-miterlimit="10" stroke-width="1"/>
          <line id="Línea_959" data-name="Línea 959" x1="8.83" y2="9.432" transform="translate(328.4 475.352)" fill="none" stroke="#7be0ff" stroke-miterlimit="10" stroke-width="1"/>
          <line id="Línea_960" data-name="Línea 960" x1="8.83" y2="9.432" transform="translate(334.72 475.352)" fill="none" stroke="#7be0ff" stroke-miterlimit="10" stroke-width="1"/>
          <line id="Línea_961" data-name="Línea 961" x1="8.83" y2="9.432" transform="translate(340.48 475.352)" fill="none" stroke="#7be0ff" stroke-miterlimit="10" stroke-width="1"/>
          <line id="Línea_962" data-name="Línea 962" x1="8.83" y2="9.432" transform="translate(347.903 475.352)" fill="none" stroke="#7be0ff" stroke-miterlimit="10" stroke-width="1"/>
          <line id="Línea_963" data-name="Línea 963" x1="8.83" y2="9.432" transform="translate(353.663 475.352)" fill="none" stroke="#7be0ff" stroke-miterlimit="10" stroke-width="1"/>
          <line id="Línea_964" data-name="Línea 964" x1="8.83" y2="9.432" transform="translate(361.34 475.352)" fill="none" stroke="#7be0ff" stroke-miterlimit="10" stroke-width="1"/>
          <line id="Línea_965" data-name="Línea 965" x1="8.83" y2="9.432" transform="translate(368.762 475.352)" fill="none" stroke="#7be0ff" stroke-miterlimit="10" stroke-width="1"/>
          <line id="Línea_966" data-name="Línea 966" x1="8.83" y2="9.432" transform="translate(374.522 475.352)" fill="none" stroke="#7be0ff" stroke-miterlimit="10" stroke-width="1"/>
          <line id="Línea_967" data-name="Línea 967" x1="8.83" y2="9.432" transform="translate(380.842 475.352)" fill="none" stroke="#7be0ff" stroke-miterlimit="10" stroke-width="1"/>
          <line id="Línea_968" data-name="Línea 968" x1="8.83" y2="9.432" transform="translate(386.603 475.352)" fill="none" stroke="#7be0ff" stroke-miterlimit="10" stroke-width="1"/>
          <line id="Línea_969" data-name="Línea 969" x1="8.83" y2="9.432" transform="translate(394.025 475.352)" fill="none" stroke="#7be0ff" stroke-miterlimit="10" stroke-width="1"/>
          <line id="Línea_970" data-name="Línea 970" x1="8.83" y2="9.432" transform="translate(399.785 475.352)" fill="none" stroke="#7be0ff" stroke-miterlimit="10" stroke-width="1"/>
          <line id="Línea_971" data-name="Línea 971" x1="8.83" y2="9.432" transform="translate(408.322 475.352)" fill="none" stroke="#7be0ff" stroke-miterlimit="10" stroke-width="1"/>
          <line id="Línea_972" data-name="Línea 972" x1="8.83" y2="9.432" transform="translate(414.082 475.352)" fill="none" stroke="#7be0ff" stroke-miterlimit="10" stroke-width="1"/>
          <line id="Línea_973" data-name="Línea 973" x1="8.83" y2="9.432" transform="translate(421.504 475.352)" fill="none" stroke="#7be0ff" stroke-miterlimit="10" stroke-width="1"/>
          <line id="Línea_974" data-name="Línea 974" x1="8.83" y2="9.432" transform="translate(427.264 475.352)" fill="none" stroke="#7be0ff" stroke-miterlimit="10" stroke-width="1"/>
          <line id="Línea_975" data-name="Línea 975" x1="8.83" y2="9.432" transform="translate(433.584 475.352)" fill="none" stroke="#7be0ff" stroke-miterlimit="10" stroke-width="1"/>
          <line id="Línea_976" data-name="Línea 976" x1="8.398" y2="7.977" transform="translate(439.345 476.806)" fill="none" stroke="#7be0ff" stroke-miterlimit="10" stroke-width="1"/>
          <line id="Línea_977" data-name="Línea 977" x1="8.83" y2="9.432" transform="translate(444.908 475.352)" fill="none" stroke="#7be0ff" stroke-miterlimit="10" stroke-width="1"/>
          <line id="Línea_978" data-name="Línea 978" x1="8.83" y2="9.432" transform="translate(452.33 475.352)" fill="none" stroke="#7be0ff" stroke-miterlimit="10" stroke-width="1"/>
          <line id="Línea_979" data-name="Línea 979" x1="8.83" y2="9.432" transform="translate(458.09 475.352)" fill="none" stroke="#7be0ff" stroke-miterlimit="10" stroke-width="1"/>
          <line id="Línea_980" data-name="Línea 980" x1="8.83" y2="9.432" transform="translate(465.768 475.352)" fill="none" stroke="#7be0ff" stroke-miterlimit="10" stroke-width="1"/>
          <line id="Línea_981" data-name="Línea 981" x1="8.83" y2="9.432" transform="translate(473.19 475.352)" fill="none" stroke="#7be0ff" stroke-miterlimit="10" stroke-width="1"/>
          <line id="Línea_982" data-name="Línea 982" x1="8.83" y2="9.432" transform="translate(478.95 475.352)" fill="none" stroke="#7be0ff" stroke-miterlimit="10" stroke-width="1"/>
          <line id="Línea_983" data-name="Línea 983" x1="8.83" y2="9.432" transform="translate(485.27 475.352)" fill="none" stroke="#7be0ff" stroke-miterlimit="10" stroke-width="1"/>
          <line id="Línea_984" data-name="Línea 984" x1="8.83" y2="9.432" transform="translate(491.03 475.352)" fill="none" stroke="#7be0ff" stroke-miterlimit="10" stroke-width="1"/>
          <line id="Línea_985" data-name="Línea 985" x1="8.83" y2="9.432" transform="translate(498.453 475.352)" fill="none" stroke="#7be0ff" stroke-miterlimit="10" stroke-width="1"/>
          <line id="Línea_986" data-name="Línea 986" x1="8.83" y2="9.432" transform="translate(504.213 475.352)" fill="none" stroke="#7be0ff" stroke-miterlimit="10" stroke-width="1"/>
          <line id="Línea_987" data-name="Línea 987" x1="8.83" y2="9.432" transform="translate(512.75 475.352)" fill="none" stroke="#7be0ff" stroke-miterlimit="10" stroke-width="1"/>
          <line id="Línea_988" data-name="Línea 988" x1="8.83" y2="9.432" transform="translate(518.51 475.352)" fill="none" stroke="#7be0ff" stroke-miterlimit="10" stroke-width="1"/>
          <line id="Línea_989" data-name="Línea 989" x1="8.83" y2="9.432" transform="translate(525.932 475.352)" fill="none" stroke="#7be0ff" stroke-miterlimit="10" stroke-width="1"/>
          <line id="Línea_990" data-name="Línea 990" x1="8.83" y2="9.432" transform="translate(531.692 475.352)" fill="none" stroke="#7be0ff" stroke-miterlimit="10" stroke-width="1"/>
          <line id="Línea_991" data-name="Línea 991" x1="8.83" y2="9.432" transform="translate(538.012 475.352)" fill="none" stroke="#7be0ff" stroke-miterlimit="10" stroke-width="1"/>
          <line id="Línea_992" data-name="Línea 992" x1="8.525" y2="9.106" transform="translate(543.772 475.678)" fill="none" stroke="#7be0ff" stroke-miterlimit="10" stroke-width="1"/>
          <line id="Línea_993" data-name="Línea 993" x1="8.83" y2="9.432" transform="translate(550.042 476.079)" fill="none" stroke="#7be0ff" stroke-miterlimit="10" stroke-width="1"/>
          <line id="Línea_994" data-name="Línea 994" x1="8.83" y2="9.432" transform="translate(558.579 476.079)" fill="none" stroke="#7be0ff" stroke-miterlimit="10" stroke-width="1"/>
          <line id="Línea_995" data-name="Línea 995" x1="8.83" y2="9.432" transform="translate(564.339 476.079)" fill="none" stroke="#7be0ff" stroke-miterlimit="10" stroke-width="1"/>
          <line id="Línea_996" data-name="Línea 996" x1="8.83" y2="9.432" transform="translate(571.762 476.079)" fill="none" stroke="#7be0ff" stroke-miterlimit="10" stroke-width="1"/>
          <line id="Línea_997" data-name="Línea 997" x1="8.83" y2="9.432" transform="translate(577.522 476.079)" fill="none" stroke="#7be0ff" stroke-miterlimit="10" stroke-width="1"/>
          <line id="Línea_998" data-name="Línea 998" x1="8.83" y2="9.432" transform="translate(583.842 476.079)" fill="none" stroke="#7be0ff" stroke-miterlimit="10" stroke-width="1"/>
          <line id="Línea_999" data-name="Línea 999" x1="10.784" y2="11.519" transform="translate(597.141 473.992)" fill="none" stroke="#7be0ff" stroke-miterlimit="10" stroke-width="1"/>
          <line id="Línea_1000" data-name="Línea 1000" x1="17.548" y2="18.745" transform="translate(589.602 466.766)" fill="none" stroke="#7be0ff" stroke-miterlimit="10" stroke-width="1"/>
          <line id="Línea_1001" data-name="Línea 1001" x1="5.659" y2="6.045" transform="translate(602.144 479.752)" fill="none" stroke="#7be0ff" stroke-miterlimit="10" stroke-width="1"/>
          <g id="Grupo_60032" data-name="Grupo 60032" transform="translate(597.225 0)">
            <line id="Línea_1002" data-name="Línea 1002" x1="9.432" y2="8.83" transform="translate(0 460.403)" fill="none" stroke="#7be0ff" stroke-miterlimit="10" stroke-width="1"/>
            <line id="Línea_1003" data-name="Línea 1003" x1="9.432" y2="8.83" transform="translate(0 452.98)" fill="none" stroke="#7be0ff" stroke-miterlimit="10" stroke-width="1"/>
            <line id="Línea_1004" data-name="Línea 1004" x1="9.432" y2="8.83" transform="translate(0 447.22)" fill="none" stroke="#7be0ff" stroke-miterlimit="10" stroke-width="1"/>
            <line id="Línea_1005" data-name="Línea 1005" x1="9.432" y2="8.83" transform="translate(0 440.9)" fill="none" stroke="#7be0ff" stroke-miterlimit="10" stroke-width="1"/>
            <line id="Línea_1006" data-name="Línea 1006" x1="9.432" y2="8.83" transform="translate(0 435.14)" fill="none" stroke="#7be0ff" stroke-miterlimit="10" stroke-width="1"/>
            <line id="Línea_1007" data-name="Línea 1007" x1="9.432" y2="8.83" transform="translate(0 427.718)" fill="none" stroke="#7be0ff" stroke-miterlimit="10" stroke-width="1"/>
            <line id="Línea_1008" data-name="Línea 1008" x1="9.432" y2="8.83" transform="translate(0 421.958)" fill="none" stroke="#7be0ff" stroke-miterlimit="10" stroke-width="1"/>
            <line id="Línea_1009" data-name="Línea 1009" x1="9.432" y2="8.83" transform="translate(0 413.421)" fill="none" stroke="#7be0ff" stroke-miterlimit="10" stroke-width="1"/>
            <line id="Línea_1010" data-name="Línea 1010" x1="9.432" y2="8.83" transform="translate(0 407.661)" fill="none" stroke="#7be0ff" stroke-miterlimit="10" stroke-width="1"/>
            <line id="Línea_1011" data-name="Línea 1011" x1="9.432" y2="8.83" transform="translate(0 400.238)" fill="none" stroke="#7be0ff" stroke-miterlimit="10" stroke-width="1"/>
            <line id="Línea_1012" data-name="Línea 1012" x1="9.432" y2="8.83" transform="translate(0 394.478)" fill="none" stroke="#7be0ff" stroke-miterlimit="10" stroke-width="1"/>
            <line id="Línea_1013" data-name="Línea 1013" x1="9.432" y2="8.83" transform="translate(0 388.158)" fill="none" stroke="#7be0ff" stroke-miterlimit="10" stroke-width="1"/>
            <line id="Línea_1014" data-name="Línea 1014" x1="9.432" y2="8.83" transform="translate(0 382.398)" fill="none" stroke="#7be0ff" stroke-miterlimit="10" stroke-width="1"/>
            <line id="Línea_1015" data-name="Línea 1015" x1="9.432" y2="8.83" transform="translate(0 374.976)" fill="none" stroke="#7be0ff" stroke-miterlimit="10" stroke-width="1"/>
            <line id="Línea_1016" data-name="Línea 1016" x1="9.432" y2="8.83" transform="translate(0 369.216)" fill="none" stroke="#7be0ff" stroke-miterlimit="10" stroke-width="1"/>
            <line id="Línea_1017" data-name="Línea 1017" x1="9.432" y2="8.83" transform="translate(0 361.538)" fill="none" stroke="#7be0ff" stroke-miterlimit="10" stroke-width="1"/>
            <line id="Línea_1018" data-name="Línea 1018" x1="9.432" y2="8.83" transform="translate(0.727 232.797)" fill="none" stroke="#7be0ff" stroke-miterlimit="10" stroke-width="1"/>
            <line id="Línea_1019" data-name="Línea 1019" x1="9.432" y2="8.83" transform="translate(0.727 227.037)" fill="none" stroke="#7be0ff" stroke-miterlimit="10" stroke-width="1"/>
            <line id="Línea_1020" data-name="Línea 1020" x1="9.432" y2="8.83" transform="translate(0.727 219.614)" fill="none" stroke="#7be0ff" stroke-miterlimit="10" stroke-width="1"/>
            <line id="Línea_1021" data-name="Línea 1021" x1="9.432" y2="8.83" transform="translate(0.727 213.854)" fill="none" stroke="#7be0ff" stroke-miterlimit="10" stroke-width="1"/>
            <line id="Línea_1022" data-name="Línea 1022" x1="9.432" y2="8.83" transform="translate(0.727 205.317)" fill="none" stroke="#7be0ff" stroke-miterlimit="10" stroke-width="1"/>
            <line id="Línea_1023" data-name="Línea 1023" x1="9.432" y2="8.83" transform="translate(0.727 199.557)" fill="none" stroke="#7be0ff" stroke-miterlimit="10" stroke-width="1"/>
            <line id="Línea_1024" data-name="Línea 1024" x1="9.432" y2="8.83" transform="translate(0.727 192.135)" fill="none" stroke="#7be0ff" stroke-miterlimit="10" stroke-width="1"/>
            <line id="Línea_1025" data-name="Línea 1025" x1="9.432" y2="8.83" transform="translate(0.727 186.375)" fill="none" stroke="#7be0ff" stroke-miterlimit="10" stroke-width="1"/>
            <line id="Línea_1026" data-name="Línea 1026" x1="9.432" y2="8.83" transform="translate(0.727 180.055)" fill="none" stroke="#7be0ff" stroke-miterlimit="10" stroke-width="1"/>
            <line id="Línea_1027" data-name="Línea 1027" x1="9.106" y2="8.525" transform="translate(0.727 174.6)" fill="none" stroke="#7be0ff" stroke-miterlimit="10" stroke-width="1"/>
            <line id="Línea_1028" data-name="Línea 1028" x1="9.432" y2="8.83" transform="translate(0 168.025)" fill="none" stroke="#7be0ff" stroke-miterlimit="10" stroke-width="1"/>
            <line id="Línea_1029" data-name="Línea 1029" x1="9.432" y2="8.83" transform="translate(0 159.487)" fill="none" stroke="#7be0ff" stroke-miterlimit="10" stroke-width="1"/>
            <line id="Línea_1030" data-name="Línea 1030" x1="9.432" y2="8.83" transform="translate(0 153.727)" fill="none" stroke="#7be0ff" stroke-miterlimit="10" stroke-width="1"/>
            <line id="Línea_1031" data-name="Línea 1031" x1="9.432" y2="8.83" transform="translate(0 146.305)" fill="none" stroke="#7be0ff" stroke-miterlimit="10" stroke-width="1"/>
            <line id="Línea_1032" data-name="Línea 1032" x1="9.432" y2="8.83" transform="translate(0 140.545)" fill="none" stroke="#7be0ff" stroke-miterlimit="10" stroke-width="1"/>
            <line id="Línea_1033" data-name="Línea 1033" x1="9.432" y2="8.83" transform="translate(0 134.225)" fill="none" stroke="#7be0ff" stroke-miterlimit="10" stroke-width="1"/>
            <line id="Línea_1034" data-name="Línea 1034" x1="9.432" y2="8.83" transform="translate(0.727 128.305)" fill="none" stroke="#7be0ff" stroke-miterlimit="10" stroke-width="1"/>
            <line id="Línea_1035" data-name="Línea 1035" x1="9.432" y2="8.83" transform="translate(0.727 122.545)" fill="none" stroke="#7be0ff" stroke-miterlimit="10" stroke-width="1"/>
            <line id="Línea_1036" data-name="Línea 1036" x1="9.432" y2="8.83" transform="translate(0.727 115.123)" fill="none" stroke="#7be0ff" stroke-miterlimit="10" stroke-width="1"/>
            <line id="Línea_1037" data-name="Línea 1037" x1="9.432" y2="8.83" transform="translate(0.727 109.363)" fill="none" stroke="#7be0ff" stroke-miterlimit="10" stroke-width="1"/>
            <line id="Línea_1038" data-name="Línea 1038" x1="9.432" y2="8.83" transform="translate(0.727 103.043)" fill="none" stroke="#7be0ff" stroke-miterlimit="10" stroke-width="1"/>
            <line id="Línea_1039" data-name="Línea 1039" x1="7.438" y2="6.963" transform="translate(0 99.686)" fill="none" stroke="#7be0ff" stroke-miterlimit="10" stroke-width="1"/>
            <line id="Línea_1040" data-name="Línea 1040" x1="9.432" y2="8.83" transform="translate(1.539 31.182)" fill="none" stroke="#7be0ff" stroke-miterlimit="10" stroke-width="1"/>
            <line id="Línea_1041" data-name="Línea 1041" x1="9.432" y2="8.83" transform="translate(2.267 25.262)" fill="none" stroke="#7be0ff" stroke-miterlimit="10" stroke-width="1"/>
            <line id="Línea_1042" data-name="Línea 1042" x1="9.432" y2="8.83" transform="translate(2.267 19.502)" fill="none" stroke="#7be0ff" stroke-miterlimit="10" stroke-width="1"/>
            <line id="Línea_1043" data-name="Línea 1043" x1="9.432" y2="8.83" transform="translate(2.267 12.08)" fill="none" stroke="#7be0ff" stroke-miterlimit="10" stroke-width="1"/>
            <line id="Línea_1044" data-name="Línea 1044" x1="9.432" y2="8.83" transform="translate(2.267 6.32)" fill="none" stroke="#7be0ff" stroke-miterlimit="10" stroke-width="1"/>
            <line id="Línea_1045" data-name="Línea 1045" x1="9.432" y2="8.83" transform="translate(2.267)" fill="none" stroke="#7be0ff" stroke-miterlimit="10" stroke-width="1"/>
          </g>
          <path id="Trazado_125525" data-name="Trazado 125525" d="M360.812,6.611V42.095H349.373" transform="translate(247.828 -2.196)" fill="none" stroke="#7be0ff" stroke-miterlimit="10" stroke-width="1"/>
          <path id="Trazado_125526" data-name="Trazado 125526" d="M349.373,61.71h10.536V204.244h-9.783" transform="translate(247.828 37.614)" fill="none" stroke="#7be0ff" stroke-miterlimit="10" stroke-width="1"/>
          <path id="Trazado_125527" data-name="Trazado 125527" d="M501.494,213.632h12.844V337.654H160.527v31.106H137.859v-8.83" transform="translate(95.004 147.381)" fill="none" stroke="#7be0ff" stroke-miterlimit="10" stroke-width="1"/>
          <text id="HALL" transform="translate(263.566 167.583)" fill="#5cb366" font-size="26" font-family="Roboto-Regular, Roboto"><tspan x="0" y="0">HALL</tspan></text>
          <text id="HALL_BATH" data-name="HALL BATH" transform="translate(413.288 102.974)" fill="#5cb366" font-size="18" font-family="Roboto-Regular, Roboto"><tspan x="0" y="0">HALL BATH</tspan></text>
          <text id="B.R._3" data-name="B.R. #3" transform="translate(410.365 379.733)" fill="#5cb366" font-size="26" font-family="Roboto-Regular, Roboto"><tspan x="0" y="0">B.R. #3</tspan></text>
          <text id="B.R._2" data-name="B.R. #2" transform="translate(68.461 386.317)" fill="#5cb366" font-size="26" font-family="Roboto-Regular, Roboto"><tspan x="0" y="0">B.R. #2</tspan></text>
        </g>
      </g>
      <g id="Grupo_60036" data-name="Grupo 60036" transform="translate(180.208 1100.057)">
        <rect id="Rectángulo_30672" data-name="Rectángulo 30672" width="5" height="27" transform="translate(-0.208 0.089)" fill="#fba321"/>
        <path id="Trazado_130964" data-name="Trazado 130964" d="M6.176-2.418H2.3L1.435,0H.178L3.707-9.242H4.773L8.309,0H7.059Zm-3.5-1H5.814L4.24-7.738Zm6.411-.076a4.023,4.023,0,0,1,.749-2.542A2.369,2.369,0,0,1,11.794-7,2.382,2.382,0,0,1,13.7-6.17V-9.75h1.174V0H13.8l-.057-.736a2.391,2.391,0,0,1-1.961.863A2.346,2.346,0,0,1,9.836-.851,4.069,4.069,0,0,1,9.083-3.4Zm1.174.133A3.046,3.046,0,0,0,10.74-1.53a1.56,1.56,0,0,0,1.333.66,1.713,1.713,0,0,0,1.631-1V-5.027A1.726,1.726,0,0,0,12.086-6a1.567,1.567,0,0,0-1.346.667A3.354,3.354,0,0,0,10.258-3.358Zm7.547-3.51.032.762A2.536,2.536,0,0,1,19.875-7a1.964,1.964,0,0,1,1.961,1.1,2.6,2.6,0,0,1,.892-.8,2.634,2.634,0,0,1,1.3-.3q2.26,0,2.3,2.393V0H25.149V-4.532a1.577,1.577,0,0,0-.336-1.1A1.482,1.482,0,0,0,23.683-6a1.557,1.557,0,0,0-1.085.39,1.584,1.584,0,0,0-.5,1.051V0H20.916V-4.5A1.31,1.31,0,0,0,19.449-6a1.571,1.571,0,0,0-1.581.984V0H16.694V-6.868ZM29.371,0H28.2V-6.868h1.174ZM28.1-8.69a.7.7,0,0,1,.175-.482.655.655,0,0,1,.517-.2.666.666,0,0,1,.521.2.694.694,0,0,1,.178.482.671.671,0,0,1-.178.476.678.678,0,0,1-.521.19.667.667,0,0,1-.517-.19A.678.678,0,0,1,28.1-8.69ZM32.36-6.868,32.4-6A2.5,2.5,0,0,1,34.455-7q2.177,0,2.2,2.457V0H35.477V-4.545a1.581,1.581,0,0,0-.34-1.1A1.361,1.361,0,0,0,34.1-6a1.7,1.7,0,0,0-1,.3,2.069,2.069,0,0,0-.673.8V0H31.25V-6.868ZM39.7,0H38.524V-6.868H39.7Zm-1.27-8.69a.7.7,0,0,1,.175-.482.655.655,0,0,1,.517-.2.666.666,0,0,1,.521.2.694.694,0,0,1,.178.482.671.671,0,0,1-.178.476.678.678,0,0,1-.521.19.667.667,0,0,1-.517-.19A.678.678,0,0,1,38.429-8.69Zm7.147,6.868a.865.865,0,0,0-.359-.74,3.452,3.452,0,0,0-1.25-.454,5.912,5.912,0,0,1-1.416-.457,2.014,2.014,0,0,1-.774-.635,1.518,1.518,0,0,1-.251-.876,1.782,1.782,0,0,1,.714-1.428A2.789,2.789,0,0,1,44.065-7a2.87,2.87,0,0,1,1.895.6,1.915,1.915,0,0,1,.727,1.542H45.506a1.06,1.06,0,0,0-.409-.832,1.534,1.534,0,0,0-1.031-.349,1.605,1.605,0,0,0-1,.279.879.879,0,0,0-.362.73.712.712,0,0,0,.336.641,4.139,4.139,0,0,0,1.216.413,6.334,6.334,0,0,1,1.425.47,2.079,2.079,0,0,1,.809.657,1.615,1.615,0,0,1,.263.936,1.758,1.758,0,0,1-.736,1.476A3.089,3.089,0,0,1,44.1.127a3.459,3.459,0,0,1-1.46-.292,2.375,2.375,0,0,1-.993-.816,1.966,1.966,0,0,1-.359-1.133h1.174a1.216,1.216,0,0,0,.473.936A1.835,1.835,0,0,0,44.1-.832a1.894,1.894,0,0,0,1.07-.27A.829.829,0,0,0,45.576-1.822Zm4.3-6.709v1.663h1.282v.908H49.874V-1.7a.953.953,0,0,0,.171.62.721.721,0,0,0,.584.207,2.843,2.843,0,0,0,.559-.076V0a3.424,3.424,0,0,1-.9.126A1.462,1.462,0,0,1,49.1-.349,2.045,2.045,0,0,1,48.7-1.7V-5.96h-1.25v-.908H48.7V-8.531Zm5.973,2.717a3.519,3.519,0,0,0-.578-.044,1.547,1.547,0,0,0-1.568.984V0H52.527V-6.868h1.143l.019.793A1.829,1.829,0,0,1,55.326-7a1.2,1.2,0,0,1,.521.089ZM60.912,0a2.467,2.467,0,0,1-.165-.724,2.62,2.62,0,0,1-1.955.851,2.424,2.424,0,0,1-1.666-.574A1.859,1.859,0,0,1,56.475-1.9a1.942,1.942,0,0,1,.816-1.666,3.846,3.846,0,0,1,2.295-.594h1.143V-4.7a1.319,1.319,0,0,0-.368-.981,1.48,1.48,0,0,0-1.085-.365,1.712,1.712,0,0,0-1.054.317.935.935,0,0,0-.425.768H56.615a1.621,1.621,0,0,1,.365-.993,2.491,2.491,0,0,1,.99-.759A3.331,3.331,0,0,1,59.344-7,2.715,2.715,0,0,1,61.2-6.4a2.141,2.141,0,0,1,.7,1.635v3.161a3.865,3.865,0,0,0,.241,1.5V0ZM58.963-.9a2.064,2.064,0,0,0,1.047-.286,1.728,1.728,0,0,0,.717-.743V-3.333h-.92q-2.158,0-2.158,1.263a1.069,1.069,0,0,0,.368.863A1.415,1.415,0,0,0,58.963-.9Zm4.494-2.6a4.023,4.023,0,0,1,.749-2.542A2.369,2.369,0,0,1,66.168-7a2.382,2.382,0,0,1,1.911.825V-9.75h1.174V0H68.174l-.057-.736a2.391,2.391,0,0,1-1.961.863A2.346,2.346,0,0,1,64.21-.851,4.069,4.069,0,0,1,63.458-3.4Zm1.174.133a3.046,3.046,0,0,0,.482,1.828,1.56,1.56,0,0,0,1.333.66,1.713,1.713,0,0,0,1.631-1V-5.027A1.726,1.726,0,0,0,66.46-6a1.567,1.567,0,0,0-1.346.667A3.354,3.354,0,0,0,64.632-3.358Zm6.132-.14a4.057,4.057,0,0,1,.4-1.815,2.96,2.96,0,0,1,1.1-1.244A3.007,3.007,0,0,1,73.88-7a2.9,2.9,0,0,1,2.269.971,3.736,3.736,0,0,1,.866,2.583v.083a4.092,4.092,0,0,1-.384,1.8,2.916,2.916,0,0,1-1.1,1.241,3.041,3.041,0,0,1-1.641.444A2.889,2.889,0,0,1,71.63-.844a3.718,3.718,0,0,1-.866-2.571Zm1.181.14a2.938,2.938,0,0,0,.53,1.834,1.7,1.7,0,0,0,1.419.692,1.686,1.686,0,0,0,1.422-.7A3.213,3.213,0,0,0,75.842-3.5a2.933,2.933,0,0,0-.536-1.831,1.705,1.705,0,0,0-1.425-.7,1.686,1.686,0,0,0-1.4.692A3.189,3.189,0,0,0,71.944-3.358Zm9.864-2.457a3.519,3.519,0,0,0-.578-.044,1.547,1.547,0,0,0-1.568.984V0H78.489V-6.868h1.143l.019.793A1.829,1.829,0,0,1,81.288-7a1.2,1.2,0,0,1,.521.089ZM85.82-3.491a4.023,4.023,0,0,1,.749-2.542A2.369,2.369,0,0,1,88.531-7a2.382,2.382,0,0,1,1.911.825V-9.75h1.174V0H90.537l-.057-.736a2.391,2.391,0,0,1-1.961.863,2.346,2.346,0,0,1-1.946-.978A4.069,4.069,0,0,1,85.82-3.4Zm1.174.133a3.046,3.046,0,0,0,.482,1.828,1.56,1.56,0,0,0,1.333.66,1.713,1.713,0,0,0,1.631-1V-5.027A1.726,1.726,0,0,0,88.823-6a1.567,1.567,0,0,0-1.346.667A3.354,3.354,0,0,0,86.995-3.358ZM96.288.127A3,3,0,0,1,94.015-.79a3.4,3.4,0,0,1-.876-2.453v-.216a4.121,4.121,0,0,1,.39-1.825,3.045,3.045,0,0,1,1.092-1.257A2.745,2.745,0,0,1,96.142-7a2.572,2.572,0,0,1,2.082.882,3.82,3.82,0,0,1,.743,2.526V-3.1H94.313a2.441,2.441,0,0,0,.594,1.641,1.866,1.866,0,0,0,1.444.625A2.045,2.045,0,0,0,97.4-1.085a2.648,2.648,0,0,0,.755-.673l.717.559A2.884,2.884,0,0,1,96.288.127ZM96.142-6.03a1.566,1.566,0,0,0-1.193.517,2.515,2.515,0,0,0-.6,1.45h3.44v-.089a2.237,2.237,0,0,0-.482-1.387A1.475,1.475,0,0,0,96.142-6.03ZM106.3-.832a1.691,1.691,0,0,0,1.1-.381,1.34,1.34,0,0,0,.521-.952h1.111a2.13,2.13,0,0,1-.406,1.124,2.676,2.676,0,0,1-1,.851A2.885,2.885,0,0,1,106.3.127a2.829,2.829,0,0,1-2.231-.936,3.729,3.729,0,0,1-.828-2.561v-.2a4.135,4.135,0,0,1,.368-1.784,2.8,2.8,0,0,1,1.057-1.212A3,3,0,0,1,106.292-7a2.755,2.755,0,0,1,1.92.692,2.473,2.473,0,0,1,.816,1.8h-1.111a1.618,1.618,0,0,0-.5-1.095,1.57,1.57,0,0,0-1.12-.428,1.644,1.644,0,0,0-1.387.644,3.026,3.026,0,0,0-.492,1.863V-3.3a2.966,2.966,0,0,0,.489,1.828A1.651,1.651,0,0,0,106.3-.832Zm8.29.832a2.467,2.467,0,0,1-.165-.724,2.62,2.62,0,0,1-1.955.851A2.424,2.424,0,0,1,110.8-.448a1.859,1.859,0,0,1-.651-1.457,1.942,1.942,0,0,1,.816-1.666,3.846,3.846,0,0,1,2.295-.594H114.4V-4.7a1.319,1.319,0,0,0-.368-.981,1.48,1.48,0,0,0-1.085-.365,1.712,1.712,0,0,0-1.054.317.935.935,0,0,0-.425.768h-1.181a1.621,1.621,0,0,1,.365-.993,2.491,2.491,0,0,1,.99-.759A3.331,3.331,0,0,1,113.02-7a2.715,2.715,0,0,1,1.86.594,2.141,2.141,0,0,1,.7,1.635v3.161a3.865,3.865,0,0,0,.241,1.5V0Zm-1.949-.9a2.064,2.064,0,0,0,1.047-.286,1.728,1.728,0,0,0,.717-.743V-3.333h-.92q-2.158,0-2.158,1.263a1.069,1.069,0,0,0,.368.863A1.415,1.415,0,0,0,112.639-.9Zm10.582-2.463A4.113,4.113,0,0,1,122.5-.832a2.3,2.3,0,0,1-1.942.958,2.519,2.519,0,0,1-1.968-.793V2.641h-1.174V-6.868h1.073l.057.762A2.419,2.419,0,0,1,120.542-7a2.342,2.342,0,0,1,1.958.933,4.157,4.157,0,0,1,.72,2.6Zm-1.174-.133a3.035,3.035,0,0,0-.5-1.834A1.6,1.6,0,0,0,120.193-6a1.726,1.726,0,0,0-1.6.946v3.282a1.73,1.73,0,0,0,1.612.939,1.587,1.587,0,0,0,1.343-.67A3.313,3.313,0,0,0,122.046-3.491ZM128.953,0a2.467,2.467,0,0,1-.165-.724,2.62,2.62,0,0,1-1.955.851,2.424,2.424,0,0,1-1.666-.574,1.859,1.859,0,0,1-.651-1.457,1.942,1.942,0,0,1,.816-1.666,3.846,3.846,0,0,1,2.295-.594h1.143V-4.7a1.319,1.319,0,0,0-.368-.981,1.48,1.48,0,0,0-1.085-.365,1.712,1.712,0,0,0-1.054.317.935.935,0,0,0-.425.768h-1.181a1.621,1.621,0,0,1,.365-.993,2.491,2.491,0,0,1,.99-.759A3.331,3.331,0,0,1,127.385-7a2.715,2.715,0,0,1,1.86.594,2.141,2.141,0,0,1,.7,1.635v3.161a3.865,3.865,0,0,0,.241,1.5V0ZM127-.9a2.064,2.064,0,0,0,1.047-.286,1.728,1.728,0,0,0,.717-.743V-3.333h-.92q-2.158,0-2.158,1.263a1.069,1.069,0,0,0,.368.863A1.415,1.415,0,0,0,127-.9Zm8.779-.927a.865.865,0,0,0-.359-.74,3.452,3.452,0,0,0-1.25-.454,5.912,5.912,0,0,1-1.416-.457,2.014,2.014,0,0,1-.774-.635,1.518,1.518,0,0,1-.251-.876,1.782,1.782,0,0,1,.714-1.428A2.789,2.789,0,0,1,134.272-7a2.87,2.87,0,0,1,1.895.6,1.915,1.915,0,0,1,.727,1.542h-1.181a1.06,1.06,0,0,0-.409-.832,1.534,1.534,0,0,0-1.031-.349,1.605,1.605,0,0,0-1,.279.879.879,0,0,0-.362.73.712.712,0,0,0,.336.641,4.139,4.139,0,0,0,1.216.413,6.334,6.334,0,0,1,1.425.47,2.079,2.079,0,0,1,.809.657,1.615,1.615,0,0,1,.263.936,1.758,1.758,0,0,1-.736,1.476,3.089,3.089,0,0,1-1.911.555,3.459,3.459,0,0,1-1.46-.292,2.375,2.375,0,0,1-.993-.816,1.966,1.966,0,0,1-.359-1.133h1.174a1.216,1.216,0,0,0,.473.936,1.835,1.835,0,0,0,1.165.346,1.894,1.894,0,0,0,1.07-.27A.829.829,0,0,0,135.783-1.822Zm8.677.99a1.692,1.692,0,0,0,1.1-.381,1.34,1.34,0,0,0,.521-.952h1.111a2.13,2.13,0,0,1-.406,1.124,2.676,2.676,0,0,1-1,.851,2.885,2.885,0,0,1-1.323.317,2.829,2.829,0,0,1-2.231-.936,3.729,3.729,0,0,1-.828-2.561v-.2a4.135,4.135,0,0,1,.368-1.784,2.8,2.8,0,0,1,1.057-1.212A3,3,0,0,1,144.454-7a2.755,2.755,0,0,1,1.92.692,2.473,2.473,0,0,1,.816,1.8h-1.111a1.618,1.618,0,0,0-.5-1.095,1.57,1.57,0,0,0-1.12-.428,1.644,1.644,0,0,0-1.387.644,3.026,3.026,0,0,0-.492,1.863V-3.3a2.965,2.965,0,0,0,.489,1.828A1.651,1.651,0,0,0,144.46-.832ZM148.2-3.5a4.057,4.057,0,0,1,.4-1.815,2.959,2.959,0,0,1,1.1-1.244A3.007,3.007,0,0,1,151.315-7a2.9,2.9,0,0,1,2.269.971,3.736,3.736,0,0,1,.866,2.583v.083a4.092,4.092,0,0,1-.384,1.8,2.916,2.916,0,0,1-1.1,1.241,3.041,3.041,0,0,1-1.641.444,2.889,2.889,0,0,1-2.263-.971,3.718,3.718,0,0,1-.866-2.571Zm1.181.14a2.938,2.938,0,0,0,.53,1.834,1.7,1.7,0,0,0,1.419.692,1.686,1.686,0,0,0,1.422-.7,3.213,3.213,0,0,0,.527-1.965,2.933,2.933,0,0,0-.536-1.831,1.705,1.705,0,0,0-1.425-.7,1.686,1.686,0,0,0-1.4.692A3.189,3.189,0,0,0,149.379-3.358Zm7.655-3.51.038.863A2.5,2.5,0,0,1,159.129-7q2.177,0,2.2,2.457V0h-1.174V-4.545a1.581,1.581,0,0,0-.34-1.1A1.361,1.361,0,0,0,158.774-6a1.7,1.7,0,0,0-1,.3,2.069,2.069,0,0,0-.673.8V0h-1.174V-6.868ZM170.555,0a2.467,2.467,0,0,1-.165-.724,2.62,2.62,0,0,1-1.955.851,2.424,2.424,0,0,1-1.666-.574,1.859,1.859,0,0,1-.651-1.457,1.942,1.942,0,0,1,.816-1.666,3.846,3.846,0,0,1,2.295-.594h1.143V-4.7A1.319,1.319,0,0,0,170-5.684a1.48,1.48,0,0,0-1.085-.365,1.712,1.712,0,0,0-1.054.317.935.935,0,0,0-.425.768h-1.181a1.621,1.621,0,0,1,.365-.993,2.491,2.491,0,0,1,.99-.759A3.331,3.331,0,0,1,168.987-7a2.715,2.715,0,0,1,1.86.594,2.141,2.141,0,0,1,.7,1.635v3.161a3.865,3.865,0,0,0,.241,1.5V0Zm-1.949-.9a2.064,2.064,0,0,0,1.047-.286,1.728,1.728,0,0,0,.717-.743V-3.333h-.92q-2.158,0-2.158,1.263a1.069,1.069,0,0,0,.368.863A1.415,1.415,0,0,0,168.606-.9Zm1.085-8.855h1.422l-1.7,1.866-.946,0Zm7.014,3.936a3.519,3.519,0,0,0-.578-.044,1.547,1.547,0,0,0-1.568.984V0h-1.174V-6.868h1.143l.019.793A1.829,1.829,0,0,1,176.186-7a1.2,1.2,0,0,1,.521.089ZM180.635.127a3,3,0,0,1-2.272-.917,3.4,3.4,0,0,1-.876-2.453v-.216a4.121,4.121,0,0,1,.39-1.825,3.045,3.045,0,0,1,1.092-1.257A2.745,2.745,0,0,1,180.489-7a2.572,2.572,0,0,1,2.082.882,3.82,3.82,0,0,1,.743,2.526V-3.1h-4.653a2.441,2.441,0,0,0,.594,1.641,1.866,1.866,0,0,0,1.444.625,2.045,2.045,0,0,0,1.054-.254,2.647,2.647,0,0,0,.755-.673l.717.559A2.884,2.884,0,0,1,180.635.127Zm-.146-6.157a1.566,1.566,0,0,0-1.193.517,2.515,2.515,0,0,0-.6,1.45h3.44v-.089a2.237,2.237,0,0,0-.482-1.387A1.475,1.475,0,0,0,180.489-6.03ZM188.913,0a2.467,2.467,0,0,1-.165-.724,2.62,2.62,0,0,1-1.955.851,2.424,2.424,0,0,1-1.666-.574,1.859,1.859,0,0,1-.651-1.457,1.942,1.942,0,0,1,.816-1.666,3.846,3.846,0,0,1,2.295-.594h1.143V-4.7a1.319,1.319,0,0,0-.368-.981,1.48,1.48,0,0,0-1.085-.365,1.712,1.712,0,0,0-1.054.317.935.935,0,0,0-.425.768h-1.181a1.621,1.621,0,0,1,.365-.993,2.491,2.491,0,0,1,.99-.759A3.331,3.331,0,0,1,187.345-7a2.715,2.715,0,0,1,1.86.594,2.141,2.141,0,0,1,.7,1.635v3.161a3.865,3.865,0,0,0,.241,1.5V0Zm-1.949-.9a2.064,2.064,0,0,0,1.047-.286,1.728,1.728,0,0,0,.717-.743V-3.333h-.92q-2.158,0-2.158,1.263a1.069,1.069,0,0,0,.368.863A1.415,1.415,0,0,0,186.964-.9Zm8.779-.927a.865.865,0,0,0-.359-.74,3.452,3.452,0,0,0-1.25-.454,5.912,5.912,0,0,1-1.416-.457,2.014,2.014,0,0,1-.774-.635,1.518,1.518,0,0,1-.251-.876,1.782,1.782,0,0,1,.714-1.428A2.789,2.789,0,0,1,194.232-7a2.87,2.87,0,0,1,1.895.6,1.915,1.915,0,0,1,.727,1.542h-1.181a1.06,1.06,0,0,0-.409-.832,1.534,1.534,0,0,0-1.031-.349,1.605,1.605,0,0,0-1,.279.879.879,0,0,0-.362.73.712.712,0,0,0,.336.641,4.139,4.139,0,0,0,1.216.413,6.334,6.334,0,0,1,1.425.47,2.079,2.079,0,0,1,.809.657,1.615,1.615,0,0,1,.263.936,1.758,1.758,0,0,1-.736,1.476,3.089,3.089,0,0,1-1.911.555,3.459,3.459,0,0,1-1.46-.292,2.375,2.375,0,0,1-.993-.816,1.966,1.966,0,0,1-.359-1.133h1.174a1.216,1.216,0,0,0,.473.936,1.835,1.835,0,0,0,1.165.346,1.894,1.894,0,0,0,1.07-.27A.829.829,0,0,0,195.743-1.822ZM201.354-3.5a4.057,4.057,0,0,1,.4-1.815,2.959,2.959,0,0,1,1.1-1.244A3.007,3.007,0,0,1,204.471-7a2.9,2.9,0,0,1,2.269.971,3.736,3.736,0,0,1,.866,2.583v.083a4.092,4.092,0,0,1-.384,1.8,2.916,2.916,0,0,1-1.1,1.241,3.041,3.041,0,0,1-1.641.444,2.889,2.889,0,0,1-2.263-.971,3.718,3.718,0,0,1-.866-2.571Zm1.181.14a2.938,2.938,0,0,0,.53,1.834,1.7,1.7,0,0,0,1.419.692,1.686,1.686,0,0,0,1.422-.7,3.213,3.213,0,0,0,.527-1.965,2.933,2.933,0,0,0-.536-1.831,1.705,1.705,0,0,0-1.425-.7,1.686,1.686,0,0,0-1.4.692A3.189,3.189,0,0,0,202.535-3.358Zm9.3,2.526a1.692,1.692,0,0,0,1.1-.381,1.34,1.34,0,0,0,.521-.952h1.111a2.13,2.13,0,0,1-.406,1.124,2.676,2.676,0,0,1-1,.851,2.885,2.885,0,0,1-1.323.317A2.829,2.829,0,0,1,209.6-.809a3.729,3.729,0,0,1-.828-2.561v-.2a4.135,4.135,0,0,1,.368-1.784A2.8,2.8,0,0,1,210.2-6.563,3,3,0,0,1,211.828-7a2.755,2.755,0,0,1,1.92.692,2.473,2.473,0,0,1,.816,1.8h-1.111a1.618,1.618,0,0,0-.5-1.095,1.57,1.57,0,0,0-1.12-.428,1.644,1.644,0,0,0-1.387.644,3.026,3.026,0,0,0-.492,1.863V-3.3a2.965,2.965,0,0,0,.489,1.828A1.651,1.651,0,0,0,211.834-.832Zm8.29.152a2.494,2.494,0,0,1-2.012.806,2.135,2.135,0,0,1-1.673-.638,2.761,2.761,0,0,1-.581-1.888V-6.868h1.174v4.437q0,1.562,1.27,1.562a1.758,1.758,0,0,0,1.79-1v-5h1.174V0h-1.117Zm4.2.679h-1.174V-9.75h1.174ZM227.8-8.531v1.663h1.282v.908H227.8V-1.7a.953.953,0,0,0,.171.62.721.721,0,0,0,.584.207,2.843,2.843,0,0,0,.559-.076V0a3.424,3.424,0,0,1-.9.126,1.462,1.462,0,0,1-1.187-.476,2.045,2.045,0,0,1-.4-1.352V-5.96h-1.25v-.908h1.25V-8.531ZM234.692,0a2.467,2.467,0,0,1-.165-.724,2.62,2.62,0,0,1-1.955.851,2.424,2.424,0,0,1-1.666-.574,1.859,1.859,0,0,1-.651-1.457,1.942,1.942,0,0,1,.816-1.666,3.846,3.846,0,0,1,2.295-.594h1.143V-4.7a1.319,1.319,0,0,0-.368-.981,1.48,1.48,0,0,0-1.085-.365A1.712,1.712,0,0,0,232-5.732a.935.935,0,0,0-.425.768h-1.181a1.621,1.621,0,0,1,.365-.993,2.491,2.491,0,0,1,.99-.759A3.331,3.331,0,0,1,233.124-7a2.715,2.715,0,0,1,1.86.594,2.141,2.141,0,0,1,.7,1.635v3.161a3.865,3.865,0,0,0,.241,1.5V0Zm-1.949-.9a2.064,2.064,0,0,0,1.047-.286,1.728,1.728,0,0,0,.717-.743V-3.333h-.92q-2.158,0-2.158,1.263a1.069,1.069,0,0,0,.368.863A1.415,1.415,0,0,0,232.743-.9Zm8.779-.927a.865.865,0,0,0-.359-.74,3.452,3.452,0,0,0-1.25-.454,5.912,5.912,0,0,1-1.416-.457,2.014,2.014,0,0,1-.774-.635,1.518,1.518,0,0,1-.251-.876,1.782,1.782,0,0,1,.714-1.428A2.789,2.789,0,0,1,240.011-7a2.87,2.87,0,0,1,1.895.6,1.915,1.915,0,0,1,.727,1.542h-1.181a1.06,1.06,0,0,0-.409-.832,1.534,1.534,0,0,0-1.031-.349,1.605,1.605,0,0,0-1,.279.879.879,0,0,0-.362.73.712.712,0,0,0,.336.641,4.139,4.139,0,0,0,1.216.413,6.334,6.334,0,0,1,1.425.47,2.079,2.079,0,0,1,.809.657,1.615,1.615,0,0,1,.263.936,1.758,1.758,0,0,1-.736,1.476,3.089,3.089,0,0,1-1.911.555,3.459,3.459,0,0,1-1.46-.292,2.375,2.375,0,0,1-.993-.816,1.966,1.966,0,0,1-.359-1.133h1.174a1.216,1.216,0,0,0,.473.936,1.835,1.835,0,0,0,1.165.346,1.894,1.894,0,0,0,1.07-.27A.829.829,0,0,0,241.522-1.822Z" transform="translate(19.792 17.089)" fill="#12263f"/>
      </g>
    </g>
  </g>
</svg>
