<svg xmlns="http://www.w3.org/2000/svg" width="58" height="58" viewBox="0 0 58 58">
  <g id="Grupo_61783" data-name="Grupo 61783" transform="translate(-312 -953)">
    <circle id="Elipse_4596" data-name="Elipse 4596" cx="29" cy="29" r="29" transform="translate(312 953)" fill="#d32f2f"/>
    <g id="Grupo_61782" data-name="Grupo 61782" transform="translate(-386.325 537.353)">
      <path id="Trazado_128504" data-name="Trazado 128504" d="M743.476,426.647a6.77,6.77,0,0,1,.621.481c.6.586,1.2,1.187,1.79,1.784.533.535.535.911,0,1.443q-4.67,4.672-9.346,9.339a.841.841,0,0,0-.275.661c.012,1.444.006,2.888.006,4.332v.418h2.31c0-.44,0-.87,0-1.3.007-.7.293-.982.99-.984.927,0,1.853,0,2.78,0a3.845,3.845,0,0,1,3.934,3.925q.011,7.942,0,15.883c0,.7-.284.984-.985.985q-2.852,0-5.7,0c-.738,0-1.017-.28-1.017-1.03q0-5.036,0-10.071v-.451H716.6c-.876,0-1.12-.241-1.12-1.107q0-1.931,0-3.862v-.426h-.432c-1.576,0-3.153-.01-4.729.006a.939.939,0,0,1-1-.6V427.225l.578-.578h.361a6.244,6.244,0,0,1,.622.477c.774.757,1.542,1.52,2.3,2.3a.953.953,0,0,0,.752.318q9.852-.014,19.7,0a3.646,3.646,0,0,1,.859.069,2.245,2.245,0,0,1,1.768,2.178c.019.424,0,.851,0,1.276l.131.067a2.536,2.536,0,0,1,.233-.319q2.93-2.939,5.869-5.87a6.913,6.913,0,0,1,.613-.49Zm-28.411,4.621c.1.116.151.178.206.234q6.725,6.726,13.456,13.444a.733.733,0,0,0,.471.177c1.732.012,3.465.008,5.2.007.1,0,.209-.009.325-.014v-3.585c-1.28.172-2.545.41-3.821.5s-2.56.019-3.837.019V440.5h3.964c.133-.661.239-1.3.4-1.927a1.719,1.719,0,0,1,.391-.742c.892-.928,1.817-1.824,2.717-2.744a.751.751,0,0,0,.2-.463c.02-.77.01-1.54.009-2.31s-.261-1.045-1.034-1.045H715.065Zm11.469,13.85-15.65-15.642v15.642Zm13.628-.7v17.642h4.594v-.446q0-4.529,0-9.058c0-1.9.005-3.8,0-5.7a2.262,2.262,0,0,0-1.838-2.415A24.892,24.892,0,0,0,740.162,444.413ZM717.046,450.5h2.3V449h1.534V450.5h1.546v-1.5h1.555V450.5h1.533V449h1.533v1.5h1.542V449h1.534V450.5h1.546v-1.5h1.555V450.5h1.533V449h1.533v1.5h2.275V446.7H717.046ZM734.4,439.573l9.947-9.947-1.017-1.044-9.957,9.957Z" transform="translate(0 0)" fill="#fff"/>
      <path id="Trazado_128505" data-name="Trazado 128505" d="M709.325,725.647h1.535v.452q0,6.135,0,12.269c0,.874.245,1.122,1.11,1.122h21.652c.874,0,1.118-.243,1.118-1.109q0-3.464,0-6.929v-.418h1.517c.006.135.018.262.018.39,0,2.346-.031,4.692.012,7.037a2.442,2.442,0,0,1-2.59,2.577c-7.169-.027-14.338-.012-21.508-.012-1.706,0-2.269-.384-2.863-1.949Z" transform="translate(0 -277.412)" fill="#fff"/>
      <path id="Trazado_128506" data-name="Trazado 128506" d="M753.6,845.3h2.307v1.531h-1.3c-.577,0-1.155.01-1.732-.006a.727.727,0,0,1-.788-.758c-.017-1.009-.005-2.019-.005-3.055H753.6Z" transform="translate(-39.669 -386.306)" fill="#fff"/>
      <path id="Trazado_128507" data-name="Trazado 128507" d="M828.474,876.511h-1.5v-1.484h1.5Z" transform="translate(-109.153 -416.006)" fill="#fff"/>
      <path id="Trazado_128508" data-name="Trazado 128508" d="M752.035,558.593c0-.963,0-1.925,0-2.888a.8.8,0,0,1,1.447-.592q2.946,2.95,5.9,5.9a.832.832,0,0,1,.281.968.846.846,0,0,1-.89.481c-1.925,0-3.85,0-5.776,0-.677,0-.954-.29-.957-.975C752.033,560.518,752.035,559.555,752.035,558.593Zm4.922,2.295-3.364-3.36v3.36Z" transform="translate(-39.625 -118.862)" fill="#fff"/>
      <path id="Trazado_128509" data-name="Trazado 128509" d="M1148.21,853.449a1.53,1.53,0,1,1-1.526,1.543A1.535,1.535,0,0,1,1148.21,853.449Z" transform="translate(-405.781 -395.986)" fill="#fff"/>
    </g>
  </g>
</svg>
