<svg xmlns="http://www.w3.org/2000/svg" width="610" height="302" viewBox="0 0 610 302">
  <g id="Grupo_62079" data-name="Grupo 62079" transform="translate(-495 -525)">
    <g id="Grupo_62077" data-name="Grupo 62077">
      <g id="Grupo_62076" data-name="Grupo 62076">
        <g id="Grupo_59586" data-name="Grupo 59586" transform="translate(-225 -157)">
          <rect id="Rectángulo_30672" data-name="Rectángulo 30672" width="4" height="21" transform="translate(720 682)" fill="#fba321"/>
          <path id="Trazado_131020" data-name="Trazado 131020" d="M1.32,0V-11.375H5.039a4.317,4.317,0,0,1,2.785.766,2.759,2.759,0,0,1,.934,2.266A2.31,2.31,0,0,1,8.3-6.934a2.938,2.938,0,0,1-1.234.949A2.638,2.638,0,0,1,8.527-5a2.814,2.814,0,0,1,.535,1.723A3.042,3.042,0,0,1,8.07-.875,4.1,4.1,0,0,1,5.266,0Zm1.5-5.32v4.094H5.3A2.385,2.385,0,0,0,6.949-1.77a1.907,1.907,0,0,0,.605-1.5q0-2.055-2.234-2.055Zm0-1.2H5.086A2.375,2.375,0,0,0,6.66-7.017a1.654,1.654,0,0,0,.59-1.339A1.626,1.626,0,0,0,6.7-9.722a2.686,2.686,0,0,0-1.664-.427H2.82ZM12.625,0H11.18V-12h1.445Zm1.93-4.3a4.993,4.993,0,0,1,.488-2.234A3.643,3.643,0,0,1,16.4-8.07a3.7,3.7,0,0,1,1.988-.539,3.565,3.565,0,0,1,2.793,1.2,4.6,4.6,0,0,1,1.066,3.18v.1a5.036,5.036,0,0,1-.473,2.215A3.589,3.589,0,0,1,20.426-.391a3.743,3.743,0,0,1-2.02.547,3.556,3.556,0,0,1-2.785-1.2A4.575,4.575,0,0,1,14.555-4.2Zm1.453.172a3.616,3.616,0,0,0,.652,2.258,2.088,2.088,0,0,0,1.746.852,2.075,2.075,0,0,0,1.75-.863A3.955,3.955,0,0,0,20.8-4.3a3.61,3.61,0,0,0-.66-2.254,2.1,2.1,0,0,0-1.754-.863,2.075,2.075,0,0,0-1.727.852A3.925,3.925,0,0,0,16.008-4.133Zm7.7-.164a4.961,4.961,0,0,1,.914-3.152,2.962,2.962,0,0,1,2.453-1.16A2.96,2.96,0,0,1,29.445-7.6l.063-.852h1.328V3.25H29.391V-.781a3.033,3.033,0,0,1-2.328.938,2.915,2.915,0,0,1-2.441-1.191,5.072,5.072,0,0,1-.91-3.16Zm1.445.164a3.761,3.761,0,0,0,.613,2.281,1.951,1.951,0,0,0,1.652.828,2.164,2.164,0,0,0,1.969-1.141V-6.3a2.171,2.171,0,0,0-1.953-1.117,1.965,1.965,0,0,0-1.664.832A4.094,4.094,0,0,0,25.156-4.133Zm13.219,3.3A3.07,3.07,0,0,1,35.9.156,2.628,2.628,0,0,1,33.84-.629a3.4,3.4,0,0,1-.715-2.324v-5.5H34.57v5.461q0,1.922,1.563,1.922a2.163,2.163,0,0,0,2.2-1.234V-8.453h1.445V0H38.406Zm7.109.992a3.693,3.693,0,0,1-2.8-1.129,4.19,4.19,0,0,1-1.078-3.02v-.266A5.073,5.073,0,0,1,42.09-6.5a3.748,3.748,0,0,1,1.344-1.547A3.378,3.378,0,0,1,45.3-8.609a3.166,3.166,0,0,1,2.563,1.086,4.7,4.7,0,0,1,.914,3.109v.6H43.055a3,3,0,0,0,.73,2.02,2.3,2.3,0,0,0,1.777.77,2.517,2.517,0,0,0,1.3-.312,3.259,3.259,0,0,0,.93-.828l.883.688A3.55,3.55,0,0,1,45.484.156ZM45.3-7.422a1.928,1.928,0,0,0-1.469.637A3.1,3.1,0,0,0,43.1-5h4.234v-.109a2.753,2.753,0,0,0-.594-1.707A1.815,1.815,0,0,0,45.3-7.422Zm10.07,5.18a1.064,1.064,0,0,0-.441-.91,4.249,4.249,0,0,0-1.539-.559,7.277,7.277,0,0,1-1.742-.562,2.479,2.479,0,0,1-.953-.781,1.869,1.869,0,0,1-.309-1.078,2.193,2.193,0,0,1,.879-1.758,3.432,3.432,0,0,1,2.246-.719,3.532,3.532,0,0,1,2.332.742,2.357,2.357,0,0,1,.895,1.9H55.289a1.3,1.3,0,0,0-.5-1.023,1.888,1.888,0,0,0-1.27-.43,1.976,1.976,0,0,0-1.234.344,1.082,1.082,0,0,0-.445.9.877.877,0,0,0,.414.789,5.1,5.1,0,0,0,1.5.508A7.8,7.8,0,0,1,55.5-4.3a2.558,2.558,0,0,1,1,.809,1.988,1.988,0,0,1,.324,1.152,2.163,2.163,0,0,1-.906,1.816,3.8,3.8,0,0,1-2.352.684,4.257,4.257,0,0,1-1.8-.359,2.922,2.922,0,0,1-1.223-1A2.42,2.42,0,0,1,50.1-2.6h1.445a1.5,1.5,0,0,0,.582,1.152,2.258,2.258,0,0,0,1.434.426,2.331,2.331,0,0,0,1.316-.332A1.02,1.02,0,0,0,55.375-2.242ZM58.656-.758a.905.905,0,0,1,.223-.625.848.848,0,0,1,.668-.25.874.874,0,0,1,.676.25.887.887,0,0,1,.23.625.839.839,0,0,1-.23.6.89.89,0,0,1-.676.242.863.863,0,0,1-.668-.242A.855.855,0,0,1,58.656-.758Zm.008-6.9a.905.905,0,0,1,.223-.625.848.848,0,0,1,.668-.25.874.874,0,0,1,.676.25.887.887,0,0,1,.23.625.839.839,0,0,1-.23.6.89.89,0,0,1-.676.242.863.863,0,0,1-.668-.242A.855.855,0,0,1,58.664-7.656Z" transform="translate(740 697)" fill="#636363"/>
        </g>
        <g id="Grupo_57751" data-name="Grupo 57751" transform="translate(210 -3892)">
          <rect id="Rectángulo_29951" data-name="Rectángulo 29951" width="610" height="40" transform="translate(285 4679)" fill="#e8e8e8"/>
          <path id="Trazado_131019" data-name="Trazado 131019" d="M8.176,14H6.951L2.3,6.878V14H1.073V4.758H2.3l4.666,7.154V4.758H8.176Zm1.669-3.5a4.057,4.057,0,0,1,.4-1.815,2.96,2.96,0,0,1,1.1-1.244A3.007,3.007,0,0,1,12.962,7a2.9,2.9,0,0,1,2.269.971A3.736,3.736,0,0,1,16.1,10.56v.083a4.092,4.092,0,0,1-.384,1.8,2.916,2.916,0,0,1-1.1,1.241,3.041,3.041,0,0,1-1.641.444,2.889,2.889,0,0,1-2.263-.971,3.718,3.718,0,0,1-.866-2.571Zm1.181.14a2.938,2.938,0,0,0,.53,1.834,1.8,1.8,0,0,0,2.841-.01,3.213,3.213,0,0,0,.527-1.965,2.933,2.933,0,0,0-.536-1.831,1.705,1.705,0,0,0-1.425-.7,1.686,1.686,0,0,0-1.4.692A3.189,3.189,0,0,0,11.026,10.642Zm8.138-5.173V7.132h1.282V8.04H19.164V12.3a.953.953,0,0,0,.171.62.721.721,0,0,0,.584.207,2.843,2.843,0,0,0,.559-.076V14a3.424,3.424,0,0,1-.9.126,1.462,1.462,0,0,1-1.187-.476,2.045,2.045,0,0,1-.4-1.352V8.04h-1.25V7.132h1.25V5.469ZM26.057,14a2.467,2.467,0,0,1-.165-.724,2.62,2.62,0,0,1-1.955.851,2.424,2.424,0,0,1-1.666-.574A1.859,1.859,0,0,1,21.62,12.1a1.942,1.942,0,0,1,.816-1.666,3.846,3.846,0,0,1,2.295-.594h1.143V9.3a1.319,1.319,0,0,0-.368-.981,1.48,1.48,0,0,0-1.085-.365,1.712,1.712,0,0,0-1.054.317.935.935,0,0,0-.425.768H21.76a1.621,1.621,0,0,1,.365-.993,2.491,2.491,0,0,1,.99-.759A3.331,3.331,0,0,1,24.489,7a2.715,2.715,0,0,1,1.86.594,2.141,2.141,0,0,1,.7,1.635v3.161a3.865,3.865,0,0,0,.241,1.5V14Zm-1.949-.9a2.064,2.064,0,0,0,1.047-.286,1.728,1.728,0,0,0,.717-.743V10.667h-.92q-2.158,0-2.158,1.263a1.069,1.069,0,0,0,.368.863A1.415,1.415,0,0,0,24.108,13.1Zm4.805.279a.735.735,0,0,1,.181-.508.689.689,0,0,1,.543-.2.71.71,0,0,1,.549.2.721.721,0,0,1,.187.508.681.681,0,0,1-.187.489.723.723,0,0,1-.549.2.653.653,0,0,1-.724-.686Zm12.93-7.63H38.873V14H37.661V5.754H34.7v-1h7.147Zm.248,4.748a4.057,4.057,0,0,1,.4-1.815,2.96,2.96,0,0,1,1.1-1.244A3.007,3.007,0,0,1,45.208,7a2.9,2.9,0,0,1,2.269.971,3.736,3.736,0,0,1,.866,2.583v.083a4.092,4.092,0,0,1-.384,1.8,2.916,2.916,0,0,1-1.1,1.241,3.041,3.041,0,0,1-1.641.444,2.889,2.889,0,0,1-2.263-.971,3.718,3.718,0,0,1-.866-2.571Zm1.181.14a2.938,2.938,0,0,0,.53,1.834,1.8,1.8,0,0,0,2.841-.01,3.213,3.213,0,0,0,.527-1.965,2.933,2.933,0,0,0-.536-1.831,1.705,1.705,0,0,0-1.425-.7,1.686,1.686,0,0,0-1.4.692A3.189,3.189,0,0,0,43.272,10.642Zm7.649-3.51.032.762A2.536,2.536,0,0,1,52.99,7a1.964,1.964,0,0,1,1.961,1.1,2.6,2.6,0,0,1,.892-.8,2.634,2.634,0,0,1,1.3-.3q2.26,0,2.3,2.393V14H58.265V9.468a1.577,1.577,0,0,0-.336-1.1A1.482,1.482,0,0,0,56.8,8a1.557,1.557,0,0,0-1.085.39,1.584,1.584,0,0,0-.5,1.051V14H54.031V9.5A1.31,1.31,0,0,0,52.565,8a1.571,1.571,0,0,0-1.581.984V14H49.81V7.132ZM65.451,14a2.467,2.467,0,0,1-.165-.724,2.62,2.62,0,0,1-1.955.851,2.424,2.424,0,0,1-1.666-.574,1.859,1.859,0,0,1-.651-1.457,1.942,1.942,0,0,1,.816-1.666,3.846,3.846,0,0,1,2.295-.594h1.143V9.3a1.319,1.319,0,0,0-.368-.981,1.48,1.48,0,0,0-1.085-.365,1.712,1.712,0,0,0-1.054.317.935.935,0,0,0-.425.768H61.153a1.621,1.621,0,0,1,.365-.993,2.491,2.491,0,0,1,.99-.759A3.331,3.331,0,0,1,63.883,7a2.715,2.715,0,0,1,1.86.594,2.141,2.141,0,0,1,.7,1.635v3.161a3.865,3.865,0,0,0,.241,1.5V14ZM63.5,13.1a2.064,2.064,0,0,0,1.047-.286,1.728,1.728,0,0,0,.717-.743V10.667h-.92q-2.158,0-2.158,1.263a1.069,1.069,0,0,0,.368.863A1.415,1.415,0,0,0,63.5,13.1ZM68,10.509a4.023,4.023,0,0,1,.749-2.542,2.548,2.548,0,0,1,3.872-.136V4.25h1.174V14H72.712l-.057-.736a2.391,2.391,0,0,1-1.961.863,2.346,2.346,0,0,1-1.946-.978A4.069,4.069,0,0,1,68,10.6Zm1.174.133a3.046,3.046,0,0,0,.482,1.828,1.56,1.56,0,0,0,1.333.66,1.713,1.713,0,0,0,1.631-1V8.973A1.726,1.726,0,0,0,71,8a1.567,1.567,0,0,0-1.346.667A3.354,3.354,0,0,0,69.17,10.642ZM79.854,14a2.467,2.467,0,0,1-.165-.724,2.62,2.62,0,0,1-1.955.851,2.424,2.424,0,0,1-1.666-.574,1.859,1.859,0,0,1-.651-1.457,1.942,1.942,0,0,1,.816-1.666,3.846,3.846,0,0,1,2.295-.594h1.143V9.3a1.319,1.319,0,0,0-.368-.981,1.48,1.48,0,0,0-1.085-.365,1.712,1.712,0,0,0-1.054.317.935.935,0,0,0-.425.768H75.556a1.621,1.621,0,0,1,.365-.993,2.491,2.491,0,0,1,.99-.759A3.331,3.331,0,0,1,78.286,7a2.715,2.715,0,0,1,1.86.594,2.141,2.141,0,0,1,.7,1.635v3.161a3.865,3.865,0,0,0,.241,1.5V14ZM77.9,13.1a2.064,2.064,0,0,0,1.047-.286,1.728,1.728,0,0,0,.717-.743V10.667h-.92q-2.158,0-2.158,1.263a1.069,1.069,0,0,0,.368.863A1.415,1.415,0,0,0,77.9,13.1Zm7.712-2.6a4.023,4.023,0,0,1,.749-2.542,2.548,2.548,0,0,1,3.872-.136V4.25h1.174V14H90.333l-.057-.736a2.391,2.391,0,0,1-1.961.863,2.346,2.346,0,0,1-1.946-.978,4.069,4.069,0,0,1-.752-2.552Zm1.174.133a3.046,3.046,0,0,0,.482,1.828,1.56,1.56,0,0,0,1.333.66,1.713,1.713,0,0,0,1.631-1V8.973A1.726,1.726,0,0,0,88.62,8a1.567,1.567,0,0,0-1.346.667A3.354,3.354,0,0,0,86.792,10.642Zm9.293,3.485a3,3,0,0,1-2.272-.917,3.4,3.4,0,0,1-.876-2.453v-.216a4.121,4.121,0,0,1,.39-1.825,3.045,3.045,0,0,1,1.092-1.257A2.745,2.745,0,0,1,95.938,7a2.572,2.572,0,0,1,2.082.882,3.82,3.82,0,0,1,.743,2.526V10.9H94.11a2.441,2.441,0,0,0,.594,1.641,1.866,1.866,0,0,0,1.444.625,2.045,2.045,0,0,0,1.054-.254,2.648,2.648,0,0,0,.755-.673l.717.559A2.884,2.884,0,0,1,96.084,14.127ZM95.938,7.97a1.566,1.566,0,0,0-1.193.517,2.515,2.515,0,0,0-.6,1.45h3.44V9.849a2.237,2.237,0,0,0-.482-1.387A1.475,1.475,0,0,0,95.938,7.97Zm12.689,3.612h-3.872L103.886,14h-1.257l3.529-9.242h1.066L110.76,14h-1.25Zm-3.5-1h3.142l-1.574-4.323Zm10.867,2.736a2.494,2.494,0,0,1-2.012.806,2.135,2.135,0,0,1-1.673-.638,2.761,2.761,0,0,1-.581-1.888V7.132H112.9v4.437q0,1.562,1.27,1.562a1.758,1.758,0,0,0,1.79-1v-5h1.174V14h-1.117Zm4.52-7.852V7.132h1.282V8.04H120.51V12.3a.953.953,0,0,0,.171.62.721.721,0,0,0,.584.207,2.843,2.843,0,0,0,.559-.076V14a3.424,3.424,0,0,1-.9.126,1.462,1.462,0,0,1-1.187-.476,2.045,2.045,0,0,1-.4-1.352V8.04h-1.25V7.132h1.25V5.469Zm2.215,5.034a4.057,4.057,0,0,1,.4-1.815,2.96,2.96,0,0,1,1.1-1.244A3.007,3.007,0,0,1,125.842,7a2.9,2.9,0,0,1,2.269.971,3.736,3.736,0,0,1,.866,2.583v.083a4.092,4.092,0,0,1-.384,1.8,2.916,2.916,0,0,1-1.1,1.241,3.041,3.041,0,0,1-1.641.444,2.889,2.889,0,0,1-2.263-.971,3.718,3.718,0,0,1-.866-2.571Zm1.181.14a2.938,2.938,0,0,0,.53,1.834,1.8,1.8,0,0,0,2.841-.01A3.213,3.213,0,0,0,127.8,10.5a2.933,2.933,0,0,0-.536-1.831,1.705,1.705,0,0,0-1.425-.7,1.686,1.686,0,0,0-1.4.692A3.189,3.189,0,0,0,123.906,10.642Zm6.259-.133a4.023,4.023,0,0,1,.749-2.542,2.548,2.548,0,0,1,3.872-.136V4.25h1.174V14h-1.079l-.057-.736a2.391,2.391,0,0,1-1.961.863,2.346,2.346,0,0,1-1.946-.978,4.069,4.069,0,0,1-.752-2.552Zm1.174.133a3.046,3.046,0,0,0,.482,1.828,1.56,1.56,0,0,0,1.333.66,1.713,1.713,0,0,0,1.631-1V8.973A1.726,1.726,0,0,0,133.167,8a1.567,1.567,0,0,0-1.346.667A3.354,3.354,0,0,0,131.339,10.642Zm9.293,3.485a3,3,0,0,1-2.272-.917,3.4,3.4,0,0,1-.876-2.453v-.216a4.121,4.121,0,0,1,.39-1.825,3.045,3.045,0,0,1,1.092-1.257A2.745,2.745,0,0,1,140.486,7a2.572,2.572,0,0,1,2.082.882,3.82,3.82,0,0,1,.743,2.526V10.9h-4.653a2.441,2.441,0,0,0,.594,1.641,1.866,1.866,0,0,0,1.444.625,2.045,2.045,0,0,0,1.054-.254,2.647,2.647,0,0,0,.755-.673l.717.559A2.884,2.884,0,0,1,140.632,14.127Zm-.146-6.157a1.566,1.566,0,0,0-1.193.517,2.515,2.515,0,0,0-.6,1.45h3.44V9.849a2.237,2.237,0,0,0-.482-1.387A1.475,1.475,0,0,0,140.486,7.97Zm8.182,4.208a.865.865,0,0,0-.359-.74,3.452,3.452,0,0,0-1.25-.454,5.912,5.912,0,0,1-1.416-.457,2.014,2.014,0,0,1-.774-.635,1.518,1.518,0,0,1-.251-.876,1.782,1.782,0,0,1,.714-1.428A2.789,2.789,0,0,1,147.158,7a2.87,2.87,0,0,1,1.895.6,1.915,1.915,0,0,1,.727,1.542H148.6a1.06,1.06,0,0,0-.409-.832,1.534,1.534,0,0,0-1.031-.349,1.605,1.605,0,0,0-1,.279.879.879,0,0,0-.362.73.712.712,0,0,0,.336.641,4.139,4.139,0,0,0,1.216.413,6.334,6.334,0,0,1,1.425.47,2.079,2.079,0,0,1,.809.657,1.615,1.615,0,0,1,.263.936,1.758,1.758,0,0,1-.736,1.476,3.089,3.089,0,0,1-1.911.555,3.459,3.459,0,0,1-1.46-.292,2.375,2.375,0,0,1-.993-.816,1.966,1.966,0,0,1-.359-1.133h1.174a1.216,1.216,0,0,0,.473.936,1.835,1.835,0,0,0,1.165.346,1.894,1.894,0,0,0,1.07-.27A.829.829,0,0,0,148.668,12.178Zm4.621-1.358-.736.768V14h-1.174V4.25h1.174v5.9l.628-.755,2.139-2.26h1.428L154.077,10l2.983,4h-1.377Zm7.846-.571a9.814,9.814,0,0,1,.384-2.755,8,8,0,0,1,1.146-2.4,4.874,4.874,0,0,1,1.581-1.523l.241.774a5.056,5.056,0,0,0-1.52,2.171,9.411,9.411,0,0,0-.651,3.269l-.006.54a9.46,9.46,0,0,0,.9,4.253,5.079,5.079,0,0,0,1.282,1.688l-.241.717a5.031,5.031,0,0,1-1.612-1.574A8.823,8.823,0,0,1,161.135,10.249ZM171.558,14H165.5v-.844L168.7,9.6a7.6,7.6,0,0,0,.981-1.311,2.188,2.188,0,0,0,.27-1.044,1.658,1.658,0,0,0-.438-1.187,1.531,1.531,0,0,0-1.168-.463,1.814,1.814,0,0,0-1.362.5,1.9,1.9,0,0,0-.486,1.387h-1.174a2.726,2.726,0,0,1,.822-2.063,3.047,3.047,0,0,1,2.2-.787,2.928,2.928,0,0,1,2.038.676,2.306,2.306,0,0,1,.749,1.8,5.287,5.287,0,0,1-1.739,3.25l-2.476,2.685h4.64Zm7.04-3.942a5.371,5.371,0,0,1-.7,3.066,2.928,2.928,0,0,1-4.393.022,5.1,5.1,0,0,1-.736-2.929V8.649a5.251,5.251,0,0,1,.7-3.028,2.98,2.98,0,0,1,4.405-.035,5.068,5.068,0,0,1,.724,2.948Zm-1.174-1.606A4.3,4.3,0,0,0,177,6.278a1.442,1.442,0,0,0-1.327-.682,1.423,1.423,0,0,0-1.314.679,4.2,4.2,0,0,0-.425,2.088v1.879a4.372,4.372,0,0,0,.435,2.212,1.439,1.439,0,0,0,1.317.714,1.42,1.42,0,0,0,1.292-.673,4.214,4.214,0,0,0,.441-2.12ZM183.961,14h-1.181V6.173l-2.368.87V5.977l3.364-1.263h.184ZM191.9,9.938a2.873,2.873,0,0,1-.879.7,2.385,2.385,0,0,1-1.12.267,2.463,2.463,0,0,1-1.393-.394,2.558,2.558,0,0,1-.917-1.108,3.776,3.776,0,0,1-.324-1.577,3.847,3.847,0,0,1,.352-1.669,2.588,2.588,0,0,1,1-1.136,2.851,2.851,0,0,1,1.511-.394,2.581,2.581,0,0,1,2.161,1.025,4.471,4.471,0,0,1,.79,2.8v.343a5.974,5.974,0,0,1-1.066,3.939,4.1,4.1,0,0,1-3.218,1.273h-.229v-1h.248a3.233,3.233,0,0,0,2.234-.757A3.248,3.248,0,0,0,191.9,9.938Zm-1.809,0a1.813,1.813,0,0,0,1.089-.362,2.133,2.133,0,0,0,.727-.9v-.47a3.232,3.232,0,0,0-.5-1.879,1.533,1.533,0,0,0-2.514-.13,2.448,2.448,0,0,0-.47,1.565,2.548,2.548,0,0,0,.454,1.558A1.437,1.437,0,0,0,190.093,9.938Zm7.579,4.189a3,3,0,0,1-2.272-.917,3.4,3.4,0,0,1-.876-2.453v-.216a4.121,4.121,0,0,1,.39-1.825,3.045,3.045,0,0,1,1.092-1.257A2.745,2.745,0,0,1,197.526,7a2.572,2.572,0,0,1,2.082.882,3.82,3.82,0,0,1,.743,2.526V10.9H195.7a2.441,2.441,0,0,0,.594,1.641,1.866,1.866,0,0,0,1.444.625,2.045,2.045,0,0,0,1.054-.254,2.647,2.647,0,0,0,.755-.673l.717.559A2.884,2.884,0,0,1,197.672,14.127Zm-.146-6.157a1.566,1.566,0,0,0-1.193.517,2.515,2.515,0,0,0-.6,1.45h3.44V9.849a2.237,2.237,0,0,0-.482-1.387A1.475,1.475,0,0,0,197.526,7.97Zm6.894,2.342a9.819,9.819,0,0,1-.371,2.714,8.024,8.024,0,0,1-1.136,2.4,4.978,4.978,0,0,1-1.6,1.562l-.248-.717a5.1,5.1,0,0,0,1.571-2.326,10.065,10.065,0,0,0,.606-3.5v-.2a10.449,10.449,0,0,0-.279-2.479,8.366,8.366,0,0,0-.778-2.053,4.743,4.743,0,0,0-1.12-1.416l.248-.717a4.959,4.959,0,0,1,1.6,1.549,8.041,8.041,0,0,1,1.136,2.393A10.045,10.045,0,0,1,204.42,10.312Zm1.834,3.072a.735.735,0,0,1,.181-.508.689.689,0,0,1,.543-.2.71.71,0,0,1,.549.2.721.721,0,0,1,.187.508.682.682,0,0,1-.187.489.723.723,0,0,1-.549.2.653.653,0,0,1-.724-.686Z" transform="translate(300 4690)" fill="#12263f"/>
        </g>
        <g id="Grupo_61788" data-name="Grupo 61788" transform="translate(605.017 -730.195)">
          <g id="Grupo_61788-2" data-name="Grupo 61788" transform="translate(153.013 1436.008)" style="isolation: isolate">
            <path id="Trazado_130897" data-name="Trazado 130897" d="M506.921,1669.069h7.637v2.156h30.915v-2.156h8.695V1631.9H506.921v37.172Z" transform="translate(-506.085 -1631.061)" fill="#969696"/>
            <path id="Trazado_130898" data-name="Trazado 130898" d="M545.146,1670.9H512.558v-2.157h-7.637V1629.9h48.92v38.845h-8.695Zm-30.915-1.673h29.242v-2.157h8.695v-35.5H506.594v35.5h7.637Z" transform="translate(-504.921 -1629.897)"/>
          </g>
          <g id="Grupo_61789" data-name="Grupo 61789" transform="translate(105.011 1434.749)" style="isolation: isolate">
            <circle id="Elipse_4623" data-name="Elipse 4623" cx="9.466" cy="9.466" r="9.466" transform="translate(0.836 0.837)" fill="#78e188"/>
            <path id="Trazado_130899" data-name="Trazado 130899" d="M400.462,1647.493a10.3,10.3,0,1,1,10.3-10.3A10.314,10.314,0,0,1,400.462,1647.493Zm0-18.932a8.629,8.629,0,1,0,8.629,8.629A8.639,8.639,0,0,0,400.462,1628.561Z" transform="translate(-390.159 -1626.888)"/>
          </g>
          <g id="Grupo_61790" data-name="Grupo 61790" transform="translate(56.767 1422.2)" style="isolation: isolate">
            <circle id="Elipse_4624" data-name="Elipse 4624" cx="15.412" cy="15.412" r="15.412" transform="translate(0.836 0.837)" fill="#00cf24"/>
            <path id="Trazado_130900" data-name="Trazado 130900" d="M291.067,1629.383a16.248,16.248,0,1,1,16.248-16.248A16.267,16.267,0,0,1,291.067,1629.383Zm0-30.823a14.575,14.575,0,1,0,14.575,14.575A14.592,14.592,0,0,0,291.067,1598.559Z" transform="translate(-274.819 -1596.886)"/>
          </g>
          <g id="Grupo_61791" data-name="Grupo 61791" transform="translate(-9.163 1436.279)" style="isolation: isolate">
            <path id="Trazado_130901" data-name="Trazado 130901" d="M150.949,1670.964v-17.08l4.087.1h11.207l-22.634-21.377L121,1654.086l15.8-.2Z" transform="translate(-119.41 -1631.748)" fill="#5fb7e3"/>
            <path id="Trazado_130902" data-name="Trazado 130902" d="M149.361,1671.5l-15.066-18.191-17.1.219,24.2-22.986,24.213,22.868H152.82l-3.46-.088Zm-14.482-19.453,13.227,15.97v-15.983l4.73.122h9.612l-21.055-19.885-21.013,19.962Z" transform="translate(-117.194 -1630.546)"/>
          </g>
          <g id="Grupo_61792" data-name="Grupo 61792" transform="translate(-96.672 1300.885)">
            <path id="Trazado_130903" data-name="Trazado 130903" d="M-7.874,1322.738H-92.02v-15.889H-7.874Zm-82.891-1.255H-9.129V1308.1H-90.765Z" transform="translate(92.02 -1306.849)"/>
          </g>
          <g id="Grupo_61793" data-name="Grupo 61793" transform="translate(-89.353 1301.231)">
            <path id="Trazado_130904" data-name="Trazado 130904" d="M-66.574,1323.57a7.955,7.955,0,0,1-7.947-7.947,7.956,7.956,0,0,1,7.947-7.947,7.956,7.956,0,0,1,7.947,7.947A7.955,7.955,0,0,1-66.574,1323.57Zm0-14.639a6.7,6.7,0,0,0-6.692,6.692,6.7,6.7,0,0,0,6.692,6.692,6.7,6.7,0,0,0,6.692-6.692A6.7,6.7,0,0,0-66.574,1308.931Z" transform="translate(74.521 -1307.676)"/>
          </g>
          <g id="Grupo_61794" data-name="Grupo 61794" transform="translate(-35.895 1301.231)">
            <path id="Trazado_130905" data-name="Trazado 130905" d="M61.231,1323.57a7.947,7.947,0,1,1,7.947-7.947A7.955,7.955,0,0,1,61.231,1323.57Zm0-14.639a6.692,6.692,0,1,0,6.692,6.692A6.7,6.7,0,0,0,61.231,1308.931Z" transform="translate(-53.284 -1307.676)"/>
          </g>
          <g id="Grupo_61795" data-name="Grupo 61795" transform="translate(-60.271 1304.019)">
            <path id="Trazado_130906" data-name="Trazado 130906" d="M.509,1325.342a5.5,5.5,0,1,1,0-11,5.5,5.5,0,1,1,0,11Zm0-9.746a4.246,4.246,0,1,0,0,8.491,4.246,4.246,0,1,0,0-8.491Z" transform="translate(4.992 -1314.341)"/>
          </g>
          <g id="Grupo_61796" data-name="Grupo 61796" transform="translate(-21.267 1306.162)">
            <path id="Trazado_130907" data-name="Trazado 130907" d="M94.171,1325.38H88.257v-5.914h5.914Zm-4.66-1.255h3.4v-3.4h-3.4Z" transform="translate(-88.257 -1319.466)"/>
          </g>
          <g id="Grupo_61797" data-name="Grupo 61797" transform="translate(-94.013 1306.162)">
            <path id="Trazado_130908" data-name="Trazado 130908" d="M-79.747,1325.38h-5.915v-5.914h5.915Zm-4.66-1.255H-81v-3.4h-3.405Z" transform="translate(85.662 -1319.466)"/>
          </g>
          <g id="Grupo_61798" data-name="Grupo 61798" transform="translate(-60.272 1304.017)">
            <path id="Trazado_130909" data-name="Trazado 130909" d="M27.944,1372.845a5.189,5.189,0,0,1-4.5-2.585l-27.742-47.886a5.152,5.152,0,0,1-.524-3.934,5.153,5.153,0,0,1,2.411-3.152l.433-.251a5.155,5.155,0,0,1,3.934-.524,5.151,5.151,0,0,1,3.152,2.412l27.742,47.885a5.192,5.192,0,0,1-1.888,7.087l-.432.251A5.154,5.154,0,0,1,27.944,1372.845ZM.619,1315.593a3.9,3.9,0,0,0-1.964.531l-.433.251a3.9,3.9,0,0,0-1.827,2.39,3.9,3.9,0,0,0,.4,2.981l27.742,47.886a3.937,3.937,0,0,0,5.372,1.431l.432-.251a3.936,3.936,0,0,0,1.431-5.372L4.027,1317.554a3.9,3.9,0,0,0-2.39-1.828A3.94,3.94,0,0,0,.619,1315.593Z" transform="translate(4.995 -1314.337)"/>
          </g>
          <g id="Grupo_61799" data-name="Grupo 61799" transform="translate(8.97 1302.459)">
            <path id="Trazado_130910" data-name="Trazado 130910" d="M168.752,1325.9h-8.2v-1.255h7.779l.083-.064a8.268,8.268,0,0,0,.3-12.719h-8.157v-1.255h8.6l.172.138a9.518,9.518,0,0,1-.149,14.832Z" transform="translate(-160.547 -1310.612)"/>
          </g>
          <g id="Grupo_61800" data-name="Grupo 61800" transform="translate(8.97 1316.589)">
            <path id="Trazado_130911" data-name="Trazado 130911" d="M168.751,1359.685h-8.2v-1.255h7.779l.083-.064a8.268,8.268,0,0,0,.294-12.718h-8.157v-1.255h8.6l.172.138a9.518,9.518,0,0,1-.149,14.832Z" transform="translate(-160.547 -1344.393)"/>
          </g>
          <g id="Grupo_61801" data-name="Grupo 61801" transform="translate(8.97 1330.626)">
            <path id="Trazado_130912" data-name="Trazado 130912" d="M168.751,1393.243h-8.2v-1.255h7.779l.083-.064a8.268,8.268,0,0,0,.294-12.718h-8.157v-1.255h8.6l.172.138a9.518,9.518,0,0,1-.149,14.832Z" transform="translate(-160.547 -1377.952)"/>
          </g>
          <g id="Grupo_61802" data-name="Grupo 61802" transform="translate(8.97 1344.755)">
            <path id="Trazado_130913" data-name="Trazado 130913" d="M168.752,1427.025h-8.2v-1.255h7.779l.083-.064a8.267,8.267,0,0,0,.3-12.718h-8.157v-1.255h8.6l.172.138a9.517,9.517,0,0,1-.149,14.831Z" transform="translate(-160.547 -1411.733)"/>
          </g>
          <g id="Grupo_61803" data-name="Grupo 61803" transform="translate(33.555 1302.459)">
            <path id="Trazado_130914" data-name="Trazado 130914" d="M231.577,1325.9h-8.2l-.421-.323a9.517,9.517,0,0,1-.148-14.832l.172-.138h8.6v1.255H223.42a8.267,8.267,0,0,0,.295,12.719l.083.064h7.779Z" transform="translate(-219.325 -1310.612)"/>
          </g>
          <g id="Grupo_61804" data-name="Grupo 61804" transform="translate(33.555 1316.589)">
            <path id="Trazado_130915" data-name="Trazado 130915" d="M231.577,1359.685h-8.2l-.42-.322a9.517,9.517,0,0,1-.149-14.832l.172-.138h8.6v1.255H223.42a8.267,8.267,0,0,0,.295,12.718l.083.064h7.779Z" transform="translate(-219.325 -1344.393)"/>
          </g>
          <g id="Grupo_61805" data-name="Grupo 61805" transform="translate(33.555 1330.626)">
            <path id="Trazado_130916" data-name="Trazado 130916" d="M231.577,1393.243h-8.2l-.42-.322a9.517,9.517,0,0,1-.149-14.832l.172-.138h8.6v1.255H223.42a8.267,8.267,0,0,0,.295,12.719l.083.063h7.779Z" transform="translate(-219.325 -1377.952)"/>
          </g>
          <g id="Grupo_61806" data-name="Grupo 61806" transform="translate(33.555 1344.755)">
            <path id="Trazado_130917" data-name="Trazado 130917" d="M231.577,1427.025h-8.2l-.421-.323a9.517,9.517,0,0,1-.148-14.831l.172-.138h8.6v1.255H223.42a8.267,8.267,0,0,0,.295,12.718l.083.064h7.779Z" transform="translate(-219.325 -1411.733)"/>
          </g>
          <g id="Grupo_61807" data-name="Grupo 61807" transform="translate(24.229 1303.087)">
            <rect id="Rectángulo_31009" data-name="Rectángulo 31009" width="1.255" height="56.333"/>
          </g>
          <g id="Grupo_61808" data-name="Grupo 61808" transform="translate(30.077 1303.087)">
            <rect id="Rectángulo_31010" data-name="Rectángulo 31010" width="1.255" height="56.333"/>
          </g>
          <g id="Grupo_61809" data-name="Grupo 61809" transform="translate(82.268 1302.459)">
            <path id="Trazado_130918" data-name="Trazado 130918" d="M355.46,1367.483H335.785v-56.871H355.46Zm-18.42-1.255h17.166v-54.361H337.04Z" transform="translate(-335.785 -1310.612)"/>
          </g>
          <g id="Grupo_61810" data-name="Grupo 61810" transform="translate(83.48 1358.703)">
            <rect id="Rectángulo_31011" data-name="Rectángulo 31011" width="8.625" height="4.226" transform="translate(0 0)"/>
          </g>
          <g id="Grupo_61811" data-name="Grupo 61811" transform="translate(104.239 1303.087)">
            <rect id="Rectángulo_31012" data-name="Rectángulo 31012" width="3.509" height="22.124"/>
          </g>
          <g id="Grupo_61812" data-name="Grupo 61812" transform="translate(104.239 1327.988)">
            <rect id="Rectángulo_31013" data-name="Rectángulo 31013" width="3.509" height="4.678" transform="translate(0 0)"/>
          </g>
          <g id="Grupo_61813" data-name="Grupo 61813" transform="translate(94.298 1329.011)">
            <rect id="Rectángulo_31014" data-name="Rectángulo 31014" width="4.971" height="4.971" transform="translate(0 0)"/>
          </g>
          <g id="Grupo_61814" data-name="Grupo 61814" transform="translate(94.298 1305.913)">
            <rect id="Rectángulo_31015" data-name="Rectángulo 31015" width="4.971" height="19.297" transform="translate(0 0)"/>
          </g>
          <g id="Grupo_61815" data-name="Grupo 61815" transform="translate(82.895 1305.913)">
            <rect id="Rectángulo_31016" data-name="Rectángulo 31016" width="4.24" height="19.297" transform="translate(0 0)"/>
          </g>
          <g id="Grupo_61816" data-name="Grupo 61816" transform="translate(82.895 1329.011)">
            <rect id="Rectángulo_31017" data-name="Rectángulo 31017" width="4.24" height="4.24" transform="translate(0 0)"/>
          </g>
          <g id="Grupo_61817" data-name="Grupo 61817" transform="translate(83.48 1335.298)">
            <rect id="Rectángulo_31018" data-name="Rectángulo 31018" width="3.655" height="9.484" transform="translate(0 0)"/>
          </g>
          <g id="Grupo_61818" data-name="Grupo 61818" transform="translate(84.723 1344.782)">
            <rect id="Rectángulo_31019" data-name="Rectángulo 31019" width="6.213" height="4.916"/>
          </g>
          <g id="Grupo_61819" data-name="Grupo 61819" transform="translate(83.48 1349.698)">
            <rect id="Rectángulo_31020" data-name="Rectángulo 31020" width="3.655" height="4.897" transform="translate(0 0)"/>
          </g>
          <g id="Grupo_61820" data-name="Grupo 61820" transform="translate(73.904 1353.164)">
            <rect id="Rectángulo_31021" data-name="Rectángulo 31021" width="6.798" height="1.255" transform="translate(0 0)"/>
          </g>
          <g id="Grupo_61821" data-name="Grupo 61821" transform="translate(76.347 1349.698)">
            <rect id="Rectángulo_31022" data-name="Rectángulo 31022" width="1.255" height="3.801"/>
          </g>
          <g id="Grupo_61822" data-name="Grupo 61822" transform="translate(74.489 1347.389)">
            <rect id="Rectángulo_31023" data-name="Rectángulo 31023" width="12.645" height="1.255" transform="translate(0 0)"/>
          </g>
          <g id="Grupo_61823" data-name="Grupo 61823" transform="translate(75.908 1329.45)">
            <rect id="Rectángulo_31024" data-name="Rectángulo 31024" width="1.255" height="18.567" transform="translate(0 0)"/>
          </g>
          <g id="Grupo_61824" data-name="Grupo 61824" transform="translate(74.489 1342.638)">
            <rect id="Rectángulo_31025" data-name="Rectángulo 31025" width="8.04" height="1.255" transform="translate(0 0)"/>
          </g>
          <g id="Grupo_61825" data-name="Grupo 61825" transform="translate(73.904 1337.302)">
            <rect id="Rectángulo_31026" data-name="Rectángulo 31026" width="8.26" height="1.255" transform="translate(0)"/>
          </g>
          <g id="Grupo_61826" data-name="Grupo 61826" transform="translate(74.489 1331.6)">
            <rect id="Rectángulo_31027" data-name="Rectángulo 31027" width="8.04" height="1.255" transform="translate(0 0)"/>
          </g>
          <g id="Grupo_61827" data-name="Grupo 61827" transform="translate(73.904 1324.071)">
            <rect id="Rectángulo_31028" data-name="Rectángulo 31028" width="8.991" height="1.255" transform="translate(0)"/>
          </g>
          <g id="Grupo_61828" data-name="Grupo 61828" transform="translate(73.904 1318.224)">
            <rect id="Rectángulo_31029" data-name="Rectángulo 31029" width="9.576" height="1.255" transform="translate(0 0)"/>
          </g>
          <g id="Grupo_61829" data-name="Grupo 61829" transform="translate(74.124 1313.521)">
            <rect id="Rectángulo_31030" data-name="Rectángulo 31030" width="9.356" height="1.255" transform="translate(0)"/>
          </g>
          <g id="Grupo_61830" data-name="Grupo 61830" transform="translate(74.489 1308.136)">
            <rect id="Rectángulo_31031" data-name="Rectángulo 31031" width="9.868" height="1.255" transform="translate(0 0)"/>
          </g>
          <g id="Grupo_61831" data-name="Grupo 61831" transform="translate(76.347 1305.255)">
            <rect id="Rectángulo_31032" data-name="Rectángulo 31032" width="1.255" height="13.23" transform="translate(0 0)"/>
          </g>
          <g id="Grupo_61832" data-name="Grupo 61832" transform="translate(76.676 1320.971)">
            <rect id="Rectángulo_31033" data-name="Rectángulo 31033" width="1.255" height="4.24"/>
          </g>
          <g id="Grupo_61833" data-name="Grupo 61833" transform="translate(101.681 1308.136)">
            <rect id="Rectángulo_31034" data-name="Rectángulo 31034" width="7.529" height="1.255" transform="translate(0 0)"/>
          </g>
          <g id="Grupo_61834" data-name="Grupo 61834" transform="translate(101.316 1313.521)">
            <rect id="Rectángulo_31035" data-name="Rectángulo 31035" width="7.894" height="1.255"/>
          </g>
          <g id="Grupo_61835" data-name="Grupo 61835" transform="translate(101.316 1318.224)">
            <rect id="Rectángulo_31036" data-name="Rectángulo 31036" width="7.894" height="1.255" transform="translate(0 0)"/>
          </g>
          <g id="Grupo_61836" data-name="Grupo 61836" transform="translate(101.681 1324.071)">
            <rect id="Rectángulo_31037" data-name="Rectángulo 31037" width="7.164" height="1.255"/>
          </g>
          <g id="Grupo_61837" data-name="Grupo 61837" transform="translate(102.046 1331.308)">
            <rect id="Rectángulo_31038" data-name="Rectángulo 31038" width="7.456" height="1.255" transform="translate(0 0)"/>
          </g>
          <g id="Grupo_61838" data-name="Grupo 61838" transform="translate(84.723 1339.86)">
            <rect id="Rectángulo_31039" data-name="Rectángulo 31039" width="3.801" height="1.255"/>
          </g>
          <g id="Grupo_61839" data-name="Grupo 61839" transform="translate(79.563 1351.774)">
            <path id="Trazado_130919" data-name="Trazado 130919" d="M333.278,1432.471h-3.959v-3.959h3.959Zm-2.7-1.255h1.45v-1.45h-1.45Z" transform="translate(-329.319 -1428.512)"/>
          </g>
          <g id="Grupo_61840" data-name="Grupo 61840" transform="translate(75.147 1332.228)">
            <rect id="Rectángulo_31040" data-name="Rectángulo 31040" width="3.655" height="6.044"/>
          </g>
          <g id="Grupo_61841" data-name="Grupo 61841" transform="translate(131.827 1311.243)">
            <path id="Trazado_130920" data-name="Trazado 130920" d="M504.548,1340.944H454.27v-9.332h50.278Zm-49.023-1.255h47.768v-6.823H455.525Z" transform="translate(-454.27 -1331.612)"/>
          </g>
          <g id="Grupo_61842" data-name="Grupo 61842" transform="translate(161.303 1345.545)">
            <rect id="Rectángulo_31041" data-name="Rectángulo 31041" width="2.339" height="2.959" transform="translate(0 0)"/>
          </g>
          <g id="Grupo_61843" data-name="Grupo 61843" transform="translate(165.062 1345.545)">
            <rect id="Rectángulo_31042" data-name="Rectángulo 31042" width="2.339" height="2.959" transform="translate(0 0)"/>
          </g>
          <g id="Grupo_61844" data-name="Grupo 61844" transform="translate(168.814 1345.545)">
            <rect id="Rectángulo_31043" data-name="Rectángulo 31043" width="2.339" height="2.959" transform="translate(0 0)"/>
          </g>
          <g id="Grupo_61845" data-name="Grupo 61845" transform="translate(172.42 1345.545)">
            <rect id="Rectángulo_31044" data-name="Rectángulo 31044" width="2.339" height="2.959" transform="translate(0 0)"/>
          </g>
          <g id="Grupo_61846" data-name="Grupo 61846" transform="translate(161.402 1349.771)">
            <rect id="Rectángulo_31045" data-name="Rectángulo 31045" width="1.247" height="1.247"/>
          </g>
          <g id="Grupo_61847" data-name="Grupo 61847" transform="translate(160.155 1348.441)">
            <rect id="Rectángulo_31046" data-name="Rectángulo 31046" width="1.247" height="1.247"/>
          </g>
          <g id="Grupo_61848" data-name="Grupo 61848" transform="translate(174.759 1348.504)">
            <rect id="Rectángulo_31047" data-name="Rectángulo 31047" width="1.121" height="1.121" transform="translate(0 0)"/>
          </g>
          <g id="Grupo_61849" data-name="Grupo 61849" transform="translate(173.638 1349.771)">
            <rect id="Rectángulo_31048" data-name="Rectángulo 31048" width="1.121" height="1.121"/>
          </g>
          <g id="Grupo_61850" data-name="Grupo 61850" transform="translate(172.42 1351.038)">
            <rect id="Rectángulo_31049" data-name="Rectángulo 31049" width="1.121" height="1.121"/>
          </g>
          <g id="Grupo_61851" data-name="Grupo 61851" transform="translate(168.659 1351.038)">
            <rect id="Rectángulo_31050" data-name="Rectángulo 31050" width="2.494" height="1.121"/>
          </g>
          <g id="Grupo_61852" data-name="Grupo 61852" transform="translate(164.984 1351.038)">
            <rect id="Rectángulo_31051" data-name="Rectángulo 31051" width="2.494" height="1.121"/>
          </g>
          <g id="Grupo_61853" data-name="Grupo 61853" transform="translate(161.402 1351.038)">
            <rect id="Rectángulo_31052" data-name="Rectángulo 31052" width="2.494" height="1.121"/>
          </g>
          <g id="Grupo_61854" data-name="Grupo 61854" transform="translate(163.642 1348.504)">
            <rect id="Rectángulo_31053" data-name="Rectángulo 31053" width="1.419" height="2.534" transform="translate(0 0)"/>
          </g>
          <g id="Grupo_61855" data-name="Grupo 61855" transform="translate(167.401 1348.504)">
            <rect id="Rectángulo_31054" data-name="Rectángulo 31054" width="1.413" height="2.534" transform="translate(0 0)"/>
          </g>
          <g id="Grupo_61856" data-name="Grupo 61856" transform="translate(171.153 1348.504)">
            <rect id="Rectángulo_31055" data-name="Rectángulo 31055" width="1.267" height="2.534" transform="translate(0 0)"/>
          </g>
          <g id="Grupo_61857" data-name="Grupo 61857" transform="translate(160.151 1352.14)">
            <path id="Trazado_130921" data-name="Trazado 130921" d="M537.782,1445.878h-1.255v-15.235H523.242v15.235h-1.255v-16.49h15.8Z" transform="translate(-521.987 -1429.388)"/>
          </g>
          <g id="Grupo_61858" data-name="Grupo 61858" transform="translate(167.48 1352.768)">
            <rect id="Rectángulo_31056" data-name="Rectángulo 31056" width="1.255" height="3.728" transform="translate(0 0)"/>
          </g>
          <g id="Grupo_61859" data-name="Grupo 61859" transform="translate(171.159 1352.768)">
            <rect id="Rectángulo_31057" data-name="Rectángulo 31057" width="1.255" height="1.633" transform="translate(0 0)"/>
          </g>
          <g id="Grupo_61860" data-name="Grupo 61860" transform="translate(163.989 1352.768)">
            <rect id="Rectángulo_31058" data-name="Rectángulo 31058" width="1.255" height="1.864" transform="translate(0 0)"/>
          </g>
          <g id="Grupo_61861" data-name="Grupo 61861" transform="translate(128.026 1315.616)">
            <path id="Trazado_130922" data-name="Trazado 130922" d="M506.668,1372.624H445.182v-30.556h4.429v1.255h-3.174v28.047h58.977V1367.7h1.267v-17.33h-1.267v-7.048h-6.78v-1.255h8.035v7.048h1.267v19.84h-1.267Z" transform="translate(-445.182 -1342.068)"/>
          </g>
          <g id="Grupo_61862" data-name="Grupo 61862" transform="translate(128.903 1322.664)">
            <path id="Trazado_130923" data-name="Trazado 130923" d="M457.087,1371.228H447.28v-12.311h9.807Zm-8.552-1.255h7.3v-9.8h-7.3Z" transform="translate(-447.28 -1358.917)"/>
          </g>
          <g id="Grupo_61863" data-name="Grupo 61863" transform="translate(145.277 1322.664)">
            <path id="Trazado_130924" data-name="Trazado 130924" d="M531.611,1378.758H486.425v-19.84h45.186ZM487.68,1377.5h42.676v-17.33H487.68Z" transform="translate(-486.425 -1358.918)"/>
          </g>
          <g id="Grupo_61864" data-name="Grupo 61864" transform="translate(189.208 1323.779)">
            <path id="Trazado_130925" data-name="Trazado 130925" d="M596.583,1379.211h-5.129v-17.628h5.129Zm-3.874-1.255h2.619v-15.119h-2.619Z" transform="translate(-591.454 -1361.583)"/>
          </g>
          <g id="Grupo_61865" data-name="Grupo 61865" transform="translate(134.532 1316.804)">
            <rect id="Rectángulo_31059" data-name="Rectángulo 31059" width="1.255" height="8.553" transform="translate(0 0)"/>
          </g>
          <g id="Grupo_61866" data-name="Grupo 61866" transform="translate(134.532 1326.892)">
            <rect id="Rectángulo_31060" data-name="Rectángulo 31060" width="1.255" height="4.386"/>
          </g>
          <g id="Grupo_61867" data-name="Grupo 61867" transform="translate(134.532 1333.032)">
            <rect id="Rectángulo_31061" data-name="Rectángulo 31061" width="1.255" height="5.775"/>
          </g>
          <g id="Grupo_61868" data-name="Grupo 61868" transform="translate(143.2 1334.067)">
            <rect id="Rectángulo_31062" data-name="Rectángulo 31062" width="19.45" height="1.255" transform="translate(0 0)"/>
          </g>
          <g id="Grupo_61869" data-name="Grupo 61869" transform="translate(164.984 1334.067)">
            <rect id="Rectángulo_31063" data-name="Rectángulo 31063" width="4.999" height="1.255" transform="translate(0 0)"/>
          </g>
          <g id="Grupo_61870" data-name="Grupo 61870" transform="translate(172.42 1334.067)">
            <rect id="Rectángulo_31064" data-name="Rectángulo 31064" width="23.055" height="1.255" transform="translate(0 0)"/>
          </g>
          <g id="Grupo_61871" data-name="Grupo 61871" transform="translate(167.48 1309.568)">
            <rect id="Rectángulo_31065" data-name="Rectángulo 31065" width="1.255" height="21.71" transform="translate(0 0)"/>
          </g>
          <g id="Grupo_61872" data-name="Grupo 61872" transform="translate(167.242 1333.032)">
            <rect id="Rectángulo_31066" data-name="Rectángulo 31066" width="1.255" height="11.75"/>
          </g>
          <g id="Grupo_61873" data-name="Grupo 61873" transform="translate(160.151 1341.877)">
            <rect id="Rectángulo_31067" data-name="Rectángulo 31067" width="1.255" height="4.093"/>
          </g>
          <g id="Grupo_61874" data-name="Grupo 61874" transform="translate(175.027 1341.877)">
            <rect id="Rectángulo_31068" data-name="Rectángulo 31068" width="1.255" height="3.668"/>
          </g>
          <g id="Grupo_61875" data-name="Grupo 61875" transform="translate(200.946 1324.218)">
            <rect id="Rectángulo_31069" data-name="Rectángulo 31069" width="12.938" height="1.255" transform="translate(0 0)"/>
          </g>
          <g id="Grupo_61876" data-name="Grupo 61876" transform="translate(200.318 1324.406)">
            <rect id="Rectángulo_31070" data-name="Rectángulo 31070" width="1.255" height="16.374" transform="translate(0 0)"/>
          </g>
          <g id="Grupo_61877" data-name="Grupo 61877" transform="translate(200.361 1340.152)">
            <rect id="Rectángulo_31071" data-name="Rectángulo 31071" width="13.231" height="1.255"/>
          </g>
          <g id="Grupo_61878" data-name="Grupo 61878" transform="translate(196.67 1324.114)">
            <rect id="Rectángulo_31072" data-name="Rectángulo 31072" width="1.279" height="1.279" transform="translate(0 0)"/>
          </g>
          <g id="Grupo_61879" data-name="Grupo 61879" transform="translate(196.67 1327.805)">
            <rect id="Rectángulo_31073" data-name="Rectángulo 31073" width="1.279" height="2.522"/>
          </g>
          <g id="Grupo_61880" data-name="Grupo 61880" transform="translate(196.67 1332.593)">
            <rect id="Rectángulo_31074" data-name="Rectángulo 31074" width="1.279" height="1.279" transform="translate(0 0)"/>
          </g>
          <g id="Grupo_61881" data-name="Grupo 61881" transform="translate(196.67 1336.321)">
            <rect id="Rectángulo_31075" data-name="Rectángulo 31075" width="1.279" height="1.279" transform="translate(0 0)"/>
          </g>
          <g id="Grupo_61882" data-name="Grupo 61882" transform="translate(196.67 1340.086)">
            <rect id="Rectángulo_31076" data-name="Rectángulo 31076" width="1.17" height="1.17"/>
          </g>
          <g id="Grupo_61883" data-name="Grupo 61883" transform="translate(197.949 1337.6)">
            <rect id="Rectángulo_31077" data-name="Rectángulo 31077" width="2.412" height="2.485"/>
          </g>
          <g id="Grupo_61884" data-name="Grupo 61884" transform="translate(197.949 1333.872)">
            <rect id="Rectángulo_31078" data-name="Rectángulo 31078" width="2.412" height="2.449"/>
          </g>
          <g id="Grupo_61885" data-name="Grupo 61885" transform="translate(197.839 1330.291)">
            <rect id="Rectángulo_31079" data-name="Rectángulo 31079" width="2.522" height="2.522"/>
          </g>
          <g id="Grupo_61886" data-name="Grupo 61886" transform="translate(194.294 1325.393)">
            <rect id="Rectángulo_31080" data-name="Rectángulo 31080" width="2.376" height="2.412"/>
          </g>
          <g id="Grupo_61887" data-name="Grupo 61887" transform="translate(194.294 1327.111)">
            <rect id="Rectángulo_31081" data-name="Rectángulo 31081" width="1.181" height="1.955" transform="translate(0 0)"/>
          </g>
          <g id="Grupo_61888" data-name="Grupo 61888" transform="translate(194.294 1330.291)">
            <rect id="Rectángulo_31082" data-name="Rectángulo 31082" width="2.376" height="2.303"/>
          </g>
          <g id="Grupo_61889" data-name="Grupo 61889" transform="translate(194.129 1333.872)">
            <rect id="Rectángulo_31083" data-name="Rectángulo 31083" width="2.54" height="2.54"/>
          </g>
          <g id="Grupo_61890" data-name="Grupo 61890" transform="translate(194.129 1337.6)">
            <rect id="Rectángulo_31084" data-name="Rectángulo 31084" width="2.54" height="2.485"/>
          </g>
          <g id="Grupo_61891" data-name="Grupo 61891" transform="translate(199.1 1327.805)">
            <rect id="Rectángulo_31085" data-name="Rectángulo 31085" width="1.261" height="1.261"/>
          </g>
          <g id="Grupo_61892" data-name="Grupo 61892" transform="translate(197.949 1325.393)">
            <rect id="Rectángulo_31086" data-name="Rectángulo 31086" width="1.206" height="2.695"/>
          </g>
          <g id="Grupo_61893" data-name="Grupo 61893" transform="translate(198.241 1325.393)">
            <rect id="Rectángulo_31087" data-name="Rectángulo 31087" width="2.12" height="1.206"/>
          </g>
          <g id="Grupo_61894" data-name="Grupo 61894" transform="translate(-84.088 1438.717)">
            <path id="Trazado_130926" data-name="Trazado 130926" d="M-18.135,1671.894h-43.8v-35.521h43.8Zm-42.544-1.255h41.29v-33.011h-41.29Z" transform="translate(61.934 -1636.373)"/>
          </g>
          <g id="Grupo_61895" data-name="Grupo 61895" transform="translate(-100.017 1448.722)">
            <path id="Trazado_130927" data-name="Trazado 130927" d="M-49.48,1677.585l-24.626-15.509-3.842,7.28h-22.069V1668.1H-78.7l4.122-7.809,24.625,15.508,3.947-7.49h21.546v1.255H-45.253Z" transform="translate(100.017 -1660.292)"/>
          </g>
          <g id="Grupo_61896" data-name="Grupo 61896" transform="translate(-67.909 1473.086)">
            <path id="Trazado_130928" data-name="Trazado 130928" d="M-17.656,1732.653l-5.6-6.878h5.617v-7.232h1.255v7.546h6.042Zm-2.958-5.623,3.1,3.81,3.9-3.5h-4.019v-.315Z" transform="translate(23.253 -1718.543)"/>
          </g>
          <g id="Grupo_61897" data-name="Grupo 61897" transform="translate(-59.251 1426.846)">
            <path id="Trazado_130929" data-name="Trazado 130929" d="M9.385,1613.679H-2.554l5.969-5.685Zm-8.8-1.255H6.248l-2.833-2.7Z" transform="translate(2.554 -1607.994)"/>
          </g>
          <g id="Grupo_61898" data-name="Grupo 61898" transform="translate(-70.884 1427.713)">
            <rect id="Rectángulo_31088" data-name="Rectángulo 31088" width="1.255" height="9.012"/>
          </g>
          <g id="Grupo_61899" data-name="Grupo 61899" transform="translate(-75.182 1436.097)">
            <rect id="Rectángulo_31089" data-name="Rectángulo 31089" width="10.479" height="1.255" transform="translate(0 0)"/>
          </g>
          <g id="Grupo_61900" data-name="Grupo 61900" transform="translate(-62.24 1427.713)">
            <rect id="Rectángulo_31090" data-name="Rectángulo 31090" width="1.255" height="5.344" transform="translate(0)"/>
          </g>
          <g id="Grupo_61901" data-name="Grupo 61901" transform="translate(-62.24 1436.305)">
            <rect id="Rectángulo_31091" data-name="Rectángulo 31091" width="1.255" height="3.039" transform="translate(0)"/>
          </g>
          <g id="Grupo_61902" data-name="Grupo 61902" transform="translate(-53.909 1431.904)">
            <rect id="Rectángulo_31092" data-name="Rectángulo 31092" width="1.255" height="7.44" transform="translate(0)"/>
          </g>
          <g id="Grupo_61903" data-name="Grupo 61903" transform="translate(-67.741 1436.724)">
            <rect id="Rectángulo_31093" data-name="Rectángulo 31093" width="1.255" height="2.62" transform="translate(0)"/>
          </g>
          <g id="Grupo_61904" data-name="Grupo 61904" transform="translate(-73.609 1437.144)">
            <rect id="Rectángulo_31094" data-name="Rectángulo 31094" width="1.255" height="2.2" transform="translate(0)"/>
          </g>
          <g id="Grupo_61905" data-name="Grupo 61905" transform="translate(-8.227 1436.516)">
            <path id="Trazado_130930" data-name="Trazado 130930" d="M142.694,1677.636a23.262,23.262,0,1,1,23.262-23.262A23.288,23.288,0,0,1,142.694,1677.636Zm0-45.269a22.007,22.007,0,1,0,22.007,22.007A22.032,22.032,0,0,0,142.694,1632.367Z" transform="translate(-119.433 -1631.112)"/>
          </g>
          <g id="Grupo_61906" data-name="Grupo 61906" transform="translate(-9.076 1436.279)">
            <path id="Trazado_130931" data-name="Trazado 130931" d="M134.8,1676.4l-3.757-1.546v-20.834l-13.639-.568,24.11-22.9,24.214,22.868h-13.1v18.766l3.139.616-7.253,3.529-.415-1.106-13.3-15.692Zm-1.255-20.291,15.658,18.488,2.646-1.288-.477-.094v-21.054h11.2l-21.055-19.885-21.1,20.045,11.882.5v21.2l1.247.512Z" transform="translate(-117.402 -1630.546)"/>
          </g>
          <g id="Grupo_61907" data-name="Grupo 61907" transform="translate(7.065 1461.816)" style="isolation: isolate">
            <path id="Trazado_130932" data-name="Trazado 130932" d="M157.491,1695.744v17.644a21.435,21.435,0,0,0,14.686,0Z" transform="translate(-156.864 -1694.01)" fill="#5fb7e3"/>
            <path id="Trazado_130933" data-name="Trazado 130933" d="M164.169,1712.933a22.246,22.246,0,0,1-7.789-1.377l-.389-.16v-19.8l16.348,19.64-.8.32A19.787,19.787,0,0,1,164.169,1712.933Zm-6.923-2.4a21.145,21.145,0,0,0,13.008.159l-13.008-15.629Z" transform="translate(-155.991 -1691.598)"/>
          </g>
          <g id="Grupo_61908" data-name="Grupo 61908" transform="translate(73.157 1438.47)" style="isolation: isolate">
            <circle id="Elipse_4625" data-name="Elipse 4625" cx="19.968" cy="19.968" r="19.968" transform="translate(0.837 0.836)" fill="#00a201"/>
            <path id="Trazado_130934" data-name="Trazado 130934" d="M334.809,1677.393a20.8,20.8,0,1,1,20.8-20.805A20.829,20.829,0,0,1,334.809,1677.393Zm0-39.937a19.132,19.132,0,1,0,19.131,19.131A19.153,19.153,0,0,0,334.809,1637.456Z" transform="translate(-314.004 -1635.783)"/>
          </g>
          <g id="Grupo_61909" data-name="Grupo 61909" transform="translate(73.158 1420.089)">
            <rect id="Rectángulo_31095" data-name="Rectángulo 31095" width="1.673" height="2.193"/>
          </g>
          <g id="Grupo_61910" data-name="Grupo 61910" transform="translate(83.008 1423.662)">
            <rect id="Rectángulo_31096" data-name="Rectángulo 31096" width="3.755" height="1.673" transform="translate(0 3.737) rotate(-84.34)"/>
          </g>
          <g id="Grupo_61911" data-name="Grupo 61911" transform="translate(57.133 1427.66)">
            <rect id="Rectángulo_31097" data-name="Rectángulo 31097" width="1.673" height="3.958" transform="translate(0 1.671) rotate(-87.788)"/>
          </g>
          <g id="Grupo_61912" data-name="Grupo 61912" transform="translate(62.105 1423.94)">
            <rect id="Rectángulo_31098" data-name="Rectángulo 31098" width="3.766" height="1.673" transform="matrix(0.999, -0.037, 0.037, 0.999, 0, 0.138)"/>
          </g>
          <g id="Grupo_61913" data-name="Grupo 61913" transform="translate(61.369 1425.578)">
            <rect id="Rectángulo_31099" data-name="Rectángulo 31099" width="1.855" height="1.673" transform="translate(0 1.853) rotate(-87.621)"/>
          </g>
          <g id="Grupo_61914" data-name="Grupo 61914" transform="translate(66.448 1422.2)">
            <rect id="Rectángulo_31100" data-name="Rectángulo 31100" width="3.216" height="1.673"/>
          </g>
          <g id="Grupo_61915" data-name="Grupo 61915" transform="translate(75.512 1421.153)">
            <rect id="Rectángulo_31101" data-name="Rectángulo 31101" width="3.874" height="1.673" transform="translate(0 0)"/>
          </g>
          <g id="Grupo_61916" data-name="Grupo 61916" transform="translate(78.233 1422.838)">
            <rect id="Rectángulo_31102" data-name="Rectángulo 31102" width="3.284" height="1.673" transform="matrix(0.996, -0.091, 0.091, 0.996, 0, 0.298)"/>
          </g>
          <g id="Grupo_61917" data-name="Grupo 61917" transform="translate(87.599 1429.618)">
            <rect id="Rectángulo_31103" data-name="Rectángulo 31103" width="5.244" height="1.673" transform="translate(0 5.19) rotate(-81.72)"/>
          </g>
          <g id="Grupo_61918" data-name="Grupo 61918" transform="translate(55.378 1437.016)">
            <rect id="Rectángulo_31104" data-name="Rectángulo 31104" width="1.673" height="3.735" transform="matrix(0.039, -0.999, 0.999, 0.039, 0, 1.671)"/>
          </g>
          <g id="Grupo_61919" data-name="Grupo 61919" transform="translate(55.828 1439.985)">
            <rect id="Rectángulo_31105" data-name="Rectángulo 31105" width="3.924" height="1.673" transform="translate(0 3.874) rotate(-80.869)"/>
          </g>
          <g id="Grupo_61920" data-name="Grupo 61920" transform="translate(58.68 1445.845)">
            <rect id="Rectángulo_31106" data-name="Rectángulo 31106" width="1.673" height="4.178" transform="matrix(0.999, -0.05, 0.05, 0.999, 0, 0.083)"/>
          </g>
          <g id="Grupo_61921" data-name="Grupo 61921" transform="translate(61.211 1449.244)">
            <rect id="Rectángulo_31107" data-name="Rectángulo 31107" width="1.673" height="5.613" transform="matrix(0.999, -0.035, 0.035, 0.999, 0, 0.059)"/>
          </g>
          <g id="Grupo_61922" data-name="Grupo 61922" transform="translate(60.278 1453.043)">
            <rect id="Rectángulo_31108" data-name="Rectángulo 31108" width="1.73" height="1.673" transform="matrix(0.978, -0.211, 0.211, 0.978, 0, 0.365)"/>
          </g>
          <g id="Grupo_61923" data-name="Grupo 61923" transform="translate(63.198 1451.28)">
            <rect id="Rectángulo_31109" data-name="Rectángulo 31109" width="1.673" height="2.649" transform="translate(0 0.335) rotate(-11.547)"/>
          </g>
          <g id="Grupo_61924" data-name="Grupo 61924" transform="translate(65.645 1453.681)">
            <rect id="Rectángulo_31110" data-name="Rectángulo 31110" width="3.728" height="1.673"/>
          </g>
          <g id="Grupo_61925" data-name="Grupo 61925" transform="translate(67.985 1453.977)">
            <rect id="Rectángulo_31111" data-name="Rectángulo 31111" width="5.96" height="1.673" transform="translate(0 0.512) rotate(-4.931)"/>
          </g>
          <g id="Grupo_61926" data-name="Grupo 61926" transform="translate(72.179 1455.833)">
            <rect id="Rectángulo_31112" data-name="Rectángulo 31112" width="1.673" height="5.556"/>
          </g>
          <g id="Grupo_61927" data-name="Grupo 61927" transform="translate(70.395 1457.775)">
            <rect id="Rectángulo_31113" data-name="Rectángulo 31113" width="3.599" height="1.673"/>
          </g>
          <g id="Grupo_61928" data-name="Grupo 61928" transform="translate(72.18 1461.849)">
            <rect id="Rectángulo_31114" data-name="Rectángulo 31114" width="4.993" height="1.673" transform="translate(0 4.984) rotate(-86.5)"/>
          </g>
          <g id="Grupo_61929" data-name="Grupo 61929" transform="translate(72.073 1466.482)">
            <rect id="Rectángulo_31115" data-name="Rectángulo 31115" width="4.018" height="1.673" transform="translate(0 0.585) rotate(-8.368)"/>
          </g>
          <g id="Grupo_61930" data-name="Grupo 61930" transform="translate(74.612 1468.208)">
            <rect id="Rectángulo_31116" data-name="Rectángulo 31116" width="1.673" height="3.918" transform="translate(0 0.25) rotate(-8.586)"/>
          </g>
          <g id="Grupo_61931" data-name="Grupo 61931" transform="translate(76.434 1471.888)">
            <rect id="Rectángulo_31117" data-name="Rectángulo 31117" width="1.673" height="2.578" transform="translate(0 1.661) rotate(-83.01)"/>
          </g>
          <g id="Grupo_61932" data-name="Grupo 61932" transform="translate(78.29 1474.66)">
            <rect id="Rectángulo_31118" data-name="Rectángulo 31118" width="2.924" height="1.673" transform="translate(0 0)"/>
          </g>
          <g id="Grupo_61933" data-name="Grupo 61933" transform="translate(77.895 1471.547)">
            <rect id="Rectángulo_31119" data-name="Rectángulo 31119" width="1.673" height="5.652" transform="translate(0 0.151) rotate(-5.192)"/>
          </g>
          <g id="Grupo_61934" data-name="Grupo 61934" transform="translate(76.997 1477.439)">
            <rect id="Rectángulo_31120" data-name="Rectángulo 31120" width="2.244" height="1.674" transform="translate(0 2.193) rotate(-77.768)"/>
          </g>
          <g id="Grupo_61935" data-name="Grupo 61935" transform="translate(82.002 1475.332)">
            <rect id="Rectángulo_31121" data-name="Rectángulo 31121" width="1.673" height="2.237" transform="translate(0 0.328) rotate(-11.31)"/>
          </g>
          <g id="Grupo_61936" data-name="Grupo 61936" transform="translate(83.334 1477.876)">
            <rect id="Rectángulo_31122" data-name="Rectángulo 31122" width="5.093" height="1.673"/>
          </g>
          <g id="Grupo_61937" data-name="Grupo 61937" transform="translate(93.131 1480.008)">
            <rect id="Rectángulo_31123" data-name="Rectángulo 31123" width="1.673" height="6.915" transform="matrix(0.994, -0.112, 0.112, 0.994, 0, 0.187)"/>
          </g>
          <g id="Grupo_61938" data-name="Grupo 61938" transform="translate(91.062 1478.566)">
            <rect id="Rectángulo_31124" data-name="Rectángulo 31124" width="1.673" height="3.758" transform="translate(0 0.293) rotate(-10.086)"/>
          </g>
          <g id="Grupo_61939" data-name="Grupo 61939" transform="translate(90.941 1479.268)">
            <rect id="Rectángulo_31125" data-name="Rectángulo 31125" width="5.647" height="1.673" transform="matrix(0.997, -0.082, 0.082, 0.997, 0, 0.461)"/>
          </g>
          <g id="Grupo_61940" data-name="Grupo 61940" transform="translate(96.073 1478.408)">
            <rect id="Rectángulo_31126" data-name="Rectángulo 31126" width="1.673" height="5.566" transform="translate(0 1.67) rotate(-86.424)"/>
          </g>
          <g id="Grupo_61941" data-name="Grupo 61941" transform="translate(98.888 1477.438)">
            <rect id="Rectángulo_31127" data-name="Rectángulo 31127" width="1.673" height="4.021" transform="translate(0 1.673) rotate(-88.958)"/>
          </g>
          <g id="Grupo_61942" data-name="Grupo 61942" transform="translate(102.741 1476.357)">
            <rect id="Rectángulo_31128" data-name="Rectángulo 31128" width="1.673" height="4.019" transform="translate(0 1.671) rotate(-87.076)"/>
          </g>
          <g id="Grupo_61943" data-name="Grupo 61943" transform="translate(105.026 1474.281)">
            <rect id="Rectángulo_31129" data-name="Rectángulo 31129" width="1.673" height="3.534" transform="translate(0 0.311) rotate(-10.724)"/>
          </g>
          <g id="Grupo_61944" data-name="Grupo 61944" transform="translate(110.055 1471.298)">
            <rect id="Rectángulo_31130" data-name="Rectángulo 31130" width="3.846" height="1.673" transform="translate(0 0.146) rotate(-2.182)"/>
          </g>
          <g id="Grupo_61945" data-name="Grupo 61945" transform="translate(110.786 1469.627)">
            <rect id="Rectángulo_31131" data-name="Rectángulo 31131" width="1.673" height="2.571" transform="matrix(1, -0.026, 0.026, 1, 0, 0.044)"/>
          </g>
          <g id="Grupo_61946" data-name="Grupo 61946" transform="translate(111.61 1466.709)">
            <rect id="Rectángulo_31132" data-name="Rectángulo 31132" width="1.673" height="3.126" transform="matrix(0.978, -0.21, 0.21, 0.978, 0, 0.351)"/>
          </g>
          <g id="Grupo_61947" data-name="Grupo 61947" transform="translate(113.097 1463.484)">
            <rect id="Rectángulo_31133" data-name="Rectángulo 31133" width="1.674" height="4.065" transform="translate(0 0.133) rotate(-4.553)"/>
          </g>
          <g id="Grupo_61948" data-name="Grupo 61948" transform="translate(113.929 1455.833)">
            <rect id="Rectángulo_31134" data-name="Rectángulo 31134" width="1.673" height="4.751"/>
          </g>
          <g id="Grupo_61949" data-name="Grupo 61949" transform="translate(113.796 1456.463)">
            <rect id="Rectángulo_31135" data-name="Rectángulo 31135" width="5.518" height="1.673" transform="translate(0 0.555) rotate(-5.772)"/>
          </g>
          <g id="Grupo_61950" data-name="Grupo 61950" transform="translate(115.318 1455.042)">
            <rect id="Rectángulo_31136" data-name="Rectángulo 31136" width="2.508" height="1.673" transform="translate(0 2.507) rotate(-88.321)"/>
          </g>
          <g id="Grupo_61951" data-name="Grupo 61951" transform="translate(114.092 1454.229)">
            <rect id="Rectángulo_31137" data-name="Rectángulo 31137" width="5.57" height="1.673" transform="translate(0 0)"/>
          </g>
          <g id="Grupo_61952" data-name="Grupo 61952" transform="translate(118.932 1455.483)">
            <rect id="Rectángulo_31138" data-name="Rectángulo 31138" width="2.924" height="1.673"/>
          </g>
          <g id="Grupo_61953" data-name="Grupo 61953" transform="translate(122.408 1451.74)">
            <rect id="Rectángulo_31139" data-name="Rectángulo 31139" width="1.673" height="4.093" transform="translate(0 0)"/>
          </g>
          <g id="Grupo_61954" data-name="Grupo 61954" transform="translate(122.221 1451.909)">
            <rect id="Rectángulo_31140" data-name="Rectángulo 31140" width="2.558" height="1.673"/>
          </g>
          <g id="Grupo_61955" data-name="Grupo 61955" transform="translate(124.381 1442.03)">
            <rect id="Rectángulo_31141" data-name="Rectángulo 31141" width="9.69" height="1.673" transform="matrix(0.03, -1, 1, 0.03, 0, 9.685)"/>
          </g>
          <g id="Grupo_61956" data-name="Grupo 61956" transform="translate(124.779 1444.215)">
            <rect id="Rectángulo_31142" data-name="Rectángulo 31142" width="3.216" height="1.673"/>
          </g>
          <g id="Grupo_61957" data-name="Grupo 61957" transform="translate(122.603 1449.68)">
            <rect id="Rectángulo_31143" data-name="Rectángulo 31143" width="1.673" height="3.3" transform="matrix(0.766, -0.642, 0.642, 0.766, 0, 1.075)"/>
          </g>
          <g id="Grupo_61958" data-name="Grupo 61958" transform="translate(119.1 1452.126)">
            <rect id="Rectángulo_31144" data-name="Rectángulo 31144" width="3.454" height="1.673" transform="matrix(0.741, -0.672, 0.672, 0.741, 0, 2.321)"/>
          </g>
          <g id="Grupo_61959" data-name="Grupo 61959" transform="translate(122.663 1437.487)">
            <rect id="Rectángulo_31145" data-name="Rectángulo 31145" width="1.673" height="2.816"/>
          </g>
          <g id="Grupo_61960" data-name="Grupo 61960" transform="translate(119.222 1435.199)">
            <rect id="Rectángulo_31146" data-name="Rectángulo 31146" width="2.902" height="1.673" transform="translate(0 0.468) rotate(-9.274)"/>
          </g>
          <g id="Grupo_61961" data-name="Grupo 61961" transform="translate(116.471 1433.721)">
            <rect id="Rectángulo_31147" data-name="Rectángulo 31147" width="1.884" height="1.673" transform="translate(0 1.731) rotate(-66.79)"/>
          </g>
          <g id="Grupo_61962" data-name="Grupo 61962" transform="translate(110.598 1434.08)">
            <rect id="Rectángulo_31148" data-name="Rectángulo 31148" width="4.167" height="1.673" transform="translate(0 0)"/>
          </g>
          <g id="Grupo_61963" data-name="Grupo 61963" transform="translate(107.304 1434.824)">
            <rect id="Rectángulo_31149" data-name="Rectángulo 31149" width="3.013" height="1.673" transform="translate(0 1.892) rotate(-38.896)"/>
          </g>
          <g id="Grupo_61964" data-name="Grupo 61964" transform="translate(105.017 1437.827)">
            <rect id="Rectángulo_31150" data-name="Rectángulo 31150" width="1.673" height="2.797" transform="translate(0 0.197) rotate(-6.75)"/>
          </g>
          <g id="Grupo_61965" data-name="Grupo 61965" transform="translate(104.024 1439.968)">
            <rect id="Rectángulo_31151" data-name="Rectángulo 31151" width="1.673" height="1.912" transform="matrix(0.917, -0.4, 0.4, 0.917, 0, 0.669)"/>
          </g>
          <g id="Grupo_61966" data-name="Grupo 61966" transform="translate(91.854 1434.886)">
            <rect id="Rectángulo_31152" data-name="Rectángulo 31152" width="3.98" height="1.673" transform="matrix(0.037, -0.999, 0.999, 0.037, 0, 3.978)"/>
          </g>
          <g id="Grupo_61967" data-name="Grupo 61967" transform="translate(89.296 1435.242)">
            <rect id="Rectángulo_31153" data-name="Rectángulo 31153" width="3.607" height="1.673" transform="translate(0 3.601) rotate(-86.5)"/>
          </g>
          <g id="Grupo_61968" data-name="Grupo 61968" transform="translate(88.804 1434.749)">
            <rect id="Rectángulo_31154" data-name="Rectángulo 31154" width="4.763" height="1.673" transform="translate(0 0)"/>
          </g>
          <g id="Grupo_61969" data-name="Grupo 61969" transform="translate(93.567 1433.214)">
            <rect id="Rectángulo_31155" data-name="Rectángulo 31155" width="3.436" height="1.673"/>
          </g>
          <g id="Grupo_61970" data-name="Grupo 61970" transform="translate(97.003 1438.058)">
            <rect id="Rectángulo_31156" data-name="Rectángulo 31156" width="3.91" height="1.673"/>
          </g>
          <g id="Grupo_61971" data-name="Grupo 61971" transform="translate(101.213 1438.935)">
            <rect id="Rectángulo_31157" data-name="Rectángulo 31157" width="2.617" height="1.673" transform="translate(0 0.549) rotate(-12.122)"/>
          </g>
          <g id="Grupo_61972" data-name="Grupo 61972" transform="translate(193.773 1437.388)" style="isolation: isolate">
            <rect id="Rectángulo_31158" data-name="Rectángulo 31158" width="12.973" height="33.983" rx="6.487" transform="translate(0.836 0.836)" fill="#969696"/>
            <path id="Trazado_130935" data-name="Trazado 130935" d="M609.693,1668.852a7.331,7.331,0,0,1-7.323-7.323V1640.52a7.323,7.323,0,1,1,14.646,0v21.009A7.331,7.331,0,0,1,609.693,1668.852Zm0-33.982a5.656,5.656,0,0,0-5.65,5.65v21.009a5.65,5.65,0,1,0,11.3,0V1640.52A5.656,5.656,0,0,0,609.693,1634.87Z" transform="translate(-602.37 -1633.197)"/>
          </g>
          <g id="Grupo_61973" data-name="Grupo 61973" transform="translate(145.928 1437.388)" style="isolation: isolate">
            <rect id="Rectángulo_31159" data-name="Rectángulo 31159" width="12.053" height="35.792" rx="6.027" transform="translate(0.837 0.836)" fill="#969696"/>
            <path id="Trazado_130936" data-name="Trazado 130936" d="M494.846,1670.661a6.871,6.871,0,0,1-6.863-6.863V1640.06a6.863,6.863,0,0,1,13.726,0V1663.8A6.871,6.871,0,0,1,494.846,1670.661Zm0-35.791a5.2,5.2,0,0,0-5.19,5.19V1663.8a5.19,5.19,0,0,0,10.38,0V1640.06A5.2,5.2,0,0,0,494.846,1634.87Z" transform="translate(-487.983 -1633.197)"/>
          </g>
          <g id="Grupo_61974" data-name="Grupo 61974" transform="translate(153.013 1427.359)" style="isolation: isolate">
            <path id="Trazado_130937" data-name="Trazado 130937" d="M506.921,1614.716v-3.5h47.247v3.864H546.3v1.288H535.72v2.91h-11.5v-1.9h-9.385v-1.748h-7.913Z" transform="translate(-506.085 -1610.383)" fill="silver"/>
            <path id="Trazado_130938" data-name="Trazado 130938" d="M535.393,1618.955H522.219v-1.9h-9.385v-1.749h-7.913v-6.09h48.92v5.538h-7.866v1.288H535.393Zm-11.5-1.673h9.828v-2.91H544.3v-1.288h7.867v-2.192H506.594v2.743h7.913v1.749h9.385Z" transform="translate(-504.921 -1609.219)"/>
          </g>
          <g id="Grupo_61975" data-name="Grupo 61975" transform="translate(221.38 1296.597)">
            <path id="Trazado_130939" data-name="Trazado 130939" d="M939.332,1478.131H668.372V1296.6h270.96Zm-269.287-1.673H937.659V1298.27H670.045Z" transform="translate(-668.372 -1296.597)"/>
          </g>
          <g id="Grupo_61976" data-name="Grupo 61976" transform="translate(225.766 1300.983)">
            <path id="Trazado_130940" data-name="Trazado 130940" d="M941.63,1480.953H678.857v-173.87H941.63Zm-261.1-1.673H939.957V1308.756H680.53Z" transform="translate(-678.857 -1307.083)"/>
          </g>
          <g id="Grupo_61977" data-name="Grupo 61977" transform="translate(265.969 1333.036)">
            <path id="Trazado_130941" data-name="Trazado 130941" d="M782.078,1397.923a7.1,7.1,0,1,1,7.1-7.1A7.112,7.112,0,0,1,782.078,1397.923Zm0-12.536a5.432,5.432,0,1,0,5.431,5.432A5.438,5.438,0,0,0,782.078,1385.387Z" transform="translate(-774.973 -1383.714)"/>
          </g>
          <g id="Grupo_61978" data-name="Grupo 61978" transform="translate(260.121 1327.252)">
            <path id="Trazado_130942" data-name="Trazado 130942" d="M774.206,1396.311a13.213,13.213,0,1,1,13.212-13.213A13.228,13.228,0,0,1,774.206,1396.311Zm0-24.752a11.54,11.54,0,1,0,11.539,11.54A11.553,11.553,0,0,0,774.206,1371.559Z" transform="translate(-760.993 -1369.886)"/>
          </g>
          <g id="Grupo_61979" data-name="Grupo 61979" transform="translate(270.94 1311.45)">
            <rect id="Rectángulo_31160" data-name="Rectángulo 31160" width="1.673" height="60.689" transform="translate(0 0)"/>
          </g>
          <g id="Grupo_61980" data-name="Grupo 61980" transform="translate(249.701 1339.304)">
            <rect id="Rectángulo_31161" data-name="Rectángulo 31161" width="59.208" height="1.673"/>
          </g>
          <g id="Grupo_61981" data-name="Grupo 61981" transform="translate(253.311 1346.743)">
            <rect id="Rectángulo_31162" data-name="Rectángulo 31162" width="11.401" height="1.673" transform="matrix(0.816, -0.578, 0.578, 0.816, 0, 6.585)"/>
          </g>
          <g id="Grupo_61982" data-name="Grupo 61982" transform="translate(237.128 1353.32)">
            <rect id="Rectángulo_31163" data-name="Rectángulo 31163" width="16.666" height="1.673"/>
          </g>
          <g id="Grupo_61983" data-name="Grupo 61983" transform="translate(284.599 1378.835)">
            <rect id="Rectángulo_31164" data-name="Rectángulo 31164" width="1.673" height="5.101" transform="translate(0 1.665) rotate(-84.241)"/>
          </g>
          <g id="Grupo_61984" data-name="Grupo 61984" transform="translate(275.432 1352.252)">
            <rect id="Rectángulo_31165" data-name="Rectángulo 31165" width="1.673" height="29.294" transform="translate(0 0.497) rotate(-17.282)"/>
          </g>
          <g id="Grupo_61985" data-name="Grupo 61985" transform="translate(287.72 1361.992)">
            <rect id="Rectángulo_31166" data-name="Rectángulo 31166" width="1.673" height="14.601" transform="matrix(0.78, -0.626, 0.626, 0.78, 0, 1.047)"/>
          </g>
          <g id="Grupo_61986" data-name="Grupo 61986" transform="translate(297.008 1372.548)">
            <rect id="Rectángulo_31167" data-name="Rectángulo 31167" width="1.673" height="5.709" transform="translate(0 1.666) rotate(-84.72)"/>
          </g>
          <g id="Grupo_61987" data-name="Grupo 61987" transform="translate(294.923 1353.673)">
            <rect id="Rectángulo_31168" data-name="Rectángulo 31168" width="1.673" height="14.157" transform="translate(0 0.968) rotate(-35.33)"/>
          </g>
          <g id="Grupo_61988" data-name="Grupo 61988" transform="translate(289.319 1377.986)">
            <rect id="Rectángulo_31169" data-name="Rectángulo 31169" width="4.02" height="3.362" transform="translate(0 0)"/>
          </g>
          <g id="Grupo_61989" data-name="Grupo 61989" transform="translate(295.496 1377.986)">
            <rect id="Rectángulo_31170" data-name="Rectángulo 31170" width="4.02" height="3.362" transform="translate(0 0)"/>
          </g>
          <g id="Grupo_61990" data-name="Grupo 61990" transform="translate(301.892 1371.7)">
            <rect id="Rectángulo_31171" data-name="Rectángulo 31171" width="4.02" height="3.362"/>
          </g>
          <g id="Grupo_61991" data-name="Grupo 61991" transform="translate(243.999 1352.475)">
            <rect id="Rectángulo_31172" data-name="Rectángulo 31172" width="4.02" height="3.362" transform="translate(0 0)"/>
          </g>
          <g id="Grupo_61992" data-name="Grupo 61992" transform="translate(246.01 1335.825)">
            <rect id="Rectángulo_31173" data-name="Rectángulo 31173" width="4.02" height="3.362" transform="translate(0 0)"/>
          </g>
          <g id="Grupo_61993" data-name="Grupo 61993" transform="translate(246.01 1340.113)">
            <rect id="Rectángulo_31174" data-name="Rectángulo 31174" width="4.02" height="3.362" transform="translate(0 0)"/>
          </g>
          <g id="Grupo_61994" data-name="Grupo 61994" transform="translate(237.762 1352.475)">
            <rect id="Rectángulo_31175" data-name="Rectángulo 31175" width="4.02" height="3.362" transform="translate(0 0)"/>
          </g>
          <g id="Grupo_61995" data-name="Grupo 61995" transform="translate(308.068 1371.7)">
            <rect id="Rectángulo_31176" data-name="Rectángulo 31176" width="4.02" height="3.362"/>
          </g>
          <g id="Grupo_61996" data-name="Grupo 61996" transform="translate(259.252 1331.253)">
            <path id="Trazado_130943" data-name="Trazado 130943" d="M779.829,1414.985H758.915v-1.673h20.6l4.148-1.591a18.112,18.112,0,0,0,10.882-22.221h-3.631l-1.159-9.853,1.661-.2.985,8.375h3.353l.192.568a19.783,19.783,0,0,1-11.685,24.888Z" transform="translate(-758.915 -1379.452)"/>
          </g>
          <g id="Grupo_61997" data-name="Grupo 61997" transform="translate(271.776 1339.49)">
            <path id="Trazado_130944" data-name="Trazado 130944" d="M795.775,1420.423h-6.918v-1.673h6.616l1.584-.59a17.416,17.416,0,0,0,11.1-18.77l1.655-.244a19.1,19.1,0,0,1-12.166,20.582Z" transform="translate(-788.857 -1399.145)"/>
          </g>
          <g id="Grupo_61998" data-name="Grupo 61998" transform="translate(391.549 1400.102)">
            <path id="Trazado_130945" data-name="Trazado 130945" d="M1083.75,1590.754h-8.544v-46.7h8.544Zm-6.871-1.673h5.2v-43.354h-5.2Z" transform="translate(-1075.206 -1544.053)"/>
          </g>
          <g id="Grupo_61999" data-name="Grupo 61999" transform="translate(380.73 1415.16)">
            <path id="Trazado_130946" data-name="Trazado 130946" d="M1061.833,1611.7h-12.492v-31.643h12.492Zm-10.819-1.673h9.146v-28.3h-9.146Z" transform="translate(-1049.341 -1580.053)"/>
          </g>
          <g id="Grupo_62000" data-name="Grupo 62000" transform="translate(380.73 1445.129)">
            <path id="Trazado_130947" data-name="Trazado 130947" d="M1081.861,1664.634h-32.52V1651.7h32.52Zm-30.847-1.673h29.174v-9.583h-29.174Z" transform="translate(-1049.341 -1651.704)"/>
          </g>
          <g id="Grupo_62001" data-name="Grupo 62001" transform="translate(398.419 1437.673)">
            <path id="Trazado_130948" data-name="Trazado 130948" d="M1122.69,1642.277h-31.058v-8.4h31.058Zm-29.385-1.673h27.712v-5.052h-27.712Z" transform="translate(-1091.632 -1633.879)"/>
          </g>
          <g id="Grupo_62002" data-name="Grupo 62002" transform="translate(377.222 1404.195)">
            <path id="Trazado_130949" data-name="Trazado 130949" d="M1056.077,1559.022h-15.123v-5.182h15.123Zm-13.45-1.673H1054.4v-1.835h-11.777Z" transform="translate(-1040.954 -1553.84)"/>
          </g>
          <g id="Grupo_62003" data-name="Grupo 62003" transform="translate(394.18 1371.74)">
            <path id="Trazado_130950" data-name="Trazado 130950" d="M1085.143,1506.282H1081.5v-30.034h3.646Zm-1.973-1.673h.3v-26.688h-.3Z" transform="translate(-1081.497 -1476.248)"/>
          </g>
          <g id="Grupo_62004" data-name="Grupo 62004" transform="translate(392.385 1387.081)">
            <rect id="Rectángulo_31177" data-name="Rectángulo 31177" width="6.14" height="1.673" transform="translate(0 0)"/>
          </g>
          <g id="Grupo_62005" data-name="Grupo 62005" transform="translate(394.286 1382.559)">
            <rect id="Rectángulo_31178" data-name="Rectángulo 31178" width="4.24" height="1.673" transform="translate(0 0)"/>
          </g>
          <g id="Grupo_62006" data-name="Grupo 62006" transform="translate(399.229 1400.105)">
            <rect id="Rectángulo_31179" data-name="Rectángulo 31179" width="27.06" height="1.673" transform="translate(0 0.872) rotate(-1.847)"/>
          </g>
          <g id="Grupo_62007" data-name="Grupo 62007" transform="translate(385.408 1405.616)">
            <rect id="Rectángulo_31180" data-name="Rectángulo 31180" width="1.673" height="2.924" transform="translate(0 0)"/>
          </g>
          <g id="Grupo_62008" data-name="Grupo 62008" transform="translate(378.98 1405.533)">
            <rect id="Rectángulo_31181" data-name="Rectángulo 31181" width="1.673" height="2.938" transform="matrix(0.995, -0.1, 0.1, 0.995, 0, 0.167)"/>
          </g>
          <g id="Grupo_62009" data-name="Grupo 62009" transform="translate(375.557 1405.949)">
            <rect id="Rectángulo_31182" data-name="Rectángulo 31182" width="1.673" height="15.938" transform="translate(0 1.673) rotate(-88.949)"/>
          </g>
          <g id="Grupo_62010" data-name="Grupo 62010" transform="translate(394.18 1401.661)">
            <rect id="Rectángulo_31183" data-name="Rectángulo 31183" width="1.673" height="43.567" transform="translate(0 0.017) rotate(-0.577)"/>
          </g>
          <g id="Grupo_62011" data-name="Grupo 62011" transform="translate(396.154 1400.926)">
            <rect id="Rectángulo_31184" data-name="Rectángulo 31184" width="1.673" height="44.301" transform="translate(0 0.025) rotate(-0.851)"/>
          </g>
          <g id="Grupo_62012" data-name="Grupo 62012" transform="translate(392.37 1439.867)">
            <rect id="Rectángulo_31185" data-name="Rectángulo 31185" width="8.188" height="1.673" transform="translate(0 0.144) rotate(-1.007)"/>
          </g>
          <g id="Grupo_62013" data-name="Grupo 62013" transform="translate(392.385 1435.48)">
            <rect id="Rectángulo_31186" data-name="Rectángulo 31186" width="6.14" height="1.673" transform="translate(0 0)"/>
          </g>
          <g id="Grupo_62014" data-name="Grupo 62014" transform="translate(393.116 1430.144)">
            <rect id="Rectángulo_31187" data-name="Rectángulo 31187" width="7.895" height="1.673" transform="translate(0 0)"/>
          </g>
          <g id="Grupo_62015" data-name="Grupo 62015" transform="translate(393.116 1422.25)">
            <rect id="Rectángulo_31188" data-name="Rectángulo 31188" width="7.895" height="1.673"/>
          </g>
          <g id="Grupo_62016" data-name="Grupo 62016" transform="translate(392.332 1416.477)">
            <rect id="Rectángulo_31189" data-name="Rectángulo 31189" width="1.673" height="6.885" transform="matrix(0.064, -0.998, 0.998, 0.064, 0, 1.67)"/>
          </g>
          <g id="Grupo_62017" data-name="Grupo 62017" transform="translate(393.096 1411.066)">
            <rect id="Rectángulo_31190" data-name="Rectángulo 31190" width="6.142" height="1.673" transform="translate(0 0.147) rotate(-1.371)"/>
          </g>
          <g id="Grupo_62018" data-name="Grupo 62018" transform="translate(393.116 1407.704)">
            <rect id="Rectángulo_31191" data-name="Rectángulo 31191" width="6.725" height="1.673"/>
          </g>
          <g id="Grupo_62019" data-name="Grupo 62019" transform="translate(393.116 1403.61)">
            <rect id="Rectángulo_31192" data-name="Rectángulo 31192" width="7.895" height="1.673" transform="translate(0 0)"/>
          </g>
          <g id="Grupo_62020" data-name="Grupo 62020" transform="translate(382.704 1417.531)">
            <rect id="Rectángulo_31193" data-name="Rectángulo 31193" width="1.673" height="28.434" transform="translate(0 0)"/>
          </g>
          <g id="Grupo_62021" data-name="Grupo 62021" transform="translate(381.567 1447.907)">
            <rect id="Rectángulo_31194" data-name="Rectángulo 31194" width="30.116" height="1.673"/>
          </g>
          <g id="Grupo_62022" data-name="Grupo 62022" transform="translate(381.567 1451.269)">
            <rect id="Rectángulo_31195" data-name="Rectángulo 31195" width="30.116" height="1.673" transform="translate(0 0)"/>
          </g>
          <g id="Grupo_62023" data-name="Grupo 62023" transform="translate(381.567 1453.901)">
            <rect id="Rectángulo_31196" data-name="Rectángulo 31196" width="30.116" height="1.673" transform="translate(0 0)"/>
          </g>
          <g id="Grupo_62024" data-name="Grupo 62024" transform="translate(406.46 1446.697)">
            <rect id="Rectángulo_31197" data-name="Rectángulo 31197" width="1.673" height="11.153"/>
          </g>
          <g id="Grupo_62025" data-name="Grupo 62025" transform="translate(401.343 1445.966)">
            <rect id="Rectángulo_31198" data-name="Rectángulo 31198" width="1.673" height="11.257" transform="translate(0 0)"/>
          </g>
          <g id="Grupo_62026" data-name="Grupo 62026" transform="translate(396.482 1445.966)">
            <rect id="Rectángulo_31199" data-name="Rectángulo 31199" width="1.673" height="11.884" transform="translate(0 0)"/>
          </g>
          <g id="Grupo_62027" data-name="Grupo 62027" transform="translate(390.672 1446.697)">
            <rect id="Rectángulo_31200" data-name="Rectángulo 31200" width="1.673" height="9.356"/>
          </g>
          <g id="Grupo_62028" data-name="Grupo 62028" transform="translate(385.408 1446.697)">
            <rect id="Rectángulo_31201" data-name="Rectángulo 31201" width="1.673" height="10.525"/>
          </g>
          <g id="Grupo_62029" data-name="Grupo 62029" transform="translate(400.572 1439.866)">
            <rect id="Rectángulo_31202" data-name="Rectángulo 31202" width="27.046" height="1.673" transform="translate(0 0)"/>
          </g>
          <g id="Grupo_62030" data-name="Grupo 62030" transform="translate(422.541 1438.51)">
            <rect id="Rectángulo_31203" data-name="Rectángulo 31203" width="1.673" height="3.363"/>
          </g>
          <g id="Grupo_62031" data-name="Grupo 62031" transform="translate(418.156 1438.51)">
            <rect id="Rectángulo_31204" data-name="Rectángulo 31204" width="1.673" height="2.193"/>
          </g>
          <g id="Grupo_62032" data-name="Grupo 62032" transform="translate(415.378 1439.606)">
            <rect id="Rectángulo_31205" data-name="Rectángulo 31205" width="1.673" height="2.363" transform="translate(0 0)"/>
          </g>
          <g id="Grupo_62033" data-name="Grupo 62033" transform="translate(411.577 1440.191)">
            <rect id="Rectángulo_31206" data-name="Rectángulo 31206" width="1.673" height="2.412" transform="translate(0 0)"/>
          </g>
          <g id="Grupo_62034" data-name="Grupo 62034" transform="translate(408.653 1439.606)">
            <rect id="Rectángulo_31207" data-name="Rectángulo 31207" width="1.673" height="2.266" transform="translate(0 0)"/>
          </g>
          <g id="Grupo_62035" data-name="Grupo 62035" transform="translate(403.39 1439.606)">
            <rect id="Rectángulo_31208" data-name="Rectángulo 31208" width="1.673" height="2.266" transform="translate(0 0)"/>
          </g>
          <g id="Grupo_62036" data-name="Grupo 62036" transform="translate(384.823 1438.77)">
            <path id="Trazado_130951" data-name="Trazado 130951" d="M1062.193,1642.632a3.066,3.066,0,1,1,3.066-3.066A3.07,3.07,0,0,1,1062.193,1642.632Zm0-4.459a1.393,1.393,0,1,0,1.393,1.393A1.395,1.395,0,0,0,1062.193,1638.173Z" transform="translate(-1059.127 -1636.5)"/>
          </g>
          <g id="Grupo_62037" data-name="Grupo 62037" transform="translate(453.973 1302.25)">
            <path id="Trazado_130952" data-name="Trazado 130952" d="M1255.067,1482.715h-30.619v-172.6h30.619Zm-28.946-1.673h27.273V1311.785h-27.273Z" transform="translate(-1224.448 -1310.112)"/>
          </g>
          <g id="Grupo_62038" data-name="Grupo 62038" transform="translate(454.509 1468.812)">
            <path id="Trazado_130953" data-name="Trazado 130953" d="M1255.813,1713.8H1225.73v-5.474h30.083Zm-28.41-1.673h26.737V1710H1227.4Z" transform="translate(-1225.73 -1708.325)"/>
          </g>
          <g id="Grupo_62039" data-name="Grupo 62039" transform="translate(453.973 1455.216)">
            <path id="Trazado_130954" data-name="Trazado 130954" d="M1255.067,1690.7h-30.619V1675.82h30.619Zm-28.946-1.673h27.273v-11.533h-27.273Z" transform="translate(-1224.448 -1675.82)"/>
          </g>
          <g id="Grupo_62040" data-name="Grupo 62040" transform="translate(470.785 1455.216)">
            <path id="Trazado_130955" data-name="Trazado 130955" d="M1278.011,1690.7h-13.369V1675.82h13.369Zm-11.7-1.673h10.022v-11.533h-10.022Z" transform="translate(-1264.642 -1675.82)"/>
          </g>
          <g id="Grupo_62041" data-name="Grupo 62041" transform="translate(454.509 1439.354)">
            <path id="Trazado_130956" data-name="Trazado 130956" d="M1255.375,1642.714H1225.73V1637.9h29.645Zm-27.971-1.673h26.3v-1.47h-26.3Z" transform="translate(-1225.73 -1637.898)"/>
          </g>
          <g id="Grupo_62042" data-name="Grupo 62042" transform="translate(454.704 1303.81)">
            <path id="Trazado_130957" data-name="Trazado 130957" d="M1256.084,1318.925H1226.2v-5.084h29.888Zm-28.215-1.673h26.542v-1.738h-26.542Z" transform="translate(-1226.196 -1313.841)"/>
          </g>
          <g id="Grupo_62043" data-name="Grupo 62043" transform="translate(465.579 1304.646)">
            <rect id="Rectángulo_31209" data-name="Rectángulo 31209" width="9.551" height="3.411"/>
          </g>
          <g id="Grupo_62045" data-name="Grupo 62045" transform="translate(454.809 1414.291)">
            <g id="Grupo_62044" data-name="Grupo 62044" transform="translate(0 0)">
              <path id="Trazado_130958" data-name="Trazado 130958" d="M1226.448,1577.976v10.916h28.507v-10.916Zm5.775,6.091h-3.655v-2.412h3.655Zm0-3.874h-3.655v-1.1h3.655Zm4.9,6.14h-4.02v-1.243h4.02Zm13.377,0h-3.874v-1.243h3.874Zm0-2.266h-17.4v-2.412h17.4Zm0-3.874h-17.1v-1.1h17.1Zm3.509,3.874h-2.412v-2.412h2.412Zm0-3.874h-2.412v-1.1h2.412Z" transform="translate(-1226.448 -1577.976)"/>
            </g>
          </g>
          <g id="Grupo_62046" data-name="Grupo 62046" transform="translate(455.004 1456.053)">
            <path id="Trazado_130959" data-name="Trazado 130959" d="M1243.239,1679.617h-9.454v1.37h-4.824v1.316h14.278v1.316h-10.672v.8h-3.606v2.607h14.278v1.316h-10.818v1.169h-3.7v.975h-1.8v-12.67h16.617Z" transform="translate(-1226.914 -1677.82)"/>
          </g>
          <g id="Grupo_62047" data-name="Grupo 62047" transform="translate(472.304 1456.784)">
            <path id="Trazado_130960" data-name="Trazado 130960" d="M1272.269,1681.956h-4v-2.388h10.672v1.364h-6.774Z" transform="translate(-1268.273 -1679.568)"/>
          </g>
          <g id="Grupo_62048" data-name="Grupo 62048" transform="translate(455.004 1440.191)">
            <path id="Trazado_130961" data-name="Trazado 130961" d="M1254.544,1641.676c-.146-.048-13.547,0-13.547,0v1.366h-14.083V1639.9h28.313Z" transform="translate(-1226.914 -1639.898)"/>
          </g>
        </g>
      </g>
    </g>
  </g>
</svg>
