<svg xmlns="http://www.w3.org/2000/svg" width="290" height="246" viewBox="0 0 290 246">
  <g id="Grupo_62078" data-name="Grupo 62078" transform="translate(-180 -2438)">
    <rect id="Rectángulo_5052" data-name="Rectángulo 5052" width="290" height="246" rx="8" transform="translate(180 2438)" fill="#e8e8e8"/>
    <g id="Grupo_53371" data-name="Grupo 53371" transform="translate(242.585 2479.337)">
      <g id="Grupo_53262" data-name="Grupo 53262" transform="translate(0 0)">
        <path id="Trazado_99080" data-name="Trazado 99080" d="M891.477,231.936a9.107,9.107,0,0,1,9.083,9.083c0,16.03,4.334,26.575,4.334,38.832,0,11.8-3.956,21.836-9.469,25.526v9.147l-15.045,6.57-14.926-6.57c-3.708-17.033-13.463-23.925-13.463-51.126,0-28.425,11.144-51.467,24.882-51.467a13.055,13.055,0,0,1,5.531,1.27v27.817A9.1,9.1,0,0,1,891.477,231.936Z" transform="translate(-851.991 -178.748)" fill="#ffcbbe" fill-rule="evenodd"/>
        <path id="Trazado_99081" data-name="Trazado 99081" d="M879.835,175.961h7.628a2.235,2.235,0,0,0,1.795-1.8v-7.628a9.041,9.041,0,1,1,18.082,0v7.628a2.231,2.231,0,0,0,1.8,1.8h7.628A9.072,9.072,0,0,1,925.818,185v9.432h9.423a9.041,9.041,0,1,1,0,18.082h-9.423v9.432a9.072,9.072,0,0,1-9.045,9.037H879.835a9.066,9.066,0,0,1-9.045-9.037V185a9.065,9.065,0,0,1,9.045-9.036Z" transform="translate(-859.333 -157.483)" fill="#ccf49f" fill-rule="evenodd"/>
        <path id="Trazado_99082" data-name="Trazado 99082" d="M910.967,244.756a9.108,9.108,0,0,1,9.083,9.083c0,16.03,4.334,26.575,4.334,38.832,0,11.8-3.956,21.836-9.469,25.526v9.146H901.894v-73.5a9.1,9.1,0,0,1,9.073-9.083Z" transform="translate(-871.481 -191.568)" fill="#ffcbbe" fill-rule="evenodd"/>
        <path id="Trazado_99083" data-name="Trazado 99083" d="M1051.323,231.936a9.107,9.107,0,0,0-9.082,9.083c0,16.03-4.334,26.575-4.334,38.832,0,11.8,3.956,21.836,9.468,25.526v9.147l15.662,6.819,14.31-6.819c3.708-17.033,13.463-23.925,13.463-51.126,0-28.425-11.135-51.467-24.873-51.467a13,13,0,0,0-5.531,1.27v27.817A9.107,9.107,0,0,0,1051.323,231.936Z" transform="translate(-924.602 -178.748)" fill="#ffcbbe" fill-rule="evenodd"/>
        <path id="Trazado_99084" data-name="Trazado 99084" d="M1057.224,175.961H1049.6a2.222,2.222,0,0,1-1.794-1.8v-7.628a9.046,9.046,0,1,0-18.091,0v7.628a2.221,2.221,0,0,1-1.794,1.8h-7.628a9.066,9.066,0,0,0-9.045,9.036v7.638a2.234,2.234,0,0,0,1.794,1.794h7.637a9.041,9.041,0,0,1,0,18.082h-7.637a2.232,2.232,0,0,0-1.794,1.794v7.638a9.066,9.066,0,0,0,9.045,9.037h36.937a9.067,9.067,0,0,0,9.046-9.037V185a9.067,9.067,0,0,0-9.047-9.036Z" transform="translate(-914.188 -157.483)" fill="#ff6978" fill-rule="evenodd"/>
        <path id="Trazado_99085" data-name="Trazado 99085" d="M1051.323,244.756a9.107,9.107,0,0,0-9.082,9.083c0,16.03-4.334,26.575-4.334,38.832,0,10.094,2.917,18.863,7.177,23.539a7.268,7.268,0,0,1,2.291,5.834v5.3h13.03v-73.5a9.107,9.107,0,0,0-9.082-9.083Z" transform="translate(-924.602 -191.568)" fill="#ffcbbe" fill-rule="evenodd"/>
        <path id="Trazado_99086" data-name="Trazado 99086" d="M907.211,407.082V389.046a8.8,8.8,0,0,0-8.779-8.778h-29.97a8.8,8.8,0,0,0-8.77,8.778v18.036a3.142,3.142,0,0,0,2.678,2.678h42.164A3.153,3.153,0,0,0,907.211,407.082Z" transform="translate(-854.999 -244.493)" fill="#a5cdff" fill-rule="evenodd"/>
        <path id="Trazado_99087" data-name="Trazado 99087" d="M1039.039,407.082V389.046a8.806,8.806,0,0,1,8.779-8.778h29.971a8.8,8.8,0,0,1,8.778,8.778v18.036a3.153,3.153,0,0,1-2.678,2.678h-42.173A3.153,3.153,0,0,1,1039.039,407.082Z" transform="translate(-925.044 -244.493)" fill="#a5cdff" fill-rule="evenodd"/>
      </g>
      <path id="Trazado_99088" data-name="Trazado 99088" d="M898.775,294.109a2.434,2.434,0,1,1-4.868,0v-16.03h4.868v16.03Z" transform="translate(-868.362 -204.583)" fill="#f0b6a6"/>
      <path id="Trazado_99089" data-name="Trazado 99089" d="M1079.691,294.109a2.434,2.434,0,1,1-4.868,0v-16.03h4.868Z" transform="translate(-939.02 -204.583)" fill="#f0b6a6"/>
      <path id="Trazado_99090" data-name="Trazado 99090" d="M919.937,287.486c0,10.15-2.926,18.993-7.251,23.612-2.485,2.66-2.218,6.184-2.209,7.546v8.7h7.785v-5.088c0-4.058,1.15-3.645,4.389-8.825,3.1-4.96,5.08-12.423,5.08-20.759,0-12.257-4.334-22.8-4.334-38.832a9.1,9.1,0,0,0-8.659-9.073,9.121,9.121,0,0,1,.874,3.874c0,16.029,4.325,26.584,4.325,38.841Z" transform="translate(-874.828 -191.574)" fill="#f0b6a6" fill-rule="evenodd"/>
      <path id="Trazado_99091" data-name="Trazado 99091" d="M929.561,193.113v28.829a9.072,9.072,0,0,1-9.045,9.037h8.116a9.072,9.072,0,0,0,9.045-9.037v-9.432H947.1a9.041,9.041,0,1,0,0-18.082h-9.423V185a9.071,9.071,0,0,0-9.045-9.036H921a2.232,2.232,0,0,1-1.8-1.8v-7.628a9.044,9.044,0,0,0-18.046-.884c.294-.027.589-.046.893-.046a9.074,9.074,0,0,1,9.045,9.046v7.628a2.212,2.212,0,0,0,1.794,1.8h7.628a9.073,9.073,0,0,1,9.046,9.037Z" transform="translate(-871.192 -157.483)" fill="#b3e59f" fill-rule="evenodd"/>
      <path id="Trazado_99092" data-name="Trazado 99092" d="M1070.018,193.113v28.829a9.078,9.078,0,0,1-8.162,9v.037h7.232a9.066,9.066,0,0,0,9.046-9.036V185a9.066,9.066,0,0,0-9.046-9.036h-7.628a2.221,2.221,0,0,1-1.794-1.8v-7.628a9.044,9.044,0,0,0-18.046-.884c.285-.027.589-.046.884-.046a9.068,9.068,0,0,1,9.045,9.046v7.628a2.222,2.222,0,0,0,1.794,1.8h7.629a9.089,9.089,0,0,1,8.769,6.81,8.981,8.981,0,0,1,.267,1.8c.009.138.009.285.009.424Z" transform="translate(-926.052 -157.483)" fill="#e85a68" fill-rule="evenodd"/>
      <path id="Trazado_99093" data-name="Trazado 99093" d="M1102.766,266.623c0,27.2-9.754,34.093-13.463,51.126h8.116c3.708-17.033,13.463-23.925,13.463-51.126,0-20.456-5.77-38.133-14.125-46.433v12.882c3.745,9.009,6.009,20.732,6.009,33.55Z" transform="translate(-944.675 -181.974)" fill="#f0b6a6" fill-rule="evenodd"/>
      <path id="Trazado_99094" data-name="Trazado 99094" d="M1098.082,389.046v18.036a3.153,3.153,0,0,1-2.678,2.678h8.116a3.152,3.152,0,0,0,2.678-2.678V389.046a8.8,8.8,0,0,0-8.778-8.778H1089.3a8.8,8.8,0,0,1,8.779,8.778Z" transform="translate(-944.675 -244.493)" fill="#8abfff" fill-rule="evenodd"/>
      <path id="Trazado_99095" data-name="Trazado 99095" d="M918.72,389.046v18.036a3.152,3.152,0,0,1-2.678,2.678h8.117a3.153,3.153,0,0,0,2.678-2.678V389.046a8.8,8.8,0,0,0-8.779-8.778h-8.116a8.8,8.8,0,0,1,8.778,8.778Z" transform="translate(-874.624 -244.493)" fill="#8abfff" fill-rule="evenodd"/>
    </g>
  </g>
</svg>
