<svg xmlns="http://www.w3.org/2000/svg" width="144.578" height="142.908" viewBox="0 0 144.578 142.908">
  <g id="Grupo_59530" data-name="Grupo 59530" transform="translate(98.631 615.494)">
    <g id="Grupo_59531" data-name="Grupo 59531" transform="translate(7.952 -572.894)">
      <g id="Grupo_59530-2" data-name="Grupo 59530">
        <path id="Trazado_124888" data-name="Trazado 124888" d="M10.634-581.8-2.1-559.754-14.832-581.8Z" transform="translate(14.832 581.805)"/>
      </g>
    </g>
    <g id="Grupo_59532" data-name="Grupo 59532" transform="translate(-70.5 -545.263)">
      <path id="Trazado_124889" data-name="Trazado 124889" d="M-39.935-487.487a36.38,36.38,0,0,1-36.339-36.339,36.38,36.38,0,0,1,36.339-36.339A36.38,36.38,0,0,1-3.6-523.826,36.38,36.38,0,0,1-39.935-487.487Zm0-68.847a32.545,32.545,0,0,0-32.508,32.508,32.546,32.546,0,0,0,32.508,32.508A32.545,32.545,0,0,0-7.427-523.826,32.545,32.545,0,0,0-39.935-556.334Z" transform="translate(76.274 560.165)" fill="#d32f2f"/>
    </g>
    <circle id="Elipse_4594" data-name="Elipse 4594" cx="34.423" cy="34.423" r="34.423" transform="translate(-97.131 -613.994)" fill="none" stroke="#000" stroke-miterlimit="10" stroke-width="3"/>
    <g id="Grupo_59533" data-name="Grupo 59533" transform="translate(-7.719 -545.263)">
      <path id="Trazado_124890" data-name="Trazado 124890" d="M-9.777-560.165a36,36,0,0,0-16.847,4.194c.724.709,1.431,1.435,2.111,2.2.2.23.4.47.6.7a32.248,32.248,0,0,1,14.136-3.261A32.544,32.544,0,0,1,22.73-523.826,32.545,32.545,0,0,1-9.777-491.318,32.258,32.258,0,0,1-24.7-494.975c-.78,1.037-1.587,2.054-2.407,3.061a36.082,36.082,0,0,0,17.328,4.427,36.379,36.379,0,0,0,36.338-36.339A36.379,36.379,0,0,0-9.777-560.165Z" transform="translate(27.105 560.165)" fill="#d32f2f"/>
    </g>
    <path id="Trazado_124891" data-name="Trazado 124891" d="M-40.494-591.519h45.5v30.347" transform="translate(15.68 6.222)" fill="none" stroke="#000" stroke-miterlimit="10" stroke-width="3"/>
  </g>
</svg>
