<svg xmlns="http://www.w3.org/2000/svg" width="463.697" height="242.944" viewBox="0 0 463.697 242.944">
  <g id="Grupo_62093" data-name="Grupo 62093" transform="translate(-293.32 -1850.078)">
    <g id="Grupo_62066" data-name="Grupo 62066">
      <g id="Grupo_60038" data-name="Grupo 60038" transform="translate(-316.196 255.596)">
        <g id="Grupo_60037" data-name="Grupo 60037" transform="translate(611 1595)">
          <path id="Trazado_125528" data-name="Trazado 125528" d="M941.594,763.43l-81.348,48.931,245.88,32.417,70.339-51.378Z" transform="translate(-860.246 -763.43)" fill="#bbb" stroke="#000" stroke-miterlimit="10" stroke-width="1" opacity="0.41"/>
          <path id="Trazado_125529" data-name="Trazado 125529" d="M941.594,794.42l-81.348,48.931,245.88,32.417,70.339-51.378Z" transform="translate(-860.246 -753.746)" fill="#bbb" stroke="#000" stroke-miterlimit="10" stroke-width="1" opacity="0.41"/>
          <path id="Trazado_125530" data-name="Trazado 125530" d="M941.594,825.41l-81.348,48.932,245.88,32.417,70.339-51.378Z" transform="translate(-860.246 -744.062)" fill="#bbb" stroke="#000" stroke-miterlimit="10" stroke-width="1" opacity="0.41"/>
          <path id="Trazado_125531" data-name="Trazado 125531" d="M941.594,854.769,860.246,903.7l245.88,32.417,70.339-51.378Z" transform="translate(-860.246 -734.887)" fill="#bbb" stroke="#000" stroke-miterlimit="10" stroke-width="1" opacity="0.41"/>
          <path id="Trazado_125532" data-name="Trazado 125532" d="M941.594,885.76l-81.348,48.931,245.88,32.417,70.339-51.378Z" transform="translate(-860.246 -725.203)" fill="#bbb" stroke="#000" stroke-miterlimit="10" stroke-width="1" opacity="0.41"/>
          <text id="Armarios" transform="translate(342.214 29.575)" fill="#12263f" font-size="18" font-family="Roboto-Black, Roboto" font-weight="800"><tspan x="0" y="0">Armarios</tspan></text>
          <text id="Accesorios" transform="translate(342.214 70.861)" fill="#12263f" font-size="18" font-family="Roboto-Black, Roboto" font-weight="800"><tspan x="0" y="0">Accesorios</tspan></text>
          <text id="Electricidad" transform="translate(342.214 118.569)" fill="#12263f" font-size="18" font-family="Roboto-Black, Roboto" font-weight="800"><tspan x="0" y="0">Electricidad</tspan></text>
          <text id="Puerta" transform="translate(342.214 161.385)" fill="#12263f" font-size="18" font-family="Roboto-Black, Roboto" font-weight="800"><tspan x="0" y="0">Puerta</tspan></text>
          <text id="Plano_de_suelo" data-name="Plano de suelo" transform="translate(342.214 210.622)" fill="#12263f" font-size="18" font-family="Roboto-Black, Roboto" font-weight="800"><tspan x="0" y="0">Plano de suelo</tspan></text>
        </g>
      </g>
    </g>
  </g>
</svg>
